<?xml version="1.0" encoding="utf-8"?>
<!-- Generator: Adobe Illustrator 19.2.1, SVG Export Plug-In . SVG Version: 6.00 Build 0)  -->
<svg version="1.1" xmlns="http://www.w3.org/2000/svg" xmlns:xlink="http://www.w3.org/1999/xlink" x="0px" y="0px"
	 viewBox="0 0 1584 1584" style="enable-background:new 0 0 1584 1584;" xml:space="preserve">
<style type="text/css">
	.Drop_x0020_Shadow{fill:none;}
	.Round_x0020_Corners_x0020_2_x0020_pt{fill:#FFFFFF;stroke:#000000;stroke-miterlimit:10;}
	.Live_x0020_Reflect_x0020_X{fill:none;}
	.Bevel_x0020_Soft{fill:url(#SVGID_1_);}
	.Dusk{fill:#FFFFFF;}
	.Foliage_GS{fill:#FFDD00;}
	.Pompadour_GS{fill-rule:evenodd;clip-rule:evenodd;fill:#44ADE2;}
</style>
<linearGradient id="SVGID_1_" gradientUnits="userSpaceOnUse" x1="-72" y1="-2952" x2="-71.2929" y2="-2951.293">
	<stop  offset="0" style="stop-color:#DEDFE3"/>
	<stop  offset="0.1738" style="stop-color:#D8D9DD"/>
	<stop  offset="0.352" style="stop-color:#C9CACD"/>
	<stop  offset="0.5323" style="stop-color:#B4B5B8"/>
	<stop  offset="0.7139" style="stop-color:#989A9C"/>
	<stop  offset="0.8949" style="stop-color:#797C7E"/>
	<stop  offset="1" style="stop-color:#656B6C"/>
</linearGradient>
<g id="Layer_1">
	<polygon class="fillOne" points="588.7,363.5 566.7,469.2 540.6,363.5 501.2,363.5 475,469.2 452.7,363.5 394.2,363.5 443.7,536.3 
		498.6,536.3 520.9,438.3 543.1,536.3 598.1,536.3 647.6,363.5 	"/>
	<path class="fillOne" d="M650.7,450c0,53.1,41.2,89.4,94.6,89.4c53.4,0,94.6-36.3,94.6-89.4c0-53.1-41.2-89.4-94.6-89.4
		C691.9,360.6,650.7,396.9,650.7,450z M786.7,450c0,24.1-16.3,43.3-41.5,43.3s-41.5-19.2-41.5-43.3c0-24.1,16.3-43.3,41.5-43.3
		S786.7,425.9,786.7,450z"/>
	<path class="fillOne" d="M865.2,536.3h52.3v-54.4h18.9l23.8,54.4h59.6l-31.4-61.1c13.7-6.7,31.1-22.5,31.1-52.3
		c0-32.4-21.8-59.3-62.2-59.3h-92.2V536.3z M917.5,409.1h31.9c8.8,0,17.1,4.1,17.1,13.5c0,9.6-8.3,13.7-17.1,13.7h-31.9V409.1z"/>
	<polygon class="fillOne" points="1148.2,363.5 1102.8,428.2 1102.8,363.5 1050.5,363.5 1050.5,536.3 1102.8,536.3 1102.8,488.3 
		1112.4,475.4 1151.3,536.3 1215,536.3 1146.9,443.8 1212.2,363.5 	"/>
	<polygon class="fillOne" points="601,763 601,590.2 548.6,590.2 548.6,651.3 486.7,651.3 486.7,590.2 434.4,590.2 434.4,763 
		486.7,763 486.7,696.9 548.6,696.9 548.6,763 	"/>
	<path class="fillOne" d="M1006.7,649.5c0-32.4-21.8-59.3-62.2-59.3h-92.2V763h52.3v-54.4h18.9l23.8,54.4h59.6l-31.4-61.1
		C989.3,695.1,1006.7,679.3,1006.7,649.5z M936.5,663h-31.9v-27.2h31.9c8.8,0,17.1,4.1,17.1,13.5C953.6,658.8,945.3,663,936.5,663z"
		/>
	<path class="fillOne" d="M1255.1,987.2c-8.4,12.4-25.5,29.1-72.2,12c-12.6-4.6-24.8-11.6-35.7-19.3c1.2-7.7,1.8-14,2.1-18.6
		c1.2-21.2-8.1-46.9-39-12.9c-8.7-8.8-13.8-15.1-13.8-15.1c59.8-182.2,10.7-157.8,6.3-153.7c-4.4,4.1-4.8,13.4-4.8,13.4
		s-53.5,52.8-56.7,49.8c-3.2-3,5-32.4,12-56.3c3-10.4,4.8-18,5.3-23.5h66.5c54.2,0,94.6-31.4,94.6-86.5c0-55.2-40.4-86.3-94.8-86.3
		h-77.2v158.1c-6.2,0.7-15.8,6.4-31.4,25.3c-65.9,80.2-123.2,127.6-123.2,127.6c12.2-49.2,7-52-3.1-54.4
		c-10.1-2.4-14.2,3.2-22.5,14.2c-8.3,11-50.7,56.6-50.7,56.6c5.6-36.4,32.9-80.2,45.9-84c13-3.8,24.2-16.4,13.7-20.1
		c-41-14.7-61.8,30.3-79.5,56.7c-17.8,26.4-75.5,153.1-114.5,156.8c-16.9,1.6-17-31.3-11.8-89s26-117.4,26-117.4
		s38.9-40.2,61.5-76.7l5.9,19.2h59.3l-63.7-172.8h-65.8L630,763h53c-12.2,32.1-23.5,64.6-23.5,64.6l-64.2,43
		c7.9-49.1,4-57.4-10.2-67.5c-27-19.2-66.8,23.5-66.8,23.5s-1.5-8.5-1.5-24.4c0-44.4-14.9-40.7-30.2-22.2
		C334.2,964.6,279.3,933.5,279.3,933.5s-3.8,5.6,1.6,6.8c72.1,15.9,208.9-146.7,208.9-146.7l0.2,73.2
		c-19.6,29.7-49,118.6-50.2,179.9c-21.1-7.3-34.1-23.6-36.2-32.9c-2.9-13.5-9.4-4.5-8.8,2.1c0.5,4.7,16.4,31.6,45,41.5
		c1,25.4,7.9,44.4,23.9,49.7c19.2,6.4,32-18.3,40.4-54.7c15.1-4.1,29.8-8.6,37.7-12.8c0.7,21.9-5.4,112.6-4.7,146.4
		c0.7,36,6.8,37,21.9,36.9c15-0.1,17.8-20.8,21-33.9c3.1-13.1,13.3-65.7,37.8-82.3c24.5-16.6,18-0.8,15.9,8.6
		c-2.2,9.4-11.4,97.3,23.5,107.5c34.8,10.2,70.5-100.5,70.5-100.5s-1.3,22.6,16.1,24.3c17.4,1.6,34-32.8,34-32.8s5.5,36.2,28.3,39.1
		c41.9,5.3,92.3-83.9,95-96c0,0,13.5-1.3,12.9,1.4c-27.1,126.3,17.4,125.3,36.5,124.1c19-1.2,32.4-29.7,32.4-29.7
		s1.9,30.9,22.9,37.8c21,6.9,58.6-47.5,58.6-47.5s5.1,52.4,28,58.8c21.5,6.1,76.5-28.6,88.2-43.8s3.1-20.5-3-12.5
		c-30.5,39.9-69.5,46.2-75.6,42.3c-12.4-7.8-2.5-82.4-2.5-82.4c26.9-44.6,39.6-84.9,45.4-113c7.5,4.5,15.9,9,25.3,13.6
		c60.5,29.2,91.6-7.8,94.8-14C1268.2,985.6,1263.5,974.8,1255.1,987.2z M1100,635.8h25.1c28,0,41.5,17.4,41.5,40.7
		c0,21.8-15.5,40.9-41.7,40.9H1100V635.8z M751.5,701.5c22.5,10.2-39.6,90.7-51,98.7C700.5,800.3,723.4,688.8,751.5,701.5z
		 M726.6,641.5l13.5,43.9c-18.8,5.1-34.5,26.3-45.3,48.8C709.1,695.1,726.6,641.5,726.6,641.5z M469.6,1093
		c-6.4-0.6-10.4-12.9-11.7-32c6.9,0.4,14.3-0.3,22.2-2.3c0.6-0.2,1.3-0.3,1.9-0.5C479.1,1079.2,475.1,1093.5,469.6,1093z
		 M483.5,1047.5c-3.9,0.9-7.7,1.6-11.1,2.1c-5.2,0.7-10.2,0.9-14.9,0.6c-0.7-42.6,9.5-108.6,33.4-158.2
		C490.9,892,490.4,988.2,483.5,1047.5z M870.2,1035.5c6.8-12.1,22.9,3,22.5,11.7C892.7,1047.2,863.2,1048,870.2,1035.5z
		 M1063.6,1128.1c-7.6,9.9-37,47.9-46.2,44.5c-9.2-3.4-11.4-16-4.7-31.2c6.7-15.3,32.3-39,37.3-36.6c5,2.5,6.5,0.8,9-4.4
		c2.5-5.1,1.7-23-14.5-18.1c-28.1,8.4-79.5,86.2-95.6,87.8c-16.1,1.6-29-19.3-23.8-45.9c5.2-26.6,13.7-54.4,5.9-70.9
		c-7.8-16.6-18.3-9.2-28.5-8.3c-1.9-9.7-5.9-19.9-15.6-23.9c-9.7-4-31.2,6.7-29.3,21.2c1.9,14.5,32.2,15.5,32.2,15.5
		c-21.1,41.8-67.7,79.6-72.5,79.2c-4.8-0.3-12.4-35.6-14.7-53.8c-2.3-18.1-14.6-11.3-17.4-1.6c-2.9,9.7-25.8,40.8-25.8,40.8
		c0.3-53.7,15.5-65.4,19.7-66.7c4.2-1.3,9.8-11.9,0.7-13c-9.1-1.1-33.4-3.8-53.1,59.3c-19.8,63-51.5,104.2-58.1,102
		c-6.6-2.2-7.9-68.5-5.2-95c2.7-26.6-12.9-28.5-42.5-17.9c-29.6,10.6-53.4,99.6-55.5,99c-2-0.6,4.5-145.7,3.4-163.9
		c18.6-17.1,22-34.9,21.8-54.3c-0.2-19.3-16.8-11.9-32.9-6.5c-16.1,5.4-15.8,60.2-15.8,60.2c-8.5,5.3-21.7,11-35.3,15.5
		c15.3-77.5,14.2-194.6,14.2-194.6s34.3-41,45.7-30.6s8.3,62.9,8.3,62.9c-10.7,5.4-57.7,42.6-33.4,60.1
		c24.3,17.5,51.2-54.4,51.2-54.4l62.7-41.4c-33.5,145.1-1.8,202.7,26.5,200c35.7-3.4,99.8-122.9,99.8-122.9
		c5.8,14,17.9,23.3,36.2,19.1s44.8-52.6,44.8-52.6c-1,29.3-4.1,46.6,17.2,41.2c21.3-5.4,144.6-148.1,144.6-148.1
		c1.8,7.1-11.9,42.1-15.7,61.1c-3.8,18.9-1.9,31.7,21.6,34.7c23.4,3,63.7-59.5,63.7-59.5c-0.7,29.2-27.6,107.4-27.6,107.4
		c-32.7-13-99.2,12.4-129.1,46.4c-29.9,34.1-29.5,77.1,46.9,75c76.4-2.1,105.5-98.6,105.5-98.6s3.6,5.4,12.4,13.9
		C1076,1007.7,1063.6,1128.1,1063.6,1128.1z M578.3,970.2c7.5,2.3-1.4,34.6-12.3,42C566,1012.2,560.3,964.7,578.3,970.2z M574,892
		c0,0-17.7,41.5-25.9,34.1C539.8,918.7,574,892,574,892z M1062.7,934.7c0,0-4.8,15-14.7,33.1c-7.6,17.2-24.8,45.7-58.8,57.8
		c-50.4,17.9-90.2-28.7-22.2-64.6S1062.7,934.7,1062.7,934.7z M1098.7,1088.9c0,0,2.4-87.2,15.5-117.9c6.2,5.1,13.8,10.6,22.9,16.4
		C1132.4,1014.7,1120.1,1053.3,1098.7,1088.9z M1139.3,966.9c0,2.1-0.2,4.5-0.4,7c-6.2-4.8-12-9.7-17.1-14.4
		C1135.1,943,1139.8,943.8,1139.3,966.9z"/>
	<path class="fillOne" d="M722.5,742.8L722.5,742.8c-0.1,0.1-0.1,0.2-0.2,0.4C722.3,743,722.4,742.9,722.5,742.8z"/>
	<polygon class="fillOne" points="1225.6,784.8 1233.1,763 1233.1,737.4 1211.3,737.4 1211.3,763 1219.2,763 1214.2,784.8 	"/>
</g>
<g id="Layer_2">
</g>
<g id="Layer_3">
</g>
</svg>
