<?xml version="1.0" encoding="utf-8"?>
<!-- Generator: Adobe Illustrator 19.2.1, SVG Export Plug-In . SVG Version: 6.00 Build 0)  -->
<svg version="1.1" xmlns="http://www.w3.org/2000/svg" xmlns:xlink="http://www.w3.org/1999/xlink" x="0px" y="0px"
	 viewBox="0 0 1584 1584" style="enable-background:new 0 0 1584 1584;" xml:space="preserve">
<style type="text/css">
	.Drop_x0020_Shadow{fill:none;}
	.Round_x0020_Corners_x0020_2_x0020_pt{fill:#FFFFFF;stroke:#000000;stroke-miterlimit:10;}
	.Live_x0020_Reflect_x0020_X{fill:none;}
	.Bevel_x0020_Soft{fill:url(#SVGID_1_);}
	.Dusk{fill:#FFFFFF;}
	.Foliage_GS{fill:#FFDD00;}
	.Pompadour_GS{fill-rule:evenodd;clip-rule:evenodd;fill:#44ADE2;}
</style>
<linearGradient id="SVGID_1_" gradientUnits="userSpaceOnUse" x1="1800" y1="792" x2="1800.7072" y2="792.7071">
	<stop  offset="0" style="stop-color:#DEDFE3"/>
	<stop  offset="0.1738" style="stop-color:#D8D9DD"/>
	<stop  offset="0.352" style="stop-color:#C9CACD"/>
	<stop  offset="0.5323" style="stop-color:#B4B5B8"/>
	<stop  offset="0.7139" style="stop-color:#989A9C"/>
	<stop  offset="0.8949" style="stop-color:#797C7E"/>
	<stop  offset="1" style="stop-color:#656B6C"/>
</linearGradient>
<g id="Layer_1">
	<path class="fillOne" d="M538.3,828.3l1.7,3.8c6.3,13.8,13.6,21.3,21.6,22.2c5.6,0.7,12.6-1.5,19.7-5.9
		c-24.8-38.9-22.8-97.8,6-175.3c-16.6,22.7-31.1,49.4-40.6,75.1c-11.7,31.7-15,59.1-9.2,77.2L538.3,828.3z M539,797.6
		c0.2-1.7,0.4-3.4,0.6-5l0.8-5l1.1-5l1.2-4.9l1.4-4.9l1.6-4.9c1.1-3.2,2.3-6.4,3.6-9.5l1-2.3l1-2.4l1.1-2.4l0.3-0.6l0-0.1l0,0l0,0
		l0.1-0.1l0.1-0.3l0.5-1.2c0.7-1.5,1.4-3.1,2.2-4.6c0.8-1.5,1.5-3.1,2.4-4.5c1.2-2.3,2.5-4.5,3.8-6.8c-0.1,1.4-0.3,2.8-0.4,4.1
		c-0.4,3.9-0.6,7.8-0.9,11.6l-0.2,2.9l-0.1,2.9l-0.3,5.8l-0.2,2.9c0,1,0,1.9,0,2.9l-0.1,5.8l0,2.9c0,1,0.1,1.9,0.1,2.9l0.2,5.8
		c0,1,0,1.9,0.1,2.9l0.2,2.9l0.4,5.8c0.3,3.9,1,7.7,1.4,11.5c0.4,1.9,0.7,3.8,0.9,5.8c0.3,1.9,0.4,3.9,0.7,5.8
		c0.6,3.9,0.8,7.9,1.4,12c0.2,2,0.4,4.2,0.5,6.3c0.2,1.9,0.4,3.9,0.6,5.9c-0.1,0.1-0.3,0.3-0.4,0.4c-0.6,0.5-1.2,0.9-1.8,1.3
		c-0.1,0.1-0.3,0.2-0.4,0.3l-0.2,0.2l0,0l-0.1,0l-0.2,0l-0.5,0.1l-0.2,0l-0.1,0c0.1,0-0.3,0,0.3,0l0,0l0,0l0,0l-0.2,0.1l-0.4,0.2
		l-0.4,0.1c-0.3,0.1-0.6,0.1-0.9,0.1c-0.6,0-1.4-0.1-2.1-0.3l-1.2-0.4l-1.2-0.6l-1.2-0.7c-0.4-0.3-0.8-0.6-1.2-0.9
		c-0.8-0.6-1.6-1.3-2.3-2c-0.8-0.7-1.5-1.6-2.2-2.4c-0.7-0.9-1.4-1.7-2-2.6c-0.7-0.9-1.2-1.8-1.8-2.8l-1.7-3l-1.7-3.1l-0.8-2.1
		c-0.3-0.8-0.5-1.5-0.8-2.3c-0.5-1.5-0.8-3.1-1.1-4.7c-0.2-1.6-0.5-3.2-0.6-4.9l-0.2-2.5l-0.1-2.5
		C538.5,804.3,538.8,800.9,539,797.6z"/>
	<path class="fillOne" d="M793.2,764.1l0.4-4.7c5.1-53.9,20.7-105.9,46.5-154.4c10.6-19.9,22.8-39.2,37.3-58.7
		c-11.6,1.1-23.1,2.5-32.8,4.1l-8.3,1.4c-1,0.2-2.1,0.5-3.2,0.8l-0.3,0.1l-0.1,0l-0.1,0l-0.3,0.1c-2.3,0.5-4,1-5.2,1.4l-3.3,6.3
		c-22.6,42.5-70.3,161.4-78.5,243.6c-0.3,3.1-0.5,5.7-0.5,7.9c5.5-3.9,13.5-10.5,24.4-21.5C779.2,780.3,788.1,770.1,793.2,764.1z
		 M830.5,564.6l-0.2,0.1l-0.3,0.1C830.2,564.7,830.4,564.6,830.5,564.6z M760.7,774.2c-0.2,0.1-0.4,0.2-0.6,0.3c0-1,0-1.9,0.1-2.9
		c0.2-2.8,0.5-5.6,0.7-8.4c0.4-5.6,1.2-11.2,2-16.7c0.4-2.8,0.8-5.6,1.3-8.3l1.6-8.3l1.8-8.3l2.1-8.2c1.5-5.4,3-10.9,4.6-16.3
		c1.7-5.4,3.4-10.8,5.3-16.1l2.8-8c0.9-2.7,1.9-5.3,2.9-7.9c2-5.3,3.9-10.6,6-15.8c2.1-5.2,4.1-10.5,6.2-15.7
		c2.2-5.2,4.2-10.4,6.5-15.6l3.4-7.8c1.2-2.6,2.4-5.1,3.6-7.6c1.2-2.5,2.4-5.1,3.7-7.6l4-7.4c1.3-2.5,2.7-5,4.1-7.3
		c1.4-2.4,2.8-4.8,4.3-7.1c1.6-2.4,3.1-4.8,4.8-7.1l0.6-0.9l0.2-0.2l0-0.1c0,0-0.1,0.2,0,0.1l0.1-0.1l0.3-0.4c0.3-0.4,0.6-0.9,1-1.3
		c0.1,0,0.3-0.1,0.4-0.1l0.4-0.1l0.1,0l0,0l0,0l0,0c-0.7,0.2-0.2,0-0.3,0.1l0.2-0.1l0.2-0.1l0.4-0.1l0,0l0,0l0.1,0l0.2-0.1l0,0
		c0,0-0.3,0.1-0.1,0l0,0l0,0l0.1,0c0.5-0.2,1-0.3,1.5-0.5l0.8-0.2l0.4-0.1c0.9-0.2,1.8-0.3,2.7-0.4c1-0.2,2.1-0.3,3.2-0.4
		c1.1-0.1,2.1-0.2,3.1-0.3c2.1-0.1,4.1-0.2,6.2-0.3l1.5,0c-0.8,1.7-1.6,3.4-2.4,5.2l-3.2,6.9c-1.1,2.3-2.2,4.6-3.3,6.8L843,586
		c-1.1,2.3-2.2,4.5-3.3,6.8l-6.5,13.5c-2.2,4.5-4.3,9-6.3,13.6c-1,2.3-2,4.6-3,6.9c-1,2.3-2,4.6-2.9,6.9c-0.9,2.3-1.8,4.6-2.8,6.9
		l-2.7,7c-0.9,2.3-1.7,4.7-2.6,7c-0.8,2.3-1.7,4.7-2.5,7l-2.4,7.1c-0.7,2.4-1.5,4.7-2.3,7.1c-0.8,2.4-1.5,4.7-2.2,7.1
		c-0.7,2.4-1.5,4.8-2.1,7.2c-1.3,4.8-2.6,9.6-3.9,14.5l-1,3.6l-0.9,3.6c-0.6,2.4-1.2,4.9-1.7,7.3c-0.5,2.4-1.1,4.9-1.6,7.3
		c-0.6,2.4-1,4.9-1.5,7.3c-1,4.9-1.9,9.9-2.9,14.8c-0.4,2.4-0.8,4.9-1.3,7.3l-0.7,3.8c-4.6,2.8-9.3,5.6-14,8.3
		c-2.5,1.4-5.1,2.8-7.6,4.2L760.7,774.2z"/>
	<path class="fillOne" d="M408,926.3c0.9-1.8,1.8-3.6,2.7-5.5c7.8-16.9,12.6-29.9,15.3-42.2c3.2-14.4,3.7-28.3,1.7-43.5
		c-4.6-34.5-22.7-77.1-58.7-137.9c-26-43.9-40.4-88.2-42.8-131.8c-2.1-38,5.2-75.2,21.1-107.5c9.4-19,22.1-36.6,36.6-50.8
		c3.8-3.7,7.7-7.2,11.8-10.4c-6.4,1.9-12.7,4.2-19,6.8c-26.6,11-50.6,27.7-69.3,48.2c-16.7,18.2-28.9,38.9-36.2,61.6
		c-8,24.4-10.1,50.6-6.4,77.7c9.3,67.6,47.1,125,80.5,175.7c16.3,24.8,31.8,48.3,43.4,71.7c14,28.3,20.4,52.4,20,76
		C408.6,918.3,408.4,922.4,408,926.3z M402.9,846.4c-0.8-1.5-1.6-3-2.5-4.5l-1.2-2.2l-1.2-2.1l-1.2-2.1l-0.7-1.1l-0.7-1.1l-2.6-4.3
		c-3.4-5.7-7.1-11.3-10.7-16.8c-7.3-11.1-14.7-21.9-22.1-32.7l-11-16.2l-10.7-16.3c-7-11-13.8-22-20.3-33.2
		c-6.5-11.2-12.5-22.6-18-34.2c-1.3-2.9-2.7-5.8-4-8.8l-3.8-8.8c-1.3-2.9-2.3-6-3.5-9c-0.6-1.5-1.2-3-1.7-4.5l-1.5-4.5
		c-2.1-6-3.8-12.2-5.5-18.3l-2.2-9.2l-0.5-2.3l-0.4-2.3l-0.8-4.6l-0.8-4.6c-0.2-1.6-0.4-3.2-0.6-4.8l-0.6-4.9l-0.3-2.4l-0.1-0.6
		l0-0.3c0-0.1,0.1,0.3,0,0.1l0-0.1l-0.1-1.2c-0.6-6.2-0.8-12.4-0.7-18.6c0.3-12.4,1.8-24.6,4.9-36.4c0.8-2.9,1.6-5.9,2.6-8.7
		l0.7-2.1l0.3-1l0.4-1.1l0.8-2.3l0.4-1.1c0.1-0.2,0,0.1,0,0l0.1-0.1l0.1-0.3l0.2-0.5c2.2-5.6,4.9-11,7.8-16.3
		c5.8-10.5,12.9-20.2,20.9-29c1-1.1,2-2.2,3-3.2l1.5-1.5l1.7-1.7l0.9-0.9l0.4-0.4l0.2-0.2l0.1-0.1c0.1-0.1-0.2,0.2,0,0.1l1.7-1.5
		c1.1-1,2.2-2,3.3-2.9c2.4-2.1,4.9-4.1,7.5-6l-0.8,2.2c-1.3,3.5-2.5,7-3.6,10.5c-1.1,3.5-2.1,7.1-3,10.6c-0.5,1.8-0.9,3.6-1.3,5.3
		c-0.4,1.8-0.9,3.6-1.2,5.3c-0.7,3.6-1.5,7.1-2,10.7c-1.2,7.2-2.1,14.4-2.7,21.6c-0.3,3.6-0.4,7.2-0.6,10.8c0,3.6-0.2,7.2-0.1,10.8
		c0,3.6,0.1,7.2,0.3,10.7l0.3,5.4c0.1,0.9,0.1,1.8,0.2,2.7l0.3,2.6c0.6,7,1.6,14.1,2.7,21.1c1.3,7,2.7,13.9,4.4,20.7
		c0.4,1.7,0.8,3.4,1.3,5.1l1.4,5.1c0.9,3.4,2,6.7,3.1,10.1c1.1,3.3,2.3,6.6,3.4,9.9c1.2,3.3,2.4,6.6,3.7,9.8c1.3,3.2,2.6,6.5,4,9.7
		l2.1,4.8l2.2,4.7c2.9,6.3,6,12.5,9.3,18.6c1.6,3.1,3.4,6.1,5.1,9.1c1.7,3,3.5,5.9,5.2,8.9l0,0c2.6,4.4,5.2,8.8,7.7,13.2
		c2.5,4.4,5.1,8.8,7.5,13.3c2.4,4.5,4.8,9,7.1,13.5c1.2,2.3,2.3,4.5,3.4,6.8c1.1,2.3,2.3,4.6,3.3,6.9l3.2,6.9l3,7c1,2.3,2,4.7,2.9,7
		c0.9,2.4,1.8,4.7,2.7,7.1c1.8,4.7,3.4,9.5,4.9,14.3l2.1,7.2l1.8,7.3c0.5,2.4,1.1,4.8,1.5,7.3c0.4,2.4,0.8,4.9,1.2,7.3l0.4,3.5
		l0.2,1.8l0.2,1.9c0.1,1.3,0.2,2.6,0.3,3.8l0.1,1l0,0.1c0,0.2,0-0.2,0-0.1l0,0.1l0,0.2l0,0.5l0.1,1.8c0.1,4.8,0,9.6-0.5,14.2
		c-0.5,4.7-1.3,9.3-2.5,13.8c-0.4,1.5-0.8,2.9-1.2,4.3C411.2,862.5,407.2,854.3,402.9,846.4z"/>
	<path class="fillOne" d="M1005.2,805.2c8.9-15.3,19.6-33.8,31.9-55.5l-1-18.2l0-0.5c-1-18.8-9.5-176.2-11.8-216.8
		c-2.1,0.6-4.2,1.1-6.5,1.6c-6.6,1.3-9.6,2-14.7,3.3c-5.1,1.3-12,3-25.4,6c-1.2,0.3-2.3,0.5-3.3,0.8c2,23.9,10.4,117.9,13.3,141.4
		C992.6,706.6,999.5,763.1,1005.2,805.2z M986.5,586.5c-0.1-2.9-0.3-5.9-0.3-8.8c-0.1-5.9-0.3-11.7-0.4-17.6c0-7.7,0.1-15.3,0.2-23
		c0-0.4,0-0.8,0.2-1.1c0.3-0.4,0.7-0.5,1.2-0.6c8.7-2,17.4-3.9,26-5.9c-0.2,0.1,1.5,13.3,1.6,14.7l2.9,29.4l2.9,29.4l1.4,14.7
		c0.5,4.9,0.9,9.8,1.4,14.7l5.2,58.8l1.3,14.7l1.3,14.7l2.3,28.1l-19.5,20.4c0-0.1-0.1-0.2-0.1-0.4l-4.2-17.1
		c-0.7-2.9-1.4-5.7-2-8.6c-0.6-2.9-1.3-5.7-1.9-8.6l-1.8-8.6l-1.7-8.6c-1.2-5.8-2.2-11.5-3.2-17.3c-1-5.8-2-11.6-3-17.3l-2.7-17.3
		c-0.8-5.7-1.5-11.5-2.2-17.3c-0.6-5.8-1.3-11.6-1.8-17.5c-0.5-5.8-1.1-11.7-1.4-17.5c-0.5-5.8-0.8-11.7-1.1-17.5
		C986.8,592.3,986.7,589.4,986.5,586.5z"/>
	<path class="fillOne" d="M275,989.4c37.4,18.3,84.4,8.8,118.6-14.8c0,0,0,0,0,0c1-0.6,2.3-1.5,3.7-2.7c5.4-4,10.5-8.4,15.1-13.1
		c33.7-31.1,95.9-95.8,107.8-113.3c11.1,24.2,23.9,30.6,38.7,32.3c20.6,2.4,41.6-11.4,54-25.3c21.8-24.4,60.7-85.2,92.5-146.5
		c31.8-61.4,46.5-119.2,48.6-137c0.3-2.2,0.4-4.4,0.6-6.5c12.4-3.5,32.5-8.9,48.3-13.3c-22.2,41.8-72.5,165-81.1,252.4
		c-2.7,27.5,2.7,38.4,12.2,39.5c26,3,82.4-67.8,82.4-67.8S948.7,569.6,951,569.9c2.4,0.3,35.5,299.8,41.4,300.5l0,0
		c5.2,0.3,169-292.1,169-292.1s-6.6,69.4,10.7,113.1c-19.7,28.2-33.2,60.4-30.6,87c2.7,28,16.9,37.1,27.5,40
		c14.8,4,31.6-3.7,42.2-12.5c4.6-3.8,11.9-12.6,18.3-19.3c2.2-2,4.5-4.1,6.9-6.2c5.1-4.5,10.9-9.3,17.3-14.2
		c6.4-4.9,13.5-9.9,21.3-14.9c7.8-4.9,16.4-9.7,25.9-13.9c9.5-4.1,19.8-7.8,30.9-9.7c5.6-0.9,11.3-1.4,17.1-1
		c5.7,0.4,11.6,1.8,16.3,4.9c2.3,1.6,4.3,3.6,5.7,6c1.4,2.4,2.2,5.2,2.4,8.1c0.5,5.9-1.2,12.2-3.8,18.2c-2.7,5.9-6.4,11.6-10.6,17.1
		c-4.3,5.4-9.1,10.6-14.2,15.7c-10.3,10.1-22,19.5-34.5,28.6c-6.3,4.5-12.7,9-19.3,13.4c-6.6,4.4-13.4,8.8-20.3,13.1
		c-27.7,17.4-57.9,33.9-90.1,50.1c-32.1,16.1-66.2,31.8-102,46.9c-35.8,15.1-73.1,29.7-112.1,43.4c-22.1,7.8-44.6,15.3-67.6,22.5
		c-3.4-0.9-6.8-1.8-10.2-2.7c-46.3-12.3-92.8-24.4-139.7-35.2c-11.7-2.7-23.5-5.3-35.2-7.8c-11.8-2.5-23.6-4.9-35.4-7.2
		c-11.8-2.3-23.7-4.4-35.5-6.2c-11.9-1.9-23.8-3.5-35.8-4.7c-12-1.2-24-2.1-36-2.4c-12.1-0.3-24.2,0-36.4,1.8
		c-6.1,0.9-12.2,2.3-18.2,4.4c-6,2.1-11.9,4.9-17.3,8.7c-5.4,3.9-10.2,8.8-13.7,14.6c-3.6,5.8-5.8,12.3-7,18.8
		c-0.3,1.6-0.5,3.3-0.7,4.9l-0.2,2.4l-0.1,2.5l-0.1,2.2c0,0.6,0,0.9,0,1.3l0,1.2c0.1,1.6,0.1,3.3,0.3,4.9c0.6,6.5,2.3,13.1,5.2,19.2
		c2.8,6.1,6.9,11.6,11.6,16.1c4.7,4.6,10.1,8.3,15.6,11.2c11.2,5.9,23.1,9.2,34.8,11.3c11.8,2.1,23.6,3.1,35.3,3.6
		c23.5,0.9,46.7-0.2,69.5-2.6c11.4-1.2,22.8-2.6,34.1-4.3c11.3-1.6,22.5-3.5,33.6-5.5c11.1-2,22.1-4.2,33.1-6.6
		c11-2.3,21.8-4.7,32.6-7.3c21.6-5.1,42.8-10.6,63.8-16.4c16.5-4.6,32.8-9.4,48.8-14.3c40,10.6,79.9,20.7,119.9,29.6
		c-9.9,5.6-19.8,11.1-29.5,16.7c-35.9,20.4-70.7,40.5-104.9,58.9c-3.3,1.8-6.6,3.5-9.9,5.3c-0.5-0.2-1.1-0.3-1.6-0.5
		c-24.3-7.3-51-14.1-80.2-18.4c-7.3-1.1-14.8-1.9-22.4-2.5c-7.6-0.5-15.5-0.7-23.5,0c-4,0.3-8,0.9-12.1,1.7c-4.1,0.9-8.1,2.1-12.1,4
		c-4,1.9-7.9,4.4-11,8c-3.2,3.6-5.4,8.1-6.3,12.8c-1,4.7-0.8,9.4,0,13.9c0.8,4.5,2,8.7,3.7,13c0.9,2.2,2.1,4.3,3.4,6.3
		c1.4,2,3,3.9,4.8,5.5c3.7,3.3,8.2,5.6,12.8,6.9c4.6,1.3,9.3,1.7,13.9,1.7c4.6,0,9.1-0.5,13.6-1.2c8.9-1.4,17.7-3.6,26.4-6.4
		c17.3-5.6,34.3-12.9,51.3-20.9c13.5-6.3,27-13.1,40.5-20.3c22.9,6.6,43.8,13.6,62.4,20.6c39.3,14.9,69.1,29.4,88,41.6
		c9.4,6.1,16.1,11.6,19.6,16.2c1.8,2.3,2.6,4.2,2.9,5.6c0.2,0.7,0.2,1.2,0.2,1.5c0,0.3,0,0.5,0,0.5l1.1,0.1c0,0,0-0.2,0-0.6
		c0-0.4,0-1-0.2-1.8c-0.3-1.5-1.3-3.7-3.1-6c-3.6-4.7-10.3-10.4-19.8-16.6c-9.4-6.2-21.6-13-36.3-20.2
		c-14.7-7.2-31.9-14.8-51.5-22.5c-17.8-6.9-37.5-14-59.1-20.7c2.2-1.2,4.4-2.3,6.5-3.5c34.3-18.4,69-38.7,104.9-59.2
		c10.8-6.2,21.8-12.4,32.8-18.6c1.8,0.4,3.5,0.8,5.3,1.2c23.2,5,46.3,9.6,69.6,13.2c11.6,1.8,23.3,3.3,35,4.4
		c11.7,1.1,23.4,1.7,35.1,1.6c11.7-0.2,23.5-0.8,35.2-3.5c5.8-1.3,11.7-3.2,17.2-6.1c5.5-2.8,10.8-6.8,14.8-11.8
		c4.1-5.1,6.9-11.2,8.3-17.4c0.7-3.1,1.1-6.2,1.3-9.4c0.2-3.2,0.1-6-0.1-9.1c-0.4-6-1.5-12.2-3.9-18.1c-1.2-2.9-2.7-5.8-4.6-8.4
		c-1.9-2.6-4.2-5-6.8-7c-5.2-4-11.4-6.1-17.3-7c-6-0.9-11.9-0.7-17.6-0.2c-5.7,0.6-11.3,1.6-16.8,2.9c-5.5,1.3-10.9,2.7-16.2,4.4
		c-10.7,3.4-21,7.4-31.1,11.7c-10.1,4.3-20.1,8.9-29.8,13.7c-19.6,9.5-38.5,19.6-57.1,29.8c-6.1,3.3-12.1,6.7-18.1,10
		c-21.6-5-43.2-10.5-64.8-16.1c-16.7-4.4-33.4-8.8-50.2-13.3c0.3-0.1,0.5-0.2,0.8-0.3c20.2-6.4,40.1-13,59.7-19.8
		c78.1-27.3,150.6-57.1,215.5-88.9c32.4-16,62.9-32.5,91-49.8c7-4.4,13.9-8.8,20.5-13.3c6.6-4.5,13.1-9.2,19.4-13.9
		c12.5-9.5,24.3-19.2,34.8-29.7c5.2-5.3,10.2-10.7,14.6-16.5c4.4-5.8,8.3-11.9,11.1-18.5c0.3-0.8,0.7-1.7,1-2.5l0.4-1.2l0.4-1.3
		c0.5-1.7,1-3.4,1.4-5.2c0.7-3.5,1.1-7.1,0.7-10.8c-0.3-3.6-1.4-7.3-3.2-10.4c-1.8-3.2-4.5-5.8-7.4-7.8c-2.9-2-6.1-3.3-9.3-4.2
		c-3.2-0.9-6.4-1.4-9.6-1.6c-6.4-0.5-12.5,0.1-18.4,1c-5.9,0.9-11.5,2.4-16.9,4c-5.4,1.6-10.6,3.5-15.5,5.6
		c-9.9,4.1-18.9,8.7-27.2,13.3c-8.3,4.7-15.8,9.5-22.6,14.2c-13.6,9.4-24.5,18.4-33,26c-4,3.6-7.5,6.8-10.5,9.7
		c-9-19.7,2-65.5,4.8-73.3c13.5,3.8,54.1-27.5,64.2-62.3c4.3-14.7,2.9-31.7-8.2-34.7c-22.5-6.1-60.8,22.3-89,59.9
		c-8.7-28.3-15-86.7-3.7-131.8c0,0-0.2-2.2-2.4-2.5l-0.1,0c-2.6,0.4-6.7,9.6-6.7,9.6l-104.2,170.3c0,0-10.4-193.2-12.2-223.2
		c-0.8-14.1-5.3-18.8-11.3-19.5c-6.8-0.8-15.4,3.4-23,4.9c-14.3,2.7-14.3,3.6-40.7,9.4c-26.5,5.8-21.8,13-22.4,23.5
		c-0.5,10.5-3.6,26.7-12.3,46.8c-7.8,18.1-100.6,160.8-120.8,189.4c14.3-151.9,111.8-233.8,107.5-239.1c-0.5-0.6-2-1.3-4.5-1.3
		c-68.6-0.7-143.6,27.6-159.5,33.6c-2,0.8-4.1,1.5-6,2.2c0-3.6-0.2-6.9-0.7-10.1c-1-6.4-3.1-11.9-6.6-16.1c-4.9-6-10.9-9.1-17-9.8
		l-0.1,0c-7.3-0.8-14.5,1.6-20.1,5.9c-2.8,2.2-5.2,4.8-7,7.7c-1.8,2.9-3.1,6.2-3.5,9.6c-0.4,3,0,6.2,1.1,9.3c1.1,3.1,3,6.1,5.8,8.9
		c1.7,1.8,3.8,3.1,6,4.1c2.2,1,4.7,1.6,7.3,1.9c7.8,0.9,16.9-0.8,26.9-3.9c0.8-0.3,1.8-0.5,2.9-0.8c-0.1,1.5-0.3,3-0.4,4.6
		c-2,17.1-14.2,66.9-52.7,136.5c-38.5,69.6-61.1,97.2-93.1,135.4c-17-23.7-13.3-68.5-13.3-68.5s70.8-71,77.4-128.2
		c2.4-20.6-2.5-43-18-44.8c-56-6.5-160.9,152.1-135.6,231c-10,15.3-49.7,62.4-80.8,98.7c29.8-65,32.2-114.8-43.9-243.5
		c-94.3-159.4-1.1-283.6,71.1-292.8c91.8-11.6,167.2,42.4,168.4,114.8c1.2,74.8-56.7,62-87.5,68.4c-3.2,0.7-2.7,5.8-2.7,9.1
		c0.1,5.3,4.9,8.5,12.3,9.3c26.8,3.1,87.7-25.2,84-90.3c-4.3-76.5-67.3-133.8-175.2-138.6c-27-1.2-54.3,3.1-80.2,12.1l-0.3-0.6l0,0
		c-0.3,0.3-0.6,0.7-0.9,1c-84.2,29.9-152,110.1-137.3,216.6C260.5,733.7,386,824,384.9,913.8c-1.1,93.9-85.7,80.2-105.2,70.2
		c-39.5-20.4-47.1-61.4-28.6-119.7c1.4-4.4-4.6-8.3-10.7-9c-5-0.6-10.1,1-11,6.4C220.5,913.4,235.8,970.2,275,989.4z M845.4,1030.5
		c-20.9,5.9-42.1,11.3-63.6,16.4c-10.8,2.5-21.6,4.9-32.5,7.2c-10.9,2.2-21.9,4.3-33,6.3c-11.1,1.9-22.2,3.7-33.4,5.2
		c-11.2,1.5-22.5,2.8-33.9,3.7c-11.3,1-22.8,1.7-34.2,1.9c-11.4,0.3-22.9,0.1-34.3-0.8c-11.4-0.9-22.8-2.6-33.8-5.4
		c-11-2.8-21.7-6.7-30.9-12.5c-4.6-2.9-8.8-6.2-12.4-10c-3.6-3.8-6.4-8.1-8.5-12.7c-1-2.3-1.9-4.7-2.5-7.2c-0.6-2.5-1-5-1.3-7.7
		c-0.1-1.3-0.2-2.6-0.2-3.9l0-1.9l0-2.2l0.1-1.9l0.1-2c0.1-1.3,0.3-2.6,0.5-3.9c0.8-5.2,2.3-10.1,4.8-14.5c2.4-4.5,5.7-8.4,9.8-11.8
		c8.1-6.8,18.8-11.2,29.9-13.9c11.2-2.8,22.9-4.1,34.7-4.6c11.8-0.4,23.7,0,35.6,1.1c23.8,2,47.4,5.9,70.9,10.4
		c11.8,2.3,23.5,4.8,35.2,7.5c11.7,2.7,23.4,5.5,35,8.4c23.3,5.8,46.5,12,69.7,18.2c23.1,6.2,46.2,12.4,69.3,18.6
		C873,1022.6,859.3,1026.6,845.4,1030.5z M829.9,1151.8c-17,7.8-33.9,15-51,20.1c-8.6,2.5-17.2,4.6-25.7,5.5
		c-8.5,0.8-17.2,0.4-24.4-2.4c-1.8-0.7-3.5-1.6-5.1-2.5c-1.6-1-3-2.1-4.2-3.4c-2.5-2.5-4.5-5.6-5.9-9.1c-2.8-7.1-4.6-15.1-3.4-21.8
		c0.6-3.4,2-6.4,4.2-9c2.2-2.6,5-4.7,8.2-6.4c6.4-3.3,14-5,21.4-5.9c7.5-0.9,15-1.1,22.5-1c7.5,0.1,14.8,0.7,22,1.5
		c14.5,1.6,28.4,4.2,41.7,7.1c12.7,2.8,24.9,5.9,36.5,9.1C854.4,1139.9,842.1,1146.1,829.9,1151.8z M1042.3,1039.4
		c18.6-10.2,37.5-20.1,57.1-29.5c19.5-9.3,39.6-18,60.7-24.4c10.5-3.1,21.3-5.7,32.1-6c5.4-0.2,10.8,0.2,15.8,1.5
		c5,1.3,9.6,3.6,13.1,6.8c3.5,3.3,5.9,7.5,7.5,12.2c1.5,4.7,2.3,9.9,2.6,15.2c0.1,2.6,0.2,5.4,0.1,7.9c-0.1,2.6-0.4,5.1-0.9,7.6
		c-1,4.9-2.9,9.5-5.7,13.6c-2.8,4-6.7,7.5-11.1,10.3c-4.4,2.8-9.5,5-14.7,6.7c-10.6,3.4-22,4.8-33.4,5.2c-11.5,0.4-23-0.3-34.6-1.2
		c-11.6-1-23.1-2.5-34.7-4.3c-22.9-3.6-45.7-8.3-68.5-13.5C1032.4,1044.8,1037.3,1042.1,1042.3,1039.4z M1262.9,632.7
		c6.1,6.8,6.2,15.7,2.8,25.3c-10.8,30.5-43.6,59-53.4,55.9C1233.9,644.2,1262.9,632.7,1262.9,632.7z M1185.5,695.3
		c0.8-1.1,1.7-2.3,2.5-3.4c1-1.3,2-2.6,3-3.8c2-2.5,4.1-5,6.2-7.5c1.1-1.2,2.1-2.4,3.2-3.6c2.1-2.4,4.3-4.7,6.5-7
		c3.3-3.4,6.7-6.7,10.1-9.7c5.8-5.3,11.2-9.5,16.2-12.9c-14.1,21.9-25.3,42.6-33.1,61.9c-1.4,3.5-2.7,7-3.9,10.4
		c-1.2,3.4-2.3,6.8-3.2,10.1c-0.7,2.5-1.4,4.9-2,7.4c-1.8,7.3-2.9,14.3-3.4,21c-0.1,1.5-0.2,3-0.3,4.4c-0.1,1.5-0.1,2.9-0.1,4.3
		c0,2.9,0.2,5.7,0.5,8.4c0.1,1.4,0.3,2.7,0.5,4.1c0.4,2.7,1,5.3,1.6,7.9c0.7,2.6,1.5,5,2.5,7.5c1,2.4,2.1,4.8,3.3,7.1
		c-3.7,2.1-7.8,3.8-11.8,4.7c-1.5,0.3-3,0.6-4.5,0.7c-2.5,0.2-4.9,0-7.1-0.6c-0.8-0.2-1.6-0.5-2.4-0.9c-0.3-0.1-0.6-0.3-0.9-0.5
		c-2.5-1.3-4.7-3.3-6.7-5.9c-0.5-0.7-1-1.4-1.5-2.1c-1.2-1.9-2.2-4-3.2-6.3c-0.8-2-1.6-4.2-2.3-6.6l-0.9-3.2l-0.4-2.5
		c-1.7-10.3,0.5-23.4,6.1-38c0.5-1.3,1-2.7,1.6-4c2.3-5.4,5-11,8.1-16.7C1174.2,711.6,1179.6,703.3,1185.5,695.3z M967.1,520.7
		c0.2-0.1,0.5-0.1,0.9-0.3c0.6-0.2,1.5-0.4,2.6-0.7c1.1-0.3,2.4-0.6,3.8-1c0.5-0.1,1-0.2,1.5-0.4c1.6-0.4,3.3-0.8,5.1-1.3
		c1.8-0.5,3.8-0.9,5.8-1.4c3.4-0.8,7-1.7,10.6-2.6l-0.4,0.2c0.4-0.1,0.8-0.2,1.2-0.3c0.8-0.2,1.5-0.4,2.1-0.5c0.3-0.1,0.7-0.2,1-0.2
		c0.6-0.2,1.3-0.3,1.9-0.5c0.6-0.1,1.2-0.3,1.7-0.4c0.8-0.2,1.7-0.4,2.5-0.6c0.6-0.1,1.1-0.3,1.7-0.4c1.2-0.3,2.4-0.5,3.8-0.8
		c1.1-0.2,2.2-0.4,3.5-0.7c0.9-0.2,1.8-0.4,2.6-0.6c1.7-0.4,3.4-0.9,5-1.4c0.8-0.2,1.6-0.5,2.4-0.7c0.6-0.2,1.3-0.4,2.1-0.6
		c0.7-0.2,1.5-0.4,2.2-0.6c0,0.1,0.1,2.1,0.3,5.7c0,0.5,0.1,0.9,0.1,1.4c0.1,1,0.1,2.1,0.2,3.3c0.1,1.2,0.1,2.5,0.2,3.8
		c0.1,1.4,0.2,2.8,0.2,4.4c0,0.8,0.1,1.6,0.1,2.4c0.2,4,0.5,8.5,0.7,13.4c0.1,2,0.2,4,0.3,6.1c0.1,2.1,0.2,4.2,0.4,6.4
		c0.4,7.6,0.9,15.9,1.4,24.6c1.1,19.8,2.3,41.5,3.4,62.3c0.3,5.2,0.6,10.3,0.8,15.4c0.3,5,0.5,9.9,0.8,14.7c0.1,2.4,0.3,4.7,0.4,7
		c0.1,2.3,0.3,4.6,0.4,6.8c0.2,2.9,0.3,5.8,0.5,8.6c0.1,1.7,0.2,3.4,0.3,5.1c0.1,1.6,0.2,3.2,0.3,4.8c0.1,1.9,0.2,3.7,0.3,5.4
		c0.1,1.2,0.1,2.3,0.2,3.4c0.1,2.2,0.2,4.2,0.3,6.1c0.1,1.4,0.2,2.7,0.2,4c0.1,1.2,0.1,2.4,0.2,3.4c0.3,4.9,0.4,7.8,0.4,8l1.1,20.2
		c-1.1,1.8-2.1,3.7-3.1,5.5c-2.1,3.6-4.1,7.2-6.1,10.7c-4,7-7.9,13.8-11.7,20.3c-2.8,4.9-5.5,9.6-8.1,14.1c-1.7,3-3.4,5.9-5.1,8.7
		c-1.6,2.8-3.2,5.5-4.8,8.2c-1.5,2.6-3,5.1-4.4,7.5c-0.4-2.7-0.8-5.4-1.2-8.3c-0.4-2.9-0.8-5.8-1.2-8.8c-0.2-1.5-0.4-3-0.6-4.6
		c-1.3-9.3-2.6-19.2-3.9-29.5c-4.4-34.3-9.1-72.5-12.9-102.7c-0.2-1.5-0.4-3-0.5-4.5c-0.1-0.4-0.1-0.9-0.2-1.3
		c-0.1-0.9-0.2-2-0.4-3.1c-0.2-1.7-0.4-3.5-0.6-5.5c-0.3-2.7-0.6-5.6-0.9-8.7c-0.5-4.7-1-10-1.5-15.6c-0.4-3.7-0.7-7.6-1.1-11.6
		c-0.2-2-0.4-4-0.6-6.1c-0.4-4.1-0.8-8.3-1.2-12.4c-0.2-2.1-0.4-4.2-0.6-6.3c-0.2-2.1-0.4-4.2-0.6-6.3c-1.7-18.9-3.4-37.2-4.5-50.5
		c-0.1-1.5-0.3-2.9-0.4-4.2c-0.1-1.3-0.2-2.6-0.3-3.8c-0.1-1.2-0.2-2.3-0.3-3.3c0-0.5-0.1-1-0.1-1.5c-0.4-4.3-0.6-6.8-0.6-7
		C966.9,520.8,967,520.8,967.1,520.7z M822.2,548.3c0.3-0.1,0.6-0.2,1.1-0.4c0.2-0.1,0.5-0.2,0.8-0.3c0.6-0.2,1.3-0.4,2.1-0.6
		c1.2-0.3,2.7-0.7,4.6-1.2l0.3-0.1l0.3-0.1c1.3-0.3,2.5-0.6,3.6-0.9l4.3-0.7l4.3-0.7c2.9-0.5,5.9-0.9,9-1.4c1-0.1,2.1-0.3,3.1-0.4
		c3.1-0.4,6.3-0.8,9.5-1.2c2.1-0.2,4.2-0.5,6.4-0.7c1.1-0.1,2.1-0.2,3.2-0.3c2.1-0.2,4.2-0.4,6.2-0.6c4.1-0.3,8.1-0.6,11.9-0.9
		c-3.2,4-6.6,8.5-10.3,13.4c-1.8,2.5-3.7,5.1-5.6,7.8c-2.9,4.1-5.9,8.4-8.9,13c-3,4.6-6.1,9.4-9.2,14.5c-4.1,6.8-8.2,14-12.3,21.6
		C821.1,656,805.7,707,800.7,760l-0.7,6.9c-0.5,0.5-1,1.1-1.5,1.8c-0.5,0.6-1.1,1.3-1.7,2c-0.8,1-1.7,2-2.7,3.1
		c-0.5,0.5-1,1.1-1.5,1.7c-1,1.1-2.1,2.4-3.2,3.6c-4.4,5-9.7,10.7-15.3,16.3c-1.3,1.3-2.5,2.5-3.7,3.6c-1.2,1.2-2.3,2.3-3.5,3.3
		c-4.5,4.2-8.4,7.6-11.8,10.4c-0.9,0.7-1.7,1.3-2.5,2c-1.6,1.2-3.1,2.3-4.4,3.2c-1,0.7-2,1.3-2.8,1.9c-0.6,0.4-1.1,0.7-1.7,1
		c-0.8,0.5-1.5,0.9-2.2,1.3c-1.3,0.7-2.5,1.2-3.3,1.6c-0.6-3.1-1.2-9.3-0.1-20.5c8.2-83.2,56.5-203.3,79.3-246.3L822.2,548.3z
		 M738.4,562.1c-6.8,1.6-12.9,2.3-17.9,1.8l0,0c-2.2-0.3-4.2-0.8-5.9-1.5c-1.7-0.8-3.2-1.8-4.5-3.1c-2.3-2.4-3.8-4.8-4.7-7.2
		c-0.9-2.4-1.1-4.8-0.8-7.1c0.3-2.7,1.3-5.3,2.8-7.7c2.2-3.6,5.7-6.8,9.7-8.9c4-2.1,8.5-3.1,12.9-2.6l0,0c4.9,0.6,9.7,2.9,13.9,8.1
		c2.8,3.4,4.6,8,5.6,13.9c0.5,3.3,0.7,7,0.7,11C746,560.1,742.1,561.2,738.4,562.1z M647.1,610.3c9.6,7.8,11.5,19.7,8.9,33.3
		c-8.2,43.1-61.5,101.5-61.5,101.5C605.2,653.2,647.1,610.3,647.1,610.3z M527.6,801.8c0.2-4.9,0.6-10,1.5-15.3
		c1.6-10.7,4.5-22.3,8.7-34.6c0.7-2,1.4-4.1,2.2-6.2c11.6-31.2,30.2-63.8,51.3-89.4c2.5-3.1,5-6,7.4-8.6c1.6-1.8,3.2-3.5,4.8-5.1
		c1.6-1.6,3.1-3.2,4.6-4.6c0.8-0.7,1.5-1.4,2.2-2.1c-42,93.5-53,169.2-19.1,214.3c-9.2,7.1-20.4,12.3-30.4,11.1
		c-5.3-0.6-10.3-3.1-14.8-7.5c-2.3-2.2-4.4-4.9-6.5-8c-0.5-0.8-1-1.6-1.5-2.4c-1.5-2.5-3-5.3-4.4-8.4l-1.9-4.1l-1.1-3.3
		C528.3,820.2,527.2,811.5,527.6,801.8z M382.2,841.4c-11.4-23.1-26.8-46.3-43-71c-33.8-51.3-72-109.4-81.6-178.6
		c-3.9-28.2-1.7-55.4,6.7-80.9c7.7-23.6,20.4-45.2,37.7-64.1c19.4-21.3,44.3-38.5,71.9-49.9c19.4-8,39.9-13,60.2-14.8
		c-32,12.6-62,41.5-80.5,79c-15.4,31.2-22.5,67.1-20.4,103.9c2.4,42.4,16.5,85.6,41.8,128.5c36.5,61.7,54.9,105.1,59.6,140.6
		c4.5,33.6-3.4,59.2-17.5,89.6c-7.2,15.5-15.7,28.2-25.5,38.1c7.4-16.2,9.6-33.7,9.9-47.8C401.9,891.8,395.7,868.7,382.2,841.4z"/>
	<path class="fillOne" d="M1159,777.7l0.4,2.2l0.8,2.9c3.1,10.8,7.6,17.1,13.3,18.6c4,1.1,9.3,0.3,15-2.1
		c-13.8-31.2-5.9-73.9,23.7-127.4c-14.6,14.7-28.2,32.6-38,50.4C1162.2,744.2,1156.8,763.9,1159,777.7z M1161.5,768.5l0.1-1.8
		l0.2-1.8c0.3-2.4,0.8-4.9,1.4-7.3c0.3-1.2,0.7-2.4,1-3.6l1.2-3.6l1.3-3.5l1.5-3.5l1.6-3.4l1.7-3.4c1.2-2.2,2.4-4.4,3.7-6.6l1-1.6
		l1-1.6l1-1.6l0.3-0.4l0-0.1l0,0l0,0l0.1-0.1l0.1-0.2l0.5-0.8c0.7-1,1.4-2.1,2.1-3.1c0.7-1,1.4-2.1,2.2-3.1c1.1-1.5,2.3-3,3.5-4.5
		c-0.3,1-0.5,2-0.8,3c-0.7,2.8-1.3,5.6-2,8.4l-0.5,2.1l-0.4,2.1l-0.8,4.2l-0.4,2.1c-0.1,0.7-0.2,1.4-0.3,2.1l-0.7,4.2l-0.4,2.1
		c-0.1,0.7-0.2,1.4-0.3,2.1l-0.5,4.3c-0.1,0.7-0.2,1.4-0.3,2.1l-0.1,2.1l-0.3,4.3c-0.2,2.9-0.1,5.7-0.2,8.6c0.1,1.4,0.1,2.9,0,4.3
		c0,1.4-0.2,2.9-0.1,4.3c0,2.9-0.3,5.9-0.3,8.9c-0.1,1.5-0.2,3.1-0.3,4.7c0,1.4-0.1,2.9-0.2,4.3c-0.1,0.1-0.2,0.2-0.3,0.2
		c-0.5,0.3-1,0.5-1.5,0.7c-0.1,0-0.3,0.1-0.3,0.1l-0.2,0.2l0,0l-0.1,0l-0.2,0l-0.3,0l-0.2,0l0,0c0.1,0-0.2-0.1,0.2,0.1l0,0l0,0l0,0
		l-0.1,0l-0.3,0.1l-0.3,0c-0.2,0-0.4,0-0.7,0c-0.5,0-1-0.2-1.5-0.4l-0.8-0.4l-0.8-0.6l-0.8-0.7c-0.3-0.2-0.5-0.5-0.8-0.8
		c-0.5-0.5-1-1.1-1.5-1.7c-0.5-0.6-0.9-1.3-1.3-2c-0.4-0.7-0.8-1.4-1.2-2.1c-0.4-0.7-0.7-1.5-1-2.2l-0.9-2.4l-0.9-2.5l-0.3-1.6
		c-0.1-0.6-0.2-1.2-0.3-1.8c-0.2-1.2-0.2-2.4-0.3-3.6C1161.5,770.9,1161.4,769.7,1161.5,768.5z"/>
</g>
<g id="Layer_2">
</g>
<g id="Layer_3">
</g>
</svg>
