<?xml version="1.0" encoding="utf-8"?>
<!-- Generator: Adobe Illustrator 19.2.1, SVG Export Plug-In . SVG Version: 6.00 Build 0)  -->
<svg version="1.1" xmlns="http://www.w3.org/2000/svg" xmlns:xlink="http://www.w3.org/1999/xlink" x="0px" y="0px"
	 viewBox="0 0 1584 1584" style="enable-background:new 0 0 1584 1584;" xml:space="preserve">
<style type="text/css">
	.Drop_x0020_Shadow{fill:none;}
	.Round_x0020_Corners_x0020_2_x0020_pt{fill:#FFFFFF;stroke:#000000;stroke-miterlimit:10;}
	.Live_x0020_Reflect_x0020_X{fill:none;}
	.Bevel_x0020_Soft{fill:url(#SVGID_1_);}
	.Dusk{fill:#FFFFFF;}
	.Foliage_GS{fill:#FFDD00;}
	.Pompadour_GS{fill-rule:evenodd;clip-rule:evenodd;fill:#44ADE2;}
</style>
<linearGradient id="SVGID_1_" gradientUnits="userSpaceOnUse" x1="3672" y1="-2952" x2="3672.707" y2="-2951.293">
	<stop  offset="0" style="stop-color:#DEDFE3"/>
	<stop  offset="0.1738" style="stop-color:#D8D9DD"/>
	<stop  offset="0.352" style="stop-color:#C9CACD"/>
	<stop  offset="0.5323" style="stop-color:#B4B5B8"/>
	<stop  offset="0.7139" style="stop-color:#989A9C"/>
	<stop  offset="0.8949" style="stop-color:#797C7E"/>
	<stop  offset="1" style="stop-color:#656B6C"/>
</linearGradient>
<g id="Layer_1">
	<path class="fillOne" d="M647.1,854c-1.6,1.5-3.1,3.7-3.9,6c-0.6,1.5-0.9,3-0.8,4.3c0,0.9,0.1,1.7,0.4,2.3c0.2,0.6,0.5,1.1,0.9,1.5
		c0.3,0.3,0.6,0.5,1.1,0.8c0.6,0.3,1.5,0.6,2.7,0.8c0,0,0,0,0,0c0.1-0.3,0.2-0.7,0.2-1c1.1-4.9,1.9-9.3,2.3-12.6
		c0.2-1.6,0.3-3,0.3-4c-0.3,0.1-0.5,0.2-0.8,0.3C648.8,852.7,648,853.3,647.1,854z"/>
	<path class="fillOne" d="M1023.1,794.7c2-3.3,3.5-6.4,4.1-8.8c0.4-1.3,0.5-2.4,0.5-3.3c0-0.9-0.1-1.5-0.3-2c-0.2-0.5-0.5-0.9-1-1.4
		c-0.3-0.3-0.8-0.6-1.4-0.9c-1.2-0.6-2.1-0.8-2.8-0.8c-0.4,0-0.7,0.1-1,0.2c-0.3,0.1-0.7,0.3-1.1,0.5c-0.8,0.5-1.8,1.4-2.8,2.7
		c-2,2.6-4,6.9-5.6,12.1c-1.1,3.5-2.1,7.3-2.9,11.4c-0.7,3.4-1.3,7-1.8,10.6c0.3-0.3,0.7-0.7,1-1
		C1014.2,807.3,1019.6,800.6,1023.1,794.7z"/>
	<path class="fillOne" d="M624,829.6c1.3-4,2.2-7.5,2.8-10.4c0.6-2.9,0.8-5.2,0.8-6.8c0-0.4,0-0.7,0-1.1c-1.1,0.9-2.7,2.6-4.2,4.9
		c-3.2,4.6-6.8,11.7-9.6,20.7c-1.3,4.1-2.5,9.4-3.5,15.3c-0.3,1.6-0.5,3.2-0.8,4.9c0.1-0.1,0.2-0.2,0.3-0.3
		C615.1,850.5,620.2,841.1,624,829.6z"/>
	<path class="fillOne" d="M954.7,629.4c1.1-3,1.6-5.6,1.6-7.2c0-0.8-0.1-1.4-0.2-1.7c-0.1-0.3-0.2-0.5-0.3-0.6
		c-0.1-0.1-0.2-0.2-0.4-0.3c-0.6-0.3-0.9-0.3-1.3-0.3c-0.4,0-0.8,0.1-1.5,0.5c-0.7,0.4-1.5,1.1-2.4,2.1c-1.8,2-3.8,5.4-5.5,9.4
		c-1.2,2.7-2.2,5.7-3.2,8.8c-1.3,4.2-2.3,8.7-3.1,13.1c-0.3,1.5-0.5,3-0.7,4.4c2.4-3.1,4.7-6.3,6.8-9.4
		C949.1,641.4,952.8,634.7,954.7,629.4z"/>
	<path class="fillOne" d="M620.7,576.9c-1.3-1.5-2.7-2.7-4.4-3.6c-2.3-1.2-5.3-1.9-9.3-1.9c-2.6,0-5,0.5-7.3,1.4
		c-2.3,0.9-4.5,2.2-6.5,3.8c-4,3.2-7.2,7.6-9.1,11.9c-1.2,2.9-1.9,5.7-1.8,8.1c0,1.5,0.2,2.7,0.6,3.7c0.4,1,0.9,1.7,1.6,2.3
		c0.5,0.4,1.1,0.7,1.9,1c1.1,0.4,2.5,0.7,4.3,0.7c2.3,0,5.2-0.4,8.7-1.4c3.5-1,7.7-2.6,12.5-5c4.2-2,8.8-4.7,13.9-7.9
		c-0.2-1.2-0.4-2.4-0.7-3.5C624,582.2,622.5,579.1,620.7,576.9z"/>
	<path class="fillOne" d="M792,252c-298.2,0-540,241.8-540,540s241.8,540,540,540s540-241.8,540-540S1090.2,252,792,252z
		 M413.3,985.7c-0.5-0.3-0.9-0.7-1.2-1c-0.3-0.3-0.5-0.6-0.7-0.8c-0.3-0.5-0.5-0.9-0.7-1.4c-0.3-0.8-0.6-1.6-0.8-2.5
		c-0.4-1.8-0.8-4-1.1-6.7c-0.7-5.4-1.4-12.6-2-21.2c-1.3-17.2-2.4-39.7-3.4-62.1c-1.9-44.8-3.1-89.2-3.1-89.2c0-1.5,0.6-2.9,1.7-3.8
		c1.1-1,2.6-1.4,4-1.1c0.3,0,0.8,0.1,1.5,0.1c1.6,0,4.1-0.2,7-0.7c2.9-0.4,6.3-1.1,10-1.9c7.4-1.6,15.9-3.8,24.2-6
		c16.5-4.5,31.9-9.2,35.3-10.3c0.4-0.1,0.7-0.2,0.7-0.2v0c2.6-0.8,5.3,0.6,6.1,3.2c0.8,2.6-0.6,5.3-3.2,6.1
		c-0.1,0-26.5,8.3-49.8,14.1c-7.8,1.9-15.2,3.6-21.2,4.5c-2.3,0.4-4.4,0.6-6.4,0.8c0.1,2.9,0.2,7,0.4,11.9
		c0.3,10.5,0.8,25.1,1.4,41.2c0.9,24.1,2.1,51.7,3.4,74.6l80.7-26c2.6-0.8,5.3,0.6,6.2,3.2c0.8,2.6-0.6,5.3-3.2,6.2L416,943.4
		c0.3,3.9,0.5,7.6,0.8,11.1c0.6,7.1,1.1,13.2,1.7,17.5c0.2,1.3,0.3,2.4,0.5,3.4l105.1-30.6c2.6-0.8,5.3,0.7,6.1,3.3
		c0.8,2.6-0.7,5.3-3.3,6.1l-109.7,32C415.9,986.6,414.5,986.4,413.3,985.7z M564.6,548.9L564.6,548.9L564.6,548.9l-0.2,0.1
		c-0.1,0-0.4,0.1-0.7,0.2c-0.6,0.2-1.5,0.6-2.6,1c-2.3,1-5.6,2.4-9.5,4.6c-7.8,4.3-18,11-27.4,21.1c-6.3,6.7-12.3,14.8-17.1,24.6
		c-6.4,13.1-10.7,29.1-10.7,49c0,22.8,2.4,40.8,6.3,54.8c3.9,14,9.2,24.1,15,31c3.8,4.7,7.8,8,11.8,10.2c5.3,3,10.5,4.2,15,4.2
		c2.2,0,4.7-0.4,7.6-1.2c2.8-0.8,5.9-2,9.1-3.7c6.4-3.3,13.4-8.2,20.1-14.7c13.4-12.9,25.8-31.7,31.6-55.2
		c3.2-12.8,6.5-26.3,9.1-39.2c2.5-12.7,4.2-24.9,4.3-35.1c-0.7,0.4-1.4,0.9-2.1,1.3c-8.6,4.9-15.9,8.2-22.3,10
		c-4.2,1.2-8,1.8-11.4,1.8c-3.2,0-6.1-0.5-8.6-1.6c-2.5-1.1-4.7-2.8-6.2-4.8c-1-1.4-1.8-2.9-2.4-4.5c-0.7-2.1-1-4.3-1-6.5
		c0-3,0.6-6,1.5-8.9c1-3,2.4-5.9,4.1-8.7c3.5-5.6,8.6-10.6,14.9-13.8c4.2-2.1,9-3.5,14.1-3.5c4.4,0,8.3,0.7,11.9,2.2
		c3.5,1.4,6.5,3.6,8.9,6.3c1.6,1.8,2.9,3.8,4,6c1.2,2.4,2.1,5.1,2.8,7.8c4.2-2.9,8.7-6.3,13.5-10c1.3-1,3.2-1.3,4.7-0.7
		c1.6,0.6,2.8,2,3.1,3.7c0,0.3,1.8,9.6,1.8,25.8c0,10.2-0.7,23.2-2.9,38.2c2.2-3.3,4.4-6.3,6.5-8.8c1.4-1.5,2.7-2.9,4.2-3.9
		c0.8-0.6,1.7-1.1,2.9-1.5c0.6-0.2,1.3-0.3,2.1-0.3c1.1,0,2.3,0.3,3.4,0.9c1,0.6,1.8,1.5,2.3,2.3c0.3,0.6,0.6,1.1,0.8,1.7
		c0.2,0.7,0.4,1.5,0.5,2.2c0.1,1,0.2,2,0.2,3.2c0,3.4-0.5,7.7-1.6,13.5c-1.1,5.8-2.7,13.1-5.1,22.1c-2.3,8.6-3.8,15.5-4.8,20.9
		c-0.6,3.3-1,5.9-1.2,8.1c0.1-0.1,0.1-0.2,0.2-0.3c2.6-3.3,5.7-7.9,8.6-12.7c5.8-9.5,11-19.4,11.6-20.5l0.1-0.1
		c1.3-2.4,4.2-3.3,6.6-2.1c2.4,1.3,3.3,4.2,2.1,6.6c0,0-1.9,3.6-4.7,8.6c-2.8,5-6.6,11.5-10.4,17.4c-2.5,3.9-5.1,7.6-7.6,10.4
		c-1.4,1.6-2.8,3-4.3,4.2c-0.8,0.6-1.7,1.2-3,1.5c-0.6,0.2-1.3,0.3-2.1,0.3c-1.1,0-2.3-0.3-3.3-0.9c-1-0.6-1.8-1.5-2.3-2.3
		c-0.3-0.6-0.6-1.1-0.8-1.7c-0.2-0.7-0.4-1.4-0.5-2.2c-0.1-1-0.2-2-0.2-3.1c0-3.3,0.5-7.5,1.6-13.2c1.1-5.7,2.7-12.7,5-21.5
		c2.3-8.9,3.9-16,5-21.5c0.7-3.5,1.1-6.4,1.3-8.6c-2.4,3-5.3,7.3-8.1,11.7c-5.5,8.8-10.4,18-10.9,19l-0.1,0.1
		c-1.2,2.2-3.8,3.2-6.1,2.3c-2.3-0.9-3.6-3.4-3-5.8c6.7-26.7,8.4-49,8.4-64.5c0-6.5-0.3-11.9-0.6-15.8c-3.9,2.9-7.6,5.5-11.2,7.9
		c0.1,1.8,0.2,3.6,0.2,5.5c0,11.4-1.9,24.3-4.5,37.5c-2.6,13.3-6,26.9-9.2,39.7c-4.1,16.7-11.3,31.2-19.9,43.2
		c-8.6,12-18.5,21.4-28.4,28.1c-6.6,4.4-13.1,7.6-19.3,9.3c-3.5,1-7,1.6-10.2,1.6c-7.1,0-14.9-2.1-22.4-7.1
		c-7.5-5-14.6-12.7-20.4-23.8c-3.9-7.4-7.2-16.3-9.7-27c-3.4-14.2-5.4-31.4-5.4-52.3c0-16,2.6-29.9,6.9-41.9
		c4.3-12,10.2-22.1,16.8-30.6c13.2-16.8,28.9-26.9,39.3-32.3c7-3.6,11.7-5.1,11.9-5.2l0,0c2.6-0.8,5.3,0.6,6.2,3.2
		C568.6,545.3,567.2,548,564.6,548.9L564.6,548.9z M1209.3,534.8c13.6,21,25.8,46.5,36.2,77.2c9.5,28.1,13.9,56.2,13.9,83.7
		c0,56.4-18.4,110.3-48.1,157.1c-22.2,34.9-50.7,65.9-82.8,91.3c1.2,5,1.8,10.2,1.8,15.5c0,11.8-2.8,24.1-7.9,36.3
		c-5.1,12.2-12.6,24.4-22.1,35.9c-19,23-46,43.4-78.6,56.1c-21.7,8.5-46,13.5-72,13.5c-50.1,0-92.8-12.9-133.2-28.8
		c-30.3-11.9-59.3-25.5-89.4-36.8c-0.8,2.2-1.6,4.3-2.4,6.5c-11.8,30.4-27.3,59.8-47.6,84.4c-11.6,14.1-24.9,26.5-40,36.6
		c-17.2,11.5-36.9,20-59.1,24.2c-13.1,2.5-26,3.6-38.3,3.6c-17.8,0-34.5-2.4-49.3-6.9c-14.8-4.5-27.9-11-38.3-19.3
		c-7-5.5-12.8-11.8-17.1-18.9c-5.8-9.3-9.1-19.9-9.1-31.2c0-1.2,0-2.4,0.1-3.6c0.8-13.9,6.3-27.7,15.5-40.6
		c9.2-12.8,22.1-24.8,38-35c31.9-20.4,76-34.1,127.4-34.1c42.4,0,79.5,9.2,114.3,21.6c14.5-41.9,22.4-84.8,26.7-118
		c3.5-27.1,4.6-47.7,4.9-56.1c-1,0.8-2.2,1.7-3.5,2.8c-4,3.4-8.8,8.1-13.7,12.6c-0.6,0.6-2.6,2.9-5.4,5.9c-3.3,3.5-7.7,8-12.2,11.9
		c-3,2.6-5.9,5.1-8.7,6.9c-1.6,1-3.1,1.9-4.9,2.5c-0.9,0.3-1.9,0.5-3.1,0.5c-0.8,0-1.7-0.1-2.7-0.5c-0.9-0.4-1.9-1-2.5-1.8l0,0
		c-1.2-1.4-1.8-2.9-2.2-4.3c-0.1-0.4-0.2-0.9-0.3-1.3c-0.9,1.3-1.7,2.6-2.6,3.9c-2.8,4.1-5.6,8.1-8.1,11.2c-1.5,1.8-2.8,3.3-4.1,4.6
		c-0.7,0.7-1.4,1.3-2.3,1.8c-0.4,0.3-0.9,0.5-1.5,0.8c-0.6,0.2-1.4,0.4-2.3,0.5c-0.2,0-0.4,0-0.4,0l-0.1,0c-0.9-0.1-1.7-0.4-2.5-0.8
		c-0.7-0.4-1.3-0.9-1.7-1.4c-0.9-1-1.3-2-1.6-2.9c-0.2-0.6-0.3-1.2-0.4-1.8c-0.1-0.8-0.2-1.6-0.3-2.5c-0.1-1.1-0.1-2.3-0.1-3.6
		c0-3.9,0.3-8.4,0.7-13c0.4-4.2,0.8-8.3,1.1-11.7c-2,1.7-4.4,3.7-6.9,5.5c-1.5,1-3.1,2-4.7,2.8c-0.6,2.4-1.2,4.9-1.9,7.5
		c-3.8,14.1-8.9,30.2-14.3,44.7c-3.6,9.7-7.4,18.6-11.1,25.9c-2.1,4.2-4.2,7.7-6.3,10.7c-1.1,1.6-2.2,2.9-3.5,4.1
		c-1.3,1.3-2.7,2.3-4.5,3.1c-0.9,0.4-2,0.6-3.1,0.6c-1.1,0-2.1-0.2-3.1-0.6c-1-0.4-1.8-0.9-2.5-1.5c-1.5-1.2-2.5-2.7-3.4-4.3
		c-0.6-1.1-1.1-2.2-1.5-3.4c-0.6-1.6-1.1-3.4-1.6-5.3c-0.6-2.6-1.2-5.4-1.6-8.5c-0.6-4.1-1-8.6-1.4-13.4c-0.4-6.4-0.6-13.4-0.6-20.7
		c0-13.3,0.7-27.6,1.9-40.9c-0.9,0.1-1.9,0.2-2.8,0.2c-2.2,0-4.5-0.4-6.6-1.1c-2.2-0.8-4.2-1.9-6.2-3.4c-3.9-3-7.2-7.2-10-12.7
		c-1-2-2-4.3-2.9-6.7l-9.9,92.2c-0.3,2.3-2.1,4.2-4.5,4.4c-2.3,0.2-4.5-1.3-5.1-3.6l-24-89.2c-0.7-2.6,0.8-5.3,3.5-6
		c2.6-0.7,5.3,0.8,6,3.5l17.2,63.9l10.3-95.4c0.3-2.5,2.4-4.4,4.8-4.4s4.6,1.8,4.9,4.3c1.4,11.1,3.4,19.9,5.9,26.6
		c2.5,6.7,5.4,11.3,8.2,14c1.9,1.8,3.7,2.9,5.4,3.4c1,0.3,2,0.5,3,0.5c1.2,0,2.5-0.2,3.9-0.7c0.6-5.2,1.4-10.1,2.2-14.7
		c1.1-6.3,2.4-11.9,3.8-16.5c1.8-5.7,3.8-10.7,5.9-15c2.2-4.3,4.4-7.9,6.7-10.8c1.5-1.9,3.1-3.5,4.7-4.8c0.9-0.7,1.9-1.3,3-1.8
		c1.2-0.6,2.6-1,4.1-1c1.1,0,2.4,0.3,3.5,0.8c1.1,0.6,2.1,1.4,2.7,2.3c0.5,0.6,0.8,1.3,1.1,1.9c0.4,0.9,0.6,1.8,0.8,2.7
		c0.2,1.3,0.3,2.6,0.3,4c0,2.5-0.3,5.4-1,8.8c-0.7,3.3-1.7,7.2-3.1,11.5c-3,9.4-7,17.6-11.5,24.3c-4.3,6.3-9,11.3-14.3,14.6
		c0,0.1,0,0.3,0,0.4c-1.5,14.2-2.3,29.9-2.3,44.3c0,8.1,0.3,15.8,0.8,22.7c0.5,6.9,1.4,12.8,2.5,17.4c0.7,3,1.6,5.4,2.3,6.7
		c0.2,0.4,0.4,0.6,0.5,0.9c0.3-0.2,0.6-0.5,1-0.9c1.3-1.4,3-3.8,4.8-6.9c3.6-6.2,7.7-15.2,11.6-25.2c6.4-16.3,12.6-35.7,16.7-51.6
		c-2.9-0.5-5.4-1.6-7.4-3.3c-2.2-1.8-3.8-4.2-4.5-6.7c-0.5-1.7-0.7-3.4-0.7-5c0-3,0.7-5.9,1.8-8.7c1.1-2.7,2.7-5.3,4.8-7.5
		c1.3-1.5,2.9-2.8,4.6-3.8c2.3-1.4,5-2.3,7.9-2.3c1.1,0,2.2,0.1,3.4,0.4c0,0,0,0,0,0l0,0c0,0,0,0,0,0c1.1,0.3,2,0.8,2.7,1.5
		c0.7,0.7,1.1,1.3,1.4,2c0.6,1.3,0.8,2.4,0.9,3.5c0.1,0.8,0.1,1.5,0.1,2.3c0,1.9-0.2,3.9-0.5,6.3c-0.2,1.7-0.5,3.6-0.9,5.6
		c0.7-0.6,1.4-1.1,2-1.7c1.6-1.3,3-2.6,4.4-3.8c0.8-0.6,1.6-1.2,2.4-1.7c0.5-0.3,0.9-0.5,1.5-0.8c0.6-0.2,1.4-0.5,2.5-0.5
		c0.6,0,1.4,0.1,2.2,0.4c0.8,0.3,1.5,0.9,2,1.5c0.4,0.4,0.6,0.8,0.8,1.2c0.3,0.5,0.4,1,0.5,1.5c0.1,0.6,0.2,1.1,0.2,1.5
		c0,0.5,0,0.9,0,1.4c0,1.4-0.1,2.9-0.2,4.6c-0.1,1.8-0.3,3.7-0.5,5.8c-0.4,4.1-0.9,8.7-1.2,13c-0.2,2.5-0.3,4.9-0.3,7
		c0.1-0.2,0.3-0.4,0.4-0.6c2.9-3.7,6.4-8.8,9.9-13.9c6.9-10.4,13.3-21.2,14-22.4l0.1-0.1c1.3-2.2,4.1-3,6.4-1.9
		c2.3,1.1,3.3,3.8,2.4,6.2l0,0l0,0.1c0,0.1-0.1,0.1-0.1,0.2c-0.1,0.2-0.2,0.5-0.4,0.9c-0.3,0.8-0.7,2-1.2,3.4c-0.9,2.8-2,6.5-2.8,10
		c-0.5,2.3-0.8,4.5-0.8,6.1c0.8-0.5,1.7-1.1,2.7-1.9c2.8-2.1,6.2-5.2,9.4-8.3c6.5-6.2,12.3-12.7,12.9-13.4l0.1-0.1
		c0.1-0.2,0.2-0.2,0.3-0.3c2.8-2.6,5.6-5.2,8.3-7.8c2.7-2.5,5.3-4.9,7.8-6.9c1.6-1.3,3.2-2.5,4.7-3.4c0.9-0.5,1.7-1,2.6-1.4
		c1.1-0.4,2.2-0.8,3.7-0.8c0.8,0,1.7,0.1,2.5,0.5c0.9,0.3,1.7,0.9,2.4,1.6c0.4,0.5,0.8,1,1,1.5c0.3,0.7,0.6,1.3,0.7,2
		c0.2,0.8,0.2,1.6,0.2,2.4c0,0.4,0,1.1,0,2.2c0,1.1-0.1,2.5-0.1,4.2c-0.1,3.5-0.4,8.2-0.8,14c-0.8,11.6-2.2,27.5-4.8,46.1
		c-4.5,32.9-12.5,74.2-26.5,114.9c3.4,1.3,6.7,2.6,10,3.9c40.5,15.9,78.8,34.9,120.3,47.4c27.7,8.3,56.7,13.9,89,13.9
		c37,0,70.4-10.7,97.6-27.2c27.2-16.4,48.2-38.6,60.6-61.1c8.2-15,12.6-30.1,12.6-43.7c0-3-0.2-6-0.7-8.8
		c-8.2,6.1-16.7,11.9-25.3,17.2c-30.6,19-63.3,33-96.1,40.5c-17.1,3.9-32.2,5.7-45.4,5.7c-11.9,0-22.3-1.4-31.1-4.1
		c-8.8-2.6-16.1-6.5-21.8-11.4c-3.8-3.2-6.8-6.9-9-11c-3-5.4-4.5-11.3-4.5-17.4c0-9.4,3.4-19,9.9-28.1c6.5-9.1,16-17.7,28.5-25.2
		c25-14.9,61.9-25.4,110.7-25.4c18.2,0,33.6,2.3,46.4,6.4c12.8,4.1,23,10.2,30.7,17.8c5.1,5.1,9.1,10.8,12,17
		c0.2,0.4,0.4,0.8,0.5,1.3c2.4-1.9,4.7-3.8,7-5.8c40.9-34.7,75-79,95.8-128.4c13.8-32.9,21.7-68.1,21.7-104.3
		c0-26.5-4.2-53.4-13.4-80.5c-15.3-45.1-34.5-78.2-55.6-102c-21.1-23.8-44.2-38.3-67.4-46.1c-15.5-5.2-31.2-7.5-46.5-7.5
		c-20.3,0-39.9,4-57.6,10.4c-5.3,1.9-10.4,4-15.3,6.3c4.6,6.7,8.3,13.3,11,19.7c3.6,8.4,5.6,16.6,5.6,24.1c0,5.9-1.2,11.5-3.8,16.5
		c-2.6,4.9-6.6,9.1-11.8,12.3c-3.5,2.1-7.4,3.8-11.9,5c-5.9,1.6-12.7,2.4-20.4,2.4c-6.7,0-12.4-0.6-17.4-1.9
		c-4.9-1.2-9-3.1-12.3-5.7c-2.2-1.7-3.9-3.7-5.2-6c-1.7-3-2.5-6.5-2.5-9.9c0-3.3,0.7-6.7,1.9-10.1c1.2-3.4,3-6.8,5.2-10.2
		c4.5-6.8,10.8-13.8,18.6-20.5c7.9-6.8,17.5-13.4,28.2-19.2c-6-7.4-13.1-15-21.4-22.6c-28.2-25.6-69.3-50.4-120.4-66.1
		c-34.1-10.5-72.5-16.9-114.6-16.9c-33.9,0-70.1,4.2-108.2,13.8c-58.6,14.7-105.6,41.7-141.8,74.3c-36.3,32.6-61.8,70.8-77.4,108.1
		c-10.4,24.8-16.3,49.2-18,71c-0.3,4.1-0.5,8.1-0.5,11.9c0,19.2,3.9,35.2,9.6,48.5c5.8,13.3,13.4,23.8,21.2,32
		c15.4,16.3,31,23.3,31.3,23.4l0,0l0,0c2.5,1.1,3.6,4,2.5,6.4c-1.1,2.5-4,3.6-6.4,2.5c-0.3-0.1-9.8-4.3-21.7-13.8
		c-11.9-9.5-26.2-24.5-35.7-46.3c-6.4-14.5-10.6-32-10.6-52.7c0-4.1,0.2-8.3,0.5-12.7c1.8-23,8-48.3,18.8-74
		c10.7-25.7,26-51.8,46.1-76.3c40.2-49,99.6-91.7,179.8-111.8c38.9-9.8,75.9-14,110.6-14c56.6,0,106.9,11.3,148.9,28.5
		c42.1,17.2,75.9,40.2,99.7,63.7c6.3,6.2,11.8,12.4,16.6,18.6c7.9-3.8,16.3-7.2,25.2-10c16.7-5.3,34.8-8.5,53.6-8.5
		c24.4,0,49.9,5.4,74.3,18.9C1165.6,482,1189,503.4,1209.3,534.8z M876,641.7c2.8-5.5,5.7-10.7,9-14.9c1.9-2.4,3.8-4.6,6-6.3
		c1.2-0.9,2.4-1.7,3.8-2.3c1.5-0.6,3.1-1,4.8-1c1.3,0,2.7,0.2,3.9,0.7l0,0c1,0.4,2,1,2.9,1.6c0.9,0.7,1.6,1.5,2.2,2.4
		c1.2,1.8,1.8,3.7,2.2,5.7c0.2,1.3,0.3,2.6,0.3,4c0,3-0.4,6.3-1.1,9.7c-0.7,3.4-1.5,6.9-2.5,10.6c-1.9,7.2-4.2,14.7-5.7,21.3
		c-1,4.4-1.6,8.3-1.6,11.3c0,1.3,0.1,2.4,0.3,3.3c0.2,0.8,0.4,1.3,0.7,1.6c0.1,0.2,0.2,0.3,0.3,0.4l0.1,0c0.4,0,1.3-0.1,2.5-0.6
		c1.2-0.5,2.8-1.3,4.5-2.4c3.4-2.2,7.4-5.5,11.6-9.5c2.2-2.1,4.5-4.5,6.8-6.9c0-0.3,0-0.6,0-0.9c0-5.8,0.7-12.5,2-19.3
		c1.3-6.8,3.2-13.7,5.5-19.9c1.6-4.1,3.4-7.9,5.5-11.1c1.2-1.8,2.5-3.5,4-5c1.7-1.6,3.7-3,6-3.8c1.2-0.4,2.6-0.7,3.9-0.7
		c1.9,0,3.7,0.5,5.5,1.3c1.1,0.5,2.1,1.2,3,2c0.9,0.8,1.6,1.8,2.1,2.8c1.1,2.1,1.5,4.3,1.5,6.5c0,2.1-0.3,4.2-0.9,6.4
		c-0.6,2.2-1.4,4.4-2.3,6.8c-2,4.7-4.7,9.6-7.9,14.7c-5.1,8-11.4,16.2-17.9,23.7c0,0.2,0,0.3,0,0.5c0.2,1.4,0.4,2.5,0.7,3.3
		c0.5-0.2,1-0.6,1.7-1c1.7-1.1,3.8-2.9,6.1-5.2c4.7-4.5,10.5-10.6,16.8-16.9c4.2-4.2,8.7-8.4,13.4-12.3c6.3-5.1,12.9-9.6,19.9-12.3
		c4-1.5,8.2-2.5,12.5-2.5c2,0,4.1,0.2,6.1,0.7c2.4,0.5,4.5,1.4,6.3,2.7c1.8,1.2,3.3,2.8,4.2,4.6c0.7,1.2,1.1,2.4,1.5,3.6
		c0.4,1.6,0.6,3.3,0.6,4.9c0,2.7-0.5,5.3-1.1,7.7c-0.6,2.4-1.5,4.7-2.3,6.6c-1.6,3.9-3.2,6.5-3.3,6.7c-1.4,2.3-4.4,3.1-6.7,1.7
		c-2.3-1.4-3.1-4.4-1.7-6.7l0,0l0,0l0,0l0.1-0.1c0.1-0.1,0.2-0.4,0.4-0.6c0.3-0.6,0.7-1.4,1.2-2.4c1-2,2.1-4.8,2.9-7.5
		c0.5-1.8,0.8-3.7,0.8-5.2c0-1-0.1-1.9-0.3-2.6c-0.2-0.7-0.5-1.2-0.9-1.7c-0.3-0.3-0.6-0.6-1.1-0.9c-0.6-0.4-1.5-0.8-2.7-1
		c-1.3-0.3-2.6-0.4-3.9-0.4c-3.3,0-6.7,0.8-10.4,2.4c-3.7,1.6-7.5,3.9-11.3,6.7c-7.7,5.6-15.3,13.2-22.2,20.2
		c-4.6,4.7-8.9,9.2-12.9,12.8c-2.3,2.1-4.4,3.9-6.5,5.3c-1.1,0.8-2.3,1.4-3.5,2c-1.3,0.6-2.7,1-4.2,1.1l-0.1,0c-0.1,0-0.2,0-0.3,0
		c-0.9,0-1.9-0.2-2.8-0.5c-0.9-0.3-1.7-0.8-2.3-1.4c-1.3-1.1-2.1-2.4-2.7-3.7c-4.8,4.7-9.5,8.8-13.9,11.8c-3,2-5.8,3.6-8.7,4.6
		c-1.5,0.5-3.1,0.8-4.8,0.8c-0.9,0-1.9-0.1-2.9-0.4c-1-0.3-1.9-0.7-2.8-1.3c-1.1-0.8-2-1.7-2.8-2.8c-0.8-1.1-1.3-2.2-1.7-3.3
		c-0.8-2.3-1.1-4.7-1.1-7.2c0-3.1,0.4-6.4,1.1-9.9c0.7-3.5,1.5-7.1,2.5-10.7c1.9-7.3,4.2-14.8,5.7-21.2c1-4.3,1.6-8.1,1.6-10.9
		c0-1-0.1-1.9-0.2-2.6c-0.1-0.7-0.3-1.1-0.5-1.4c-0.1-0.2-0.2-0.3-0.2-0.3c-0.1-0.1-0.2-0.1-0.4-0.2l0,0c-0.2-0.1-0.3-0.1-0.4-0.1
		c-0.2,0-0.4,0-0.8,0.2c-0.4,0.1-0.8,0.4-1.4,0.8c-1.1,0.8-2.5,2.2-4,4c-3,3.7-6.1,9.2-9,15c-2,3.9-3.9,8-5.6,12
		c-2.3,5.3-4.4,10.3-6.2,14.2c-1,2.3-1.9,4.2-2.8,5.8c-0.5,0.8-0.9,1.6-1.5,2.3c-0.3,0.4-0.7,0.8-1.3,1.3c-0.3,0.2-0.7,0.5-1.2,0.7
		c-0.5,0.2-1.2,0.4-2.1,0.4c-0.4,0-0.8,0-1.2-0.1l0,0c-0.8-0.2-1.5-0.6-2.1-1c-0.6-0.5-0.9-0.9-1.2-1.4c-0.5-0.9-0.7-1.5-0.8-2.1
		c-0.1-0.4-0.1-0.7-0.2-1c0-0.4-0.1-0.9-0.1-1.3c0-1,0.1-2,0.2-3.2c0.1-1.2,0.3-2.4,0.5-3.8c0.4-2.8,1-5.9,1.7-9.3
		c1.3-6.8,3-14.6,4.3-21.5c0.8-4.3,1.6-8.4,2-11.5c-1.3,1.2-2.8,2.9-4.4,4.9c-4.2,5.4-8.7,13.1-13,21.4c-2.9,5.5-5.7,11.3-8.3,16.9
		c-3.5,7.4-6.6,14.5-9.1,20c-1.4,3.2-2.7,5.9-3.7,7.9c-0.6,1.1-1.1,2-1.6,2.8c-0.3,0.4-0.5,0.8-0.9,1.3c-0.2,0.2-0.4,0.5-0.8,0.8
		c-0.4,0.3-0.8,0.7-1.7,1c-0.5,0.2-1,0.3-1.7,0.3c-0.8,0-1.8-0.2-2.5-0.7l0,0c-0.6-0.3-1-0.7-1.3-1.1c-0.3-0.3-0.5-0.7-0.6-0.9
		c-0.3-0.5-0.4-0.9-0.5-1.3c-0.2-0.7-0.3-1.2-0.3-1.7c-0.1-1-0.1-2.2-0.1-3.6c0-2.3,0.1-5.1,0.3-8.4c0.2-3.3,0.4-7.1,0.7-11.2
		c0.6-8.1,1.4-17.3,2.3-25.9c0.4-4,0.8-7.9,1.1-11.5c-5.4,8.4-12,18.7-18.4,28.1c-4.7,7-9.3,13.4-13.3,18.4c-2.2,2.9-4.2,5.2-6.1,7
		c-1,1-1.9,1.8-3,2.5c-0.6,0.4-1.2,0.7-2.1,1c-0.5,0.1-1,0.2-1.7,0.2c-0.8,0-1.8-0.2-2.7-0.7l0,0c-1-0.5-1.7-1.3-2.1-1.9
		c-0.5-0.6-0.7-1.2-1-1.8c-0.4-1.1-0.7-2.2-0.9-3.4c-0.4-2.4-0.5-5.2-0.5-8.4c0-4.8,0.3-10.5,0.7-16.4c0.4-5.9,1-11.9,1.6-17.4
		c1.2-11,2.3-19.6,2.3-19.6l0,0c0.4-2.7,2.8-4.6,5.5-4.2c2.7,0.4,4.6,2.8,4.2,5.5c0,0,0,0.1,0,0.2c0,0.1,0,0.4-0.1,0.6
		c-0.1,0.6-0.2,1.4-0.3,2.4c-0.3,2.1-0.6,5-1,8.5c-0.8,7-1.8,16.1-2.4,24.7c-0.4,5.7-0.7,11.2-0.7,15.6c0,0.9,0,1.7,0,2.5
		c1-1.2,2.2-2.7,3.4-4.3c4.6-6,10.3-14.2,15.9-22.6c11.3-16.9,22.4-34.9,24.9-38.8c0.3-0.5,0.5-0.8,0.5-0.8c1.2-2,3.6-2.8,5.8-2.1
		c2.2,0.7,3.5,2.9,3.3,5.2c0,0-0.1,0.7-0.2,2c-0.1,1.3-0.3,3.2-0.6,5.6c-0.5,4.7-1.2,11.2-1.9,18.4c-1.1,10.9-2.2,23.5-3,33.8
		c4.1-9,9.1-19.9,14.4-30.1c4-7.6,8.2-14.9,12.5-20.7c2.5-3.3,4.9-6.2,7.5-8.4c1.4-1.2,2.9-2.2,4.5-3c1.7-0.8,3.6-1.4,5.6-1.4
		c0.6,0,1.3,0.1,1.9,0.3c0.6,0.2,1.2,0.6,1.6,1c0.9,0.8,1.3,1.6,1.6,2.2c0.2,0.4,0.3,0.8,0.4,1.2c0.1,0.5,0.2,0.9,0.2,1.3
		c0.1,0.6,0.1,1.1,0.1,1.7c0,1.1-0.1,2.2-0.2,3.5c-0.1,1.2-0.3,2.6-0.5,4c-0.4,2.9-1,6.2-1.7,9.7c-0.5,2.8-1.1,5.7-1.7,8.6
		C873.8,646.1,874.9,643.9,876,641.7z M1005.3,851.6c0.1,1.9,0.3,3.6,0.5,5c2.5-2.3,5.8-5.6,9.6-9.4c7.7-7.8,17.4-17.9,27.1-26.8
		c6.5-5.9,13-11.3,19.1-15.2c3.5-2.2,6.9-4,10.3-5c1.8-0.5,3.7-0.9,5.5-0.9c1.8,0,3.6,0.3,5.3,1.1c1.7,0.7,3.2,1.9,4.5,3.4
		c0.8,1,1.5,2.1,2,3.2c0.7,1.6,1.3,3.3,1.7,5.2c0.5,2.5,0.7,5.3,0.7,8.6c0,3.3-0.2,6.9-0.7,11c-0.3,2.7-2.8,4.6-5.5,4.3
		c-2.7-0.3-4.6-2.8-4.3-5.5c0.5-3.8,0.7-7.1,0.7-9.9c0-3.1-0.3-5.5-0.7-7.2c-0.4-1.8-1-2.8-1.4-3.4c-0.3-0.4-0.5-0.6-0.8-0.7
		c-0.3-0.2-0.7-0.3-1.5-0.3c-0.8,0-1.9,0.2-3.3,0.6c-1.4,0.5-3,1.2-4.7,2.1c-3.5,1.9-7.5,4.8-11.8,8.2c-8.5,6.9-17.8,16-26,24.4
		c-5.5,5.6-10.6,10.9-14.8,15.1c-2.4,2.4-4.5,4.4-6.3,5.9c-1,0.8-1.9,1.5-2.8,2.1c-0.5,0.3-1,0.6-1.6,0.9c-0.6,0.3-1.4,0.5-2.6,0.6
		c-0.3,0-0.6,0-0.9-0.1l0,0c-1.1-0.2-2-0.6-2.6-1.1c-0.6-0.5-1.1-1-1.4-1.5c-0.7-1-1-1.9-1.3-2.8c-0.2-0.6-0.4-1.2-0.5-1.9
		c-0.2-0.9-0.4-1.8-0.5-2.9c-0.6-4.1-0.9-9.3-0.9-15.4c0-1.2,0-2.4,0-3.7c-0.4,0.4-0.8,0.7-1.2,1.1c-6.7,5.7-13,10.7-18.3,14.4
		c-3,2.1-5.7,3.7-7.9,4.9c-1.2,0.6-2.3,1.1-3.5,1.4c-0.6,0.2-1.3,0.3-2.2,0.3c-0.6,0-1.4-0.1-2.2-0.4l0,0c-0.9-0.3-1.7-0.9-2.3-1.6
		c-0.6-0.7-1-1.4-1.2-2c-0.5-1.3-0.5-2.3-0.6-3.3c0-1.3,0.2-2.6,0.4-4c0.3-1.4,0.6-2.9,1.1-4.5c0.9-3.2,2-6.9,3.3-10.9
		c2.5-8,5.5-17.2,7.5-25.6c1.3-5.6,2.1-10.8,2.1-14.9c0-2-0.2-3.7-0.5-5c-0.3-1.3-0.8-2.2-1.3-2.7c-0.3-0.4-0.6-0.6-1.1-0.9
		c-0.4-0.2-0.6-0.2-1-0.2c-0.3,0-0.6,0.1-1.1,0.2c-0.5,0.2-1.1,0.5-1.8,1c-1.4,1-3.1,2.6-4.9,4.8c-3.6,4.3-7.4,10.7-10.9,17.5
		c-2.4,4.6-4.7,9.4-6.8,14.1c-2.8,6.2-5.4,12.2-7.5,17c-1.2,2.7-2.2,5.1-3.2,7c-0.5,1-0.9,1.9-1.4,2.7c-0.2,0.4-0.5,0.8-0.8,1.2
		c-0.3,0.4-0.6,0.8-1.3,1.4c-0.4,0.3-0.9,0.6-1.7,0.9c-0.4,0.1-0.9,0.2-1.5,0.2h0c-0.6,0-1.2-0.1-1.7-0.3c-0.6-0.2-1.1-0.5-1.5-0.9
		c-0.8-0.7-1.2-1.4-1.5-2c-0.2-0.4-0.3-0.7-0.3-1c-0.1-0.4-0.1-0.7-0.2-1c0-0.4-0.1-0.7-0.1-1.1c0-1,0.1-1.9,0.2-3
		c0.1-1.1,0.3-2.3,0.6-3.6c0.5-2.7,1.1-5.8,1.8-9.3c1.4-6.9,3.1-14.9,4.2-22c0.6-4.1,1.1-7.8,1.2-10.7c-0.8,1.2-1.7,2.6-2.6,4.1
		c-3.5,6-7.6,14.4-11.5,22.9c-7.8,17-14.8,34.6-15.6,36.6c-0.1,0.1-0.1,0.2-0.1,0.2l0,0c0,0,0,0.1,0,0.1c-1,2.5-3.9,3.6-6.4,2.6
		c-2.5-1-3.7-3.8-2.7-6.3c0,0,0.2-0.5,0.5-1.4c0.7-2,1.5-4.4,2.1-7c0.8-3.3,1.6-7,2.2-11c1.3-7.9,2.3-16.7,3.1-25.1
		c0.3-3.7,0.6-7.3,0.9-10.6c-4.4,8.3-9.7,18-15.1,27.1c-4.3,7.3-8.6,14.1-12.5,19.5c-2.2,3.1-4.3,5.7-6.4,7.8
		c-1.1,1.1-2.2,2.1-3.4,2.9c-0.6,0.4-1.3,0.8-2.1,1.1c-0.8,0.3-1.7,0.6-2.8,0.6c-0.9,0-1.9-0.2-2.8-0.6c-0.9-0.4-1.7-1.1-2.3-1.7
		c-0.4-0.5-0.7-0.9-0.9-1.4c-0.3-0.6-0.6-1.2-0.7-1.9c-0.6-1.9-0.9-4-1.1-6.3c-0.2-2.2-0.3-4.6-0.3-7.1c0-5.6,0.5-11.7,1.2-17.9
		c0.7-6.1,1.6-12.3,2.6-17.7c1.9-10.9,3.7-19.1,3.7-19.2l0,0c0.6-2.6,3.2-4.3,5.9-3.7c2.6,0.6,4.3,3.2,3.7,5.9l0,0l0,0.1
		c0,0.1-0.1,0.3-0.1,0.6c-0.1,0.5-0.3,1.3-0.5,2.3c-0.4,2-1,4.8-1.6,8.2c-1.3,6.8-2.8,15.8-3.8,24.6c-0.7,5.9-1.1,11.7-1.1,16.7
		c0,2.2,0.1,4.3,0.3,6.1c0,0.3,0.1,0.5,0.1,0.8c1.5-1.7,3.4-4.1,5.4-6.9c4.6-6.6,10.1-15.6,15.3-24.8c10.4-18.4,20-37.4,21.1-39.6
		c0.1-0.1,0.1-0.2,0.1-0.2c1-2.1,3.3-3.1,5.6-2.6c2.2,0.6,3.8,2.6,3.7,4.9c0,0-0.2,6.4-0.7,15.7c-0.4,6-0.9,13.3-1.6,20.9
		c0.5-1,0.9-2,1.4-3c3.2-6.7,6.4-13.1,9.5-18.1c1.7-2.9,3.4-5.4,5-7.3c0.9-1.1,1.8-2,2.9-2.8c0.6-0.4,1.2-0.8,1.9-1.1
		c0.8-0.3,1.7-0.6,2.8-0.6c1,0,2.2,0.3,3.1,0.8c0,0,0,0,0,0l0,0c0,0,0,0,0,0c0.6,0.3,1.1,0.8,1.6,1.2c0.4,0.5,0.8,0.9,1.1,1.4
		c0.6,1,0.9,1.9,1.2,2.9c0.5,1.9,0.6,3.8,0.6,6c0,2.5-0.2,5.1-0.6,8c-0.3,2.8-0.8,5.7-1.3,8.7c1.5-3.2,3.1-6.4,4.7-9.5
		c3.4-6.5,7-12.7,10.9-17.8c2.2-2.9,4.5-5.4,7-7.3c1.3-1,2.8-1.9,4.3-2.6c1.6-0.7,3.4-1.2,5.3-1.2c1.8,0,3.7,0.4,5.4,1.3
		c1.6,0.8,3,1.9,4.1,3.2c1.1,1.3,1.9,2.8,2.6,4.3c1.2,3.1,1.6,6.3,1.6,9.8c0,3.3-0.4,6.7-1,10.3c-0.6,3.6-1.5,7.3-2.4,11
		c-1.9,7.4-4.4,15-6.5,21.5c-1.4,4.4-2.6,8.3-3.5,11.5c-0.1,0.3-0.1,0.5-0.2,0.7c0.1,0,0.1-0.1,0.2-0.1c3.2-2,7.3-5,11.9-8.6
		c5.4-4.3,11.5-9.4,17.4-15c0.2-3,0.5-6.1,0.9-9.2c1.1-9.3,2.9-18.7,5.4-26.6c1.7-5.3,3.7-10.1,6.4-14c1.5-2.2,3.2-4.2,5.4-5.7
		c1.1-0.8,2.4-1.5,3.7-1.9c1.4-0.5,3-0.8,4.5-0.8c2.5,0,4.9,0.7,7.2,1.9c1.9,1,3.6,2.3,4.9,3.8c1.3,1.6,2.2,3.4,2.7,5.3
		c0.3,1.3,0.5,2.6,0.5,3.9c0,2.4-0.5,4.7-1.2,7.1c-0.8,2.4-1.8,4.7-3.1,7.2c-2.6,4.8-6.2,9.8-10.3,14.9
		c-5.1,6.3-11.2,12.6-17.4,18.6c-0.3,4.6-0.4,9-0.4,13C1005.1,846.4,1005.1,849.2,1005.3,851.6z M807.6,964.7
		c-0.3,2.7-2.7,4.6-5.4,4.4c-2.7-0.3-4.6-2.7-4.4-5.4c0-0.1,8.6-83.7,21.7-161.8c3.9-23.4,8.3-46.3,12.9-66.4
		c-27,2.1-40.3,4.2-40.9,4.3l0,0l0,0c-2.7,0.4-5.2-1.4-5.6-4c-0.4-2.7,1.4-5.2,4-5.6c0.3,0,43.1-7.2,135.2-8.3c2.7,0,4.9,2.1,5,4.8
		c0,2.7-2.1,4.9-4.8,5c-34.3,0.4-61.7,1.7-82.5,3.1c-4.5,19.1-8.8,41.1-12.7,63.9c-4.1,24.2-7.8,49.1-11,72
		c-6.3,45.9-10.4,84-11.3,92.3C807.6,964.1,807.6,964.7,807.6,964.7L807.6,964.7z M869.8,769.1l-1.6,2.9c-1.3,2.3-4.3,3.2-6.7,1.8
		s-3.2-4.3-1.8-6.7l1.6-2.9c1.3-2.3,4.3-3.2,6.7-1.8S871.2,766.7,869.8,769.1z M960.4,694.9c0.1-0.1,0.6-0.7,1.5-1.3
		c0.8-0.7,1.9-1.5,3.3-2.2c0.1-0.1,0.2-0.2,0.4-0.5c0.4-0.5,0.9-1.2,1.3-1.9c0.9-1.4,1.6-2.9,1.6-2.9l0,0l0,0
		c1.2-2.4,4.2-3.4,6.6-2.2c2.4,1.2,3.4,4.2,2.2,6.6c0,0.1-0.4,0.8-1,1.8c-0.6,1-1.4,2.4-2.3,3.7c-0.6,0.9-1.3,1.7-2.2,2.6
		c-0.5,0.5-1.1,1-2,1.4c-0.6,0.3-1.2,0.7-1.6,1.1c-0.4,0.3-0.7,0.6-0.7,0.6l0,0c-1.9,1.9-4.9,2-6.9,0.2
		C958.7,700,958.6,696.9,960.4,694.9z M777.4,602l0.5-2.5c0.6-2.6,3.2-4.3,5.8-3.7c2.6,0.6,4.3,3.2,3.7,5.8l-0.5,2.5
		c-0.6,2.6-3.2,4.3-5.8,3.7C778.5,607.2,776.8,604.6,777.4,602z M871.3,549.1c-41.2,1.9-79.5,5.8-109.3,9.5
		c-0.1,0.4-0.1,0.8-0.2,1.2c-0.6,3.1-1.4,7.8-2.4,13.9c-2.1,12.2-4.9,30.1-8.2,53.1c-6.5,45.9-14.4,112-20.1,192.6l0,0
		c-0.2,2.7-2.5,4.7-5.2,4.5c-2.7-0.2-4.7-2.5-4.5-5.2c9.8-137.9,25.9-233.5,30.5-258.8c-29.5,3.9-48.6,7.3-50.9,7.7
		c-0.1,0-0.2,0-0.2,0l0,0c-2.7,0.5-5.2-1.3-5.7-3.9c-0.5-2.7,1.3-5.2,3.9-5.7c0.1,0,78.6-14.4,171.9-18.7c2.7-0.1,5,2,5.1,4.7
		C876.1,546.7,874,549,871.3,549.1z"/>
	<path class="fillOne" d="M985.1,480.7c-7.9,4.3-15.2,8.9-21.5,13.7c-8.2,6.2-15,12.8-19.8,18.9c-2.8,3.5-4.9,6.9-6.3,10.1
		c-1.7,3.6-2.4,6.8-2.4,9.4c0,1.1,0.1,2.2,0.4,3.1c0.3,0.9,0.6,1.8,1.2,2.6c1.1,1.6,2.7,3.1,5.5,4.5c1.8,0.9,4.1,1.7,6.9,2.3
		c3.7,0.8,8.2,1.3,13.6,1.3c7.9,0,14.4-1,19.7-2.6c5.2-1.7,9.1-4,12-6.8c1.9-1.9,3.3-3.9,4.4-6.2c1.4-3.1,2.1-6.6,2.1-10.7
		c0-4.4-0.9-9.4-2.7-14.8c-1.8-5.4-4.5-11.2-8.1-17.2C988.4,485.7,986.8,483.2,985.1,480.7z"/>
	<path class="fillOne" d="M606.9,1011.2c-37.3,0-70.4,7.4-97.4,19.3c-26.9,11.9-47.6,28.2-60.1,45.6c-8.3,11.6-13,23.8-13.7,35.5
		c-0.1,1-0.1,2-0.1,3c0,7.1,1.5,13.7,4.3,19.9c2.8,6.2,7,12.1,12.4,17.3c10.8,10.6,26.5,19,45.5,24.1c12.7,3.3,26.8,5.2,41.8,5.2
		c11.7,0,23.9-1.1,36.5-3.5c30.4-5.7,55.4-19.8,76.3-39.2c20.9-19.4,37.5-44.3,50.7-71.4c5.5-11.3,10.4-23,14.8-34.9
		c-7.2-2.6-14.4-5-21.7-7.2C668.5,1016.7,639.3,1011.2,606.9,1011.2z"/>
	<path class="fillOne" d="M1095.8,915c-5.8-3.6-12.7-6.6-20.8-8.8c-10.9-3-23.9-4.7-39.4-4.7c-35.6,0-64.3,5.7-86.1,14.4
		c-21.8,8.7-36.8,20.4-45.1,32c-5.5,7.8-8.1,15.5-8.1,22.4c0,3.4,0.6,6.6,1.8,9.7c1.2,3.1,3,6,5.5,8.7c5,5.4,12.7,10,23.6,12.8
		c7.2,1.9,15.8,2.9,25.7,2.9c12.4,0,26.8-1.7,43.2-5.5c41.8-9.6,83.7-30.1,121-58.5c-0.8-2-1.6-4-2.7-6
		C1110.5,927,1104.4,920.4,1095.8,915z"/>
	<circle class="fillOne" cx="968.7" cy="686.1" r="0"/>
</g>
<g id="Layer_2">
</g>
<g id="Layer_3">
</g>
</svg>
