<?xml version="1.0" encoding="utf-8"?>
<!-- Generator: Adobe Illustrator 19.2.1, SVG Export Plug-In . SVG Version: 6.00 Build 0)  -->
<svg version="1.1" xmlns="http://www.w3.org/2000/svg" xmlns:xlink="http://www.w3.org/1999/xlink" x="0px" y="0px"
	 viewBox="0 0 1584 1584" style="enable-background:new 0 0 1584 1584;" xml:space="preserve">
<style type="text/css">
	.Drop_x0020_Shadow{fill:none;}
	.Round_x0020_Corners_x0020_2_x0020_pt{fill:#FFFFFF;stroke:#000000;stroke-miterlimit:10;}
	.Live_x0020_Reflect_x0020_X{fill:none;}
	.Bevel_x0020_Soft{fill:url(#SVGID_1_);}
	.Dusk{fill:#FFFFFF;}
	.Foliage_GS{fill:#FFDD00;}
	.Pompadour_GS{fill-rule:evenodd;clip-rule:evenodd;fill:#44ADE2;}
</style>
<linearGradient id="SVGID_1_" gradientUnits="userSpaceOnUse" x1="1800" y1="-1080" x2="1800.7072" y2="-1079.2928">
	<stop  offset="0" style="stop-color:#DEDFE3"/>
	<stop  offset="0.1738" style="stop-color:#D8D9DD"/>
	<stop  offset="0.352" style="stop-color:#C9CACD"/>
	<stop  offset="0.5323" style="stop-color:#B4B5B8"/>
	<stop  offset="0.7139" style="stop-color:#989A9C"/>
	<stop  offset="0.8949" style="stop-color:#797C7E"/>
	<stop  offset="1" style="stop-color:#656B6C"/>
</linearGradient>
<g id="Layer_1">
	<path class="fillOne" d="M1255,561.3V425.4c-0.2,0-0.4,0-0.7,0c-0.9,0-1.8,0-2.7-0.1c-1.1,0-2.2-0.1-3.3-0.1v132.9
		c1.1,0.5,2.2,1,3.3,1.6C1252.8,560.2,1253.9,560.7,1255,561.3z"/>
	<polygon class="fillOne" points="1255,1189.5 1255,806.8 1251.6,806.8 1248.3,806.8 1248.3,1186.2 1158.4,1186.2 1156.8,1189.5 
		1155.2,1192.9 1255,1192.9 	"/>
	<path class="fillOne" d="M517.7,1186.2l-189.6,0V892.8c-1.1-0.3-2.2-0.6-3.3-0.9c-1.1-0.3-2.2-0.7-3.3-1v302l198.8,0l-1.3-3.3
		L517.7,1186.2z"/>
	<path class="fillOne" d="M321.5,548.7h3.3h3.3V313.4l920.2,0v92.3c1.1,0.1,2.2,0.2,3.3,0.2c1.1,0.1,2.2,0.1,3.3,0.2v-99.4l-933.5,0
		V548.7z"/>
	<polygon class="fillOne" points="1069.3,1189.5 1067.6,1186.2 1009.2,1186.2 1010.4,1189.5 1011.5,1192.9 1071,1192.9 	"/>
	<path class="fillOne" d="M328.1,870.6v-63.8h-3.3h-3.3v61.2c1.1,0.5,2.2,0.9,3.3,1.4C325.9,869.8,327,870.2,328.1,870.6z"/>
	<polygon class="fillOne" points="825.6,1189.5 826.7,1186.2 783.7,1186.2 782.4,1189.5 781.1,1192.9 824.4,1192.9 	"/>
	<polygon class="fillOne" points="773.9,1192.9 775.2,1189.5 776.5,1186.2 836.9,1032 763.9,1032 715.4,1186.2 714.4,1189.5 
		713.3,1192.9 711.1,1199.8 708.8,1192.9 707.6,1189.5 706.5,1186.2 693.6,1148.8 733.9,1032 672.2,1032 650.5,1107.5 629.2,1032 
		567.5,1032 607.1,1148.8 594.7,1186.2 593.6,1189.5 592.5,1192.9 590.2,1199.8 588,1192.9 587,1189.5 585.9,1186.2 537.2,1032 
		464.5,1032 524.9,1186.2 526.2,1189.5 527.5,1192.9 560.3,1276.6 616.1,1276.6 649,1192.9 650.4,1189.5 650.5,1189.1 650.7,1189.5 
		652,1192.9 685.3,1276.6 741.1,1276.6 	"/>
	<path class="fillOne" d="M965.3,1276.6h68.2l-29-83.8l-1.2-3.3l-1.2-3.3L948.7,1032h-61.3l-53.6,154.2l-1.2,3.3l-1.2,3.3
		l-29.1,83.8h65.9l17.5-57.7h61.8L965.3,1276.6z M896.2,1160.6l19.3-64l18.4,64H896.2z"/>
	<polygon class="fillOne" points="1075.1,1186.2 1076.8,1189.5 1078.5,1192.9 1079.5,1195 1079.5,1276.6 1146.4,1276.6 
		1146.4,1195.7 1147.7,1192.9 1149.4,1189.5 1151,1186.2 1226.7,1032 1154.1,1032 1113,1137.8 1069.2,1032 996.5,1032 	"/>
	<path class="fillOne" d="M842.1,919.9c1.9,0,3.7,0.5,5.4,1.7c7.9,5.3-3.9,49.8,16.4,57.3c1.8,0.7,3.7,1,5.6,1
		c19.6,0,43.9-31.6,43.9-31.6c-6.3,49.9,17.2,56.8,25.7,57.1l0.1,0c8.6,0,46.4-58,49.1-61.6c1.9-2.4-0.1-5.2-2.8-5.2
		c-1.3,0-2.8,0.7-4.2,2.3c-3.8,4.8-23.5,43.1-31.2,43.1c-0.5,0-1-0.2-1.4-0.5c-6.4-5.9,4.4-99.1,4.4-99.1c5.9,1.6,11.4,2.4,16.7,2.4
		c29.1,0,48.3-21.9,51.7-25.3c2.6-2.7,0.7-5.1-2.3-5.1c-1.6,0-3.5,0.7-5.1,2.5c-14,15.4-27.6,19.7-38.4,19.7
		c-13.6,0-22.8-6.9-22.8-6.9s4.1-25,4.9-33.6c0.5-5.1-1.9-6.7-6.1-6.7c-2.9,0-6.6,0.7-11,1.6c-10.8,2.1-11.5,5.7-12.3,11
		c-0.7,5.3-4.9,22.9-4.9,22.9c-6.7-0.6-12.8-0.9-18.3-0.9c-48.2,0-57.7,20.2-61.3,24.1c-2.6,2.8-1.2,6.5,2.1,6.5
		c1.8,0,4.1-1.1,6.6-4.2c11.9-14.5,30.5-17.9,45.2-17.9c13.1,0,23.2,2.7,23.2,2.7c-2.4,62.2-10.8,70.2-35,88.3
		c-6.4,4.8-11.1,6.7-14.7,6.7c-9.8,0-10.2-14.6-10.6-21.2c-0.6-9-0.5-31.8-7.4-36.8c-1.2-0.8-2.8-1.2-4.7-1.2
		c-9.2,0-24.7,8.3-24.7,8.3s4.7-69.1,5.8-79.3c1.2-10.3-6.2-9-15.5-10.2c-2.6-0.3-5.1-0.6-7.4-0.6c-5.6,0-9.5,1.5-10,6.5
		c-0.7,7.1-0.6,16.9-2.7,39.7c-2.1,22.7-5.1,24.9-8.1,27.4c-3,2.5-24.6,18.8-24.6,18.8s3.7-32.5,5-43.4c0.6-5.3-1.1-6.9-3.5-6.9
		c-2.5,0-5.9,1.8-8.2,2.9c-4.6,2.2-19.4,9.6-24.2,12.9c-4.7,3.2-3.9,7.2-7.2,13.1c-3.4,6-23.7,24.7-23.7,24.7
		c-3-4.7,0.3-32.3,7-42.5c4.5-6.7,8.1-8.1,11.2-8.1c2.1,0,4,0.6,5.8,0.6c1.7,0,3.3-0.6,4.9-3c2.5-3.7-4.4-6.1-11.3-7.3
		c-0.8-0.2-1.9-0.2-3.2-0.2c-9.1,0-28,4.7-38.4,28.5c-11.9,27.2-35.5,45.6-35.5,45.6s0.4-36.8,3.8-53.4c2-9.7-0.9-12.2-5.6-12.2
		c-3.3,0-7.5,1.2-11.4,2.1c-9.5,2-10.2-1.4-13.4,16.4c-7,39.1-51.8,88.8-51.8,88.8c-14-15.8-13.7-63.4-13.7-63.4
		c70.5-34.2,50.7-87.9,11.1-87.9c-1.2,0-2.4,0-3.6,0.1c-41.9,3.4-71.6,59.5-71.6,59.5l-0.1-33.3c0,0,16.9-9.2,15.7-23.8
		c-0.4-4.8-3.9-6.3-8.1-6.3c-4.3,0-9.3,1.6-12.5,3c-6.3,2.7-15.4,7.7-21.2,11.5c-5.8,3.8-4.2,11.9-4.1,18.5
		c-16.6,10.3-43,20.3-89.7,22.7c-1.8,0.1-3.6,0.1-5.4,0.1c-11,0-21.2-1.8-30.5-4.8c-1.1-0.4-2.2-0.7-3.3-1.1
		c-1.1-0.4-2.2-0.8-3.3-1.3c-23.7-9.4-41.1-26.4-50.7-40.1c-3.5-5-4.9-6.5-6.4-6.5c-0.4,0-0.8,0.1-1.3,0.3c-1.9,0.8-3.2,2-0.4,8.2
		c7.4,16.6,29.2,36.6,58.8,46.7c1.1,0.4,2.2,0.7,3.3,1.1c1.1,0.3,2.2,0.7,3.3,1c9.9,2.7,20.5,4.4,31.7,4.4c1.3,0,2.6,0,3.9-0.1
		c51.8-1.8,76.1-12.9,89.3-20.7c-0.8,16.4-5.7,102.1,0.2,116.6c3.3,8.1,12.5,11.1,20.6,11.1c6.4,0,12-1.8,13.6-4.5
		c3.6-6-3.1-91.9-3.1-91.9c9.8-24.8,46.8-64.4,61.8-64.4c2,0,3.6,0.7,4.7,2.3c28.5,41.1-6.8,73.5-9.2,74.3c-0.1,0-0.2,0.1-0.4,0.1
		c-3.2,0-15.5-8-21.7-9c-0.8-0.1-1.6-0.2-2.4-0.2c-5.7,0-10.9,3-7.8,8.2c5.6,9.3,9.1,24.3,12.7,45.9c3.3,20.1,16.6,32,32.5,32
		c1.2,0,2.4-0.1,3.6-0.2c17.4-2,46.4-50.7,46.4-50.7s-0.3,19.1,16,21.3c0.4,0.1,0.9,0.1,1.3,0.1c16.5,0,43.4-37.9,43.4-37.9
		c-2.7,11.6,2.6,19.7,12.6,22.9c0.4,0.1,0.9,0.2,1.4,0.2c11.5,0,43.2-33.6,43.2-33.6c2.7,9.4-3.5,36.9-3.5,36.9
		c-40.1,20.1-60.8,59.5-54.5,64.8c2.7,2.3,4.4,4,8.5,4c5.6,0,15.6-3.2,38.4-12.5c39.3-16,46.5-70.6,49.7-75.4
		c3.2-4.9,31.4-23.6,31.4-23.6c5.5,37.4-8,77.1-1.3,79.6c1.1,0.4,2,0.6,2.7,0.6c4,0,4.6-4.5,13.1-5.1c10.1-0.7,16.2-4.5,15.1-11.9
		c-1.1-7.4-1.3-33.5,2.6-38.9C828,926.2,835.3,919.9,842.1,919.9z M490.1,833.6c0.3,0,0.6,0,1,0.1c7.1,0.9-7,12.6-7,12.6
		S482.2,833.6,490.1,833.6z M706.5,988.2c-7.6,8.5-24.8,19.9-31.5,19.9c-4,0-4.3-4,3.2-14.9c20-29.3,39.7-35.8,39.7-35.8
		S718.7,974.6,706.5,988.2z"/>
	<path class="fillOne" d="M628.4,848.4c-2.6,0-5.8,0.7-4.7,4.3c1.2,3.7,2.1,4.4,4.8,4.4l0.1,0c2.6,0,4.8-1.9,4.8-4.3
		c0-2.4-2.1-4.4-4.8-4.4L628.4,848.4z"/>
	<polygon class="fillOne" points="220.7,555.4 220.7,614 291.4,614 291.4,800.2 321.5,800.2 324.8,800.2 328.1,800.2 358.6,800.2 
		358.6,614 428.9,614 428.9,555.4 328.1,555.4 324.8,555.4 321.5,555.4 	"/>
	<path class="fillOne" d="M1225.2,557.3c-10.1-2.4-20.7-3.6-31.7-3.6c-17.7,0-34.2,3.2-49.5,9.5c-15.3,6.3-28.6,14.9-39.8,25.9
		c-11.3,10.9-20.1,23.8-26.5,38.6c-6.4,14.8-9.7,30.9-9.7,48.1c0,20,3.2,37.8,9.7,53.4c6.4,15.6,15,28.8,25.9,39.6
		c10.8,10.8,23.4,19,37.9,24.6c14.5,5.6,29.6,8.4,45.5,8.4c22.8,0,42.9-7.4,60.3-22.1v20.3h1h3.3h3.3h47.8V669.8H1255h-3.3h-3.3
		h-46.2v48.3h42.4c-14.9,16.1-32.2,24.1-51.7,24.1c-8.5,0-16.2-1.6-23.1-4.7c-6.9-3.1-12.8-7.5-17.8-13.1
		c-4.9-5.6-8.8-12.4-11.5-20.2c-2.8-7.8-4.1-16.5-4.1-26.2c0-9.4,1.4-18.1,4.1-26c2.8-7.9,6.6-14.8,11.4-20.5
		c4.8-5.7,10.6-10.2,17.2-13.4c6.7-3.2,14-4.8,22.1-4.8c10.8,0,21,2.9,30.7,8.8c9.7,5.9,16.9,13.6,21.7,23.3l4.8-3.7l3.3-2.6
		l3.3-2.6l38.5-29.5c-4.4-8.3-10-15.7-16.9-22.2c-6.4-6.1-13.7-11.4-21.6-16c-0.6-0.3-1.1-0.6-1.7-0.9c-0.6-0.3-1.1-0.6-1.7-0.9
		c-1.1-0.6-2.2-1.1-3.3-1.7C1241.1,562,1233.4,559.2,1225.2,557.3z"/>
	<polygon class="fillOne" points="453.4,555.4 453.4,800.2 520.6,800.2 520.6,704.3 602.6,704.3 602.6,800.2 669.9,800.2 
		669.9,555.4 602.6,555.4 602.6,645.7 520.6,645.7 520.6,555.4 	"/>
	<rect x="711.9" y="555.4" class="fillOne" width="67.2" height="244.8"/>
	<polygon class="fillOne" points="971.8,679.8 873.6,555.4 821.2,555.4 821.2,800.2 888.4,800.2 888.4,679.8 985.6,800.2 
		1039.1,800.2 1039.1,555.4 971.8,555.4 	"/>
	<polygon class="fillOne" points="1363.3,753.3 1323.3,753.3 1323.3,800.2 1337.8,800.2 1328.7,840.2 1349.5,840.2 1363.3,800.2 	
		"/>
	<path class="fillOne" d="M790.8,376c0.9,0,1.8-0.1,2.8-0.4c3.5-1,5.7-3.5,5-5.6c-0.5-1.5-2.4-2.4-4.8-2.4c-0.9,0-1.8,0.1-2.8,0.4
		c-3.5,1-5.7,3.5-5,5.6C786.5,375.1,788.5,376,790.8,376z"/>
	<path class="fillOne" d="M1344.2,387.5c3.4-6.1,1.8-8.3-0.6-8.3c-1.7,0-3.8,1.1-4.8,2.7c-1.8,2.8-13.3,31.2-74.6,31.2
		c-2.9,0-6-0.1-9.2-0.2c0,0-0.1,0-0.1,0c-1,0-2.1-0.1-3.2-0.2c-1.1-0.1-2.2-0.1-3.3-0.2c-22.1-1.7-49.2-7.2-83.4-16.9
		c-12.2-3.5-26.5-3.9-32.2-3.9c-1.6,0-2.6,0-2.6,0s1.4-4.8,2.7-13.1c1.3-8.2-4.1-11.2-12.5-11.2c-0.1,0-0.3,0-0.4,0
		c-0.2,0-0.5,0-0.7,0c-0.7,0-1.4,0-2.1,0c-7.9,0-16.5,1.1-19.8,27.8c0,0-54.5,8.1-71.7,38.1c-2.8,4.9-1.4,6.8,0.7,6.8
		c1.9,0,4.4-1.4,5.2-3.6c1.8-4.6,13.3-24,65.5-33.6c0,0-3.3,22.1-8.1,35.1c-4.8,12.9-49.8,54.8-61.5,54.8c-0.1,0-0.2,0-0.3,0
		c-11.1-0.8-10.4-41.3-11-48.3c-0.5-5.8-0.8-14-9.2-14c-1.7,0-3.7,0.3-6.2,1.1c-14.4,4.5-32.9,18.6-32.9,18.6l3.2-39.3
		c1.9-2,4.9-4.9,8.1-8.1c3.8-3.8,7.7-8,10.1-11.9c1.3-2,2.1-3.9,2.3-5.6c0.6-7.3-7.3-16.9-16.8-18.2c-0.9-0.1-2.1-0.2-3.4-0.2
		c-12.1,0-38.4,7.5-38.1,60.8l-22,13.3c0,0,3-20.2,3.5-24.9c0.5-4.7,0.8-12-8.1-12.2c-1.5,0-2.7,0-3.9,0c-5,0-6.9,0.3-8.8,0.3
		c-0.2,0-0.5,0-0.7,0c-0.3,0-0.5,0-0.8,0c-2.5,0-5.9,0.7-5.9,6.2c0,6.1-25.6,23.2-28,23.2l0,0c-2.2-0.1,0.3-25.3,13.6-27.1
		c13.3-1.7,10.4-1.3,10-5.1c-0.2-1.8-5.7-3.5-13.3-3.5c-8.9,0-20.5,2.4-29.5,9.9c-16.7,13.9-21.4,31.9-35.2,39.5
		c0,0-3.6-12.4-0.6-39c1.4-12.9-0.4-16.4-3.3-16.4c-3.1,0-7.4,4-10.3,5c-5.8,2-13.5,4.8-17.1,26.3c-3.6,21.5-12.8,45.2-37.7,65.5
		c0,0-11.5-15.7-12-35.3c-0.5-19.6-13.6-23.2-17.1-25.4c3.5-3.4,19.4-16.9,22-36.3c2.6-19.5-12.5-27.1-28.6-27.7c-0.7,0-1.5,0-2.2,0
		c-36.4,0-55.3,37.8-64.1,57.6c0,0-6.7-25.6-1.9-42.8c6.4-6.6,12.8-18.1,8.3-26.8c-1.2-2.3-3.1-3.2-5.5-3.2c-7,0-17.6,7.7-22.9,8
		c-7.1,0.5-9.8,38.7-9.8,38.7s-24.8,19.6-48.3,24.7c-7.6,1.6-8.4,3.4-7.6,4.7c0.3,0.5,1,0.9,2.6,0.9c1.7,0,4.4-0.4,8.7-1.5
		c19.2-5,44.5-22.8,44.5-22.8s5.5,70.2,6.2,77.7c0.7,7.5-3.1,34,2.2,37.7c2,1.4,4.2,1.9,6.5,1.9c3.9,0,8.2-1.3,12.4-2
		c6.7-1,17.7-0.3,21.3-4.5c3.6-4.2-21.9-56.1-14.7-75.2c13.3-34.9,25.1-63.8,44.1-64.5c8.2,0.3,27.2,27.5,15.9,50.8
		c-0.6-0.2-2.2-0.4-4.3-0.4c-0.2,0-0.4,0-0.6,0c-4.1,0.1-9.7,0.8-13.7,3.1c-3.3,1.9-5.4,4.9-4.4,9.5c1.5,6.4,5.2,8.3,9.1,8.3
		c5.7,0,11.7-3.9,11.7-3.9s-1.8,61.5,26.5,61.5c1.8,0,3.8-0.3,5.8-0.8c34.3-9,46.8-53.2,46.8-53.2s2.8,14.2,13.1,15.6
		c0.3,0,0.6,0.1,0.9,0.1c10.8,0,35.2-23.5,38.3-28.1c0,0,3.2,16.3,15.9,16.4c0.1,0,0.3,0,0.4,0c12.2,0,10.1-6.3,17.6-11.3
		c7.6-5.1,27.9-18.5,27.9-18.5l-5,35.6l0,0.3c0,0-46.1,27.8-54.7,45.9c-1.4,2.9-1.8,5.5-1,7.7c6.2,16.2,18,17.2,24,17.4
		c0.2,0,0.4,0,0.6,0c7.7,0,47.7-4.2,61.2-80.6l22.9-12.6c0,0,2.1,51.6,1.7,59.2c-0.4,7.5-0.7,17.5,9.2,17.5c0.1,0,0.3,0,0.4,0
		c10.4-0.3,12.2-0.4,14.7-0.7c2.5-0.3,9.9-1.9,8.6-13.9c-1.3-12-9.5-45.5,22.4-54.5c0,0-0.8,15.7-1.7,24.4
		c-0.9,8.5-4.9,33.4,32.7,33.4c0.7,0,1.5,0,2.3,0c16.1-0.3,63.6-50.8,63.6-50.8s-10.4,66.4,18.8,67.6c0.2,0,0.5,0,0.7,0
		c27.7,0,61.7-66.7,84.7-66.7c1.2,0,2.4,0.2,3.5,0.6c2.4,1.8-3.8,8.2,1,9.6c0.8,0.2,1.5,0.3,2.2,0.3c3.4,0,5.1-2.5,5.4-3.5
		c0.3-1.2,3-13.1-6.5-13.6c-0.4,0-0.8,0-1.3,0c-29.1,0-60.3,54-80.6,63.8l-0.1,0c-3.7,0,5.4-100.3,11.5-107.9c0,0,4.2-0.4,10.4-0.4
		c6.6,0,15.4,0.5,23.6,2.4c15,3.6,51.6,14.9,86.7,16.6c1.1,0.1,2.2,0.1,3.3,0.1c0.9,0,1.8,0.1,2.7,0.1c0.2,0,0.4,0,0.6,0
		c1.8,0,3.7,0,5.5,0C1295.4,418.8,1330.1,414.5,1344.2,387.5z M978.9,379.9c0,0,16.1,2.1-7.1,20.5
		C971.9,400.5,972.7,384.9,978.9,379.9z M629.8,358.8c0.1-2.3,2.2-5.5,4.3-5.5c0.6,0,1.2,0.3,1.7,0.9c5.4,6.5-5,17.4-5,17.4
		S629.6,361.8,629.8,358.8z M683.3,436c-1.4,0-2.5-0.5-3.1-1.7c-0.2-0.4-0.2-0.8-0.2-1.1c0-0.2,0-0.3,0-0.4c0.4-2,3.6-3.3,6.7-3.4
		c0.2,0,0.4,0,0.7,0c2.1,0,4.1,0.5,5,1.6C690.4,433.6,686.2,436,683.3,436z M845.6,514.1c-1.9,0.8-3.8,1.2-5.5,1.2
		c-2.3,0-4.3-0.8-5.8-2.6c-0.2-0.3-0.4-0.5-0.6-0.8c-9.8-15.3,45.6-46,45.6-46c0,0.6,0.1,1.2,0.1,1.8
		C879.2,484.2,859.7,508.4,845.6,514.1z"/>
</g>
<g id="Layer_2">
</g>
<g id="Layer_3">
</g>
</svg>
