<?xml version="1.0" encoding="utf-8"?>
<!-- Generator: Adobe Illustrator 19.2.1, SVG Export Plug-In . SVG Version: 6.00 Build 0)  -->
<svg version="1.1" xmlns="http://www.w3.org/2000/svg" xmlns:xlink="http://www.w3.org/1999/xlink" x="0px" y="0px"
	 viewBox="0 0 1584 1584" style="enable-background:new 0 0 1584 1584;" xml:space="preserve">
<style type="text/css">
	.Drop_x0020_Shadow{fill:none;}
	.Round_x0020_Corners_x0020_2_x0020_pt{fill:#FFFFFF;stroke:#000000;stroke-miterlimit:10;}
	.Live_x0020_Reflect_x0020_X{fill:none;}
	.Bevel_x0020_Soft{fill:url(#SVGID_1_);}
	.Dusk{fill:#FFFFFF;}
	.Foliage_GS{fill:#FFDD00;}
	.Pompadour_GS{fill-rule:evenodd;clip-rule:evenodd;fill:#44ADE2;}
</style>
<linearGradient id="SVGID_1_" gradientUnits="userSpaceOnUse" x1="3672" y1="792" x2="3672.707" y2="792.7071">
	<stop  offset="0" style="stop-color:#DEDFE3"/>
	<stop  offset="0.1738" style="stop-color:#D8D9DD"/>
	<stop  offset="0.352" style="stop-color:#C9CACD"/>
	<stop  offset="0.5323" style="stop-color:#B4B5B8"/>
	<stop  offset="0.7139" style="stop-color:#989A9C"/>
	<stop  offset="0.8949" style="stop-color:#797C7E"/>
	<stop  offset="1" style="stop-color:#656B6C"/>
</linearGradient>
<g id="Layer_1">
	<path class="fillOne" d="M252.7,568.3c15.5,0,26.7-11.7,26.7-25.9v-0.1c0-14.2-11.1-25.8-26.6-25.8s-26.7,11.7-26.7,25.9v0.1
		C226.1,556.7,237.2,568.3,252.7,568.3z M237.6,542.2c0-8.6,6.2-15.6,15-15.6s15.2,7.2,15.2,15.8v0.1c0,8.6-6.2,15.6-15,15.6
		c-8.9,0-15.2-7.2-15.2-15.8V542.2z"/>
	<path class="fillOne" d="M319.3,568.2c13.5,0,22-7.4,22-22.6v-28.3h-11V546c0,7.9-4.1,12-10.8,12s-10.8-4.2-10.8-12.4v-28.4h-11
		v28.6C297.6,560.7,305.9,568.2,319.3,568.2z"/>
	<path class="fillOne" d="M372.9,551.4h8.5h0.1l10.7,16h12.9l-12.2-17.9c6.4-2.4,10.7-7.4,10.7-15.5v-0.1c0-4.7-1.5-8.7-4.3-11.5
		c-3.3-3.3-8.2-5.1-14.6-5.1h-22.9v50.1h11V551.4z M372.9,527.2h11c5.4,0,8.7,2.4,8.7,7.2v0.1c0,4.2-3.1,7.1-8.4,7.1h-11.2V527.2z"
		/>
	<path class="fillOne" d="M234.1,665.7v363.6c1,0,2,0,3,0c24.6-0.4,49.1-1.5,73.7-3.2c0.4,0,0.8-0.1,1.2-0.1l0.9-0.9
		c2.7-2.8,5.5-5.6,8.2-8.4c-0.3,0-0.7,0-1,0.1c-1.1,0.1-2.2,0.2-3.3,0.2c-23.4,1.6-46.9,2.6-70.3,3c-1,0-2,0-3,0V656.4
		c-4.7,0.1-9.3,0.1-14,0.1c-1,0-2,0-3,0v-34.2c-2.1,0-4.2,0-6.3,0.1h-3v43.4c1,0,2,0,3,0C224.8,665.8,229.4,665.8,234.1,665.7z"/>
	<path class="fillOne" d="M234.3,603.8v43.4h3c4.7,0,9.3,0,14-0.1v363.6c1,0,2,0,3,0c24.5-0.4,49.1-1.5,73.7-3.2
		c0.4,0,0.8,0,1.2-0.1c0.3-0.3,0.6-0.6,0.9-0.9c17.5-17.7,35-35.8,52.5-54.2c2.3-2.5,4.7-4.9,7-7.4c0.3-0.3,0.6-0.7,0.9-1V594.8
		c-1,0.1-2,0.2-3,0.3c-13.2,1.4-26.4,2.7-39.7,3.8c-1,0.1-2,0.2-3,0.2v331.6c-2.7,2.7-5.3,5.3-8,8V616.9c-2.1,0.2-4.2,0.4-6.3,0.5
		c-1,0.1-2,0.2-3,0.2v330.3c-5.7,5.7-11.5,11.4-17.2,17.1c-4.5,0.3-8.9,0.5-13.4,0.7V602.3c-1,0-2,0.1-3,0.1
		c-18.9,0.9-37.8,1.4-56.7,1.4C236.3,603.8,235.3,603.8,234.3,603.8z"/>
	<path class="fillOne" d="M643.8,610.7v363.6c1-0.2,2-0.4,3-0.6c18.9-4,37.8-8.2,56.7-12.3c1-0.2,2-0.4,3-0.7v-7.2
		c-1,0.2-2,0.4-3,0.7c-15.8,3.5-31.6,6.9-47.4,10.3c-1,0.2-2,0.4-3,0.6V601.4c-4.7,1-9.3,2-14,3c-1,0.2-2,0.4-3,0.6v-36.1
		c-2.1,0.4-4.2,0.9-6.3,1.3c-1,0.2-2,0.4-3,0.6v43.4c1-0.2,2-0.4,3-0.6C634.5,612.7,639.1,611.7,643.8,610.7z"/>
	<path class="fillOne" d="M780.1,630.1v299.4c1-0.2,2-0.4,3-0.7c19.3-4.3,38.5-8.6,57.8-12.9c0.4-0.1,0.8-0.2,1.2-0.3
		c0.3-0.3,0.6-0.7,0.9-1c3.1-3.6,6.3-7.3,9.4-11v24.5c1-0.2,2-0.4,3-0.7c18.9-4.1,37.8-8.1,56.7-12c1-0.2,2-0.4,3-0.6v-7.3
		c-1,0.2-2,0.4-3,0.6c-15.8,3.3-31.6,6.7-47.4,10.1c-1,0.2-2,0.4-3,0.7v-26c2.6-3.1,5.3-6.2,8-9.3v26c1-0.2,2-0.4,3-0.6
		c17.2-3.7,34.5-7.4,51.7-11c1.7-0.3,3.3-0.7,5-1c1-0.2,2-0.4,3-0.6v-43.4c-1,0.2-2,0.4-3,0.6c-4.7,1-9.3,1.9-14,2.9V557.1
		c-1,0.2-2,0.4-3,0.6c-13.2,2.8-26.4,5.6-39.7,8.5c-1,0.2-2,0.4-3,0.7v7.6v254c-2.7,3-5.3,6.1-8,9.2V583.4c-2.1,0.5-4.2,0.9-6.3,1.3
		c-1,0.2-2,0.4-3,0.6v261.5c-8.3,9.5-16.5,19-24.8,28.6l-1.8,0.4V576.5c-1,0.2-2,0.4-3,0.7c-18.9,4.2-37.8,8.4-56.7,12.6
		c-1,0.2-2,0.4-3,0.7v43.4c1-0.2,2-0.4,3-0.7C770.7,632.2,775.4,631.2,780.1,630.1z"/>
	<path class="fillOne" d="M762.8,648.7v299.4c1-0.2,2-0.4,3-0.7c19.3-4.3,38.5-8.6,57.8-12.9c0.4-0.1,0.8-0.2,1.2-0.3
		c0.3-0.3,0.6-0.7,0.9-1c2.3-2.6,4.5-5.3,6.8-7.9c-1.5,0.3-2.9,0.6-4.4,1c-17.7,3.9-35.3,7.9-53,11.8c-1,0.2-2,0.4-3,0.7V639.4
		c-4.7,1-9.3,2.1-14,3.1c-1,0.2-2,0.4-3,0.7V607c-2.1,0.5-4.2,0.9-6.3,1.4c-1,0.2-2,0.4-3,0.7v43.4c1-0.2,2-0.5,3-0.7
		C753.5,650.8,758.2,649.7,762.8,648.7z"/>
	<path class="fillOne" d="M594.5,1076.1v-0.1c0-8.4-5.7-12.2-14.4-10.8c-2,0.3-3.9,0.7-5.9,1c0,8.9,0,17.7,0,26.6
		c2-0.3,3.9-0.6,5.9-1C588.8,1090.3,594.5,1084.6,594.5,1076.1z"/>
	<path class="fillOne" d="M1368,1022.3c-30.8-20.2-61.7-39.4-92.5-57.8c30.8-21.9,61.7-43.1,92.5-63.3c-384,0-768,147.7-1152,147.7
		c27,20.2,54,39.6,80.9,58.5c-27,21.5-54,42.5-80.9,62.6C600,1170,984,1022.3,1368,1022.3z M1021,1004.1
		c-11.1-0.7-19.7-2.4-19.7-13.2v-0.1c0-9.7,7.7-18,20.2-20.1c8.9-1.4,15.8-0.1,21.5,3.5c-2.4,3.8-4.8,7.6-7.2,11.4
		c-4.8-2.6-10-3.6-14.6-2.8c-3.5,0.6-5.2,2.3-5.2,4.2v0.1c0,2.4,1.8,3.1,9,3.6c12,0.7,19.5,3.4,19.5,13.2v0.1
		c0,10.7-8.4,18.3-21.1,20.4c-9.3,1.5-18.1,0-24.5-4.6c2.7-3.7,5.4-7.3,8.1-11c5.2,3.3,10.9,4.5,17,3.5c3.9-0.6,6-2.3,6-4.5v-0.1
		C1029.8,1005.5,1028.1,1004.6,1021,1004.1z M935.8,986.3c4.9-0.9,9.8-1.8,14.7-2.6v29c0,7.5,3.8,10.4,9.6,9.4
		c5.8-1,9.6-5.1,9.6-12.4v-29.4c4.9-0.9,9.8-1.7,14.7-2.5v29c0,16.9-9.6,25.9-24.5,28.5c-14.9,2.6-24.2-3.2-24.2-19.6V986.3z
		 M846.6,1002.9c14-2.7,28-5.3,42-7.9c0,4.1,0,8.2,0,12.3c-9.2,1.7-18.5,3.5-27.7,5.2v7.9c8.4-1.6,16.7-3.2,25.1-4.7
		c0,3.8,0,7.6,0,11.4c-8.4,1.6-16.7,3.1-25.1,4.7v8.3c9.4-1.8,18.7-3.5,28.1-5.3v12.3c-14.1,2.6-28.3,5.3-42.4,8V1002.9z
		 M778.3,1016c4.5-0.9,9-1.7,13.5-2.6c7.2,7.8,14.3,15.7,21.5,23.5v-27.6c4.8-0.9,9.6-1.8,14.3-2.8c0,17.4,0,34.8,0,52.3
		c-4.2,0.8-8.5,1.6-12.7,2.4c-7.4-8.1-14.9-16.3-22.3-24.4v28.7c-4.8,0.9-9.6,1.8-14.3,2.8V1016z M744.5,1022.5
		c4.9-0.9,9.7-1.9,14.6-2.8v52.3c-4.9,0.9-9.7,1.9-14.6,2.8V1022.5z M686.1,1033.6c13.9-2.6,27.9-5.2,41.8-7.9v12.7
		c-9.1,1.7-18.2,3.5-27.3,5.2v8.9c8.2-1.5,16.5-3.1,24.7-4.7v12c-8.2,1.6-16.5,3.1-24.7,4.7v18.7c-4.8,0.9-9.7,1.8-14.5,2.7V1033.6z
		 M626.6,1044.4c14-2.5,28-5,42-7.6v12.3c-9.2,1.7-18.5,3.4-27.7,5v7.9c8.4-1.5,16.7-3,25.1-4.5v11.4c-8.4,1.5-16.7,3-25.1,4.5v8.3
		c9.4-1.7,18.7-3.4,28.1-5.1v12.3c-14.1,2.6-28.3,5.1-42.4,7.6V1044.4z M559.7,1055.7c6.7-1.1,13.4-2.2,20.2-3.3
		c18.7-3.1,29.5,5.7,29.5,20.8v0.1c0,15.1-11,28.2-29.8,31.3c-6.6,1.1-13.2,2.2-19.9,3.3V1055.7z"/>
	<path class="fillOne" d="M507.4,1001c0.4-0.1,0.8-0.1,1.2-0.2c0.3-0.3,0.6-0.6,0.9-1c2.4-2.7,4.8-5.4,7.2-8.1
		c-0.8,0.1-1.6,0.3-2.4,0.4l-1.9,0.3c-21.6,3.7-43.2,7.2-64.8,10.3c-1,0.2-2,0.3-3,0.4V817.1c-2.8,2.9-5.5,5.9-8.3,8.8
		c-0.3,0.3-0.6,0.7-1,1v185.6c1-0.2,2-0.3,3-0.4C461.3,1008.7,484.4,1005,507.4,1001z"/>
	<path class="fillOne" d="M477.9,754.7c1-0.2,2-0.3,3-0.5v-7.8c-1,0.2-2,0.3-3,0.5c-10.1,1.6-20.3,3.2-30.4,4.6c-1,0.2-2,0.3-3,0.4
		v-83.6c-2.1,0.3-4.2,0.6-6.3,0.9c-1,0.1-2,0.3-3,0.4v91.5c1-0.1,2-0.3,3-0.4C451.5,758.9,464.7,756.8,477.9,754.7z"/>
	<path class="fillOne" d="M490.2,736.9c1.7-0.3,3.3-0.5,5-0.8c1-0.2,2-0.3,3-0.5v-32.4c4.7-0.8,9.4-1.6,14.1-2.4
		c4.2,4,8.3,8,12.5,11.9v46.1c-9.9,1.7-19.7,3.4-29.6,5c-0.4,0.1-0.8,0.1-1.2,0.2c-0.3,0.3-0.6,0.6-0.9,0.9
		c-13.2,14.3-26.4,28.4-39.7,42.4c-0.3,0.3-0.6,0.7-1,1v185.6c0.1,0,0.2,0,0.3,0c0.9-0.1,1.8-0.3,2.7-0.4c8.8-1.3,17.6-2.6,26.5-4
		c4.4-0.7,8.8-1.4,13.2-2.1c4.4-0.7,8.8-1.4,13.2-2.2c5.4-0.9,10.8-1.8,16.2-2.8l0.2,0v15.5c1-0.2,2-0.4,3-0.5
		c18.9-3.4,37.8-7.1,56.7-10.8c1-0.2,2-0.4,3-0.6v-7.4c-1,0.2-2,0.4-3,0.6c-15.8,3.1-31.6,6.1-47.4,9c-1,0.2-2,0.4-3,0.5V973
		c2.7-3,5.3-6,8-8.9v15.3h0c1-0.2,2-0.4,3-0.5c10.8-2,21.5-4,32.3-6.1c6.5-1.2,12.9-2.5,19.4-3.8c1.7-0.3,3.3-0.7,5-1
		c1-0.2,2-0.4,3-0.6v-43.4c-1,0.2-2,0.4-3,0.6c-4.7,0.9-9.3,1.9-14,2.8V667c-0.3-0.2-0.6-0.5-0.9-0.7c-13.2-9.9-26.4-19.9-39.7-29.9
		c-0.3-0.2-0.6-0.4-0.9-0.7c-0.4,0.1-0.8,0.2-1.2,0.2c-29.8,5.4-59.7,10.4-89.5,14.7c-1,0.2-2,0.3-3,0.4v91.5c1-0.1,2-0.3,3-0.4
		C467.1,740.5,478.7,738.8,490.2,736.9z M512.3,941.1c-4.7,0.8-9.4,1.6-14.1,2.3V822.4c8.9-1.5,17.7-3.1,26.6-4.7v109.6
		C520.6,931.9,516.5,936.5,512.3,941.1z M542.1,908.7c-2.7,2.9-5.3,5.9-8,8.8V808.5c-7,1.3-18.9,2.5-28.8,3.7c2.3-2.6,4.7-5.2,7-7.8
		c9.9-1.7,19.9-3.4,29.8-5.2V908.7z M498.2,687.5c10.4-1.7,20.9-3.5,31.4-5.3c4.2,4,8.3,8,12.5,11.9v61.6c-2.7,0.5-5.3,1-8,1.4
		v-53.8c-4.2-4-8.3-7.9-12.5-11.9c-7.8,1.4-15.6,2.7-23.4,4V687.5z"/>
	<path class="fillOne" d="M661.1,592.1v363.6c1-0.2,2-0.4,3-0.6c17.2-3.7,34.5-7.4,51.7-11.2c1.6-0.4,3.3-0.7,5-1.1
		c1-0.2,2-0.4,3-0.7v-43.4c-1,0.2-2,0.4-3,0.7c-4.7,1-9.3,2-14,3.1V538.8c-1,0.2-2,0.4-3,0.7c-18.9,4.1-37.8,8.2-56.7,12.2
		c-1,0.2-2,0.4-3,0.6v43.4c1-0.2,2-0.4,3-0.6C651.7,594.1,656.4,593.1,661.1,592.1z"/>
	<path class="fillOne" d="M971.4,604.3v299.4l3-0.6c43.1-8.2,86.1-15.5,129.2-21.4c1-0.1,2-0.3,3-0.4v-8c-1,0.1-2,0.3-3,0.4
		c-40,5.7-80,12.5-119.9,20.1c-1,0.2-2,0.4-3,0.6V595c-4.7,0.9-9.3,1.8-14,2.7c-1,0.2-2,0.4-3,0.6v-35.9c-2.1,0.4-4.2,0.8-6.3,1.2
		c-1,0.2-2,0.4-3,0.6v43.4c1-0.2,2-0.4,3-0.6C962,606.1,966.7,605.2,971.4,604.3z"/>
	<path class="fillOne" d="M988.6,585.8v299.4l3-0.6c41.4-7.9,82.8-14.9,124.2-20.7c1.7-0.2,3.3-0.5,5-0.7c1-0.1,2-0.3,3-0.4V739.2
		c-1,0.1-2,0.3-3,0.4c-13.2,1.8-26.4,3.7-39.7,5.8c-1,0.1-2,0.3-3,0.5V826c-2.7,0.4-5.3,0.9-8,1.3V763c-2.1,0.3-4.2,0.6-6.3,0.9
		c-1,0.2-2,0.3-3,0.5v64.4c-8.9,1.5-17.7,2.9-26.6,4.5V712.2c23.1-3.9,46.2-7.5,69.3-10.6c1-0.1,2-0.3,3-0.4v-8l-0.8,0.1
		c-0.8,0.1-1.5,0.2-2.2,0.3c-23.1,3.3-46.2,6.9-69.3,10.9v-7.9c9.9-1.7,19.9-3.4,29.8-5c6.2-1,12.5-2,18.7-3c11-1.7,22-3.4,33-4.9
		c1.7-0.2,3.3-0.5,5-0.7c1-0.1,2-0.3,3-0.4V520c-1,0.1-2,0.3-3,0.4c-48.7,6.7-97.5,15.1-146.2,24.7c-1,0.2-2,0.4-3,0.6v43.4
		c1-0.2,2-0.4,3-0.6C979.3,587.6,984,586.6,988.6,585.8z M1034.3,577.4c14.6-2.6,29.2-5,43.9-7.3v75.8c-2.7,0.4-5.3,0.9-8,1.3v-67.8
		c-12,1.9-23.9,3.9-35.9,5.9V577.4z M1034.3,593c8.9-1.5,17.7-3,26.6-4.3v60c-8.9,1.5-17.7,2.9-26.6,4.5V593z"/>
	<path class="fillOne" d="M1177.2,749.5c-1,0.1-2,0.2-3,0.3v123.6c1-0.1,2-0.2,3-0.3c43.1-4.1,86.1-6.5,129.2-6.6h3v-9.2
		c-1,0-2,0-3,0c-40,0.4-79.9,2.7-119.9,6.5c-1,0.1-2,0.2-3,0.3V749C1181.4,749.2,1179.3,749.3,1177.2,749.5z"/>
	<path class="fillOne" d="M1174.2,574.1v57.1c0.3,0.3,0.6,0.5,0.9,0.8c29.5,24.8,59.1,50.5,88.6,77.1v97.1
		c-8.9,0.4-17.7,0.9-26.6,1.5v-80.2c-1,0.1-2,0.1-3,0.2c-13.2,0.9-26.4,2-39.7,3.3c-1,0.1-2,0.2-3,0.3v123.6c1-0.1,2-0.2,3-0.3
		c41.4-3.9,82.8-6.3,124.2-6.5c1.7,0,3.3,0,5-0.1h3V672.1c-0.3-0.3-0.6-0.6-0.9-0.9c-19.9-18.9-39.8-37.2-59.6-55.2
		c0.2,0,0.4,0,0.7,0c13.2-0.4,26.4-0.7,39.7-0.7h3v-9.2c-1,0-2,0-3,0c-10.1,0.1-20.3,0.3-30.4,0.7c-1,0-2,0.1-3,0.1v-48.1
		c-12,0.4-23.9,1-35.9,1.8v-8.8c14.6-1,29.2-1.7,43.9-2.3v48.1c1,0,2-0.1,3-0.1c11.6-0.4,23.1-0.6,34.7-0.7c1.7,0,3.3,0,5,0
		c1,0,2,0,3,0v-91.5h-3c-48.7,0.1-97.5,3.1-146.2,8.3c-1,0.1-2,0.2-3,0.3v43.4c1-0.1,2-0.2,3-0.3c4.7-0.5,9.3-1,14-1.4v57.1
		c0.3,0.3,0.6,0.5,0.9,0.8c29.5,24.8,59.1,50.5,88.6,77.1v114.9c-2.6,0.1-5.3,0.2-8,0.3v-106c-29.5-26.6-59.1-52.3-88.6-77.1
		c-0.3-0.3-0.6-0.5-1-0.8v-57.1c-4.7,0.4-9.3,0.9-14,1.4c-1,0.1-2,0.2-3,0.3v-35.1c-2.1,0.2-4.2,0.4-6.3,0.6c-1,0.1-2,0.2-3,0.3
		v43.4c1-0.1,2-0.2,3-0.3C1164.9,575,1169.6,574.5,1174.2,574.1z M1263.8,614c-8.9-8-17.7-15.9-26.6-23.7v-21
		c8.9-0.5,17.7-0.9,26.6-1.2V614z"/>
</g>
<g id="Layer_2">
</g>
<g id="Layer_3">
</g>
</svg>
