<?xml version="1.0" encoding="utf-8"?>
<!-- Generator: Adobe Illustrator 19.2.1, SVG Export Plug-In . SVG Version: 6.00 Build 0)  -->
<svg version="1.1" xmlns="http://www.w3.org/2000/svg" xmlns:xlink="http://www.w3.org/1999/xlink" x="0px" y="0px"
	 viewBox="0 0 1584 1584" style="enable-background:new 0 0 1584 1584;" xml:space="preserve">
<style type="text/css">
	.Drop_x0020_Shadow{fill:none;}
	.Round_x0020_Corners_x0020_2_x0020_pt{fill:#FFFFFF;stroke:#000000;stroke-miterlimit:10;}
	.Live_x0020_Reflect_x0020_X{fill:none;}
	.Bevel_x0020_Soft{fill:url(#SVGID_1_);}
	.Dusk{fill:#FFFFFF;}
	.Foliage_GS{fill:#FFDD00;}
	.Pompadour_GS{fill-rule:evenodd;clip-rule:evenodd;fill:#44ADE2;}
</style>
<linearGradient id="SVGID_1_" gradientUnits="userSpaceOnUse" x1="-72" y1="-1080" x2="-71.2929" y2="-1079.2928">
	<stop  offset="0" style="stop-color:#DEDFE3"/>
	<stop  offset="0.1738" style="stop-color:#D8D9DD"/>
	<stop  offset="0.352" style="stop-color:#C9CACD"/>
	<stop  offset="0.5323" style="stop-color:#B4B5B8"/>
	<stop  offset="0.7139" style="stop-color:#989A9C"/>
	<stop  offset="0.8949" style="stop-color:#797C7E"/>
	<stop  offset="1" style="stop-color:#656B6C"/>
</linearGradient>
<g id="Layer_1">
	<polygon class="fillOne" points="281.9,1028.9 281.9,1028.9 281.9,1028.9 	"/>
	<path class="fillOne" d="M376.4,1104.2L376.4,1104.2c0.6,3.1,2.3,5.8,4.6,7.7c2.3,1.9,5.2,2.9,8.3,2.9c0.9,0,1.8-0.1,2.7-0.3
		c3.2-0.6,6-2.3,7.9-4.6c1.9-2.3,3.1-5.3,3.1-8.4c0-0.8-0.1-1.7-0.2-2.5l0,0c-5.9-30.8-11.8-61.5-17.7-92.3
		c-0.6-3.1-2.3-5.8-4.7-7.7c-2.4-1.8-5.4-2.9-8.6-2.9c-1,0-2,0.1-3,0.3c-3.3,0.6-6.1,2.3-8.1,4.6c-2,2.3-3.2,5.3-3.2,8.5
		c0,0.8,0.1,1.7,0.3,2.5c0,0,0,0,0,0l0,0c2.2,11.2,4.5,22.3,6.7,33.5c-16,3.3-32,6.7-48,10.3c-2.5-11.1-5.1-22.2-7.6-33.3l0,0
		c-0.7-3.1-2.5-5.6-4.8-7.4c-2.3-1.8-5.2-2.7-8.3-2.7c-1.1,0-2.2,0.1-3.4,0.4c-3.2,0.7-6,2.5-7.9,4.8c-1.9,2.3-3.1,5.2-3.1,8.3
		c0,1,0.1,2,0.4,3c0,0,0,0,0,0c7.3,30.5,14.5,60.9,21.8,91.4l0,0c0.7,3,2.4,5.6,4.7,7.3c2.3,1.8,5.2,2.8,8.2,2.8
		c1.1,0,2.2-0.1,3.2-0.4c3.1-0.7,5.7-2.4,7.5-4.7c1.8-2.3,2.9-5.2,2.9-8.2c0-1-0.1-2-0.3-2.9l0,0c-2.6-11.3-5.2-22.6-7.7-33.9
		c15.8-3.6,31.5-7,47.4-10.2C371.8,1081.5,374.1,1092.9,376.4,1104.2z"/>
	<path class="fillOne" d="M555.3,988c-10.9-9.6-25.6-15.4-42.2-15.4c-3.2,0-6.6,0.2-10,0.7c-17.2,2.3-31.3,10-41.1,20.9
		c-9.8,10.9-15.3,24.8-15.3,39.5c0,3.3,0.3,6.5,0.8,9.8l0,0c0,0.1,0,0.2,0.1,0.3l0,0c2.5,14.9,10,27.9,20.9,37
		c10.9,9.2,25.1,14.6,40.9,14.6c3.1,0,6.3-0.2,9.5-0.6c16.8-2.2,30.9-10.1,40.7-21.2c9.8-11.1,15.4-25.5,15.4-40.8
		c0-2.1-0.1-4.2-0.3-6.3l0,0c0-0.1,0-0.2,0-0.3l0,0C573.2,1011,566.1,997.6,555.3,988z M510.8,1070.2c-9.1,0-17.2-3.3-23.4-8.8
		c-6.2-5.5-10.6-13.3-12-22.4c0-0.1,0-0.2,0-0.3l0,0l0,0c-0.3-2-0.5-4-0.5-5.9c0-8.7,3-16.7,8.3-22.9c5.4-6.2,13-10.6,22.8-11.9
		c1.8-0.2,3.6-0.4,5.3-0.4c9.5,0,17.7,3.5,23.9,9.2c6.2,5.7,10.3,13.7,11.4,22.7l0,0c0,0.1,0,0.2,0,0.3c0.2,1.5,0.3,3,0.3,4.5
		c0,9-3,17.2-8.4,23.5c-5.4,6.3-13,10.7-22.6,12C514.2,1070.1,512.5,1070.2,510.8,1070.2z"/>
	<polygon class="fillOne" points="726.6,1054 726.6,1054 726.6,1054.1 	"/>
	<path class="fillOne" d="M646.7,1080.5c3.5-0.2,6.6-1.8,8.8-4.2c2.2-2.4,3.6-5.5,3.6-9c0-0.3,0-0.6,0-0.9l0,0
		c-0.6-8.8-1.2-17.7-1.8-26.5c6.8-0.4,13.6-0.9,20.3-1.2c9.5,10.6,19,21.3,28.2,32l0,0c1.3,1.6,2.9,3.1,4.9,4.2c2,1.1,4.4,1.7,7,1.7
		c0.2,0,0.4,0,0.7,0l0,0c3.2-0.1,6.3-1.4,8.6-3.6c1.2-1.1,2.1-2.4,2.8-3.9c0.7-1.5,1.1-3.2,1.1-5c0-0.1,0-0.3,0-0.4l0,0
		c-0.1-2-0.6-3.9-1.4-5.4c-0.8-1.6-1.9-2.9-2.9-4.1c-6.5-7.5-13.1-15-19.8-22.5c5.9-2.7,11.1-6.4,15-11.2c2.5-3,4.4-6.5,5.7-10.4
		c1.3-3.9,2-8.1,2-12.7c0-0.5,0-1,0-1.5v0c0-0.1,0-0.2,0-0.3l0,0c-0.2-5.3-1.3-10.2-3.3-14.6c-2-4.4-4.8-8.3-8.4-11.6l0,0l0,0
		c-4-3.4-8.8-6-14.3-7.8c-5.5-1.8-11.8-2.7-18.7-2.7c-1.3,0-2.7,0-4.1,0.1c-14.2,0.7-28.3,1.6-42.5,2.6c-3.6,0.3-6.9,1.8-9.2,4.1
		c-2.3,2.4-3.8,5.6-3.8,9.1c0,0.3,0,0.7,0,1l0,0v0c2.4,30.9,4.7,61.8,7.1,92.7l0,0c0.3,3.5,1.9,6.5,4.3,8.7c2.4,2.2,5.6,3.5,9.1,3.5
		C646.1,1080.5,646.4,1080.5,646.7,1080.5z M701.9,998.5c0,2.3-0.5,4.2-1.3,6c-1.2,2.6-3.4,4.8-6.5,6.5c-3.1,1.7-7.2,2.8-12.1,3.1
		l0.2,3.4l-0.2-3.4c-8.8,0.5-17.6,1-26.4,1.6c-0.7-10.2-1.4-20.4-2.1-30.6c8.9-0.6,17.8-1.1,26.7-1.6c0.8,0,1.6-0.1,2.4-0.1
		c3.2,0,6,0.4,8.4,1c1.8,0.5,3.3,1.1,4.6,1.9c2,1.2,3.4,2.7,4.4,4.5c1,1.8,1.6,4,1.8,6.7l0,0c0,0.1,0,0.2,0,0.3l0,0
		C701.9,998.1,701.9,998.3,701.9,998.5z"/>
	<path class="fillOne" d="M799.7,954.8c-3.8,0-7.3,1.4-9.8,3.7c-2.5,2.3-4.1,5.7-4.1,9.4l0,0.1c0.1,31.3,0.2,62.6,0.3,93.9v0
		c0,3.6,1.5,7,3.9,9.3c2.4,2.4,5.8,3.8,9.5,3.8h0c3.6,0,7-1.4,9.4-3.8c2.4-2.4,3.9-5.7,3.9-9.3v0c0.2-31.3,0.4-62.6,0.5-93.9v0l0,0
		v0c0-3.7-1.6-7-4.1-9.4C806.9,956.2,803.4,954.8,799.7,954.8L799.7,954.8z"/>
	<path class="fillOne" d="M868.2,1068.4c0.9,2.1,2.4,3.9,4.3,5.2c1.9,1.3,4.1,2.2,6.6,2.3c25.4,1,50.7,2.4,76.1,4.3l0,0
		c0.3,0,0.6,0,0.9,0c3.1,0,6-1.2,8.3-3.1c2.2-2,3.7-4.8,4-8l0,0c0-0.3,0-0.6,0-0.9c0-3.2-1.3-6.1-3.3-8.3c-2-2.2-4.9-3.7-8.1-3.9
		c-17.3-1.3-34.6-2.4-51.8-3.3c21-22.5,42.6-44.6,64.9-66.5l0,0l0,0c1.4-1.5,2.7-3.1,3.6-4.9c0.9-1.8,1.6-3.8,1.7-6l0,0
		c0-0.2,0-0.3,0-0.5l0,0c0-0.3,0-0.6,0-0.9c0-1.6-0.3-3.1-1-4.5c-0.9-2.1-2.4-3.9-4.3-5.2c-1.9-1.3-4.1-2.2-6.6-2.4
		c-26-2-52.1-3.5-78.1-4.5c-0.2,0-0.3,0-0.5,0c-3.3,0-6.3,1.3-8.6,3.4c-1.1,1-2.1,2.3-2.8,3.7c-0.7,1.4-1.1,3-1.2,4.7
		c0,0.2,0,0.3,0,0.4c0,3.3,1.4,6.3,3.6,8.5c2.2,2.1,5.2,3.5,8.4,3.6c17.2,0.7,34.3,1.6,51.5,2.7c-21.9,22.2-43.3,44.7-63.9,67.5l0,0
		c-1.5,1.5-2.7,3.2-3.5,5.1c-0.9,1.9-1.4,3.9-1.4,6.1l0,0c0,0.1,0,0.3,0,0.5l0,0c0,0,0,0,0,0c0,0.1,0,0.3,0,0.4
		C867.2,1065.4,867.6,1067,868.2,1068.4z"/>
	<polygon class="fillOne" points="885.6,957.4 885.6,957.4 885.6,957.4 	"/>
	<path class="fillOne" d="M872.5,969.1C872.5,969.1,872.5,969.1,872.5,969.1C872.6,969.1,872.6,969.1,872.5,969.1L872.5,969.1z"/>
	<polygon class="fillOne" points="1142.1,1042.3 1142.1,1042.3 1142.1,1042.3 	"/>
	<path class="fillOne" d="M1014.8,1026.2c-0.2,2.1-0.3,4.2-0.3,6.3c0,15.3,5.5,29.6,15.3,40.6c9.8,11,23.8,18.7,40.6,20.9
		c3.1,0.4,6.2,0.6,9.3,0.6c15.9,0,30.3-5.5,41.3-14.7c11-9.3,18.6-22.3,21.1-37.3l0,0c0-0.1,0-0.2,0-0.3c0.5-3.3,0.8-6.5,0.8-9.8
		c0-14.6-5.4-28.5-15.2-39.3c-9.8-10.8-23.9-18.4-41-20.7c-3.3-0.4-6.5-0.6-9.7-0.6c-16.8,0-31.6,5.9-42.6,15.6
		c-11,9.7-18.1,23.2-19.6,38.4C1014.8,1026,1014.8,1026.1,1014.8,1026.2L1014.8,1026.2z M1042.7,1033.3c0-1.4,0.1-2.9,0.2-4.4
		c0-0.1,0-0.2,0-0.3l0,0c1-9.1,5.1-17,11.2-22.7c6.1-5.6,14.3-9,23.7-9.1c1.7,0,3.5,0.1,5.3,0.3c9.7,1.3,17.5,5.8,23,12.1
		c5.4,6.3,8.5,14.5,8.5,23.2c0,1.9-0.1,3.8-0.4,5.7l0,0c0,0.1,0,0.2,0,0.3c-1.4,9.1-5.7,16.8-11.8,22.3c-6.1,5.5-14.1,8.7-23.2,8.7
		c-1.7,0-3.4-0.1-5.1-0.3c-9.5-1.3-17.3-5.7-22.8-12.1C1045.8,1050.7,1042.7,1042.3,1042.7,1033.3z"/>
	<path class="fillOne" d="M1014.8,1025.9C1014.8,1025.9,1014.8,1025.9,1014.8,1025.9C1014.8,1025.9,1014.8,1025.9,1014.8,1025.9
		L1014.8,1025.9z"/>
	<path class="fillOne" d="M1302.1,1012.9c-1.1-0.3-2.2-0.4-3.2-0.4c-3,0-5.9,1-8.2,2.7c-2.3,1.7-4.1,4.3-4.8,7.3
		c-4.4,19.2-8.8,38.3-13.1,57.5c-12.1-24.9-24.8-49.7-38-74.4l0,0l0,0c-1.2-2.1-2.5-4.1-4.4-5.8c-1.9-1.7-4.4-3-7.5-3.6l0,0
		c-0.7-0.1-1.5-0.3-2.2-0.4c-1-0.2-1.9-0.3-2.8-0.3c-3.2,0-6.3,1.1-8.7,3c-2.4,1.9-4.1,4.6-4.7,7.8c-5.8,30.7-11.6,61.4-17.4,92.1
		l0,0c-0.2,0.8-0.2,1.6-0.2,2.4c0,3.1,1.1,6,3,8.3c1.9,2.3,4.6,4,7.8,4.6l0,0c0.8,0.2,1.7,0.2,2.5,0.2c3.1,0,6-1.1,8.3-2.9
		c2.3-1.8,4-4.5,4.6-7.6l0,0c4-20,8-40.1,11.9-60.1c13.3,25.4,26,50.9,38.2,76.5c1,2.2,2.3,4.3,4.1,6.1c0.9,0.9,1.9,1.7,3.1,2.4
		c1.2,0.7,2.5,1.2,3.9,1.5c0.3,0.1,0.5,0.1,0.8,0.2c1,0.2,2.1,0.4,3.1,0.4c3,0,5.8-1,8.1-2.8c2.3-1.8,3.9-4.3,4.6-7.3l0,0
		c7.3-30.5,14.5-60.9,21.8-91.4c0.2-1,0.3-1.9,0.3-2.9c0-3.1-1.1-6-3-8.2C1308,1015.4,1305.3,1013.7,1302.1,1012.9z"/>
	<polygon class="fillOne" points="1285.9,1022.5 1285.9,1022.5 1285.9,1022.5 	"/>
	<path class="fillOne" d="M548.6,620.1c-2-0.7-4.3,0.3-5,2.3c-0.7,2,0.3,4.3,2.3,5l117.5,42.8c2,0.7,4.3-0.3,5-2.3
		c0.7-2-0.3-4.3-2.3-5L548.6,620.1z"/>
	<path class="fillOne" d="M714.1,647.6c1.4-1.7,1.2-4.1-0.5-5.5L519.7,479.3c-1.7-1.4-4.1-1.2-5.5,0.5c-1.4,1.7-1.2,4.1,0.5,5.5
		L708.6,648C710.3,649.4,712.7,649.2,714.1,647.6z"/>
	<path class="fillOne" d="M707.7,574.8c1.1,1.9,3.5,2.5,5.3,1.4c1.9-1.1,2.5-3.5,1.4-5.3l-48.8-84.6c-1.1-1.9-3.5-2.5-5.3-1.4
		c-1.9,1.1-2.5,3.5-1.4,5.3L707.7,574.8z"/>
	<path class="fillOne" d="M732.1,373.4c-2.1,0.4-3.6,2.4-3.2,4.5l39.6,224.6c0.4,2.1,2.4,3.6,4.5,3.2c2.1-0.4,3.6-2.4,3.2-4.5
		l-39.6-224.6C736.3,374.4,734.3,373,732.1,373.4z"/>
	<path class="fillOne" d="M816.3,575c2.1,0.4,4.2-1,4.5-3.2l23.3-132.1c0.4-2.1-1-4.2-3.2-4.5c-2.1-0.4-4.2,1-4.5,3.2l-23.3,132.1
		C812.8,572.6,814.2,574.6,816.3,575z"/>
	<path class="fillOne" d="M919.5,492c-1.9-1.1-4.3-0.4-5.3,1.4l-72.3,125.2c-1.1,1.9-0.4,4.3,1.4,5.3c1.9,1.1,4.3,0.4,5.3-1.4
		L921,497.4C922,495.5,921.4,493.1,919.5,492z"/>
	<path class="fillOne" d="M888.7,636.9L1066,488.1c1.7-1.4,1.9-3.9,0.5-5.5c-1.4-1.7-3.9-1.9-5.5-0.5L883.7,630.9
		c-1.7,1.4-1.9,3.9-0.5,5.5C884.6,638,887,638.3,888.7,636.9z"/>
	<path class="fillOne" d="M1401.9,832.9c-0.1-0.1-68.4-35.2-178.7-70.3C1150.1,739.3,1058.5,716,956,703c6.4-18,13.6-36.1,21.5-53.4
		l89-32.4c2-0.7,3.1-3,2.3-5c-0.7-2-3-3.1-5-2.3l-81.6,29.7c3.9-8.3,8-16.4,12.2-24.2c1-1.9,0.3-4.3-1.6-5.3c-1.9-1-4.3-0.3-5.3,1.6
		l0,0c-5.5,10.2-10.8,20.8-15.8,31.7l-56.3,20.5c-2,0.7-3.1,3-2.3,5c0.7,2,3,3.1,5,2.3l49.1-17.9c-7,15.9-13.5,32.3-19.2,48.7
		c-22.4-2.7-45.3-5-68.7-6.6c-3.5-17.6-12.2-33.3-24.4-45.5c-16.1-16.1-38.4-26.1-63-26.1c-24.6,0-46.9,10-63,26.1
		c-12.2,12.2-20.9,27.9-24.4,45.5c-133.5,9.3-252.9,38.2-343.8,67.1c-110.3,35.1-178.6,70.2-178.7,70.3c-1.9,1-2.7,3.3-1.7,5.3
		c1,1.9,3.3,2.7,5.3,1.7l0,0c0,0,0.1,0,0.2-0.1c0.6-0.3,3-1.5,6.9-3.4c20.4-9.8,83.8-39.1,175.6-67.9c89.4-28.1,205.6-55.8,335.1-65
		c1.3-0.1,2.6-0.2,4-0.3c1.3-0.1,2.7-0.2,4-0.3c26.4-1.7,53.3-2.6,80.6-2.6c27.3,0,54.2,0.9,80.6,2.6c1.3,0.1,2.7,0.2,4,0.3
		c1.3,0.1,2.6,0.2,4,0.3c22,1.6,43.7,3.7,64.9,6.2c-2.9,8.6-5.6,17.1-8.1,25.5c-6.2,20.8-11.1,40.9-14.5,59.4
		c-2.8,15.4-4.6,29.5-5.1,41.9c-0.1,2.5-0.2,4.9-0.2,7.2c0,5.8,0.3,11.2,1,16c0.5,3.6,1.2,6.9,2.2,10c1.4,4.5,3.4,8.4,6.1,11.4
		c1.4,1.5,2.9,2.8,4.7,3.7c1.7,1,3.7,1.6,5.7,1.9l0,0c0.5,0.1,1,0.1,1.5,0.1c2.1,0,4-0.6,6-1.4c3.7-1.6,7.6-4.3,11.8-7.9
		c7.4-6.2,15.6-15.1,24-25.4c4-4.9,8.1-10.2,12.1-15.6c4.8-6.6,9.5-13.4,13.9-20.1c0.3,4.5,0.6,9,0.9,13.5c0.2,2.2,0.3,4.4,0.5,6.6
		c0.9,13.1,1.7,26.1,1.7,37.8c0,5.7-0.2,11.1-0.6,15.9c-0.1,1.7-0.3,3.2-0.5,4.8c-1.2,5.1-1.7,8.5-1.7,8.6c-0.3,2,1.1,3.9,3.1,4.4
		c2,0.4,4-0.8,4.5-2.8c0.7-2.6,1.3-5.5,1.7-8.5c0.2-0.6,0.3-1.3,0.5-2c1.1-4.4,2.8-9.8,5.2-15.5c3.6-8.5,8.7-17.4,15.8-24
		c3.6-3.3,7.6-6.1,12.2-8c4.6-1.9,9.8-3.1,15.8-3.1c4.3,0,8.9,0.6,14.1,1.9c0.3,0.1,0.6,0.2,0.8,0.4c0.4,0.3,0.9,0.8,1.4,1.7
		c0.7,1.3,1.3,3.5,1.7,6.3c0.4,2.8,0.5,6.1,0.5,9.7c0,4.8-0.2,10.1-0.5,15.5c-0.3,5.4-0.5,11-0.5,16.3c0,3.8,0.1,7.5,0.5,11
		c0.3,2.6,0.7,5.1,1.3,7.4c0.9,3.5,2.3,6.6,4.5,9.2c1.1,1.3,2.5,2.4,4,3.2c1.6,0.8,3.3,1.3,5.1,1.5c0.7,0.1,1.5,0.1,2.2,0.1
		c3.3,0,6.8-0.7,10.4-2c6.3-2.2,13-5.8,19.7-10.3c0.3-0.2,0.6-0.5,1-0.7c0.1,2.5,0.4,5,0.8,7.3c1,5.1,2.7,9.7,5.7,13.4
		c1.5,1.8,3.3,3.4,5.4,4.5c2.1,1.1,4.5,1.9,7.1,2.1c0.5,0,1,0.1,1.5,0.1c2.3,0,4.6-0.4,7.1-1c4.7-1.2,9.9-3.3,15.6-6.1
		c10-4.9,21.4-11.8,33.5-19.5c18.1-11.5,37.5-24.6,54.8-34.8c8.6-5.1,16.7-9.5,23.7-12.5c3.5-1.5,6.7-2.7,9.6-3.5
		c2.9-0.8,5.3-1.2,7.3-1.2c0.8,0,1.5,0.1,2.1,0.2l0,0c4.2,0.7,7.5,1.7,10,2.7c1.9,0.8,3.3,1.6,4.4,2.4c1.6,1.2,2.5,2.3,3,3.3
		c0.5,1,0.7,1.9,0.7,2.9c0,1.1-0.3,2.1-0.5,2.8c-0.1,0.4-0.3,0.7-0.4,0.8c0,0.1-0.1,0.1-0.1,0.2l0,0l0,0c-1.1,1.8-0.5,4.2,1.3,5.3
		c1.8,1.1,4.3,0.6,5.4-1.3c0.1-0.2,0.6-1,1.1-2.4c0.5-1.4,1-3.3,1-5.6c0-1.7-0.3-3.7-1.2-5.6c-0.6-1.5-1.6-2.9-2.8-4.3
		c-1.9-2.1-4.4-3.9-7.8-5.4c-3.4-1.5-7.6-2.8-12.8-3.7c-1.1-0.2-2.2-0.3-3.4-0.3c-2.4,0-4.9,0.4-7.5,1c-5,1.2-10.4,3.3-16.3,6.1
		c-10.3,4.9-22,11.8-34.2,19.5c-18.3,11.5-37.7,24.6-54.6,34.8c-8.5,5.1-16.3,9.5-23.1,12.5c-3.4,1.5-6.4,2.7-9.1,3.5
		c-2.7,0.8-5,1.2-6.7,1.2c-0.3,0-0.6,0-0.9,0c-2.1-0.2-3.6-0.8-5-1.8c-1-0.8-2-1.8-2.8-3.1c-1.3-2-2.3-4.6-3-7.7
		c-0.7-3.1-1-6.6-1-10.3c0-0.8,0-1.6,0-2.3c6.9-5.4,13.3-11.5,18.6-17.4c3.7-4.2,6.9-8.3,9.2-12.2c1.1-2,2.1-3.9,2.8-5.7
		c0.7-1.9,1.1-3.7,1.1-5.6c0-1.1-0.2-2.2-0.5-3.3c-0.3-0.8-0.7-1.6-1.2-2.3c-0.8-1.1-1.8-2-3-2.6c-1.2-0.6-2.4-1.1-3.8-1.3
		c-0.9-0.2-1.8-0.2-2.7-0.2c-2.4,0-4.7,0.6-6.7,1.6c-3.6,1.8-6.6,4.8-9.2,8.3c-3.9,5.4-6.9,12.4-9.1,19.9
		c-1.5,5.5-2.6,11.2-3.1,16.8c-2.9,2.2-5.8,4.2-8.6,6c-4.4,2.8-8.7,5-12.6,6.6c-3.9,1.6-7.4,2.4-10.1,2.3c-0.5,0-0.9,0-1.3-0.1
		c-0.9-0.1-1.5-0.3-2.1-0.6c-1-0.5-1.9-1.3-2.7-2.5c-0.6-0.9-1.2-2.1-1.7-3.6c-0.7-2.2-1.2-4.8-1.6-7.9c-0.3-3-0.4-6.4-0.4-10
		c0-5.1,0.2-10.5,0.5-16c0.3-5.4,0.5-10.8,0.5-15.8c0-2.9-0.1-5.7-0.3-8.4c-0.4-3.9-1-7.5-2.4-10.6c-0.7-1.5-1.6-3-2.9-4.2
		c-1.2-1.2-2.8-2.1-4.6-2.6c-3.3-0.9-6.5-1.4-9.6-1.8c-2.2-0.2-4.3-0.4-6.4-0.4c-2.1,0-4.2,0.1-6.2,0.4c-3.9,0.5-7.5,1.4-10.9,2.6
		c-9,3.3-16.1,9.2-21.6,15.9c-3.9,4.7-7,9.8-9.5,14.9c-0.2-10.6-0.8-22-1.6-33.4c-0.2-2.4-0.3-4.8-0.5-7.2
		c-0.6-8.4-1.2-16.7-1.6-24.5c0.7-1.1,1.3-2.2,1.9-3.3c4.8-8.4,8.9-16.4,11.8-23.6c1.5-3.6,2.6-6.9,3.4-10c0.8-3.1,1.3-5.9,1.3-8.5
		c0-1.3-0.1-2.7-0.4-3.9c-0.2-0.9-0.6-1.9-1.1-2.7c-0.7-1.3-1.9-2.5-3.2-3.3c-1.4-0.8-2.9-1.2-4.4-1.3c-0.4,0-0.8,0-1.2,0
		c-1.7,0-3.4,0.3-4.9,1c-1.3,0.6-2.5,1.4-3.6,2.3c-1.8,1.7-3.1,3.8-4.2,6.2c-1.5,3.6-2.5,7.9-3,12.7c-0.6,4.9-0.8,10.3-0.8,16.3
		c0,5.1,0.2,10.5,0.4,16.2c-1.5,2.4-3,4.9-4.5,7.4c-5.6,8.9-11.9,17.9-18.3,26.3c-5.8,7.7-11.8,15-17.5,21.3
		c-5.9,6.6-11.6,12-16.4,15.7c-2.4,1.9-4.6,3.3-6.4,4.2c-1.8,0.9-3.2,1.2-3.9,1.2c-0.1,0-0.3,0-0.4,0c-1-0.1-1.9-0.4-2.8-0.9
		c-1.5-0.7-2.8-1.9-4.1-3.7c-1.9-2.6-3.5-6.7-4.5-11.9c-1.1-5.2-1.6-11.6-1.6-18.8c0-2.3,0.1-4.7,0.2-7.2
		c0.5-11.8,2.2-25.6,4.9-40.5c4.7-25.9,12.6-55.4,22.9-85.3c102.6,12.9,194.3,36.2,267.4,59.5c54.9,17.5,99.3,34.9,130,48
		c15.3,6.5,27.2,12,35.3,15.8c2,0.9,3.7,1.8,5.2,2.5c1.6,0.8,2.9,1.4,4,1.9c1,0.5,1.8,0.9,2.3,1.2c0.3,0.1,0.5,0.2,0.6,0.3
		c0.1,0.1,0.2,0.1,0.2,0.1c1.9,1,4.3,0.2,5.3-1.7C1404.6,836.2,1403.8,833.9,1401.9,832.9z M792,692.4c-26.8,0-53.3,0.9-79.2,2.5
		c3.4-15.2,11.1-28.8,21.8-39.4c14.7-14.7,35-23.8,57.4-23.8c22.4,0,42.7,9.1,57.4,23.8c10.6,10.6,18.3,24.2,21.8,39.4
		C845.3,693.2,818.8,692.4,792,692.4z M1146.3,880.4c2.1-4.5,4.5-8.2,7-10.6c1.2-1.2,2.5-2.1,3.6-2.7c1.2-0.6,2.2-0.8,3.3-0.8
		c0.4,0,0.8,0,1.2,0.1c0.6,0.1,1.1,0.3,1.4,0.4c0.4,0.2,0.5,0.3,0.6,0.5c0.1,0.1,0.2,0.4,0.2,0.9c0,0.5-0.1,1.2-0.4,2.1
		c-0.5,1.6-1.5,3.8-3,6.2c-2.6,4.2-6.7,9.2-11.6,14.1c-2.4,2.4-5,4.9-7.7,7.3C1142.1,891.7,1143.9,885.6,1146.3,880.4z
		 M1013.6,772.9c0.3-3,0.7-5.7,1.3-8c0.4-1.7,0.9-3.2,1.4-4.4c0.8-1.8,1.7-3,2.5-3.7c0.4-0.3,0.8-0.6,1.3-0.7c0.5-0.2,1-0.2,1.6-0.2
		c0.2,0,0.4,0,0.5,0c0.6,0,0.9,0.2,1,0.2c0.1,0.1,0.2,0.1,0.3,0.2c0.1,0.1,0.3,0.3,0.4,0.8c0.1,0.5,0.3,1.2,0.3,2.2
		c0,1.3-0.2,3.1-0.7,5.1c-0.9,3.8-2.6,8.6-4.9,13.9c-1.6,3.6-3.5,7.4-5.6,11.4c0-1,0-2.1,0-3.1
		C1013.1,781.5,1013.2,776.9,1013.6,772.9z"/>
	<path class="fillOne" d="M776.2,836.3c-2.6-15.1-15-27.1-32.4-26.8c-16.8,0.3-28.7,12.2-31.3,26.8c-0.4,2.2-0.6,4.4-0.5,6.6l0,0.2
		c0.3,17.5,13.6,32.3,32.9,32c19.3-0.4,32.1-16,31.8-33.4l0-0.2C776.7,839.8,776.5,838,776.2,836.3z M745,868.5
		c-14.5,0.3-25.2-11.3-25.5-25.7l0-0.2c0-2.2,0.2-4.3,0.6-6.3c2.3-11.4,11.4-19.9,23.7-20.2c12.6-0.3,22.3,8.4,24.9,20.2
		c0.4,1.8,0.6,3.6,0.6,5.5l0,0.2C769.6,856.4,759.5,868.2,745,868.5z"/>
	<path class="fillOne" d="M811.1,811.1c-1-1.2-2-2-3.7-2l-1,0c-1.9,0-3.5,1.7-3.5,3.6l0.5,23.6l0.7,33.4c0,1.9,1.6,3.5,3.5,3.5
		c2,0,3.5-1.7,3.5-3.6l-0.7-33.3l-0.3-15.8l12.9,15.8l27.4,33.7c1.1,1.2,2.2,2.1,3.8,2.1l0.4,0c1.9,0,3.2-1.5,3.2-3.4l-0.6-32.4
		l-0.5-24.9c0-1.9-1.6-3.5-3.5-3.5c-2,0-3.5,1.7-3.5,3.6l0.5,24.7l0.5,23.1l-18.9-23.1L811.1,811.1z"/>
	<path class="fillOne" d="M313.4,870.8c0.9,12.4,3.4,24.4,6.6,34.2c2.1,6.3,4.5,11.6,7.1,15.6c1.3,2,2.8,3.7,4.4,5
		c0.8,0.7,1.7,1.2,2.7,1.6c1,0.4,2.1,0.7,3.3,0.7c0.5,0,1.1-0.1,1.6-0.2l0,0c1-0.2,1.8-0.6,2.6-1.1c1.5-0.9,2.9-2.1,4.3-3.6
		c2.7-2.8,5.7-6.6,9-11.3c5.8-8.2,12.4-18.9,19.1-30.5c8.8-15,17.7-31.3,25-45.1c2.4-4.5,4.6-8.6,6.6-12.4c0,1,0.1,1.9,0.2,2.8
		c0.1,0.9,0.3,1.8,0.5,2.7c0.2,0.7,0.4,1.3,0.7,2c0.5,1,1.1,2,2.1,2.8c0.5,0.4,1.1,0.8,1.8,1c0.7,0.2,1.4,0.3,2.1,0.3
		c1.3,0,2.5-0.4,3.5-0.9c0.9-0.4,1.8-1,2.7-1.6c1.7-1.2,3.6-2.8,5.8-4.6c3.7-3.3,8-7.4,12.4-11.8c7.5-7.5,15.2-15.8,20.5-21.5
		c0.1,4.4,0.1,10.2,0.1,17c0,7.1-0.1,15.3-0.3,24.3c-0.3,15.1-1,32.2-2.4,49.4c-10,10.4-19.7,20.8-28.3,30.8
		c-9.5,11.1-17.7,21.7-23.7,31.5c-3,4.9-5.4,9.7-7.1,14.3c-1.7,4.6-2.7,9-2.7,13.2c0,4,0.9,7.9,3,11.3c2,3.4,5.2,6.3,9.2,8.5
		c4.6,2.6,9.1,3.9,13.5,3.9c2.9,0,5.8-0.6,8.4-1.8c2.4-1.1,4.7-2.6,6.7-4.5c3.9-3.5,7.1-8.2,9.9-13.8c4.9-9.7,8.6-22.2,11.5-36.3
		c3.4-16.6,5.7-35.3,7.2-53.9c15.2-15.8,31-31.6,44.7-46.3c0.4,0.9,0.8,1.7,1.3,2.5c1,1.5,2.3,2.9,4,3.8c1.6,1,3.6,1.4,5.6,1.4
		c0.2,0,0.4,0,0.6,0l0,0c2-0.1,4-0.7,5.8-1.6c3.4-1.7,6.6-4.4,9.8-7.8c1.4-1.5,2.8-3.1,4.2-4.8c4.4-5.3,8.9-11.7,13.6-18.6
		c9.4-13.8,19.5-29.7,29.9-42.7c5.2-6.5,10.5-12.3,15.7-16.7c4.7-4,9.3-6.8,13.7-8.2c0,0.1,0.1,0.2,0.1,0.3c0.4,1.1,0.9,2.7,1.4,4.8
		c0.6,3.2,1.2,7.3,1.5,12.1c0.4,4.8,0.5,10.2,0.5,16.1c0,4.9-0.1,10.1-0.4,15.5c-11.7,4.2-22.1,9.2-30.9,14.8
		c-10.9,6.9-19.5,14.6-25.6,22.6c-0.2,0.3-0.4,0.5-0.6,0.8c-3.1,4.2-5.4,8.4-7,12.7c-1.6,4.3-2.5,8.6-2.5,12.9
		c0,6.1,1.8,12.1,5.6,17.3c3.7,5.2,9.2,9.6,16.4,13.1c3.8,1.9,7.7,2.8,11.3,2.8c4.2,0,8.2-1.3,11.6-3.5c3-1.9,5.7-4.6,8-7.7
		c4.1-5.4,7.5-12.3,10.3-20.2c3-8.5,5.3-18.2,7.1-28.2c0.7-3.9,1.3-7.8,1.8-11.7c0.9-6.7,1.5-13.4,2-20c16.1-5.2,34.8-8.8,55.7-9.9
		c15.7-0.8,27.6-3.4,36.8-6.9c6.9-2.7,12.2-5.8,16.3-9.2c0.1-0.1,0.1-0.1,0.2-0.2c1.1-0.9,2-1.8,2.9-2.6c1-1,1.8-1.9,2.6-2.9
		c2.6-3.1,4.3-6.2,5.3-8.8c1.7-4.1,1.8-7.1,1.8-7.4c0.1-2.2-1.6-4-3.8-4c-2.1-0.1-3.9,1.6-4,3.7l0,0l0,0c0,0-0.1,1.7-1.1,4.3
		c-0.7,1.8-1.9,4.1-3.8,6.6c-0.1,0.1-0.2,0.2-0.3,0.3c-0.7,0.8-1.5,1.7-2.4,2.6c-0.9,0.9-1.8,1.7-2.9,2.6c-2.9,2.3-6.6,4.6-11.4,6.7
		c-8.4,3.6-20.3,6.5-36.8,7.4c-20.3,1-38.7,4.4-54.8,9.4c0.2-4.4,0.3-8.7,0.3-12.8c0-10.9-0.6-20.5-1.8-27.5c-0.3-1.8-0.6-3.4-1-4.8
		c-0.3-1.1-0.6-2.1-1-3c-0.5-1.4-1.1-2.6-2.1-3.8c-0.5-0.6-1.1-1.1-1.8-1.6c-0.8-0.4-1.8-0.8-2.8-0.8c-0.5,0-1,0.1-1.4,0.2
		c-5.2,1.4-10.2,4.1-14.9,7.7c-8.3,6.3-16.2,15.3-23.8,25.3c-5.7,7.5-11.2,15.5-16.4,23.4c-7.9,11.8-15.3,23.1-21.9,31.4
		c-2,2.5-3.9,4.7-5.7,6.5c-1.2,1.2-2.4,2.3-3.4,3.2c-1.4,1.1-2.6,1.9-3.7,2.5c-1.1,0.5-2,0.7-2.6,0.8c-0.1,0-0.2,0-0.3,0
		c-0.5,0-0.8-0.1-1.1-0.2c-0.5-0.2-0.9-0.4-1.4-0.9c-0.3-0.4-0.7-0.9-1-1.6c-0.5-1-0.8-2.2-1.1-3.8c0-0.1,0-0.1,0-0.2
		c8.6-9.5,16.1-18.4,21.6-26.4c3-4.3,5.4-8.4,7.1-12.2c1.7-3.8,2.7-7.5,2.8-11c0-1.6-0.2-3.2-0.8-4.8c-0.8-2.3-2.2-4.4-4.2-6
		c-2-1.6-4.4-2.7-7.1-3.5c-0.7-0.2-1.5-0.3-2.3-0.3c-1.2,0-2.3,0.2-3.3,0.7c-1.9,0.8-3.5,2-4.9,3.5c-2.5,2.6-4.7,6.1-6.7,10.1
		c-3,6.1-5.6,13.5-7.5,21.2c-1.9,7.6-3,15.5-3.1,22.4c0,1.3,0,2.5,0.1,3.8c-0.9,0.9-1.7,1.9-2.6,2.8c-3.8,4.1-7.8,8.4-12,12.7
		c-8.7,9.1-18,18.5-27.2,28c0.1-1,0.1-1.9,0.2-2.9c0.8-13.2,1.3-26.1,1.5-37.8c0.2-8.9,0.3-17.2,0.3-24.3c0-16.4-0.4-26.9-0.4-27
		c-0.1-1.6-1.1-3-2.6-3.5c-1.5-0.5-3.2-0.1-4.3,1.1c0,0-0.1,0.2-0.4,0.5c-2,2.2-11.3,12.5-21.1,22.6c-4.9,5.1-10,10.2-14.4,14.2
		c-2.2,2-4.2,3.8-5.9,5.1c-0.8,0.7-1.6,1.2-2.3,1.7c-0.3,0.2-0.5,0.4-0.8,0.5c-0.1-0.3-0.1-0.6-0.2-0.9c-0.1-0.9-0.2-2.1-0.2-3.4
		c0-3.8,0.6-8.7,1.2-12.4c0.3-1.9,0.6-3.5,0.8-4.7c0.1-0.6,0.2-1,0.3-1.4c0-0.2,0.1-0.3,0.1-0.4l0-0.1l0,0c0.4-1.9-0.7-3.9-2.5-4.5
		c-1.9-0.7-3.9,0.2-4.8,1.9c0,0-0.2,0.5-0.7,1.3c-2.1,4.1-8.9,17.4-17.6,33.7c-5,9.3-10.6,19.6-16.3,29.7
		c-7.9,13.9-16,27.5-22.8,37.7c-3.4,5.1-6.6,9.3-9.1,12.3c-1.3,1.5-2.4,2.6-3.3,3.3c-0.4,0.4-0.8,0.6-1,0.7
		c-0.1,0.1-0.2,0.1-0.3,0.1l0,0c0,0-0.1,0-0.2-0.1c-0.3-0.1-1.1-0.6-2-1.6c-1.5-1.7-3.4-4.7-5.1-8.6c-2.6-5.8-5-13.7-6.7-22.3
		c-1.4-7.1-2.4-14.8-2.7-22.5c3.5-2.7,6.9-5.4,10.2-8c5.8-4.7,11-9.2,15.2-13.4c2.1-2.1,4-4.2,5.6-6.3c0.3-0.4,0.5-0.7,0.8-1.1
		c1.2-1.7,2.3-3.4,3.1-5.1c2.5-5.5,3.8-11.4,3.8-16.7c0-1.9-0.2-3.8-0.5-5.5c-0.3-1.3-0.7-2.6-1.2-3.8c-0.8-1.8-2-3.4-3.7-4.7
		c-0.8-0.6-1.8-1.1-2.8-1.4c-1-0.3-2.1-0.5-3.2-0.5c-1.7,0-3.4,0.4-5.1,1c-2.6,1-5.2,2.7-8.1,5.1c-2.8,2.4-5.9,5.5-9.2,9.5
		c-4.8,5.8-8,13-10,20.8c-0.1,0.4-0.2,0.8-0.3,1.2c-1.8,7.5-2.6,15.6-2.6,23.8c0,0.4,0,0.8,0,1.2c-5.4,4.1-11.1,8.4-16.7,12.6
		c-11.5,8.7-22.9,17.6-31.9,26.1c-14,13.2-21.2,28.3-24.9,40.1c-3.7,11.8-3.9,20.3-3.9,20.5c0,2.2,1.7,4,3.8,4c2.2,0,4-1.7,4-3.8
		l0,0c0-0.2,0.3-8.1,3.7-18.9c3.4-10.8,10-24.3,22.6-36.2c6.5-6.2,14.6-12.7,23.1-19.3C299.6,881.2,306.6,876,313.4,870.8z
		 M451.3,924.4c-1.5,9.6-3.2,18.7-5.3,27c-3.1,12.4-7,22.8-11.7,29.8c-2.3,3.5-4.7,6.1-7.2,7.8c-1.2,0.8-2.5,1.5-3.7,1.9
		c-1.3,0.4-2.6,0.6-4,0.6c-2.7,0-5.9-0.8-9.6-2.9c-3.1-1.7-5-3.6-6.3-5.7c-1.2-2.1-1.9-4.4-1.9-7.3c0-2.4,0.5-5.2,1.4-8.3
		c1.8-5.8,5.3-12.5,10.2-19.9c8.5-12.8,20.9-27.4,34.8-42.4c2.1-2.3,4.2-4.5,6.4-6.8C453.7,907.1,452.6,916,451.3,924.4z
		 M613.7,818.2c-0.7,6.1-1.6,12.2-2.6,18.1c-0.5,2.8-1.1,5.6-1.7,8.4c-2.8,12.6-6.7,23.9-11.5,31.7c-2.4,3.9-5,6.9-7.6,8.8
		c-1.3,1-2.7,1.7-4,2.2c-1.4,0.5-2.8,0.7-4.3,0.7c-2.3,0-4.9-0.6-7.9-2c-6.3-3.1-10.7-6.7-13.5-10.6c-2.8-3.9-4.1-8.1-4.1-12.7
		c0-3.2,0.6-6.6,2-10.1c2-5.2,5.5-10.8,10.5-16.2c0.9-0.9,1.8-1.9,2.7-2.8c9.7-9.5,23.9-18.6,41.9-25.6c0.4-0.1,0.7-0.3,1.1-0.4
		C614.4,811.1,614.1,814.6,613.7,818.2z M515.5,813.3c1.8-8.7,4.8-17.6,8.1-24.1c1.6-3.2,3.4-5.8,4.9-7.4c0.7-0.8,1.4-1.3,1.9-1.6
		c0.5-0.3,0.7-0.3,0.8-0.3l0.1,0c1.4,0.4,2.5,0.9,3.3,1.4c1.3,0.7,2,1.5,2.4,2.3c0.5,0.8,0.7,1.8,0.7,3.1c0,1.6-0.4,3.6-1.4,6.1
		c-1.7,4.6-5.3,10.4-10.1,16.9c-3.5,4.7-7.7,9.8-12.4,15.2C514.1,821.1,514.6,817.2,515.5,813.3z M323.4,837.1
		c0.1-0.3,0.1-0.5,0.2-0.8c1.8-6.7,4.5-12.6,8.2-17c4.1-5,7.7-8.3,10.5-10.3c1.4-1,2.6-1.6,3.6-2c1-0.4,1.7-0.5,2.3-0.5
		c0.6,0,0.9,0.1,1.2,0.3c0.2,0.2,0.5,0.4,0.8,0.8c0.4,0.6,0.8,1.5,1.1,2.7c0.3,1.2,0.5,2.7,0.5,4.3c0,4-1.1,9-3.1,13.4
		c-0.8,1.8-2.3,4-4.4,6.4c-0.5,0.6-1.1,1.3-1.8,2c-3.5,3.8-8.2,8-13.5,12.4c-2.5,2.1-5.2,4.2-8,6.4
		C321.2,848.9,322,842.7,323.4,837.1z"/>
	<polygon class="fillOne" points="1307.2,856.3 1307.2,856.3 1307.2,856.3 	"/>
</g>
<g id="Layer_2">
</g>
<g id="Layer_3">
</g>
</svg>
