<?xml version="1.0" encoding="utf-8"?>
<!-- Generator: Adobe Illustrator 19.2.1, SVG Export Plug-In . SVG Version: 6.00 Build 0)  -->
<svg version="1.1" xmlns="http://www.w3.org/2000/svg" xmlns:xlink="http://www.w3.org/1999/xlink" x="0px" y="0px"
	 viewBox="0 0 1584 1584" style="enable-background:new 0 0 1584 1584;" xml:space="preserve">
<style type="text/css">
	.Drop_x0020_Shadow{fill:none;}
	.Round_x0020_Corners_x0020_2_x0020_pt{fill:#FFFFFF;stroke:#000000;stroke-miterlimit:10;}
	.Live_x0020_Reflect_x0020_X{fill:none;}
	.Bevel_x0020_Soft{fill:url(#SVGID_1_);}
	.Dusk{fill:#FFFFFF;}
	.Foliage_GS{fill:#FFDD00;}
	.Pompadour_GS{fill-rule:evenodd;clip-rule:evenodd;fill:#44ADE2;}
</style>
<linearGradient id="SVGID_1_" gradientUnits="userSpaceOnUse" x1="3672" y1="-1080" x2="3672.707" y2="-1079.2928">
	<stop  offset="0" style="stop-color:#DEDFE3"/>
	<stop  offset="0.1738" style="stop-color:#D8D9DD"/>
	<stop  offset="0.352" style="stop-color:#C9CACD"/>
	<stop  offset="0.5323" style="stop-color:#B4B5B8"/>
	<stop  offset="0.7139" style="stop-color:#989A9C"/>
	<stop  offset="0.8949" style="stop-color:#797C7E"/>
	<stop  offset="1" style="stop-color:#656B6C"/>
</linearGradient>
<g id="Layer_1">
	<path class="fillOne" d="M180,616.8v319.3h994.6l100.1,90l0.5-90l128.8,0V613.8H180V616.8z M185.9,619.8h1212.2v310.4l-128.7,0
		l-0.5,82.7l-92-82.7h-991L185.9,619.8z"/>
	<path class="fillOne" d="M386.7,811.8c-3.5,20.3-22.3,52.3-54.6,52.3c-28.5,0-39.5-26.8-39.5-87.6c0-63.8,15-87.6,40.3-87.6
		c28.5,0,49.8,34.3,53.8,59.8h4.5v-59.1h-4.5c-0.3,5.3-3,7.5-8.3,7.5c-10.5,0-27.5-12.8-45.6-12.8c-51.3,0-82.3,50.6-82.3,95.1
		c0,44.8,29.5,89.1,79.1,89.1c30,0,41.3-14.3,49.3-14.3c5.3,0,8.3,6.5,9.3,10.3h3.8v-61.3h-3.8L386.7,811.8z"/>
	<path class="fillOne" d="M495.6,684.4h-3.8l-58.1,160.7c-3,8.3-7.5,14.3-17,15h-3.3v4.5h45.3v-4.5h-7c-5,0-12-1-12-9.3
		c0-2.8,1-5.5,1.8-7.5l12-35.3h48.6l18.3,52.1h-20v4.5h74.6v-4.5h-12.3L495.6,684.4z M455.5,803.5l22.3-63.3h0.5l21.8,63.3H455.5z"
		/>
	<path class="fillOne" d="M716.8,692.9h4.8c11,0,17,4.8,17,14.3v102.6h-0.5l-94.4-121.4h-51.6v4.5h7.8l11,14.8v134.4
		c0,15.3-7.3,18-15,18h-2.8h-1.8v4.5h47.3v-4.5h-2.3c-14,0-19.5-2.5-19.5-16.8V715.4h0.5l116.6,152.2h10.5V706.4
		c0-6.3,4.8-13.5,16-13.5h3.5v-4.5h-47.3V692.9z"/>
	<path class="fillOne" d="M873.2,688.4h-86.3v4.5h20.3v167.2h-20.3v4.5h87.9c68.1,0,87.4-55.3,87.4-86.9
		C962.1,722.4,925.6,688.4,873.2,688.4z M867,860.1h-20.8V692.9h24c45.6,0,49.8,34.8,49.8,82.6C920,819.5,916,860.1,867,860.1z"/>
	<path class="fillOne" d="M1073,684.4c-47.3,0-79.6,43-79.6,92.1c-1,46.8,35.3,92.1,79.6,92.1c44.3,0,80.6-45.3,79.6-92.1
		C1152.6,727.4,1120.3,684.4,1073,684.4z M1073,864.1c-29.3,0-37.5-24-37.5-87.6c0-79.1,18.3-87.6,37.5-87.6
		c19.3,0,37.5,8.5,37.5,87.6C1110.5,840.1,1102.3,864.1,1073,864.1z"/>
	<path class="fillOne" d="M1260.4,860.1h-21v-84.8h13.3c25.8,0.5,35.5,6.5,35.5,46.8c0,27.5,6.5,46.6,33.3,46.6
		c9.5,0,21.8-2,30.5-8.5l-1.8-3.8c-2.8,1.8-6.5,3.3-9,3.3c-10,0-13.5-3.8-14-43c-0.5-26.8-18.5-41-55.3-44.3v-0.5
		c25.3-1.8,58.8-11.8,58.8-42c0-36.8-44.6-41.3-72.1-41.3h-78.6v4.5h20.3v167.2h-20.3v4.5h80.3V860.1z M1239.4,692.9h18.3
		c21.3,0,31,3,31,34c0.8,31.3-6.5,42.3-35.3,43.8h-14V692.9z"/>
</g>
<g id="Layer_2">
</g>
<g id="Layer_3">
</g>
</svg>
