<?xml version="1.0" encoding="utf-8"?>
<!-- Generator: Adobe Illustrator 19.2.1, SVG Export Plug-In . SVG Version: 6.00 Build 0)  -->
<svg version="1.1" xmlns="http://www.w3.org/2000/svg" xmlns:xlink="http://www.w3.org/1999/xlink" x="0px" y="0px"
	 viewBox="0 0 1584 1584" style="enable-background:new 0 0 1584 1584;" xml:space="preserve">
<style type="text/css">
	.Drop_x0020_Shadow{fill:none;}
	.Round_x0020_Corners_x0020_2_x0020_pt{fill:#FFFFFF;stroke:#000000;stroke-miterlimit:10;}
	.Live_x0020_Reflect_x0020_X{fill:none;}
	.Bevel_x0020_Soft{fill:url(#SVGID_1_);}
	.Dusk{fill:#FFFFFF;}
	.Foliage_GS{fill:#FFDD00;}
	.Pompadour_GS{fill-rule:evenodd;clip-rule:evenodd;fill:#44ADE2;}
</style>
<linearGradient id="SVGID_1_" gradientUnits="userSpaceOnUse" x1="-72" y1="792" x2="-71.2929" y2="792.7071">
	<stop  offset="0" style="stop-color:#DEDFE3"/>
	<stop  offset="0.1738" style="stop-color:#D8D9DD"/>
	<stop  offset="0.352" style="stop-color:#C9CACD"/>
	<stop  offset="0.5323" style="stop-color:#B4B5B8"/>
	<stop  offset="0.7139" style="stop-color:#989A9C"/>
	<stop  offset="0.8949" style="stop-color:#797C7E"/>
	<stop  offset="1" style="stop-color:#656B6C"/>
</linearGradient>
<g id="Layer_1">
	<rect x="1121.7" y="725.3" class="fillOne" width="30.1" height="137"/>
	<polygon class="fillOne" points="1229.5,862.2 1259.6,862.2 1259.6,753 1301.3,753 1301.3,725.3 1187.8,725.3 1187.8,753 
		1229.5,753 	"/>
	<path class="fillOne" d="M1368,926.1V637.7h-330v306.4h330V926.1z M1331.9,908h-257.8V673.9h257.8L1331.9,908z"/>
	<path class="fillOne" d="M322,935.7c13.1-11.3,12.6-32.3,13.1-35.8c0.9-12.6,0.9-24.9,0.9-37.5c0-8.3-0.4-16.1-0.4-24
		c-0.4-21.4,0.4-33.1-4.4-41.9c-5.7-10-18.3-13.1-29.2-14c0,0,8.3-1.3,12.6-2.6c6.5-1.7,13.5-6.1,16.6-12.6c4.4-8.7,3.9-22.2,3.9-24
		c0.4-9.6,0.9-19.2,0.9-28.8c0-5.2-0.4-10.5-0.4-15.7c-0.4-27.5-0.4-41.9-11.3-52.3c-10-9.2-23.5-9.2-36.2-9.2h-72v307.9h61.9
		C292.3,945.3,309.8,945.7,322,935.7z M255.2,674h20.1c7.4,0,11.8,0,14.8,2.6c2.6,2.2,3.9,6.1,4.4,14.4c0.9,9.6,1.3,19.2,1.3,28.8
		c0,14.8-0.4,24.9-1.3,31c-1.7,15.3-10.9,15.7-23.6,15.7h-15.7V674z M255.2,907.3V800.1h22.7c3.9,0,9.2,0.4,12.6,3.5
		c4.4,4.4,4.8,13.5,5.2,19.2c0.4,10.5,0.9,20.5,0.9,31c0,17.9-0.9,38.4-1.3,43.2c-1.7,11.3-10,10.5-19.2,10.5H255.2z"/>
	<path class="fillOne" d="M436.2,803.6h16.6c4.8,0,9.2,0.9,13.1,3.9c5.2,4.8,6.5,12.2,7.4,19.6c1.3,10.5,1.7,21.4,1.7,31.8v21.8
		c0,29.2,0.9,35.8,6.1,64.5h42.3c-7-19.2-7.8-25.7-7.8-60.6v-33.6c0-25.3-0.4-37.9-7.4-48.8c-8.7-13.5-21.4-11.8-27.9-13.1
		c6.5-0.9,24-0.4,31.4-16.6c3.1-7,4.4-16.6,4.8-24.4c0.9-12.2,0.9-24.4,0.9-36.2c0-20.9-0.9-36.2-2.6-44
		c-6.1-27.9-26.6-29.2-37.5-30.1c-4.8-0.4-10-0.4-15.3-0.4h-66.3v307.9h40.6V803.6z M436.7,674.5h20.5c7.9,0,12.2,0,14.8,2.6
		c2.6,2.2,3.9,5.7,4.4,12.2c0.4,6.5,0.9,13.1,0.9,19.6c0,21.4-0.4,39.7-2.2,47.1c-2.6,10.9-8.7,13.5-19.2,13.5h-19.2V674.5z"/>
	<rect x="574" y="637.4" class="fillOne" width="40.1" height="307.9"/>
	<polygon class="fillOne" points="709.2,719.4 758.5,945.3 803.4,945.3 803.4,637.4 765,637.4 766.8,847.2 718.4,637.4 674.8,637.4 
		674.8,945.3 712.7,945.3 	"/>
	<path class="fillOne" d="M884.5,938.7c13.1,10.9,27.9,11.3,34,11.3c23.1,0,32.3-11.3,37.9-19.2l3.9,14.4h24.4v-164h-65v37.5h24.9
		v69.8c0,8.3-0.4,18.8-8.7,24.4c-4.8,3.1-9.6,3.1-11.8,3.1c-10.5,0.4-15.3-6.1-17-9.6c-2.6-5.2-3.1-14.8-3.1-27.5V701.9
		c0-10-0.9-24,8.3-30.5c2.2-1.7,6.1-3.5,12.2-3.5c18.3-0.4,17.9,16.6,18.3,21.4c0,3.1,0.4,6.5,0.4,9.6v34.9h37.5v-32.3
		c0-26.2-1.7-36.2-10-47.5c-14.4-20.1-37.1-20.1-44.9-20.1c-38.4,0-51.9,23.5-56.7,37.9c-4.4,12.2-5.2,23.5-5.2,48.8v154.4
		C864,898.2,864.9,922.2,884.5,938.7z"/>
</g>
<g id="Layer_2">
</g>
<g id="Layer_3">
</g>
</svg>
