<?xml version="1.0" encoding="utf-8"?>
<!-- Generator: Adobe Illustrator 19.2.1, SVG Export Plug-In . SVG Version: 6.00 Build 0)  -->
<svg version="1.1" xmlns="http://www.w3.org/2000/svg" xmlns:xlink="http://www.w3.org/1999/xlink" x="0px" y="0px"
	 viewBox="0 0 360 360" style="enable-background:new 0 0 360 360;" xml:space="preserve">
<style type="text/css">
	.colorOne{fill:#D7BE3C;}
	.colorTwo{fill:#F4D857;}
	.colorFour{fill:#FFF4B0;}
	.outlineOne{fill:none;stroke:#000000;stroke-width:6;stroke-miterlimit:10;}
	.st0{fill:none;stroke:#000000;stroke-width:24;stroke-miterlimit:10;}
	.st1{fill:#F9D500;}
	.st2{fill:#FFFFFF;}
	.st3{fill:none;stroke:#000000;stroke-width:5.625;stroke-miterlimit:10;}
	.st4{fill:none;stroke:#000000;stroke-width:5.625;stroke-linecap:round;stroke-miterlimit:10;}
	.st5{fill:none;stroke:#000000;stroke-width:16;stroke-miterlimit:10;}
	.st6{fill:none;stroke:#000000;stroke-width:6;stroke-miterlimit:10;}
	.st7{fill:#FFFFFF;stroke:#000000;stroke-width:24;stroke-miterlimit:10;}
	.st8{fill:#FFFFFF;stroke:#000000;stroke-width:16;stroke-miterlimit:10;}
	.st9{fill:none;stroke:#000000;stroke-width:24;stroke-miterlimit:10;stroke-dasharray:31.2518,41.669;}
	.st10{fill:none;stroke:#000000;stroke-width:16;stroke-miterlimit:10;stroke-dasharray:19.8448,39.6897;}
	.st11{fill:none;stroke:#000000;stroke-width:16;stroke-miterlimit:10;stroke-dasharray:31.2518,41.669;}
	.st12{fill:#FFF573;}
	.st13{fill:#BDF4AB;}
	.st14{fill:#91ED77;}
	.st15{fill:#75D05C;}
	.st16{fill:#5AB441;}
	.st17{fill:#B0DAFF;}
	.st18{fill:#7BB6F7;}
	.st19{fill:#5E9BDA;}
	.st20{fill:#4182BE;}
	.st21{fill:none;}
	.st22{fill:#D7BE3C;}
	.st23{fill:#F4D857;}
	.st24{fill:#FFF4B0;}
</style>
<g id="outlines">
	<path class="outlineOne" d="M240,145.7c-3.9-43.9-42.9-78.3-87.8-78.3c-47.5,0-88.2,38.5-88.2,86v0.1c0,47.5,40.7,85.9,88.2,85.9
		c23.7,0,46.3-9.6,61.9-25.2c15.6-15.6,25.8-37.1,25.8-60.8C239.8,150.8,240.2,148.2,240,145.7z M151.9,219.9
		c-36.7,0-68.6-29.8-68.6-66.5v-0.1c0-36.8,31.8-66.5,68.6-66.5c34.2,0,63.3,25.7,67.1,58.9c0.3,2.5-0.1,5.1-0.1,7.7
		C218.9,190.1,188.6,219.9,151.9,219.9z"/>
	<line class="outlineOne" x1="215.1" y1="214.2" x2="238.3" y2="237.4"/>
	
		<rect x="256.8" y="221.9" transform="matrix(0.7071 -0.7071 0.7071 0.7071 -112.9295 272.6047)" class="outlineOne" width="31.5" height="101.4"/>
	<line class="outlineOne" x1="293.3" y1="149.9" x2="239.9" y2="149.9"/>
	<polyline class="outlineOne" points="85.4,157.7 116.7,157.7 136.7,195.9 159.7,108.9 171.8,149.9 219.9,149.9 	"/>
	<line class="outlineOne" x1="65.4" y1="157.7" x2="34.5" y2="157.7"/>
</g>
<g id="fills">
	
		<rect x="223.7" y="209.4" transform="matrix(0.7071 -0.7071 0.7071 0.7071 -93.2667 226.4085)" class="colorTwo" width="6" height="32.8"/>
	<rect x="239.9" y="146.9" class="colorOne" width="53.4" height="6"/>
	<rect x="34.5" y="154.7" class="colorOne" width="30.9" height="6"/>
	<path class="colorTwo" d="M243,145.5c-1.9-21.9-12.4-42.4-29.5-57.6c-17-15.1-38.8-23.5-61.3-23.5c-23.9,0-46.6,9.2-64,26
		c-17.5,16.9-27.2,39.3-27.2,63c0,23.6,9.7,46,27.2,62.9c17.4,16.8,40.1,26,64,26c24.1,0,47.4-9.5,64-26
		c17.2-17.2,26.6-39.5,26.6-63c0-0.9,0.1-1.9,0.1-2.9C243,148.9,243.1,147.2,243,145.5z"/>
	<path class="colorFour" d="M222,145.4c-1.9-16.8-10.2-32.3-23.2-43.8c-13-11.5-29.7-17.8-46.9-17.8c-38.8,0-71.6,31.8-71.6,69.6
		c0,37.7,32.8,69.5,71.6,69.5c38.6,0,70.1-31.2,70.1-69.5c0-0.9,0-1.7,0.1-2.6C222.1,149,222.2,147.2,222,145.4z"/>
	<polygon class="colorOne" points="137.6,204.1 114.8,160.7 85.4,160.7 85.4,154.7 118.5,154.7 135.8,187.7 159.6,97.8 174,146.9 
		219.9,146.9 219.9,152.9 169.5,152.9 159.9,120.1 	"/>
	
		<rect x="253.8" y="218.9" transform="matrix(0.7071 -0.7071 0.7071 0.7071 -112.9294 272.6082)" class="colorTwo" width="37.5" height="107.4"/>
</g>
</svg>
