<?xml version="1.0" encoding="utf-8"?>
<!-- Generator: Adobe Illustrator 19.2.1, SVG Export Plug-In . SVG Version: 6.00 Build 0)  -->
<svg version="1.1" xmlns="http://www.w3.org/2000/svg" xmlns:xlink="http://www.w3.org/1999/xlink" x="0px" y="0px"
	 viewBox="0 0 360 360" style="enable-background:new 0 0 360 360;" xml:space="preserve">
<style type="text/css">
	.colorOne{fill:#D7BE3C;}
	.colorTwo{fill:#F4D857;}
	.colorThree{fill:#FFF573;}
	.outlineOne{fill:none;stroke:#000000;stroke-width:6;stroke-miterlimit:10;}
	.st0{fill:none;stroke:#000000;stroke-width:24;stroke-miterlimit:10;}
	.st1{fill:#F9D500;}
	.st2{fill:#FFFFFF;}
	.st3{fill:none;stroke:#000000;stroke-width:5.625;stroke-miterlimit:10;}
	.st4{fill:none;stroke:#000000;stroke-width:5.625;stroke-linecap:round;stroke-miterlimit:10;}
	.st5{fill:none;stroke:#000000;stroke-width:16;stroke-miterlimit:10;}
	.st6{fill:none;stroke:#000000;stroke-width:6;stroke-miterlimit:10;}
	.st7{fill:#FFFFFF;stroke:#000000;stroke-width:24;stroke-miterlimit:10;}
	.st8{fill:#FFFFFF;stroke:#000000;stroke-width:16;stroke-miterlimit:10;}
	.st9{fill:none;stroke:#000000;stroke-width:24;stroke-miterlimit:10;stroke-dasharray:31.2518,41.669;}
	.st10{fill:none;stroke:#000000;stroke-width:16;stroke-miterlimit:10;stroke-dasharray:19.8448,39.6897;}
	.st11{fill:none;stroke:#000000;stroke-width:16;stroke-miterlimit:10;stroke-dasharray:31.2518,41.669;}
	.st12{fill:#FFF4B0;}
	.st13{fill:#BDF4AB;}
	.st14{fill:#91ED77;}
	.st15{fill:#75D05C;}
	.st16{fill:#5AB441;}
	.st17{fill:#B0DAFF;}
	.st18{fill:#7BB6F7;}
	.st19{fill:#5E9BDA;}
	.st20{fill:#4182BE;}
	.st21{fill:none;}
	.st22{fill:#D7BE3C;}
	.st23{fill:#F4D857;}
</style>
<g id="outlines">
	<circle class="outlineOne" cx="180" cy="181.2" r="111.5"/>
	<path class="outlineOne" d="M261.3,309.2H98.7c-25.8,0-46.7-20.9-46.7-46.7V99.9c0-25.8,20.9-46.7,46.7-46.7h162.5
		c25.8,0,46.7,20.9,46.7,46.7v162.5C308,288.3,287.1,309.2,261.3,309.2z"/>
	<line class="outlineOne" x1="66.5" y1="294.8" x2="293.7" y2="67.6"/>
	<line class="outlineOne" x1="66.5" y1="68.4" x2="293.7" y2="294.8"/>
	<circle class="outlineOne" cx="180" cy="181.2" r="66.8"/>
</g>
<g id="fills">
	<path class="colorThree" d="M261.3,50.2H98.7C71.3,50.2,49,72.5,49,99.9v162.5c0,27.4,22.3,49.7,49.7,49.7h162.5
		c27.4,0,49.7-22.3,49.7-49.7V99.9C311,72.5,288.7,50.2,261.3,50.2z"/>
	<path class="colorTwo" d="M180,66.7c-63.2,0-114.5,51.4-114.5,114.5S116.8,295.8,180,295.8c63.2,0,114.5-51.4,114.5-114.5
		S243.2,66.7,180,66.7z"/>
	<path class="colorOne" d="M180,111.4c-38.5,0-69.8,31.3-69.8,69.8S141.5,251,180,251s69.8-31.3,69.8-69.8S218.5,111.4,180,111.4z"
		/>
	<polygon class="colorThree" points="295.8,69.7 291.6,65.5 179.9,177.2 68.7,66.3 64.4,70.5 175.7,181.4 64.4,292.6 68.7,296.9 
		179.9,185.6 291.6,296.9 295.8,292.6 184.2,181.4 	"/>
</g>
</svg>
