<?xml version="1.0" encoding="utf-8"?>
<!-- Generator: Adobe Illustrator 19.2.1, SVG Export Plug-In . SVG Version: 6.00 Build 0)  -->
<svg version="1.1" xmlns="http://www.w3.org/2000/svg" xmlns:xlink="http://www.w3.org/1999/xlink" x="0px" y="0px"
	 viewBox="0 0 360 360" style="enable-background:new 0 0 360 360;" xml:space="preserve">
<style type="text/css">
	.colorOne{fill:#D7BE3C;}
	.colorTwo{fill:#F4D857;}
	.colorThree{fill:#FFF573;}
	.colorFour{fill:#FFF4B0;}
	.outlineOne{fill:none;stroke:#000000;stroke-width:6;stroke-miterlimit:10;}
	.st0{fill:none;stroke:#000000;stroke-width:24;stroke-miterlimit:10;}
	.st1{fill:#F9D500;}
	.st2{fill:#FFFFFF;}
	.st3{fill:none;stroke:#000000;stroke-width:5.625;stroke-miterlimit:10;}
	.st4{fill:none;stroke:#000000;stroke-width:5.625;stroke-linecap:round;stroke-miterlimit:10;}
	.st5{fill:none;stroke:#000000;stroke-width:16;stroke-miterlimit:10;}
	.st6{fill:none;stroke:#000000;stroke-width:6;stroke-miterlimit:10;}
	.st7{fill:#FFFFFF;stroke:#000000;stroke-width:24;stroke-miterlimit:10;}
	.st8{fill:#FFFFFF;stroke:#000000;stroke-width:16;stroke-miterlimit:10;}
	.st9{fill:none;stroke:#000000;stroke-width:24;stroke-miterlimit:10;stroke-dasharray:31.2518,41.669;}
	.st10{fill:none;stroke:#000000;stroke-width:16;stroke-miterlimit:10;stroke-dasharray:19.8448,39.6897;}
	.st11{fill:none;stroke:#000000;stroke-width:16;stroke-miterlimit:10;stroke-dasharray:31.2518,41.669;}
	.st12{fill:#BDF4AB;}
	.st13{fill:#91ED77;}
	.st14{fill:#75D05C;}
	.st15{fill:#5AB441;}
	.st16{fill:#B0DAFF;}
	.st17{fill:#7BB6F7;}
	.st18{fill:#5E9BDA;}
	.st19{fill:#4182BE;}
	.st20{fill:none;}
	.st21{fill:#D7BE3C;}
	.st22{fill:#F4D857;}
	.st23{fill:#FFF4B0;}
</style>
<g id="outlines">
	<circle class="outlineOne" cx="246.6" cy="170.5" r="21.4"/>
	<circle class="outlineOne" cx="180.2" cy="170.5" r="21.4"/>
	<circle class="outlineOne" cx="113.7" cy="170.5" r="21.4"/>
	<polygon class="outlineOne" points="333.3,75.9 333.3,265.4 251.4,265.4 251.2,313.9 184.6,265.4 26.7,265.4 26.7,75.9 	"/>
</g>
<g id="fills">
	<polygon class="colorOne" points="183.6,268.4 23.7,268.4 23.7,72.9 336.3,72.9 336.3,268.4 254.4,268.4 254.2,319.7 	"/>
	<polygon class="colorThree" points="186.5,259.4 32.7,259.4 32.7,81.9 327.3,81.9 327.3,259.4 245.4,259.4 245.3,302.1 	"/>
	<circle class="colorTwo" cx="246.6" cy="170.5" r="40.1"/>
	<circle class="colorTwo" cx="180.2" cy="170.5" r="40.1"/>
	<circle class="colorTwo" cx="113.7" cy="170.5" r="40.1"/>
	<circle class="colorFour" cx="246.6" cy="170.5" r="21.4"/>
	<circle class="colorFour" cx="180.2" cy="170.5" r="21.4"/>
	<circle class="colorFour" cx="113.7" cy="170.5" r="21.4"/>
</g>
</svg>
