<?xml version="1.0" encoding="utf-8"?>
<!-- Generator: Adobe Illustrator 19.2.1, SVG Export Plug-In . SVG Version: 6.00 Build 0)  -->
<svg version="1.1" xmlns="http://www.w3.org/2000/svg" xmlns:xlink="http://www.w3.org/1999/xlink" x="0px" y="0px"
	 viewBox="0 0 360 360" style="enable-background:new 0 0 360 360;" xml:space="preserve">
<style type="text/css">
	.colorOne{fill:#D7BE3C;}
	.colorTwo{fill:#F4D857;}
	.colorThree{fill:#FFF573;}
	.outlineOne{fill:none;stroke:#000000;stroke-width:6;stroke-miterlimit:10;}
	.st0{fill:none;stroke:#000000;stroke-width:24;stroke-miterlimit:10;}
	.st1{fill:#F9D500;}
	.st2{fill:#FFFFFF;}
	.st3{fill:none;stroke:#000000;stroke-width:5.625;stroke-miterlimit:10;}
	.st4{fill:none;stroke:#000000;stroke-width:5.625;stroke-linecap:round;stroke-miterlimit:10;}
	.st5{fill:none;stroke:#000000;stroke-width:16;stroke-miterlimit:10;}
	.st6{fill:none;stroke:#000000;stroke-width:6;stroke-miterlimit:10;}
	.st7{fill:#FFFFFF;stroke:#000000;stroke-width:24;stroke-miterlimit:10;}
	.st8{fill:#FFFFFF;stroke:#000000;stroke-width:16;stroke-miterlimit:10;}
	.st9{fill:none;stroke:#000000;stroke-width:24;stroke-miterlimit:10;stroke-dasharray:31.2518,41.669;}
	.st10{fill:none;stroke:#000000;stroke-width:16;stroke-miterlimit:10;stroke-dasharray:19.8448,39.6897;}
	.st11{fill:none;stroke:#000000;stroke-width:16;stroke-miterlimit:10;stroke-dasharray:31.2518,41.669;}
	.st12{fill:#FFF4B0;}
	.st13{fill:#BDF4AB;}
	.st14{fill:#91ED77;}
	.st15{fill:#75D05C;}
	.st16{fill:#5AB441;}
	.st17{fill:#B0DAFF;}
	.st18{fill:#7BB6F7;}
	.st19{fill:#5E9BDA;}
	.st20{fill:#4182BE;}
	.st21{fill:none;}
	.st22{fill:#D7BE3C;}
	.st23{fill:#F4D857;}
</style>
<g id="outlines">
	<g>
		<g>
			<path class="st3" d="M114.7,69.4c0,0,62.3-45.1,131.1,0"/>
			<path class="st3" d="M89.8,143.7c0,0,26.3-88.5,116.1-68.4"/>
			<path class="st3" d="M223.9,83.6c0,0,29.7,12.9,46.2,57.2"/>
			<path class="st3" d="M131.9,112.4c0,0-8.9,7.1-17.2,31.3s-24.8,29.8-24.8,29.8"/>
			<path class="st3" d="M148.1,101.4c0,0,66.4-28.4,91.6,28.9c13.9,31.6,30.4,43.2,30.4,43.2"/>
			<path class="st3" d="M226.6,154.4c0,0-9-38.4-46.4-38.4s-31.9,11.6-43.4,34.6s-20.3,31.2-20.3,31.2"/>
			<line class="st3" x1="106.4" y1="191" x2="89.8" y2="199"/>
			<path class="st3" d="M89.8,221.9c0,0,53.6-17.5,69.6-67.6"/>
			<path class="st3" d="M172.1,139.3c0,0,26-8.3,33.9,24s47.3,51.1,64.2,58.6"/>
			<path class="st3" d="M94.5,244.2c0,0,14.9-9.7,47.6-18.8s59.8-9.9,85.2,3.7"/>
			<line class="st3" x1="243.1" y1="235.6" x2="265.8" y2="245"/>
			<line class="st3" x1="99.6" y1="264.8" x2="130.8" y2="252.5"/>
			<path class="st3" d="M145.8,246.7c0,0,24.8-9,44.7-5.6s38.1,11.5,38.1,11.5s23.7,11.4,29.7,12.2"/>
			<path class="st3" d="M114.7,285c0,0,52.8-27.3,78.4-21.3c25.6,6,52.7,21.3,52.7,21.3"/>
			<path class="st3" d="M136.4,300.3c0,0,23.5-15.6,47.1-14.5"/>
			<line class="st3" x1="204.4" y1="290.6" x2="223.9" y2="300.3"/>
			<path class="st3" d="M166.8,310.4c0.3,0,11.7-5.6,26.9,0"/>
			<path class="st3" d="M235.4,170.9c0,0,10.3,15,31.9,24.8"/>
			<path class="st3" d="M149.6,206.7c22.7-10.9,21.7-40,30.4-40c8.7,0,7,24.9,25.5,36.3"/>
			<line class="st3" x1="179.9" y1="195" x2="179.7" y2="203.2"/>
		</g>
		<g>
			<path class="outlineOne" d="M114.7,69.4c0,0,62.3-45.1,131.1,0"/>
			<path class="outlineOne" d="M89.8,143.7c0,0,26.3-88.5,116.1-68.4"/>
			<path class="outlineOne" d="M223.9,83.6c0,0,29.7,12.9,46.2,57.2"/>
			<path class="outlineOne" d="M131.9,112.4c0,0-8.9,7.1-17.2,31.3s-24.8,29.8-24.8,29.8"/>
			<path class="outlineOne" d="M148.1,101.4c0,0,66.4-28.4,91.6,28.9c13.9,31.6,30.4,43.2,30.4,43.2"/>
			<path class="outlineOne" d="M226.6,154.4c0,0-9-38.4-46.4-38.4s-31.9,11.6-43.4,34.6s-20.3,31.2-20.3,31.2"/>
			<line class="outlineOne" x1="106.4" y1="191" x2="89.8" y2="199"/>
			<path class="outlineOne" d="M89.8,221.9c0,0,53.6-17.5,69.6-67.6"/>
			<path class="outlineOne" d="M172.1,139.3c0,0,26-8.3,33.9,24s47.3,51.1,64.2,58.6"/>
			<path class="outlineOne" d="M94.5,244.2c0,0,14.9-9.7,47.6-18.8s59.8-9.9,85.2,3.7"/>
			<line class="outlineOne" x1="243.1" y1="235.6" x2="265.8" y2="245"/>
			<line class="outlineOne" x1="99.6" y1="264.8" x2="130.8" y2="252.5"/>
			<path class="outlineOne" d="M145.8,246.7c0,0,24.8-9,44.7-5.6s38.1,11.5,38.1,11.5s23.7,11.4,29.7,12.2"/>
			<path class="outlineOne" d="M114.7,285c0,0,52.8-27.3,78.4-21.3c25.6,6,52.7,21.3,52.7,21.3"/>
			<path class="outlineOne" d="M136.4,300.3c0,0,23.5-15.6,47.1-14.5"/>
			<line class="outlineOne" x1="204.4" y1="290.6" x2="223.9" y2="300.3"/>
			<path class="outlineOne" d="M166.8,310.4c0.3,0,11.7-5.6,26.9,0"/>
			<path class="outlineOne" d="M235.4,170.9c0,0,10.3,15,31.9,24.8"/>
			<path class="outlineOne" d="M149.6,206.7c22.7-10.9,21.7-40,30.4-40c8.7,0,7,24.9,25.5,36.3"/>
			<line class="outlineOne" x1="179.9" y1="195" x2="179.7" y2="203.2"/>
		</g>
	</g>
</g>
<g id="fills">
	<path class="colorTwo" d="M298.1,181c0,90.3-50.9,163.5-120.1,163.5S61.9,271.3,61.9,181S95.8,15.5,178,15.5S298.1,90.7,298.1,181z
		"/>
	<path class="colorThree" d="M285.9,180.9c0,81-45.6,146.6-107.7,146.6S74.1,261.9,74.1,180.9S104.5,32.5,178.2,32.5
		S285.9,99.9,285.9,180.9z"/>
	<path class="colorOne" d="M155.1,55.3c31.3-7.3,61.3-1.7,89.1,16.5l3.1-4.7c-36.3-23.8-70.9-22.6-93.5-17.3
		c-24.4,5.7-40.1,16.9-40.8,17.4l3.3,4.6C116.5,71.7,131.7,60.8,155.1,55.3z"/>
	<path class="colorOne" d="M116.5,103.7c22.9-25.1,52.8-33.8,88.9-25.7l1.2-5.5c-47.7-10.7-77.7,9.1-94.4,27.5
		c-18,19.9-24.7,41.9-25,42.8l5.4,1.6C92.6,144.3,99.2,122.7,116.5,103.7z"/>
	<path class="colorOne" d="M225.1,81.1l-2.2,5.2c0.3,0.1,28.8,12.9,44.7,55.6l5.3-2C256.1,95,226.3,81.6,225.1,81.1z"/>
	<path class="colorOne" d="M133.7,114.7l-3.5-4.4c-0.4,0.3-9.7,7.9-18.2,32.5c-7.7,22.4-22.9,28-23.1,28.1l1.8,5.3
		c0.7-0.2,17.9-6.4,26.6-31.5C125.2,121.9,133.6,114.7,133.7,114.7z"/>
	<path class="colorOne" d="M242.3,129.2c-13.7-31-39-37.6-57.9-37.6c-20.1-0.1-36.8,7-37.5,7.3l2.2,5.2c0.2-0.1,16.4-6.9,35.4-6.8
		c24.9,0.1,42.6,11.7,52.6,34.3c14.1,31.9,30.7,43.9,31.4,44.4l3.2-4.6C271.7,171.2,255.7,159.6,242.3,129.2z"/>
	<path class="colorOne" d="M139.3,151.9c2.5-5,4.2-9.4,5.7-13.2c5.4-14,7.6-19.8,35.2-19.8c34.7,0,43.3,34.7,43.6,36.2l2.7-0.6
		l2.7-0.6c-0.1-0.4-9.9-40.6-49.1-40.6c-31.4,0-34.8,8.8-40.5,23.4c-1.5,3.8-3.1,8-5.5,12.7c-11.1,22.1-19.6,30.3-19.7,30.4l3.9,4.1
		C118.8,183.5,127.7,175,139.3,151.9z"/>
	
		<rect x="88.9" y="192.3" transform="matrix(0.8985 -0.4391 0.4391 0.8985 -75.6851 62.8936)" class="colorOne" width="18.4" height="5.6"/>
	<path class="colorOne" d="M162.2,155.3l-5.4-1.7c-15.4,48-67.3,65.6-67.8,65.7l1.7,5.3C93,224,145.9,206.1,162.2,155.3z"/>
	<path class="colorOne" d="M208.7,162.7c-2.8-11.4-8.1-19.4-15.7-23.7c-10.4-5.9-21.3-2.5-21.7-2.4l1.7,5.4c0.1,0,9.1-2.7,17.3,1.9
		c6.2,3.5,10.5,10.3,12.9,20.1c8.6,35.1,51.7,54.2,65.8,60.5l2.3-5.1C235,203.3,213.9,184.2,208.7,162.7z"/>
	<path class="colorOne" d="M226.1,231.7l2.7-5c-23.9-12.9-50.9-14.1-87.3-3.9c-32.8,9.1-47.8,18.7-48.4,19.1l3.1,4.7
		c0.1-0.1,15-9.6,46.9-18.4C178.4,218.4,203.3,219.4,226.1,231.7z"/>
	
		<rect x="251.7" y="228.1" transform="matrix(0.3833 -0.9236 0.9236 0.3833 -65.0847 383.321)" class="colorOne" width="5.6" height="24.6"/>
	
		<rect x="98.5" y="255.9" transform="matrix(0.9303 -0.3669 0.3669 0.9303 -86.8842 60.3201)" class="colorOne" width="33.5" height="5.6"/>
	<path class="colorOne" d="M191,238.4c-20.4-3.5-45.1,5.4-46.1,5.8l1.9,5.3c0.2-0.1,24.3-8.7,43.3-5.5c19.3,3.3,37.3,11.2,37.4,11.3
		c2.5,1.2,24.3,11.6,30.5,12.4l0.7-5.6c-4-0.5-19.8-7.6-28.9-11.9C229.1,249.8,211,241.8,191,238.4z"/>
	<path class="colorOne" d="M113.4,282.5l2.6,5c0.5-0.3,52.2-26.8,76.5-21.1c24.9,5.9,51.6,20.9,51.9,21l2.8-4.9
		c-1.1-0.6-27.7-15.6-53.4-21.6C167.4,254.8,115.6,281.4,113.4,282.5z"/>
	<path class="colorOne" d="M183.4,288.7l0.3-5.6c-24.2-1.2-47.8,14.3-48.7,14.9l3.1,4.7C138.2,302.5,161,287.6,183.4,288.7z"/>
	
		<rect x="211.4" y="284.6" transform="matrix(0.4439 -0.8961 0.8961 0.4439 -145.6907 356.2649)" class="colorOne" width="5.6" height="21.8"/>
	<path class="colorOne" d="M166.1,307.8l-0.2,0.1l0.9,2.7v2.8c0.6,0,0.9-0.2,1.4-0.3c4.4-1.7,13.4-4,24.6,0.1l2-5.3
		C181.8,303,171.2,305.7,166.1,307.8z"/>
	<path class="colorOne" d="M268.5,193.2c-20.6-9.3-30.7-23.7-30.8-23.8l-4.6,3.2c0.4,0.6,11,15.8,33.1,25.8L268.5,193.2z"/>
	<path class="colorOne" d="M203.9,205.4l3-4.8c-9.6-5.9-13.3-15.8-16.3-23.8c-2.6-7-4.9-13-10.7-13c0,0,0,0,0,0
		c-5.4,0-7.7,5.8-10.7,13.1c-3.6,9-8.5,21.3-20.9,27.2l2.4,5.1c14.4-6.9,19.8-20.4,23.7-30.2c1.8-4.5,3.8-9.6,5.4-9.6c0,0,0,0,0,0
		c1.9,0,3.6,4.5,5.4,9.3C188.5,187.1,192.8,198.5,203.9,205.4z"/>
	
		<rect x="175.7" y="196.4" transform="matrix(2.586838e-02 -0.9997 0.9997 2.586838e-02 -23.9248 373.8011)" class="colorOne" width="8.2" height="5.6"/>
</g>
</svg>
