<?xml version="1.0" encoding="utf-8"?>
<!-- Generator: Adobe Illustrator 19.2.1, SVG Export Plug-In . SVG Version: 6.00 Build 0)  -->
<svg version="1.1" xmlns="http://www.w3.org/2000/svg" xmlns:xlink="http://www.w3.org/1999/xlink" x="0px" y="0px"
	 viewBox="0 0 360 360" style="enable-background:new 0 0 360 360;" xml:space="preserve">
<style type="text/css">
	.colorOne{fill:#D7BE3C;}
	.colorTwo{fill:#F4D857;}
	.colorThree{fill:#FFF573;}
	.outlineOne{fill:none;stroke:#000000;stroke-width:6;stroke-miterlimit:10;}
	.st0{fill:none;stroke:#000000;stroke-width:24;stroke-miterlimit:10;}
	.st1{fill:#F9D500;}
	.st2{fill:#FFFFFF;}
	.st3{fill:none;stroke:#000000;stroke-width:5.625;stroke-miterlimit:10;}
	.st4{fill:none;stroke:#000000;stroke-width:5.625;stroke-linecap:round;stroke-miterlimit:10;}
	.st5{fill:none;stroke:#000000;stroke-width:16;stroke-miterlimit:10;}
	.st6{fill:none;stroke:#000000;stroke-width:6;stroke-miterlimit:10;}
	.st7{fill:#FFFFFF;stroke:#000000;stroke-width:24;stroke-miterlimit:10;}
	.st8{fill:#FFFFFF;stroke:#000000;stroke-width:16;stroke-miterlimit:10;}
	.st9{fill:none;stroke:#000000;stroke-width:24;stroke-miterlimit:10;stroke-dasharray:31.2518,41.669;}
	.st10{fill:none;stroke:#000000;stroke-width:16;stroke-miterlimit:10;stroke-dasharray:19.8448,39.6897;}
	.st11{fill:none;stroke:#000000;stroke-width:16;stroke-miterlimit:10;stroke-dasharray:31.2518,41.669;}
	.st12{fill:#FFF4B0;}
	.st13{fill:#BDF4AB;}
	.st14{fill:#91ED77;}
	.st15{fill:#75D05C;}
	.st16{fill:#5AB441;}
	.st17{fill:#B0DAFF;}
	.st18{fill:#7BB6F7;}
	.st19{fill:#5E9BDA;}
	.st20{fill:#4182BE;}
	.st21{fill:none;}
	.st22{fill:#D7BE3C;}
	.st23{fill:#F4D857;}
</style>
<g id="outlines">
	<path class="outlineOne" d="M105.2,137.6c0,8.3-3.2,16.2-9.1,22l19.1,19.1l19.3-19.3c-6.4-6.4-9.9-14.9-9.9-24
		c0-18.7,15.2-33.9,33.9-33.9s33.9,15.2,33.9,33.9c0,9-3.5,17.5-9.9,23.9l19.3,19.3l19-19c-5.9-5.9-9.2-13.7-9.2-22.1
		c0-11.5,6.3-21.6,15.6-27c-11.3-27.2-38-46.3-69.2-46.3c-31.1,0-57.7,18.9-69.1,45.9C98.6,115.4,105.2,125.7,105.2,137.6z"/>
	<path class="outlineOne" d="M239.9,211.7c1,0,1.9,0.1,2.9,0.1c18.6,0,36.4-6.9,50.1-19.5l2.5-2.2l-30.5-30.5
		c5.9-5.9,9.1-13.7,9.1-22c0-14.8-10.3-27.2-24.2-30.4c3.5,10,5.5,20.8,5.5,32.1c0,24.5-9.1,46.8-24.1,63.9L239.9,211.7z"/>
	<path class="outlineOne" d="M224.9,209.6C224.9,209.6,224.9,209.6,224.9,209.6l0.8-0.7C225.4,209.1,225.2,209.3,224.9,209.6z"/>
	<path class="outlineOne" d="M211.6,137.6c0,8.3,3.2,16.2,9.2,22.1l-19,19L213,190c12.3-13.4,19.9-31.2,19.9-50.8
		c0-10.2-2-19.8-5.7-28.7C217.9,115.9,211.6,126,211.6,137.6z"/>
	<path class="outlineOne" d="M61.6,139.2c0-11.2,1.9-22,5.5-32.1c-13.8,3.2-24.2,15.6-24.2,30.4c0,8.3,3.2,16.2,9.1,22.1l-30.5,30.5
		l2.5,2.2c13.7,12.5,31.5,19.4,50.1,19.4c6.1,0,12.1-0.8,17.9-2.2C73.2,191.9,61.6,166.9,61.6,139.2z"/>
	<path class="outlineOne" d="M115.2,178.7l-19.1-19.1c5.9-5.9,9.1-13.7,9.1-22c0-11.8-6.6-22.1-16.3-27.4
		c-3.8,8.9-5.9,18.8-5.9,29.1c0,19.8,7.7,37.9,20.3,51.3L115.2,178.7z"/>
	<path class="outlineOne" d="M182.4,159.3c6.4-6.4,9.9-14.9,9.9-23.9c0-18.7-15.2-33.9-33.9-33.9s-33.9,15.2-33.9,33.9
		c0,9.1,3.5,17.6,9.9,24l-19.3,19.3l-11.8,11.8c13.7,14.6,33.1,23.7,54.6,23.7c21.8,0,41.4-9.3,55.1-24.1l-11.4-11.4L182.4,159.3z"
		/>
	<path class="outlineOne" d="M228,206.5c16.8-17.4,27.2-41.1,27.2-67.3c0-11.2-1.9-22-5.5-32.1c-13.2-37.7-49.1-64.8-91.4-64.8
		c-42.2,0-78.1,27.1-91.4,64.8c-3.5,10-5.5,20.8-5.5,32.1c0,27.7,11.7,52.7,30.3,70.4c17.3,16.4,40.7,26.5,66.5,26.5
		c25.8,0,49.1-10.1,66.5-26.5c0.3-0.2,0.5-0.5,0.8-0.7L228,206.5z M83,139.2c0-10.3,2.1-20.1,5.9-29.1c11.4-26.9,38-45.9,69.1-45.9
		c31.2,0,58,19.1,69.2,46.3c3.7,8.8,5.7,18.5,5.7,28.7c0,19.6-7.5,37.4-19.9,50.8c-13.7,14.8-33.3,24.1-55.1,24.1
		c-21.6,0-41-9.1-54.6-23.7C90.8,177.1,83,159.1,83,139.2z"/>
	<polygon class="outlineOne" points="237.3,209.4 231.2,203.3 228,206.5 225.7,208.9 224.9,209.6 222.4,212.1 247.4,237 
		256.1,228.2 	"/>
	<polygon class="outlineOne" points="263.8,220.6 254.1,230.2 249.4,235 238.7,245.7 319.4,326.4 344.5,301.3 	"/>
</g>
<g id="fills">
	<path class="colorTwo" d="M242.8,214.8c-19.3,0-37.8-7.2-52.1-20.2l-4.8-4.4l30.7-30.7c-5.2-6.1-8-13.8-8-22
		c0-18.9,15.3-34.2,34.2-34.2s34.2,15.3,34.2,34.2c0,8.1-2.8,15.8-8,21.9l30.7,30.7l-4.8,4.4C280.6,207.6,262.1,214.8,242.8,214.8z"
		/>
	<path class="colorTwo" d="M74,214.8c-19.3,0-37.8-7.2-52.1-20.2l-4.8-4.4l30.7-30.7c-5.2-6.1-8-13.8-8-22
		c0-18.9,15.3-34.2,34.2-34.2s34.2,15.3,34.2,34.2c0,8.1-2.8,15.8-8,21.9l30.7,30.7l-4.8,4.4C111.9,207.6,93.4,214.8,74,214.8z"/>
	<path class="colorOne" d="M158.4,219c-20.9,0-41-7.8-56.4-21.9l-5-4.6l33.3-33.3c-5.7-6.7-8.8-15-8.8-23.9
		c0-20.3,16.5-36.9,36.9-36.9c20.3,0,36.9,16.5,36.9,36.9c0,8.8-3.1,17.2-8.7,23.8l33.3,33.3l-5,4.6
		C199.4,211.2,179.4,219,158.4,219z"/>
	<path class="colorThree" d="M158.4,239.1c-55,0-99.8-44.8-99.8-99.8c0-55,44.8-99.8,99.8-99.8s99.8,44.8,99.8,99.8
		C258.2,194.3,213.5,239.1,158.4,239.1z M158,67.3c-39.7,0-71.9,32.3-71.9,71.9c0,39.7,32.3,71.9,71.9,71.9s71.9-32.3,71.9-71.9
		C229.9,99.6,197.6,67.3,158,67.3z"/>
	
		<rect x="230.7" y="199.3" transform="matrix(0.7071 -0.7071 0.7071 0.7071 -85.841 234.2625)" class="colorThree" width="18.4" height="42.9"/>
	
		<rect x="270.9" y="213.4" transform="matrix(0.7071 -0.7071 0.7071 0.7071 -107.9824 286.2873)" class="colorThree" width="41.5" height="120.2"/>
</g>
</svg>
