<?xml version="1.0" encoding="utf-8"?>
<!-- Generator: Adobe Illustrator 19.2.1, SVG Export Plug-In . SVG Version: 6.00 Build 0)  -->
<svg version="1.1" xmlns="http://www.w3.org/2000/svg" xmlns:xlink="http://www.w3.org/1999/xlink" x="0px" y="0px"
	 viewBox="0 0 360 360" style="enable-background:new 0 0 360 360;" xml:space="preserve">
<style type="text/css">
	.colorOne{fill:#D7BE3C;}
	.colorTwo{fill:#F4D857;}
	.colorThree{fill:#FFF573;}
	.outlineOne{fill:none;stroke:#000000;stroke-width:6;stroke-miterlimit:10;}
	.st0{fill:none;stroke:#000000;stroke-width:24;stroke-miterlimit:10;}
	.st1{fill:#F9D500;}
	.st2{fill:#FFFFFF;}
	.st3{fill:none;stroke:#000000;stroke-width:5.625;stroke-miterlimit:10;}
	.st4{fill:none;stroke:#000000;stroke-width:5.625;stroke-linecap:round;stroke-miterlimit:10;}
	.st5{fill:none;stroke:#000000;stroke-width:16;stroke-miterlimit:10;}
	.st6{fill:none;stroke:#000000;stroke-width:6;stroke-miterlimit:10;}
	.st7{fill:#FFFFFF;stroke:#000000;stroke-width:24;stroke-miterlimit:10;}
	.st8{fill:#FFFFFF;stroke:#000000;stroke-width:16;stroke-miterlimit:10;}
	.st9{fill:none;stroke:#000000;stroke-width:24;stroke-miterlimit:10;stroke-dasharray:31.2518,41.669;}
	.st10{fill:none;stroke:#000000;stroke-width:16;stroke-miterlimit:10;stroke-dasharray:19.8448,39.6897;}
	.st11{fill:none;stroke:#000000;stroke-width:16;stroke-miterlimit:10;stroke-dasharray:31.2518,41.669;}
	.st12{fill:#FFF4B0;}
	.st13{fill:#BDF4AB;}
	.st14{fill:#91ED77;}
	.st15{fill:#75D05C;}
	.st16{fill:#5AB441;}
	.st17{fill:#B0DAFF;}
	.st18{fill:#7BB6F7;}
	.st19{fill:#5E9BDA;}
	.st20{fill:#4182BE;}
	.st21{fill:none;}
	.st22{fill:#D7BE3C;}
	.st23{fill:#F4D857;}
</style>
<g id="outlines">
	<path class="outlineOne" d="M85.6,299.9V59.7c0-18,14.6-32.7,32.7-32.7h123.5c18,0,32.7,14.6,32.7,32.7v240.2
		c0,18-14.6,32.7-32.7,32.7H118.3C100.2,332.6,85.6,318,85.6,299.9z"/>
	
		<rect x="68" y="86.1" transform="matrix(-1.836970e-16 1 -1 -1.836970e-16 342.5977 -17.4023)" class="outlineOne" width="223.9" height="152.9"/>
	<circle class="outlineOne" cx="180" cy="299.5" r="13.4"/>
</g>
<g id="fills">
	<path class="colorThree" d="M241.7,24.1H118.3c-19.7,0-35.7,16-35.7,35.7v240.2c0,19.7,16,35.7,35.7,35.7h123.5
		c19.7,0,35.7-16,35.7-35.7V59.7C277.4,40.1,261.4,24.1,241.7,24.1z"/>
	<rect x="100.5" y="47.6" class="colorOne" width="158.9" height="229.9"/>
	<path class="colorOne" d="M180,283.2c-9,0-16.4,7.3-16.4,16.4s7.3,16.4,16.4,16.4s16.4-7.3,16.4-16.4S189,283.2,180,283.2z"/>
	<polygon class="colorTwo" points="259.5,47.6 259.5,277.6 258.5,277.6 100.5,47.9 100.5,47.6 	"/>
</g>
</svg>
