<?xml version="1.0" encoding="utf-8"?>
<!-- Generator: Adobe Illustrator 19.2.1, SVG Export Plug-In . SVG Version: 6.00 Build 0)  -->
<svg version="1.1" xmlns="http://www.w3.org/2000/svg" xmlns:xlink="http://www.w3.org/1999/xlink" x="0px" y="0px"
	 viewBox="0 0 360 360" style="enable-background:new 0 0 360 360;" xml:space="preserve">
<style type="text/css">
	.colorOne{fill:#D7BE3C;}
	.colorTwo{fill:#F4D857;}
	.colorFour{fill:#FFF4B0;}
	.outlineOne{fill:none;stroke:#000000;stroke-width:6;stroke-miterlimit:10;}
	.st0{fill:none;stroke:#000000;stroke-width:24;stroke-miterlimit:10;}
	.st1{fill:#F9D500;}
	.st2{fill:#FFFFFF;}
	.st3{fill:none;stroke:#000000;stroke-width:5.625;stroke-miterlimit:10;}
	.st4{fill:none;stroke:#000000;stroke-width:5.625;stroke-linecap:round;stroke-miterlimit:10;}
	.st5{fill:none;stroke:#000000;stroke-width:16;stroke-miterlimit:10;}
	.st6{fill:none;stroke:#000000;stroke-width:6;stroke-miterlimit:10;}
	.st7{fill:#FFFFFF;stroke:#000000;stroke-width:24;stroke-miterlimit:10;}
	.st8{fill:#FFFFFF;stroke:#000000;stroke-width:16;stroke-miterlimit:10;}
	.st9{fill:none;stroke:#000000;stroke-width:24;stroke-miterlimit:10;stroke-dasharray:31.2518,41.669;}
	.st10{fill:none;stroke:#000000;stroke-width:16;stroke-miterlimit:10;stroke-dasharray:19.8448,39.6897;}
	.st11{fill:none;stroke:#000000;stroke-width:16;stroke-miterlimit:10;stroke-dasharray:31.2518,41.669;}
	.st12{fill:#FFF573;}
	.st13{fill:#BDF4AB;}
	.st14{fill:#91ED77;}
	.st15{fill:#75D05C;}
	.st16{fill:#5AB441;}
	.st17{fill:#B0DAFF;}
	.st18{fill:#7BB6F7;}
	.st19{fill:#5E9BDA;}
	.st20{fill:#4182BE;}
	.st21{fill:none;}
	.st22{fill:#D7BE3C;}
	.st23{fill:#F4D857;}
	.st24{fill:#FFF4B0;}
</style>
<g id="outlines">
	<g>
		<g>
			<path class="st3" d="M307.1,188.6c-12.5,11.3-28.2,17.3-44,17.8c-23.2,0.8-45.2,10.1-61.6,26.5l-0.6,0.6c-3.2,3.2-8.5,3.2-11.8,0
				l-25.7-25.7c-3.2-3.2-3.2-8.5,0-11.8l1.4-1.4c16.1-16.1,25.5-37.7,26.5-60.5c0.7-16.8,7.5-33.3,20.3-46.1
				c25.9-25.9,67.1-27.1,94.4-3.5C338.3,112.5,338.8,159.9,307.1,188.6z"/>
			<line class="st4" x1="186.9" y1="243.5" x2="145.9" y2="217.3"/>
			<line class="st4" x1="178" y1="252.4" x2="137.1" y2="226.2"/>
			<line class="st4" x1="169.2" y1="261.2" x2="128.2" y2="235"/>
			<path class="st3" d="M180.7,225.1l92.1-75c9.6-9.6,25.6,0.6,13.8,12.3c-23.8,23.8-75.9-28.4-52.2-52.2
				c11.7-11.7,21.9,4.2,12.3,13.9l-75,92.1"/>
			<path class="st3" d="M143.4,281.8l-38.8,10.4l10.4-38.8c1.6-6.1,9.3-8.2,13.8-3.7l18.3,18.3C151.6,272.5,149.6,280.2,143.4,281.8
				z"/>
			<line class="st3" x1="94.9" y1="298.5" x2="28.1" y2="298.5"/>
		</g>
		<g>
			<path class="outlineOne" d="M307.1,188.6c-12.5,11.3-28.2,17.3-44,17.8c-23.2,0.8-45.2,10.1-61.6,26.5l-0.6,0.6
				c-3.2,3.2-8.5,3.2-11.8,0l-25.7-25.7c-3.2-3.2-3.2-8.5,0-11.8l1.4-1.4c16.1-16.1,25.5-37.7,26.5-60.5
				c0.7-16.8,7.5-33.3,20.3-46.1c25.9-25.9,67.1-27.1,94.4-3.5C338.3,112.5,338.8,159.9,307.1,188.6z"/>
			<line class="outlineOne" x1="186.9" y1="243.5" x2="145.9" y2="217.3"/>
			<line class="outlineOne" x1="178" y1="252.4" x2="137.1" y2="226.2"/>
			<line class="outlineOne" x1="169.2" y1="261.2" x2="128.2" y2="235"/>
			<path class="outlineOne" d="M180.7,225.1l92.1-75c9.6-9.6,25.6,0.6,13.8,12.3c-23.8,23.8-75.9-28.4-52.2-52.2
				c11.7-11.7,21.9,4.2,12.3,13.9l-75,92.1"/>
			<path class="outlineOne" d="M143.4,281.8l-38.8,10.4l10.4-38.8c1.6-6.1,9.3-8.2,13.8-3.7l18.3,18.3
				C151.6,272.5,149.6,280.2,143.4,281.8z"/>
			<line class="outlineOne" x1="94.9" y1="298.5" x2="28.1" y2="298.5"/>
		</g>
	</g>
</g>
<g id="fills">
	<path class="colorFour" d="M307.7,82.5c-28.4-24.6-71.6-23-98.2,3.7c-12.9,12.9-20.4,29.9-21.1,48c-0.9,22.2-10,43-25.6,58.6
		l-1.4,1.4c-2.1,2.1-3.3,4.9-3.3,7.9c0,3,1.2,5.8,3.3,7.9l25.7,25.7c2.2,2.2,5,3.3,7.9,3.3c2.8,0,5.7-1.1,7.9-3.3l0.6-0.6
		c15.7-15.7,36.9-24.8,59.7-25.7c17-0.6,33.2-7.2,45.8-18.6c15.9-14.4,24.6-33.7,24.3-54.4C333.1,115.6,324,96.5,307.7,82.5z"/>
	<path class="colorOne" d="M130.8,247.7c-2.8-2.8-6.8-3.9-10.7-2.9c-3.9,1-6.8,4-7.8,7.8l-11.7,43.5l43.5-11.7c3.9-1,6.8-4,7.8-7.8
		c1-3.9,0-7.9-2.9-10.7L130.8,247.7z"/>
	<path class="colorTwo" d="M188.4,241.2L147.5,215c-1.3-0.8-3-0.5-3.9,0.9c-0.8,1.3-0.5,3,0.9,3.9l40.9,26.2c0.5,0.3,1,0.4,1.5,0.4
		c0.9,0,1.8-0.5,2.4-1.3C190.1,243.7,189.7,242,188.4,241.2z"/>
	<path class="colorTwo" d="M179.6,250l-40.9-26.2c-1.3-0.8-3-0.5-3.9,0.9s-0.5,3,0.9,3.9l40.9,26.2c0.5,0.3,1,0.4,1.5,0.4
		c0.9,0,1.8-0.5,2.4-1.3C181.2,252.6,180.9,250.9,179.6,250z"/>
	<path class="colorTwo" d="M170.7,258.9l-40.9-26.2c-1.3-0.8-3-0.5-3.9,0.9s-0.5,3,0.9,3.9l40.9,26.2c0.5,0.3,1,0.4,1.5,0.4
		c0.9,0,1.8-0.5,2.4-1.3C172.4,261.4,172,259.7,170.7,258.9z"/>
	<path class="colorTwo" d="M290.6,147.1c-4.5-4.5-13.2-5.3-19.7,1l-15.4,12.6c-7.7-4.5-14.7-11.5-19.2-19.2l12.6-15.4
		c2.8-2.9,4.5-6.6,4.5-10.4c0.1-3.6-1.2-7-3.6-9.3c-2.2-2.2-5-3.2-8-3c-3.2,0.3-6.4,2-9.3,4.9c-6.4,6.4-8.4,15.1-5.8,25
		c0.7,2.5,1.6,5.1,2.9,7.6l-60,73.7c-1,1.2-0.8,3,0.4,4c1.2,1,3,0.8,4-0.4l58.6-72c4.6,7.2,11.1,13.7,18.3,18.3l-72,58.6
		c-1.2,1-1.4,2.8-0.4,4c0.6,0.7,1.4,1,2.2,1c0.6,0,1.3-0.2,1.8-0.6l73.7-60c2.5,1.2,5,2.2,7.5,2.8c9.9,2.7,18.5,0.7,25-5.8
		C293.5,159.6,295.9,152.4,290.6,147.1z M232.2,131.8c-1.5-5.5-1.9-13.3,4.3-19.5c2-2,4-3.1,5.8-3.3c0.1,0,0.3,0,0.4,0
		c1.5,0,2.5,0.7,3.2,1.4c1.2,1.2,2,3.2,1.9,5.2c0,1.7-0.6,4.2-3,6.6l-11.2,13.8C233,134.6,232.6,133.2,232.2,131.8z M284.7,160.5
		c-6.2,6.2-14,5.8-19.5,4.3c-1.4-0.4-2.7-0.8-4.1-1.4l13.6-11l0.2-0.2c4-4,9.2-3.7,11.8-1.1C289,153.4,288.2,156.9,284.7,160.5z"/>
	<rect x="28.1" y="295.7" class="colorTwo" width="66.8" height="5.6"/>
</g>
</svg>
