<?xml version="1.0" encoding="utf-8"?>
<!-- Generator: Adobe Illustrator 19.2.1, SVG Export Plug-In . SVG Version: 6.00 Build 0)  -->
<svg version="1.1" xmlns="http://www.w3.org/2000/svg" xmlns:xlink="http://www.w3.org/1999/xlink" x="0px" y="0px"
	 viewBox="0 0 360 360" style="enable-background:new 0 0 360 360;" xml:space="preserve">
<style type="text/css">
	.colorOne{fill:#D7BE3C;}
	.colorThree{fill:#FFF573;}
	.colorFour{fill:#FFF4B0;}
	.outlineOne{fill:none;stroke:#000000;stroke-width:6;stroke-miterlimit:10;}
	.st0{fill:none;stroke:#000000;stroke-width:24;stroke-miterlimit:10;}
	.st1{fill:#F9D500;}
	.st2{fill:#FFFFFF;}
	.st3{fill:none;stroke:#000000;stroke-width:5.625;stroke-miterlimit:10;}
	.st4{fill:none;stroke:#000000;stroke-width:5.625;stroke-linecap:round;stroke-miterlimit:10;}
	.st5{fill:none;stroke:#000000;stroke-width:16;stroke-miterlimit:10;}
	.st6{fill:none;stroke:#000000;stroke-width:6;stroke-miterlimit:10;}
	.st7{fill:#FFFFFF;stroke:#000000;stroke-width:24;stroke-miterlimit:10;}
	.st8{fill:#FFFFFF;stroke:#000000;stroke-width:16;stroke-miterlimit:10;}
	.st9{fill:none;stroke:#000000;stroke-width:24;stroke-miterlimit:10;stroke-dasharray:31.2518,41.669;}
	.st10{fill:none;stroke:#000000;stroke-width:16;stroke-miterlimit:10;stroke-dasharray:19.8448,39.6897;}
	.st11{fill:none;stroke:#000000;stroke-width:16;stroke-miterlimit:10;stroke-dasharray:31.2518,41.669;}
	.st12{fill:#F4D857;}
	.st13{fill:#BDF4AB;}
	.st14{fill:#91ED77;}
	.st15{fill:#75D05C;}
	.st16{fill:#5AB441;}
	.st17{fill:#B0DAFF;}
	.st18{fill:#7BB6F7;}
	.st19{fill:#5E9BDA;}
	.st20{fill:#4182BE;}
	.st21{fill:none;}
	.st22{fill:#D7BE3C;}
	.st23{fill:#FFF4B0;}
</style>
<g id="outlines">
	<g>
		<g>
			<path class="st3" d="M231.1,297.3H120.4c0-23.2,24.7-42.3,55.4-42.3S231.1,274.1,231.1,297.3z"/>
			<path class="st3" d="M245,203.4h84.4c0,13.7-18.8,25.3-42.2,25.3S245,217.1,245,203.4z"/>
			<line class="st3" x1="175.8" y1="254.8" x2="175.8" y2="94.1"/>
			<line class="st3" x1="287.2" y1="126.2" x2="72.8" y2="62.7"/>
			<path class="st3" d="M249.4,203.4l37.6-76.8c0.1-0.2,0.3-0.2,0.4,0l37.6,76.8"/>
			<path class="st3" d="M30.6,139.8H115c0,13.7-18.8,25.3-42.2,25.3S30.6,153.5,30.6,139.8z"/>
			<path class="st3" d="M35.7,139.8L72.6,63c0.1-0.2,0.3-0.2,0.4,0l36.9,76.8"/>
		</g>
		<g>
			<path class="outlineOne" d="M231.1,297.3H120.4c0-23.2,24.7-42.3,55.4-42.3S231.1,274.1,231.1,297.3z"/>
			<path class="outlineOne" d="M245,203.4h84.4c0,13.7-18.8,25.3-42.2,25.3S245,217.1,245,203.4z"/>
			<line class="outlineOne" x1="175.8" y1="254.8" x2="175.8" y2="94.1"/>
			<line class="outlineOne" x1="287.2" y1="126.2" x2="72.8" y2="62.7"/>
			<path class="outlineOne" d="M249.4,203.4l37.6-76.8c0.1-0.2,0.3-0.2,0.4,0l37.6,76.8"/>
			<path class="outlineOne" d="M30.6,139.8H115c0,13.7-18.8,25.3-42.2,25.3S30.6,153.5,30.6,139.8z"/>
			<path class="outlineOne" d="M35.7,139.8L72.6,63c0.1-0.2,0.3-0.2,0.4,0l36.9,76.8"/>
		</g>
	</g>
</g>
<g id="fills">
	<rect x="173" y="94.1" class="colorThree" width="5.6" height="160.7"/>
	<path class="colorFour" d="M290,125.4c-0.4-0.9-1.2-1.4-2.1-1.6l0.1-0.2L73.6,60l0,0.1c-0.2-0.1-0.5-0.1-0.7-0.1
		c-1.2,0-2.2,0.7-2.7,1.7l-36.9,76.8l5.1,2.4l34.6-71.9l34.5,71.9l5.1-2.4L78.2,67.2L283.3,128l-36.3,74.2l5.1,2.5l35.3-72.1
		l35.2,72.1l5.1-2.5L290,125.4z"/>
	<path class="colorThree" d="M175.8,252.2c-32.1,0-58.2,20.2-58.2,45.1v2.8H234v-2.8C234,272.4,207.9,252.2,175.8,252.2z"/>
	<path class="colorOne" d="M242.2,200.6v2.8c0,15.5,20.2,28.1,45,28.1s45-12.6,45-28.1v-2.8H242.2z"/>
	<path class="colorOne" d="M117.8,137h-90v2.8c0,15.5,20.2,28.1,45,28.1s45-12.6,45-28.1V137z"/>
</g>
</svg>
