<?xml version="1.0" encoding="utf-8"?>
<!-- Generator: Adobe Illustrator 19.2.1, SVG Export Plug-In . SVG Version: 6.00 Build 0)  -->
<svg version="1.1" xmlns="http://www.w3.org/2000/svg" xmlns:xlink="http://www.w3.org/1999/xlink" x="0px" y="0px"
	 viewBox="0 0 360 360" style="enable-background:new 0 0 360 360;" xml:space="preserve">
<style type="text/css">
	.colorOne{fill:#D7BE3C;}
	.colorTwo{fill:#F4D857;}
	.colorThree{fill:#FFF573;}
	.colorFour{fill:#FFF4B0;}
	.outlineOne{fill:none;stroke:#000000;stroke-width:6;stroke-miterlimit:10;}
	.st0{fill:none;stroke:#000000;stroke-width:24;stroke-miterlimit:10;}
	.st1{fill:#F9D500;}
	.st2{fill:#FFFFFF;}
	.st3{fill:none;stroke:#000000;stroke-width:5.625;stroke-miterlimit:10;}
	.st4{fill:none;stroke:#000000;stroke-width:5.625;stroke-linecap:round;stroke-miterlimit:10;}
	.st5{fill:none;stroke:#000000;stroke-width:16;stroke-miterlimit:10;}
	.st6{fill:none;stroke:#000000;stroke-width:6;stroke-miterlimit:10;}
	.st7{fill:#FFFFFF;stroke:#000000;stroke-width:24;stroke-miterlimit:10;}
	.st8{fill:#FFFFFF;stroke:#000000;stroke-width:16;stroke-miterlimit:10;}
	.st9{fill:none;stroke:#000000;stroke-width:24;stroke-miterlimit:10;stroke-dasharray:31.2518,41.669;}
	.st10{fill:none;stroke:#000000;stroke-width:16;stroke-miterlimit:10;stroke-dasharray:19.8448,39.6897;}
	.st11{fill:none;stroke:#000000;stroke-width:16;stroke-miterlimit:10;stroke-dasharray:31.2518,41.669;}
	.st12{fill:#BDF4AB;}
	.st13{fill:#91ED77;}
	.st14{fill:#75D05C;}
	.st15{fill:#5AB441;}
	.st16{fill:#B0DAFF;}
	.st17{fill:#7BB6F7;}
	.st18{fill:#5E9BDA;}
	.st19{fill:#4182BE;}
	.st20{fill:none;}
	.st21{fill:#D7BE3C;}
	.st22{fill:#F4D857;}
	.st23{fill:#FFF4B0;}
</style>
<g id="outlines">
	<polyline class="outlineOne" points="81.3,162.2 55.2,184.9 32.5,158.8 	"/>
	<polyline class="outlineOne" points="175.8,110 175.8,185.3 136.6,224.2 	"/>
	<path class="outlineOne" d="M55.2,184.9c0-68.6,55.6-124.2,124.2-124.2s124.2,55.6,124.2,124.2s-55.6,124.2-124.2,124.2
		c-55.2,0-102.1-36.1-118.2-86"/>
	<line class="outlineOne" x1="175.8" y1="290.4" x2="175.8" y2="309"/>
	<line class="outlineOne" x1="105.5" y1="259.5" x2="92.3" y2="272.6"/>
	<line class="outlineOne" x1="105.1" y1="110.4" x2="91.9" y2="97.3"/>
	<line class="outlineOne" x1="175.8" y1="80.2" x2="175.8" y2="61.5"/>
	<line class="outlineOne" x1="254.8" y1="110" x2="268" y2="96.9"/>
	<line class="outlineOne" x1="285.1" y1="189.1" x2="303.8" y2="189.1"/>
	<line class="outlineOne" x1="254.9" y1="259" x2="268.1" y2="272.2"/>
</g>
<g id="fills">
	<circle class="colorTwo" cx="179.8" cy="185.2" r="126.8"/>
	<circle class="colorThree" cx="179.5" cy="185.5" r="98.3"/>
	<circle class="colorFour" cx="179.5" cy="185.5" r="81.7"/>
	<polygon class="colorOne" points="138.7,226.3 134.4,222 172.8,184 172.8,110 178.8,110 178.8,186.5 	"/>
	<path class="colorFour" d="M178.8,309h-6v-18.6h6V309z M107.6,261.6l-4.2-4.2l-13.2,13.2l4.2,4.2L107.6,261.6z M107.2,108.3
		L94.1,95.2l-4.2,4.2l13.2,13.2L107.2,108.3z M178.8,61.5h-6v18.6h6V61.5z M270.1,99l-4.2-4.2l-13.2,13.2l4.2,4.2L270.1,99z
		 M303.8,186.1h-18.6v6h18.6V186.1z M270.2,270.1L257,256.9l-4.2,4.2l13.2,13.2L270.2,270.1z"/>
	<path class="colorOne" d="M179.4,312.1c-55.4,0-104-35.4-121-88l5.7-1.8c16.2,50.2,62.6,83.9,115.3,83.9
		c66.8,0,121.2-54.4,121.2-121.2S246.2,63.7,179.4,63.7S58.2,118.1,58.2,184.9h-6c0-70.1,57-127.2,127.2-127.2s127.2,57,127.2,127.2
		S249.5,312.1,179.4,312.1z"/>
	<polygon class="colorOne" points="54.9,189.2 30.3,160.8 34.8,156.9 55.5,180.7 79.3,160 83.2,164.5 	"/>
</g>
</svg>
