<?xml version="1.0" encoding="utf-8"?>
<!-- Generator: Adobe Illustrator 19.2.1, SVG Export Plug-In . SVG Version: 6.00 Build 0)  -->
<svg version="1.1" id="Layer_1" xmlns="http://www.w3.org/2000/svg" xmlns:xlink="http://www.w3.org/1999/xlink" x="0px" y="0px"
	 viewBox="0 0 1666.1 823.8" style="enable-background:new 0 0 1666.1 823.8;" xml:space="preserve">
<style type="text/css">
	.nodeLineOutline{fill:none;stroke:#000000;stroke-width:2;}
	.st0{fill:#404040;}
	.st1{fill:none;stroke:#000000;stroke-width:2.4;stroke-miterlimit:10;}
	.st2{fill:none;stroke:#000000;stroke-width:2;stroke-miterlimit:10;}
</style>
<g class="fillOne">
	<g class="fillOne">
		<path class="fillOne" d="M288.8,396.1c13.4,0,23-10.8,23-25c0-13.6-9.6-24-23-24c-13.4,0-23,10.4-23,24
			C265.7,385.3,275.4,396.1,288.8,396.1z"/>
		<path class="fillOne" d="M529.3,452.8h-0.2c0,0-1.6,7.1-2.8,11.1l-6.3,18.9h18.2l-6.2-18.9C530.8,460,529.3,452.8,529.3,452.8z"/>
		<path class="fillOne" d="M677.8,451.2c-13.4,0-23,10.4-23,24c0,14.2,9.6,25,23,25c13.4,0,23-10.8,23-25
			C700.8,461.7,691.2,451.2,677.8,451.2z"/>
		<path class="fillOne" d="M522.5,371.7c0-15.5-9.2-23.9-23.2-23.9h-10.9v48h10.9C513.4,395.8,522.5,387.5,522.5,371.7z"/>
		<path class="fillOne" d="M230.4,356.2c0-5-3-8.4-8.8-8.4h-12.2v17h12.5C227.4,364.8,230.4,361.2,230.4,356.2z"/>
		<path class="fillOne" d="M248.6,453c-1.7-0.8-3.8-1.1-7.6-1.1h-9.7v22h11.8c6.8,0,11-4.3,11-11.2
			C254.1,458.2,252.5,454.5,248.6,453z"/>
		<path class="fillOne" d="M233.2,385.8c0-5.8-3.7-10-10.1-10h-13.7v20h13.7C229.6,395.8,233.2,391.7,233.2,385.8z"/>
		<path class="fillOne" d="M852.4,587.5c-24.6-53.7-38.3-113.3-38.3-176.2c0-0.1,0-0.2,0-0.3c0-0.1,0-0.3,0-0.5
			c0-89.2,27.6-170.8,74.6-240.8H44.9c-14,0-27.5,12.7-27.5,26.7v432.2c0,14,13.5,27.1,27.5,27.1h789.7l-12.6-33.8l0.2-0.3l-0.2-0.6
			L852.4,587.5z M476.4,340.8c0-2.7,1.2-4,3.8-4H500c21.5,0,35.6,12.9,35.6,34.9c0,22-14.1,35.1-35.6,35.1h-19.8
			c-2.7,0-3.8-1.7-3.8-4.4V340.8z M288.8,335.5c21.1,0,36.1,15.6,36.1,35.6c0,20.5-14.9,36.6-36.1,36.6c-21.1,0-36.1-16-36.1-36.6
			C252.7,351.2,267.6,335.5,288.8,335.5z M197.4,340.8c0-2.7,0.9-4,3.6-4h20.8c12.6,0,21.8,6.4,21.8,17.9c0,6.5-3.3,12-8.3,14.9v0.2
			c7,2.3,11,9.5,11,16.6c0,14-11.3,20.4-24.3,20.4H201c-2.7,0-3.6-1.7-3.6-4.4V340.8z M125.4,340.8c0-2.7,1.3-4,4-4h5.3
			c2.4,0,3.8,0.7,4.9,2.7l24.8,37.5c2.7,4.1,5.8,10.8,5.8,10.8h0.2c0,0-1-6.7-1-10.8v-36.2c0-2.7,1.8-4,4.4-4h4.4
			c2.7,0,4.1,1.4,4.1,4v61.5c0,2.8-1.5,4.4-4.1,4.4h-5.3c-2.2,0-3.7-0.9-4.8-2.9l-24.9-37.4c-2.6-4.1-5.8-10.7-5.8-10.7h-0.2
			c0,0,1.1,6.3,1.1,10.5v36.1c0,2.8-1.8,4.4-4.5,4.4h-4.5c-2.7,0-4-1.7-4-4.4V340.8z M98.4,340.8c0-2.7,1.1-4,3.8-4h4.5
			c2.7,0,3.7,1.4,3.7,4v61.5c0,2.8-1.1,4.4-3.7,4.4h-4.5c-2.7,0-3.8-1.7-3.8-4.4V340.8z M154.7,503.2c-3.9,3.1-12.3,8.7-24.7,8.7
			c-21.9,0-36.1-15.8-36.1-36.4c0-20.3,14.8-35.8,36-35.8c11.4,0,19.1,4.3,22.8,7c2.1,1.6,2.2,3.5,0.8,5.7l-1.8,2.9
			c-1.4,2.3-3.2,2.5-5.6,1c-3-2-8.6-4.9-15.7-4.9c-15.2,0-23.4,11.1-23.4,24c0,13.1,8.5,25,23.5,25c7.9,0,13.9-3.7,17.1-6.1
			c2.2-1.6,4.1-1.6,5.7,0.7l2,2.7C156.8,499.4,156.7,501.5,154.7,503.2z M209.4,506.5c0,2.8-1.6,4.3-4.3,4.3h-35.2
			c-2.7,0-4.5-1.6-4.5-4.3V445c0-2.7,1.8-4.1,4.5-4.1h33.6c2.7,0,3.9,1.5,3.9,4.1v2.8c0,2.7-1.2,4.1-3.9,4.1h-25.1v18h19.5
			c2.7,0,4.5,1.6,4.5,4.2v2.8c0,2.8-1.8,4-4.5,4h-19.5v19h26.7c2.7,0,4.3,1.3,4.3,3.9V506.5z M266.3,510.8H261
			c-2.3,0-3.7-0.9-4.8-2.8l-12.3-23.2h-12.5v21.7c0,2.8-1,4.3-3.7,4.3h-4.5c-2.7,0-3.8-1.6-3.8-4.3V445c0-2.7,1.1-4.1,3.8-4.1H242
			c6.9,0,10.3,0.6,13.3,1.9c7.1,2.9,11.7,9.6,11.7,19.1c0,8.3-4.6,16.1-11.6,19.1v0.2c0,0,0.9,1.1,2.3,3.6l11.5,21.1
			C270.8,508.7,269.6,510.8,266.3,510.8z M327.4,447.7c0,2.7-1,4.1-3.6,4.1h-18.4v54.7c0,2.8-1.8,4.3-4.5,4.3h-4.4
			c-2.7,0-4-1.6-4-4.3v-54.7h-18.8c-2.8,0-4.2-1.5-4.2-4.1V445c0-2.7,1.5-4.1,4.2-4.1h50.1c2.7,0,3.6,1.5,3.6,4.1V447.7z
			 M334.4,340.8c0-2.7,1.6-4,4.2-4h4.4c2.8,0,4.3,1.4,4.3,4v40.5c0,9.4,6.1,14.7,15.5,14.7s15.5-5.3,15.5-14.7v-40.5
			c0-2.7,1.1-4,3.8-4h4.5c2.7,0,3.7,1.4,3.7,4v40.6c0,15.6-11.1,26.3-27.9,26.3c-16.9,0-28.1-10.6-28.1-26.3V340.8z M347.4,506.5
			c0,2.8-1.2,4.3-3.9,4.3H339c-2.7,0-3.6-1.6-3.6-4.3V445c0-2.7,1-4.1,3.6-4.1h4.5c2.7,0,3.9,1.5,3.9,4.1V506.5z M402.4,447.7
			c0,2.7-1.5,4.1-4.2,4.1h-23.8v20h19.5c2.7,0,4.5,1,4.5,3.7v2.8c0,2.7-1.9,4.6-4.5,4.6h-19.5v23.7c0,2.8-1,4.3-3.6,4.3h-4.5
			c-2.7,0-3.9-1.6-3.9-4.3V445c0-2.7,1.2-4.1,3.9-4.1h32c2.7,0,4.2,1.5,4.2,4.1V447.7z M404.4,402.4v-61.5c0-2.7,1.6-4,4.2-4h5.3
			c2.4,0,3.8,0.7,4.9,2.7l24.8,37.5c2.7,4.1,5.8,10.8,5.8,10.8h0.2c0,0-0.2-6.7-0.2-10.8v-36.2c0-2.7,1-4,3.7-4h4.4
			c2.7,0,3.9,1.4,3.9,4v61.5c0,2.8-1.2,4.4-3.9,4.4h-5.3c-2.2,0-3.7-0.9-4.8-2.9l-24.9-37.4c-2.6-4.1-5.8-10.7-5.8-10.7h-0.2
			c0,0,0.9,6.3,0.9,10.5v36.1c0,2.8-1.6,4.4-4.2,4.4h-4.5C406,406.8,404.4,405.1,404.4,402.4z M423.4,506.5c0,2.8-1.1,4.3-3.7,4.3
			h-4.5c-2.7,0-3.7-1.6-3.7-4.3V445c0-2.7,1.1-4.1,3.7-4.1h4.5c2.7,0,3.7,1.5,3.7,4.1V506.5z M494.9,503.2
			c-3.9,3.1-12.3,8.7-24.7,8.7c-21.9,0-36.1-15.8-36.1-36.4c0-20.3,14.8-35.8,36-35.8c11.4,0,19.1,4.3,22.8,7
			c2.1,1.6,2.2,3.5,0.8,5.7l-1.8,2.9c-1.4,2.3-3.2,2.5-5.6,1c-3-2-8.6-4.9-15.7-4.9c-15.2,0-23.4,11.1-23.4,24
			c0,13.1,8.5,25,23.5,25c7.9,0,13.9-3.7,17.1-6.1c2.2-1.6,4.1-1.6,5.7,0.7l2,2.7C497,499.4,496.9,501.5,494.9,503.2z M555.4,510.8
			h-4.5c-2.4,0-3.9-1.1-4.6-3.4l-4.9-14.6h-24.5l-4.8,14.5c-0.7,2.4-2.3,3.5-4.6,3.5h-4.5c-3.1,0-4.3-2-3.3-4.8l21.8-61.8
			c0.8-2.3,2.3-3.4,4.6-3.4h6.3c2.4,0,3.9,1.1,4.6,3.3l21.8,61.8C559.7,508.9,558.5,510.8,555.4,510.8z M611.4,447.7
			c0,2.7-1.3,4.1-3.9,4.1h-19.1v54.7c0,2.8-1.1,4.3-3.9,4.3h-4.4c-2.7,0-3.7-1.6-3.7-4.3v-54.7h-19.1c-2.8,0-3.9-1.5-3.9-4.1V445
			c0-2.7,1.2-4.1,3.9-4.1h50.1c2.7,0,3.9,1.5,3.9,4.1V447.7z M631.4,506.5c0,2.8-1.5,4.3-4.2,4.3h-4.5c-2.7,0-4.3-1.6-4.3-4.3V445
			c0-2.7,1.6-4.1,4.3-4.1h4.5c2.7,0,4.2,1.5,4.2,4.1V506.5z M677.8,511.8c-21.1,0-36.1-16-36.1-36.6c0-20,14.9-35.6,36.1-35.6
			c21.1,0,36.1,15.6,36.1,35.6C713.9,495.8,699,511.8,677.8,511.8z M781.4,506.5c0,2.8-1.4,4.3-4,4.3H772c-2.2,0-3.7-0.9-4.8-2.9
			l-24.9-37.4c-2.6-4.1-5.8-10.8-5.8-10.8h-0.2c0,0,1,6.5,1,10.6v36.1c0,2.8-1.7,4.3-4.4,4.3h-4.5c-2.7,0-4.1-1.6-4.1-4.3V445
			c0-2.7,1.4-4.1,4.1-4.1h5.3c2.4,0,3.8,0.8,4.9,2.7l24.8,37.5c2.7,4.1,5.8,10.8,5.8,10.8h0.2c0,0-1.1-6.6-1.1-10.7V445
			c0-2.7,1.9-4.1,4.5-4.1h4.4c2.7,0,4,1.5,4,4.1V506.5z"/>
		<path class="fillOne" d="M853.9,597.5l-20.2,22.3h32C861.5,612.8,857.6,605.1,853.9,597.5z"/>
		<path class="fillOne" d="M1645.5,619.8l-24.3-26.8c-4.2,9.1-8.8,17.8-13.7,26.8H1645.5z"/>
		<path class="fillOne" d="M1238.2,806.8c57.8,0,112.8-13,162.3-35h-324.6C1125.5,793.8,1180.4,806.8,1238.2,806.8z"/>
		<path class="fillOne" d="M1572.9,620.8c38.3-61,60.5-132.6,60.5-209.6c0-217.9-177.3-395.1-395.2-395.1
			C1020.3,16.1,843,193.2,843,411.1c0,77.1,22.2,148.7,60.5,209.7H1572.9z M1417.4,503l-179.5,102.3L1058.4,503v-83.9l179.5,102.3
			l179.5-102.3V503z M1236.6,222.3l290.3,114.9l-51.1,29.3l9.7,123.3l-33.5,27l-5.8-133.2v0l0,0l-33.4-15.3l21.4,22.2l-197.6,113.5
			L946.2,337.3L1236.6,222.3z"/>
		<path class="fillOne" d="M1060.3,714.1c4.9,0,8.9-4,8.9-11c0-6.7-3.6-11.1-8.7-11.1c-4.6,0-8.9,3.4-8.9,11
			C1051.6,708.8,1054.5,714.1,1060.3,714.1z"/>
		<path class="fillOne" d="M1269.2,687.6c-0.8-2.8-1.9-7.7-1.9-7.7h-0.1c0,0-1.1,4.9-1.9,7.7l-4.4,13.3h12.8L1269.2,687.6z"/>
		<path class="fillOne" d="M1181.3,714c5.8,0,10.5-4.4,10.5-11c0-6.5-4.8-11-10.5-11c-5.8,0-10.5,4.5-10.5,11
			C1170.9,709.6,1175.6,714,1181.3,714z"/>
		<path class="fillOne" d="M1341.4,714.8c4.9,0,8-5,8-9.3v-1.7h-1.2c-4.4,0-12.1,0.9-12.1,6.1
			C1336.1,712.3,1337.8,714.8,1341.4,714.8z"/>
		<path class="fillOne" d="M1139.6,714.1c4.9,0,8.9-4,8.9-11c0-6.7-3.6-11.1-8.7-11.1c-4.6,0-8.9,3.3-8.9,11.2
			C1130.8,708.7,1133.9,714.1,1139.6,714.1z"/>
		<path class="fillOne" d="M1382.1,714.1c4.6,0,8.9-3.3,8.9-11.2c0-5.5-2.8-10.9-8.8-10.9c-4.8,0-8.9,4-8.9,11
			C1373.3,709.7,1376.9,714.1,1382.1,714.1z"/>
		<path class="fillOne" d="M1424,691c-4.5,0-7.7,2.8-8.5,7.8h15.7C1431,693.8,1428,691,1424,691z"/>
		<path class="fillOne" d="M883.7,765.8h709l53.4-139H830.3L883.7,765.8z M1506.9,684.8h3.7c1.7,0,2.7,1,3.3,2.6l6.7,18.3
			c0.6,1.9,1.3,5.1,1.3,5.1h0.1c0,0,0.6-2.9,1.2-4.8l6.2-18.4c0.5-1.7,1.5-2.8,3.3-2.8h3.5c2.1,0,3.1,1.6,2.4,3.6l-14.6,37.4
			c-2.4,6.5-7.6,9.4-12.8,9.4c-1.9,0-3.7-0.5-4.9-1c-1.7-0.6-2.1-2.1-1.3-3.7l0.6-1.5c0.8-1.6,1.9-1.9,3.1-1.6
			c0.6,0.3,1.5,0.6,2.5,0.6c2.6,0,4.6-2.2,5.6-4.7l1.3-3.1l-13.5-31.7C1503.8,686.5,1504.7,684.8,1506.9,684.8z M1446.4,688.2
			c0-1.9,0.9-3.4,2.7-3.4h2.7c1.9,0,2.5,1.5,2.5,3.4v2.1c0,0.8,0.2,1.5,0.2,1.5h0.1c1.7-3,6-7.4,11.6-7.4c5.3,0,8.9,2.4,10.3,7.4
			h0.1c1.9-4,6.5-7.3,12.1-7.3c7.4,0,11.6,4.1,11.6,13.4v19.8c0,1.9-1,3.1-2.9,3.1h-3c-1.9,0-3.1-1.1-3.1-3.1v-18.2
			c0-4-0.8-7.1-4.9-7.1c-6,0-9.1,6.1-9.1,12.3v13c0,1.9-0.6,3.1-2.5,3.1h-3.1c-1.9,0-2.4-1.1-2.4-3.1v-18.2c0-3.8-0.6-7.1-4.8-7.1
			c-6.2,0-9.2,6.4-9.2,12.3v13c0,1.9-1.3,3.1-3.2,3.1h-3.1c-1.9,0-2.7-1.1-2.7-3.1V688.2z M1424.2,684.5c10.1,0,15.7,6.9,15.7,16.6
			c0,1.5-1.3,2.7-3.1,2.7h-21.6c0.6,7,5.3,10,10.6,10c3.3,0,6-1.1,7.6-2.2c1.7-0.8,3-0.6,3.9,1l0.8,1.4c0.8,1.6,0.6,3-1,3.9
			c-2.3,1.5-6.5,3.5-12,3.5c-11.7,0-19-8.5-19-18.5C1406.2,692.1,1413.6,684.5,1424.2,684.5z M1380.5,684.6c7.8,0,10.3,5.2,10.3,5.2
			h0.1c0,0-0.6-1.2-0.6-2.3v-13.2c0-1.9,1.4-2.5,3.3-2.5h3.1c1.9,0,2.7,0.6,2.7,2.5v43.4c0,1.9-0.8,3.1-2.7,3.1h-2.6
			c-1.9,0-2.8-1-2.8-2.8v-1.4c0-0.7,0.1-0.8,0.1-0.8h-0.1c0,0-3,5.9-11.1,5.9c-9.6,0-15.7-7.6-15.7-18.6
			C1364.5,691.9,1371.1,684.6,1380.5,684.6z M1348.1,698.8h1.3V698c0-4.6-2.9-6.2-6.5-6.2c-3,0-5.7,1.1-7.3,2
			c-1.7,0.8-3,0.5-3.9-1.2l-0.7-1.3c-0.8-1.6-0.6-3,1.1-3.9c2.3-1.2,6.3-2.9,11.6-2.9c9.2,0,14.7,5.1,14.7,14.1v19.2
			c0,1.9-1,3.1-3,3.1h-2.4c-1.9,0-2.7-1.1-2.7-3.1v-1.4c0-1,0-1.6,0-1.6h-0.1c0,0-3.3,6.7-11.1,6.7c-6.5,0-11.7-4.2-11.7-10.6
			C1327.4,700.6,1340.2,698.8,1348.1,698.8z M1310.3,684.5c5.7,0,9.5,2.1,11.6,3.5c1.5,1,1.5,2.4,0.6,4l-0.9,1.4
			c-1,1.6-2.2,1.6-3.9,0.8c-1.5-1-3.8-2.2-6.9-2.2c-6.5,0-10.8,4.9-10.8,11c0,6,4.2,11.1,11,11.1c3.5,0,6.2-1.5,7.9-2.7
			c1.7-1,3.1-0.8,4,0.9l0.7,1.3c0.8,1.5,0.6,2.9-0.8,3.9c-2.1,1.6-6.5,4.1-12.6,4.1c-11.7,0-19.2-8.3-19.2-18.5
			C1291.1,692.9,1298.6,684.5,1310.3,684.5z M1246.3,717.4l15.4-43.4c0.6-1.6,1.6-2.2,3.3-2.2h4.4c1.7,0,2.8,0.6,3.3,2.2l15.4,43.5
			c0.7,2-0.2,3.3-2.4,3.3h-3.2c-1.7,0-2.8-1-3.3-2.5l-3.5-10.5h-17.3l-3.4,10.4c-0.5,1.7-1.6,2.6-3.3,2.6h-3.2
			C1246.5,720.8,1245.6,719.4,1246.3,717.4z M1204.4,688.7c0-1.9,0.8-2.9,2.7-2.9h2.3v-7.2c0-1.9,0.8-2.8,2.7-2.8h2.8
			c1.9,0,2.6,0.9,2.6,2.8v7.2h5.5c1.9,0,2.5,1,2.5,2.9v1.2c0,1.9-0.7,2.9-2.5,2.9h-5.5v13.7c0,5.3,3.5,6.3,5.9,6.6
			c2.1,0.2,3.1,0.9,3.1,2.8v2.1c0,2.1-1,2.9-3.4,2.9c-6.3,0-13.6-3.4-13.6-13v-15.2h-2.3c-1.9,0-2.7-1-2.7-2.9V688.7z M1181.3,684.5
			c10.8,0,19.5,7.7,19.5,18.5c0,10.9-8.7,18.5-19.5,18.5c-10.8,0-19.4-7.6-19.4-18.5C1161.9,692.2,1170.6,684.5,1181.3,684.5z
			 M1122.4,688.2c0-1.9,1-3.4,2.8-3.4h2.2c1.9,0,3,1.5,3,2.9v1.6c0,0.8-0.2,1.5-0.2,1.5h0.1c0,0,3.1-6.3,11.4-6.3
			c9.6,0,15.7,7.5,15.7,18.5c0,11.2-6.9,18.4-16.2,18.4c-7.4,0-10.2-5.6-10.2-5.6h-0.1c0,0,0.5,1.5,0.5,3.3v12.5
			c0,1.9-1.2,3.2-3.2,3.2h-3c-1.9,0-2.8-1.2-2.8-3.2V688.2z M1083.6,684.9c0-8.7,7.2-14.3,16.6-14.3c5.8,0,10.6,2.2,12.7,3.7
			c1.5,1.1,1.7,2.4,0.9,4l-1.2,2.3c-1,2-2.5,1.7-4,1c-2-1.2-4.7-2.7-8.5-2.7c-4.6,0-7.5,2.2-7.5,5.5c0,9.2,23,6.9,23,22.5
			c0,8-6,14.6-16.3,14.6c-7,0-12.7-3.1-15.1-5c-1.1-1-1.8-2.1-0.4-4l1.5-2.2c1.1-1.5,2.3-1.6,4-0.6c1.6,1.1,5.1,3.6,10,3.6
			c4.6,0,7.4-2.3,7.4-5.6C1106.6,698.3,1083.6,700.2,1083.6,684.9z M1043.4,674.4c0-1.9,0.7-2.5,2.6-2.5h3c1.9,0,2.5,0.6,2.5,2.5
			v12.8c0,1.7,0.3,2.6,0.3,2.6h0.1c0,0,3.1-5.5,10.8-5.5c9.4,0,15.6,7.6,15.6,18.5c0,11.3-7,18.8-16.2,18.8c-8,0-10.8-5.8-10.8-5.8
			h-0.1c0,0,0.3,0.3,0.3,1.3v1.1c0,1.5-1.1,2.6-3.1,2.6h-2.4c-1.9,0-2.6-1.1-2.6-3.1V674.4z M1001.4,688.2c0-1.9,1-3.4,2.9-3.4h3
			c1.9,0,3.2,1.5,3.2,3.4v18c0,4.3,0.9,7.2,5.3,7.2c6.4,0,9.7-5.6,9.7-11.9v-13.3c0-1.9,1.1-3.4,3.1-3.4h3c1.9,0,3,1.5,3,3.4v29.5
			c0,1.9-1.1,3.1-3,3.1h-2.7c-1.9,0-3.3-1.1-3.3-3.1v-2.1c0-0.8,0.6-1.9,0.6-1.9h-0.1c-1.7,4-6.2,7.6-12.2,7.6
			c-7.6,0-12.2-3.7-12.2-13.3V688.2z M952.4,674.4c0-1.9,0.5-2.5,2.4-2.5h3.2c1.9,0,2.4,0.6,2.4,2.5v17.5h23v-17.5
			c0-1.9,0.9-2.5,2.9-2.5h3.1c1.9,0,3,0.6,3,2.5v43.4c0,1.9-1.1,3.1-3,3.1h-3.1c-1.9,0-2.9-1.1-2.9-3.1v-17.9h-23v17.9
			c0,1.9-0.6,3.1-2.4,3.1h-3.2c-1.9,0-2.4-1.1-2.4-3.1V674.4z"/>
	</g>
	<g class="fillOne">
		<path class="fillOne" d="M288.8,396.1c13.4,0,23-10.8,23-25c0-13.6-9.6-24-23-24c-13.4,0-23,10.4-23,24
			C265.7,385.3,275.4,396.1,288.8,396.1z"/>
		<path class="fillOne" d="M529.3,452.8h-0.2c0,0-1.6,7.1-2.8,11.1l-6.3,18.9h18.2l-6.2-18.9C530.8,460,529.3,452.8,529.3,452.8z"/>
		<path class="fillOne" d="M677.8,451.2c-13.4,0-23,10.4-23,24c0,14.2,9.6,25,23,25c13.4,0,23-10.8,23-25
			C700.8,461.7,691.2,451.2,677.8,451.2z"/>
		<path class="fillOne" d="M522.5,371.7c0-15.5-9.2-23.9-23.2-23.9h-10.9v48h10.9C513.4,395.8,522.5,387.5,522.5,371.7z"/>
		<path class="fillOne" d="M230.4,356.2c0-5-3-8.4-8.8-8.4h-12.2v17h12.5C227.4,364.8,230.4,361.2,230.4,356.2z"/>
		<path class="fillOne" d="M248.6,453c-1.7-0.8-3.8-1.1-7.6-1.1h-9.7v22h11.8c6.8,0,11-4.3,11-11.2
			C254.1,458.2,252.5,454.5,248.6,453z"/>
		<path class="fillOne" d="M233.2,385.8c0-5.8-3.7-10-10.1-10h-13.7v20h13.7C229.6,395.8,233.2,391.7,233.2,385.8z"/>
		<path class="fillOne" d="M852.4,587.5c-24.6-53.7-38.3-113.3-38.3-176.2c0-0.1,0-0.2,0-0.3c0-0.1,0-0.3,0-0.5
			c0-89.2,27.6-170.8,74.6-240.8H44.9c-14,0-27.5,12.7-27.5,26.7v432.2c0,14,13.5,27.1,27.5,27.1h789.7l-12.6-33.8l0.2-0.3l-0.2-0.6
			L852.4,587.5z M476.4,340.8c0-2.7,1.2-4,3.8-4H500c21.5,0,35.6,12.9,35.6,34.9c0,22-14.1,35.1-35.6,35.1h-19.8
			c-2.7,0-3.8-1.7-3.8-4.4V340.8z M288.8,335.5c21.1,0,36.1,15.6,36.1,35.6c0,20.5-14.9,36.6-36.1,36.6c-21.1,0-36.1-16-36.1-36.6
			C252.7,351.2,267.6,335.5,288.8,335.5z M197.4,340.8c0-2.7,0.9-4,3.6-4h20.8c12.6,0,21.8,6.4,21.8,17.9c0,6.5-3.3,12-8.3,14.9v0.2
			c7,2.3,11,9.5,11,16.6c0,14-11.3,20.4-24.3,20.4H201c-2.7,0-3.6-1.7-3.6-4.4V340.8z M125.4,340.8c0-2.7,1.3-4,4-4h5.3
			c2.4,0,3.8,0.7,4.9,2.7l24.8,37.5c2.7,4.1,5.8,10.8,5.8,10.8h0.2c0,0-1-6.7-1-10.8v-36.2c0-2.7,1.8-4,4.4-4h4.4
			c2.7,0,4.1,1.4,4.1,4v61.5c0,2.8-1.5,4.4-4.1,4.4h-5.3c-2.2,0-3.7-0.9-4.8-2.9l-24.9-37.4c-2.6-4.1-5.8-10.7-5.8-10.7h-0.2
			c0,0,1.1,6.3,1.1,10.5v36.1c0,2.8-1.8,4.4-4.5,4.4h-4.5c-2.7,0-4-1.7-4-4.4V340.8z M98.4,340.8c0-2.7,1.1-4,3.8-4h4.5
			c2.7,0,3.7,1.4,3.7,4v61.5c0,2.8-1.1,4.4-3.7,4.4h-4.5c-2.7,0-3.8-1.7-3.8-4.4V340.8z M154.7,503.2c-3.9,3.1-12.3,8.7-24.7,8.7
			c-21.9,0-36.1-15.8-36.1-36.4c0-20.3,14.8-35.8,36-35.8c11.4,0,19.1,4.3,22.8,7c2.1,1.6,2.2,3.5,0.8,5.7l-1.8,2.9
			c-1.4,2.3-3.2,2.5-5.6,1c-3-2-8.6-4.9-15.7-4.9c-15.2,0-23.4,11.1-23.4,24c0,13.1,8.5,25,23.5,25c7.9,0,13.9-3.7,17.1-6.1
			c2.2-1.6,4.1-1.6,5.7,0.7l2,2.7C156.8,499.4,156.7,501.5,154.7,503.2z M209.4,506.5c0,2.8-1.6,4.3-4.3,4.3h-35.2
			c-2.7,0-4.5-1.6-4.5-4.3V445c0-2.7,1.8-4.1,4.5-4.1h33.6c2.7,0,3.9,1.5,3.9,4.1v2.8c0,2.7-1.2,4.1-3.9,4.1h-25.1v18h19.5
			c2.7,0,4.5,1.6,4.5,4.2v2.8c0,2.8-1.8,4-4.5,4h-19.5v19h26.7c2.7,0,4.3,1.3,4.3,3.9V506.5z M266.3,510.8H261
			c-2.3,0-3.7-0.9-4.8-2.8l-12.3-23.2h-12.5v21.7c0,2.8-1,4.3-3.7,4.3h-4.5c-2.7,0-3.8-1.6-3.8-4.3V445c0-2.7,1.1-4.1,3.8-4.1H242
			c6.9,0,10.3,0.6,13.3,1.9c7.1,2.9,11.7,9.6,11.7,19.1c0,8.3-4.6,16.1-11.6,19.1v0.2c0,0,0.9,1.1,2.3,3.6l11.5,21.1
			C270.8,508.7,269.6,510.8,266.3,510.8z M327.4,447.7c0,2.7-1,4.1-3.6,4.1h-18.4v54.7c0,2.8-1.8,4.3-4.5,4.3h-4.4
			c-2.7,0-4-1.6-4-4.3v-54.7h-18.8c-2.8,0-4.2-1.5-4.2-4.1V445c0-2.7,1.5-4.1,4.2-4.1h50.1c2.7,0,3.6,1.5,3.6,4.1V447.7z
			 M334.4,340.8c0-2.7,1.6-4,4.2-4h4.4c2.8,0,4.3,1.4,4.3,4v40.5c0,9.4,6.1,14.7,15.5,14.7s15.5-5.3,15.5-14.7v-40.5
			c0-2.7,1.1-4,3.8-4h4.5c2.7,0,3.7,1.4,3.7,4v40.6c0,15.6-11.1,26.3-27.9,26.3c-16.9,0-28.1-10.6-28.1-26.3V340.8z M347.4,506.5
			c0,2.8-1.2,4.3-3.9,4.3H339c-2.7,0-3.6-1.6-3.6-4.3V445c0-2.7,1-4.1,3.6-4.1h4.5c2.7,0,3.9,1.5,3.9,4.1V506.5z M402.4,447.7
			c0,2.7-1.5,4.1-4.2,4.1h-23.8v20h19.5c2.7,0,4.5,1,4.5,3.7v2.8c0,2.7-1.9,4.6-4.5,4.6h-19.5v23.7c0,2.8-1,4.3-3.6,4.3h-4.5
			c-2.7,0-3.9-1.6-3.9-4.3V445c0-2.7,1.2-4.1,3.9-4.1h32c2.7,0,4.2,1.5,4.2,4.1V447.7z M404.4,402.4v-61.5c0-2.7,1.6-4,4.2-4h5.3
			c2.4,0,3.8,0.7,4.9,2.7l24.8,37.5c2.7,4.1,5.8,10.8,5.8,10.8h0.2c0,0-0.2-6.7-0.2-10.8v-36.2c0-2.7,1-4,3.7-4h4.4
			c2.7,0,3.9,1.4,3.9,4v61.5c0,2.8-1.2,4.4-3.9,4.4h-5.3c-2.2,0-3.7-0.9-4.8-2.9l-24.9-37.4c-2.6-4.1-5.8-10.7-5.8-10.7h-0.2
			c0,0,0.9,6.3,0.9,10.5v36.1c0,2.8-1.6,4.4-4.2,4.4h-4.5C406,406.8,404.4,405.1,404.4,402.4z M423.4,506.5c0,2.8-1.1,4.3-3.7,4.3
			h-4.5c-2.7,0-3.7-1.6-3.7-4.3V445c0-2.7,1.1-4.1,3.7-4.1h4.5c2.7,0,3.7,1.5,3.7,4.1V506.5z M494.9,503.2
			c-3.9,3.1-12.3,8.7-24.7,8.7c-21.9,0-36.1-15.8-36.1-36.4c0-20.3,14.8-35.8,36-35.8c11.4,0,19.1,4.3,22.8,7
			c2.1,1.6,2.2,3.5,0.8,5.7l-1.8,2.9c-1.4,2.3-3.2,2.5-5.6,1c-3-2-8.6-4.9-15.7-4.9c-15.2,0-23.4,11.1-23.4,24
			c0,13.1,8.5,25,23.5,25c7.9,0,13.9-3.7,17.1-6.1c2.2-1.6,4.1-1.6,5.7,0.7l2,2.7C497,499.4,496.9,501.5,494.9,503.2z M555.4,510.8
			h-4.5c-2.4,0-3.9-1.1-4.6-3.4l-4.9-14.6h-24.5l-4.8,14.5c-0.7,2.4-2.3,3.5-4.6,3.5h-4.5c-3.1,0-4.3-2-3.3-4.8l21.8-61.8
			c0.8-2.3,2.3-3.4,4.6-3.4h6.3c2.4,0,3.9,1.1,4.6,3.3l21.8,61.8C559.7,508.9,558.5,510.8,555.4,510.8z M611.4,447.7
			c0,2.7-1.3,4.1-3.9,4.1h-19.1v54.7c0,2.8-1.1,4.3-3.9,4.3h-4.4c-2.7,0-3.7-1.6-3.7-4.3v-54.7h-19.1c-2.8,0-3.9-1.5-3.9-4.1V445
			c0-2.7,1.2-4.1,3.9-4.1h50.1c2.7,0,3.9,1.5,3.9,4.1V447.7z M631.4,506.5c0,2.8-1.5,4.3-4.2,4.3h-4.5c-2.7,0-4.3-1.6-4.3-4.3V445
			c0-2.7,1.6-4.1,4.3-4.1h4.5c2.7,0,4.2,1.5,4.2,4.1V506.5z M677.8,511.8c-21.1,0-36.1-16-36.1-36.6c0-20,14.9-35.6,36.1-35.6
			c21.1,0,36.1,15.6,36.1,35.6C713.9,495.8,699,511.8,677.8,511.8z M781.4,506.5c0,2.8-1.4,4.3-4,4.3H772c-2.2,0-3.7-0.9-4.8-2.9
			l-24.9-37.4c-2.6-4.1-5.8-10.8-5.8-10.8h-0.2c0,0,1,6.5,1,10.6v36.1c0,2.8-1.7,4.3-4.4,4.3h-4.5c-2.7,0-4.1-1.6-4.1-4.3V445
			c0-2.7,1.4-4.1,4.1-4.1h5.3c2.4,0,3.8,0.8,4.9,2.7l24.8,37.5c2.7,4.1,5.8,10.8,5.8,10.8h0.2c0,0-1.1-6.6-1.1-10.7V445
			c0-2.7,1.9-4.1,4.5-4.1h4.4c2.7,0,4,1.5,4,4.1V506.5z"/>
		<path class="fillOne" d="M853.9,597.5l-20.2,22.3h32C861.5,612.8,857.6,605.1,853.9,597.5z"/>
		<path class="fillOne" d="M1645.5,619.8l-24.3-26.8c-4.2,9.1-8.8,17.8-13.7,26.8H1645.5z"/>
		<path class="fillOne" d="M1238.2,806.8c57.8,0,112.8-13,162.3-35h-324.6C1125.5,793.8,1180.4,806.8,1238.2,806.8z"/>
		<path class="fillOne" d="M1572.9,620.8c38.3-61,60.5-132.6,60.5-209.6c0-217.9-177.3-395.1-395.2-395.1
			C1020.3,16.1,843,193.2,843,411.1c0,77.1,22.2,148.7,60.5,209.7H1572.9z M1417.4,503l-179.5,102.3L1058.4,503v-83.9l179.5,102.3
			l179.5-102.3V503z M1236.6,222.3l290.3,114.9l-51.1,29.3l9.7,123.3l-33.5,27l-5.8-133.2v0l0,0l-33.4-15.3l21.4,22.2l-197.6,113.5
			L946.2,337.3L1236.6,222.3z"/>
		<path class="fillOne" d="M1060.3,714.1c4.9,0,8.9-4,8.9-11c0-6.7-3.6-11.1-8.7-11.1c-4.6,0-8.9,3.4-8.9,11
			C1051.6,708.8,1054.5,714.1,1060.3,714.1z"/>
		<path class="fillOne" d="M1269.2,687.6c-0.8-2.8-1.9-7.7-1.9-7.7h-0.1c0,0-1.1,4.9-1.9,7.7l-4.4,13.3h12.8L1269.2,687.6z"/>
		<path class="fillOne" d="M1181.3,714c5.8,0,10.5-4.4,10.5-11c0-6.5-4.8-11-10.5-11c-5.8,0-10.5,4.5-10.5,11
			C1170.9,709.6,1175.6,714,1181.3,714z"/>
		<path class="fillOne" d="M1341.4,714.8c4.9,0,8-5,8-9.3v-1.7h-1.2c-4.4,0-12.1,0.9-12.1,6.1
			C1336.1,712.3,1337.8,714.8,1341.4,714.8z"/>
		<path class="fillOne" d="M1139.6,714.1c4.9,0,8.9-4,8.9-11c0-6.7-3.6-11.1-8.7-11.1c-4.6,0-8.9,3.3-8.9,11.2
			C1130.8,708.7,1133.9,714.1,1139.6,714.1z"/>
		<path class="fillOne" d="M1382.1,714.1c4.6,0,8.9-3.3,8.9-11.2c0-5.5-2.8-10.9-8.8-10.9c-4.8,0-8.9,4-8.9,11
			C1373.3,709.7,1376.9,714.1,1382.1,714.1z"/>
		<path class="fillOne" d="M1424,691c-4.5,0-7.7,2.8-8.5,7.8h15.7C1431,693.8,1428,691,1424,691z"/>
		<path class="fillOne" d="M883.7,765.8h709l53.4-139H830.3L883.7,765.8z M1506.9,684.8h3.7c1.7,0,2.7,1,3.3,2.6l6.7,18.3
			c0.6,1.9,1.3,5.1,1.3,5.1h0.1c0,0,0.6-2.9,1.2-4.8l6.2-18.4c0.5-1.7,1.5-2.8,3.3-2.8h3.5c2.1,0,3.1,1.6,2.4,3.6l-14.6,37.4
			c-2.4,6.5-7.6,9.4-12.8,9.4c-1.9,0-3.7-0.5-4.9-1c-1.7-0.6-2.1-2.1-1.3-3.7l0.6-1.5c0.8-1.6,1.9-1.9,3.1-1.6
			c0.6,0.3,1.5,0.6,2.5,0.6c2.6,0,4.6-2.2,5.6-4.7l1.3-3.1l-13.5-31.7C1503.8,686.5,1504.7,684.8,1506.9,684.8z M1446.4,688.2
			c0-1.9,0.9-3.4,2.7-3.4h2.7c1.9,0,2.5,1.5,2.5,3.4v2.1c0,0.8,0.2,1.5,0.2,1.5h0.1c1.7-3,6-7.4,11.6-7.4c5.3,0,8.9,2.4,10.3,7.4
			h0.1c1.9-4,6.5-7.3,12.1-7.3c7.4,0,11.6,4.1,11.6,13.4v19.8c0,1.9-1,3.1-2.9,3.1h-3c-1.9,0-3.1-1.1-3.1-3.1v-18.2
			c0-4-0.8-7.1-4.9-7.1c-6,0-9.1,6.1-9.1,12.3v13c0,1.9-0.6,3.1-2.5,3.1h-3.1c-1.9,0-2.4-1.1-2.4-3.1v-18.2c0-3.8-0.6-7.1-4.8-7.1
			c-6.2,0-9.2,6.4-9.2,12.3v13c0,1.9-1.3,3.1-3.2,3.1h-3.1c-1.9,0-2.7-1.1-2.7-3.1V688.2z M1424.2,684.5c10.1,0,15.7,6.9,15.7,16.6
			c0,1.5-1.3,2.7-3.1,2.7h-21.6c0.6,7,5.3,10,10.6,10c3.3,0,6-1.1,7.6-2.2c1.7-0.8,3-0.6,3.9,1l0.8,1.4c0.8,1.6,0.6,3-1,3.9
			c-2.3,1.5-6.5,3.5-12,3.5c-11.7,0-19-8.5-19-18.5C1406.2,692.1,1413.6,684.5,1424.2,684.5z M1380.5,684.6c7.8,0,10.3,5.2,10.3,5.2
			h0.1c0,0-0.6-1.2-0.6-2.3v-13.2c0-1.9,1.4-2.5,3.3-2.5h3.1c1.9,0,2.7,0.6,2.7,2.5v43.4c0,1.9-0.8,3.1-2.7,3.1h-2.6
			c-1.9,0-2.8-1-2.8-2.8v-1.4c0-0.7,0.1-0.8,0.1-0.8h-0.1c0,0-3,5.9-11.1,5.9c-9.6,0-15.7-7.6-15.7-18.6
			C1364.5,691.9,1371.1,684.6,1380.5,684.6z M1348.1,698.8h1.3V698c0-4.6-2.9-6.2-6.5-6.2c-3,0-5.7,1.1-7.3,2
			c-1.7,0.8-3,0.5-3.9-1.2l-0.7-1.3c-0.8-1.6-0.6-3,1.1-3.9c2.3-1.2,6.3-2.9,11.6-2.9c9.2,0,14.7,5.1,14.7,14.1v19.2
			c0,1.9-1,3.1-3,3.1h-2.4c-1.9,0-2.7-1.1-2.7-3.1v-1.4c0-1,0-1.6,0-1.6h-0.1c0,0-3.3,6.7-11.1,6.7c-6.5,0-11.7-4.2-11.7-10.6
			C1327.4,700.6,1340.2,698.8,1348.1,698.8z M1310.3,684.5c5.7,0,9.5,2.1,11.6,3.5c1.5,1,1.5,2.4,0.6,4l-0.9,1.4
			c-1,1.6-2.2,1.6-3.9,0.8c-1.5-1-3.8-2.2-6.9-2.2c-6.5,0-10.8,4.9-10.8,11c0,6,4.2,11.1,11,11.1c3.5,0,6.2-1.5,7.9-2.7
			c1.7-1,3.1-0.8,4,0.9l0.7,1.3c0.8,1.5,0.6,2.9-0.8,3.9c-2.1,1.6-6.5,4.1-12.6,4.1c-11.7,0-19.2-8.3-19.2-18.5
			C1291.1,692.9,1298.6,684.5,1310.3,684.5z M1246.3,717.4l15.4-43.4c0.6-1.6,1.6-2.2,3.3-2.2h4.4c1.7,0,2.8,0.6,3.3,2.2l15.4,43.5
			c0.7,2-0.2,3.3-2.4,3.3h-3.2c-1.7,0-2.8-1-3.3-2.5l-3.5-10.5h-17.3l-3.4,10.4c-0.5,1.7-1.6,2.6-3.3,2.6h-3.2
			C1246.5,720.8,1245.6,719.4,1246.3,717.4z M1204.4,688.7c0-1.9,0.8-2.9,2.7-2.9h2.3v-7.2c0-1.9,0.8-2.8,2.7-2.8h2.8
			c1.9,0,2.6,0.9,2.6,2.8v7.2h5.5c1.9,0,2.5,1,2.5,2.9v1.2c0,1.9-0.7,2.9-2.5,2.9h-5.5v13.7c0,5.3,3.5,6.3,5.9,6.6
			c2.1,0.2,3.1,0.9,3.1,2.8v2.1c0,2.1-1,2.9-3.4,2.9c-6.3,0-13.6-3.4-13.6-13v-15.2h-2.3c-1.9,0-2.7-1-2.7-2.9V688.7z M1181.3,684.5
			c10.8,0,19.5,7.7,19.5,18.5c0,10.9-8.7,18.5-19.5,18.5c-10.8,0-19.4-7.6-19.4-18.5C1161.9,692.2,1170.6,684.5,1181.3,684.5z
			 M1122.4,688.2c0-1.9,1-3.4,2.8-3.4h2.2c1.9,0,3,1.5,3,2.9v1.6c0,0.8-0.2,1.5-0.2,1.5h0.1c0,0,3.1-6.3,11.4-6.3
			c9.6,0,15.7,7.5,15.7,18.5c0,11.2-6.9,18.4-16.2,18.4c-7.4,0-10.2-5.6-10.2-5.6h-0.1c0,0,0.5,1.5,0.5,3.3v12.5
			c0,1.9-1.2,3.2-3.2,3.2h-3c-1.9,0-2.8-1.2-2.8-3.2V688.2z M1083.6,684.9c0-8.7,7.2-14.3,16.6-14.3c5.8,0,10.6,2.2,12.7,3.7
			c1.5,1.1,1.7,2.4,0.9,4l-1.2,2.3c-1,2-2.5,1.7-4,1c-2-1.2-4.7-2.7-8.5-2.7c-4.6,0-7.5,2.2-7.5,5.5c0,9.2,23,6.9,23,22.5
			c0,8-6,14.6-16.3,14.6c-7,0-12.7-3.1-15.1-5c-1.1-1-1.8-2.1-0.4-4l1.5-2.2c1.1-1.5,2.3-1.6,4-0.6c1.6,1.1,5.1,3.6,10,3.6
			c4.6,0,7.4-2.3,7.4-5.6C1106.6,698.3,1083.6,700.2,1083.6,684.9z M1043.4,674.4c0-1.9,0.7-2.5,2.6-2.5h3c1.9,0,2.5,0.6,2.5,2.5
			v12.8c0,1.7,0.3,2.6,0.3,2.6h0.1c0,0,3.1-5.5,10.8-5.5c9.4,0,15.6,7.6,15.6,18.5c0,11.3-7,18.8-16.2,18.8c-8,0-10.8-5.8-10.8-5.8
			h-0.1c0,0,0.3,0.3,0.3,1.3v1.1c0,1.5-1.1,2.6-3.1,2.6h-2.4c-1.9,0-2.6-1.1-2.6-3.1V674.4z M1001.4,688.2c0-1.9,1-3.4,2.9-3.4h3
			c1.9,0,3.2,1.5,3.2,3.4v18c0,4.3,0.9,7.2,5.3,7.2c6.4,0,9.7-5.6,9.7-11.9v-13.3c0-1.9,1.1-3.4,3.1-3.4h3c1.9,0,3,1.5,3,3.4v29.5
			c0,1.9-1.1,3.1-3,3.1h-2.7c-1.9,0-3.3-1.1-3.3-3.1v-2.1c0-0.8,0.6-1.9,0.6-1.9h-0.1c-1.7,4-6.2,7.6-12.2,7.6
			c-7.6,0-12.2-3.7-12.2-13.3V688.2z M952.4,674.4c0-1.9,0.5-2.5,2.4-2.5h3.2c1.9,0,2.4,0.6,2.4,2.5v17.5h23v-17.5
			c0-1.9,0.9-2.5,2.9-2.5h3.1c1.9,0,3,0.6,3,2.5v43.4c0,1.9-1.1,3.1-3,3.1h-3.1c-1.9,0-2.9-1.1-2.9-3.1v-17.9h-23v17.9
			c0,1.9-0.6,3.1-2.4,3.1h-3.2c-1.9,0-2.4-1.1-2.4-3.1V674.4z"/>
	</g>
</g>
</svg>
