<?xml version="1.0" encoding="utf-8"?>
<!-- Generator: Adobe Illustrator 19.2.1, SVG Export Plug-In . SVG Version: 6.00 Build 0)  -->
<svg version="1.1" id="Layer_1" xmlns="http://www.w3.org/2000/svg" xmlns:xlink="http://www.w3.org/1999/xlink" x="0px" y="0px"
	 viewBox="0 0 50 50" style="enable-background:new 0 0 50 50;" xml:space="preserve">
<style type="text/css">
	.nodeLineOutline{fill:none;stroke:#000000;stroke-width:2;}
	.st0{fill:#404040;}
	.st1{fill:none;stroke:#000000;stroke-width:2.4;stroke-miterlimit:10;}
	.st2{fill:none;stroke:#000000;stroke-width:2;stroke-miterlimit:10;}
</style>
<path class="fillOne" d="M43.8,2.9H6.2c-1.8,0-3.3,1.4-3.3,3.2v37.8c0,1.8,1.5,3.2,3.3,3.2h37.6c1.8,0,3.3-1.4,3.3-3.2V6.1
	C47.1,4.4,45.6,2.9,43.8,2.9z M40.4,14.3L25,28.3l-15.2-14H40.4z M7.8,16.7L18,26.2L7.8,34.3V16.7z M10.3,35.7L20,28l5,4.6l5-4.6
	l9.7,7.7H10.3z M42.2,34.3l-10.2-8L42.2,17V34.3z"/>
</svg>
