<?xml version="1.0" encoding="utf-8"?>
<!-- Generator: Adobe Illustrator 19.2.1, SVG Export Plug-In . SVG Version: 6.00 Build 0)  -->
<svg version="1.1" id="Layer_1" xmlns="http://www.w3.org/2000/svg" xmlns:xlink="http://www.w3.org/1999/xlink" x="0px" y="0px"
	 viewBox="0 0 50 50" style="enable-background:new 0 0 50 50;" xml:space="preserve">
<style type="text/css">
	.nodeLineOutline{fill:none;stroke:#000000;stroke-width:2;}
	.st0{fill:#404040;}
	.st1{fill:none;stroke:#000000;stroke-width:2.4;stroke-miterlimit:10;}
	.st2{fill:none;stroke:#000000;stroke-width:2;stroke-miterlimit:10;}
</style>
<path class="fillOne" d="M43.8,2.9H6.2c-1.8,0-3.3,1.4-3.3,3.2v37.8c0,1.8,1.5,3.2,3.3,3.2h37.6c1.8,0,3.3-1.4,3.3-3.2V6.1
	C47.1,4.4,45.6,2.9,43.8,2.9 M16,40.5H9.5V19.5H16V40.5z M12.8,16.6c-2.1,0-3.8-1.7-3.8-3.8S10.7,9,12.8,9c2.1,0,3.8,1.7,3.8,3.8
	S14.8,16.6,12.8,16.6 M40.5,40.5H34V30.3c0-2.4,0-5.6-3.4-5.6c-3.4,0-3.9,2.7-3.9,5.4v10.4h-6.5V19.5h6.3v2.9h0.1
	c0.9-1.7,3-3.4,6.2-3.4c6.6,0,7.8,4.4,7.8,10V40.5z"/>
</svg>
