<?xml version="1.0" encoding="utf-8"?>
<!-- Generator: Adobe Illustrator 19.2.1, SVG Export Plug-In . SVG Version: 6.00 Build 0)  -->
<svg version="1.1" id="Layer_1" xmlns="http://www.w3.org/2000/svg" xmlns:xlink="http://www.w3.org/1999/xlink" x="0px" y="0px"
	 viewBox="0 0 50 50" style="enable-background:new 0 0 50 50;" xml:space="preserve">
<style type="text/css">
	.nodeLineOutline{fill:none;stroke:#000000;stroke-width:2;}
	.st0{fill:#404040;}
	.st1{fill:none;stroke:#000000;stroke-width:2.4;stroke-miterlimit:10;}
	.st2{fill:none;stroke:#000000;stroke-width:2;stroke-miterlimit:10;}
</style>
<path class="fillOne" d="M39.1,17.8c0,0.3,0,0.6,0,0.9c0,9.6-7.3,20.7-20.7,20.7c-4.1,0-7.9-1.2-11.2-3.3c0.6,0.1,1.2,0.1,1.7,0.1
	c3.4,0,6.6-1.2,9-3.1c-3.2-0.1-5.9-2.2-6.8-5.1c0.4,0.1,0.9,0.1,1.4,0.1c0.7,0,1.3-0.1,1.9-0.3c-3.3-0.7-5.8-3.6-5.8-7.1v-0.1
	c1,0.5,2.1,0.9,3.3,0.9c-2-1.3-3.2-3.5-3.2-6.1c0-1.3,0.4-2.6,1-3.7c3.6,4.4,9,7.3,15,7.6c-0.1-0.5-0.2-1.1-0.2-1.7
	c0-4,3.3-7.3,7.3-7.3c2.1,0,4,0.9,5.3,2.3c1.7-0.3,3.2-0.9,4.6-1.8c-0.5,1.7-1.7,3.1-3.2,4c1.5-0.2,2.9-0.6,4.2-1.1
	C41.8,15.5,40.5,16.7,39.1,17.8 M43.8,2.9H6.2c-1.8,0-3.3,1.4-3.3,3.2v37.8c0,1.8,1.5,3.2,3.3,3.2h37.6c1.8,0,3.3-1.4,3.3-3.2V6.1
	C47.1,4.4,45.6,2.9,43.8,2.9"/>
</svg>
