<?xml version="1.0" encoding="utf-8"?>
<!-- Generator: Adobe Illustrator 19.2.1, SVG Export Plug-In . SVG Version: 6.00 Build 0)  -->
<svg version="1.1" xmlns="http://www.w3.org/2000/svg" xmlns:xlink="http://www.w3.org/1999/xlink" x="0px" y="0px"
	 viewBox="0 0 1024 1024" style="enable-background:new 0 0 1024 1024;" xml:space="preserve">
<style type="text/css">
	.st0{fill:none;stroke:#000000;stroke-width:24;stroke-miterlimit:10;}
	.st1{fill:#F9D500;}
	.st2{fill:none;stroke:#000000;stroke-width:6;stroke-miterlimit:10;}
	.st3{fill:#FFFFFF;}
	.st4{fill:none;stroke:#000000;stroke-width:5.625;stroke-miterlimit:10;}
	.st5{fill:none;stroke:#000000;stroke-width:5.625;stroke-linecap:round;stroke-miterlimit:10;}
	.st6{fill:none;stroke:#000000;stroke-width:16;stroke-miterlimit:10;}
	.st7{fill:#FFFFFF;stroke:#000000;stroke-width:24;stroke-miterlimit:10;}
	.st8{fill:#FFFFFF;stroke:#000000;stroke-width:16;stroke-miterlimit:10;}
	.st9{fill:none;stroke:#000000;stroke-width:24;stroke-miterlimit:10;stroke-dasharray:31.2518,41.669;}
	.st10{fill:none;stroke:#000000;stroke-width:16;stroke-miterlimit:10;stroke-dasharray:19.8448,39.6897;}
	.st11{fill:none;stroke:#000000;stroke-width:16;stroke-miterlimit:10;stroke-dasharray:31.2518,41.669;}
	.st12{fill:#FFF4B0;}
	.st13{fill:#D7BE3C;}
	.st14{fill:#F4D857;}
	.st15{fill:#FFF573;}
	.st16{fill:#BDF4AB;}
	.st17{fill:#91ED77;}
	.st18{fill:#75D05C;}
	.st19{fill:#5AB441;}
	.st20{fill:#B0DAFF;}
	.st21{fill:#7BB6F7;}
	.st22{fill:#5E9BDA;}
	.st23{fill:#4182BE;}
	.st24{fill:none;}
</style>
<g id="outlines">
	<circle class="st0" cx="512" cy="511.2" r="355.9"/>
	<g>
		<g>
			<line class="st0" x1="184.5" y1="375" x2="199.5" y2="375"/>
			<line class="st9" x1="241.2" y1="375" x2="803.7" y2="375"/>
			<line class="st0" x1="824.5" y1="375" x2="839.5" y2="375"/>
		</g>
	</g>
	<g>
		<g>
			<line class="st0" x1="184.5" y1="647.8" x2="199.5" y2="647.8"/>
			<line class="st9" x1="241.2" y1="647.8" x2="803.7" y2="647.8"/>
			<line class="st0" x1="824.5" y1="647.8" x2="839.5" y2="647.8"/>
		</g>
	</g>
	<line class="st0" x1="615.6" y1="592.7" x2="615.6" y2="536.9"/>
	<line class="st0" x1="665.9" y1="592.7" x2="665.9" y2="499.3"/>
	<line class="st0" x1="716.3" y1="592.7" x2="716.3" y2="461.7"/>
	<line class="st0" x1="766.7" y1="592.7" x2="766.7" y2="424.2"/>
	<rect x="312.8" y="117.3" class="st7" width="398.4" height="181.4"/>
	<line class="st0" x1="248" y1="511" x2="528" y2="511"/>
	<line class="st0" x1="248" y1="557.5" x2="465.6" y2="557.5"/>
	<line class="st0" x1="248" y1="461.7" x2="465.6" y2="461.7"/>
	<line class="st0" x1="372" y1="728.9" x2="652" y2="728.9"/>
	<line class="st0" x1="403.2" y1="775.4" x2="620.8" y2="775.4"/>
</g>
<g id="fills">
</g>
</svg>
