<?xml version="1.0" encoding="utf-8"?>
<!-- Generator: Adobe Illustrator 19.2.1, SVG Export Plug-In . SVG Version: 6.00 Build 0)  -->
<svg version="1.1" id="Layer_1" xmlns="http://www.w3.org/2000/svg" xmlns:xlink="http://www.w3.org/1999/xlink" x="0px" y="0px"
	 viewBox="0 0 50 50" style="enable-background:new 0 0 50 50;" xml:space="preserve">
<style type="text/css">
	.nodeLineOutline{fill:none;stroke:#000000;stroke-width:2;}
	.st0{fill:#404040;}
	.st1{fill:none;stroke:#000000;stroke-width:2.4;stroke-miterlimit:10;}
	.st2{fill:none;stroke:#000000;stroke-width:2;stroke-miterlimit:10;}
</style>
<path class="fillOne" d="M43.8,2.9H6.2c-1.8,0-3.3,1.4-3.3,3.2v37.8c0,1.8,1.5,3.2,3.3,3.2h18.5V30.1h-5.9v-6.8h5.9v-5
	c0-5.9,3.6-9,8.8-9c2.5,0,4.7,0.2,5.3,0.3v6.1l-3.6,0c-2.8,0-3.4,1.3-3.4,3.3v4.4h6.8l-0.9,6.8h-5.9v16.9h12c1.8,0,3.3-1.4,3.3-3.2
	V6.1C47.1,4.4,45.6,2.9,43.8,2.9"/>
</svg>
