<?xml version="1.0" encoding="utf-8"?>
<!-- Generator: Adobe Illustrator 19.2.1, SVG Export Plug-In . SVG Version: 6.00 Build 0)  -->
<svg version="1.1" xmlns="http://www.w3.org/2000/svg" xmlns:xlink="http://www.w3.org/1999/xlink" x="0px" y="0px"
	 viewBox="0 0 360 360" style="enable-background:new 0 0 360 360;" xml:space="preserve">
<style type="text/css">
	.colorTwo{fill:#F4D857;}
	.colorThree{fill:#FFF573;}
	.colorFour{fill:#FFF4B0;}
	.outlineOne{fill:none;stroke:#000000;stroke-width:6;stroke-miterlimit:10;}
	.st0{fill:none;stroke:#000000;stroke-width:24;stroke-miterlimit:10;}
	.st1{fill:#F9D500;}
	.st2{fill:#FFFFFF;}
	.st3{fill:none;stroke:#000000;stroke-width:5.625;stroke-miterlimit:10;}
	.st4{fill:none;stroke:#000000;stroke-width:5.625;stroke-linecap:round;stroke-miterlimit:10;}
	.st5{fill:none;stroke:#000000;stroke-width:16;stroke-miterlimit:10;}
	.st6{fill:none;stroke:#000000;stroke-width:6;stroke-miterlimit:10;}
	.st7{fill:#FFFFFF;stroke:#000000;stroke-width:24;stroke-miterlimit:10;}
	.st8{fill:#FFFFFF;stroke:#000000;stroke-width:16;stroke-miterlimit:10;}
	.st9{fill:none;stroke:#000000;stroke-width:24;stroke-miterlimit:10;stroke-dasharray:31.2518,41.669;}
	.st10{fill:none;stroke:#000000;stroke-width:16;stroke-miterlimit:10;stroke-dasharray:19.8448,39.6897;}
	.st11{fill:none;stroke:#000000;stroke-width:16;stroke-miterlimit:10;stroke-dasharray:31.2518,41.669;}
	.st12{fill:#D7BE3C;}
	.st13{fill:#BDF4AB;}
	.st14{fill:#91ED77;}
	.st15{fill:#75D05C;}
	.st16{fill:#5AB441;}
	.st17{fill:#B0DAFF;}
	.st18{fill:#7BB6F7;}
	.st19{fill:#5E9BDA;}
	.st20{fill:#4182BE;}
	.st21{fill:none;}
	.st22{fill:#F4D857;}
	.st23{fill:#FFF4B0;}
</style>
<g id="outlines">
	<path class="outlineOne" d="M111.7,179.6c0,0-1.4-66.5,58.3-66.5c35.2,0,58.3,24.5,58.3,73.2c0,45.6-46.7,56.2-46.7,93.6
		c0,18.7-14.8,28-28,28s-27-3.6-28.1-39.6"/>
	<path class="outlineOne" d="M136.1,198c0,0-10.1-25.2,3.6-41.7s54.2-33.8,66.2,6.1s-16.8,47.8-25.4,56.5s-8.4,24.5-8.4,24.5"/>
	<path class="outlineOne" d="M143.3,249.1c0,0-2.2-10.7,7.2-17.3c9.4-6.5,24.3-38.2,7.1-46.2s-25.1-6.1-25.1-6.1"/>
	<path class="outlineOne" d="M172,176.4c0,0,0-19.4-32.3-20.1"/>
	<path class="outlineOne" d="M165.6,69.9c55.2,2.2,99.3,47.7,99.3,103.4v0.1"/>
	<path class="outlineOne" d="M245.3,173.5v-0.1c0-45-35.4-81.7-79.8-83.9"/>
	<path class="outlineOne" d="M165.6,49.6c66.4,2.2,119.7,56.8,119.7,123.8v0.1"/>
	<path class="outlineOne" d="M245.3,173.5v-0.1c0-45-35.4-81.7-79.8-83.9"/>
</g>
<g id="fills">
	<path class="colorFour" d="M214.6,129.5c-10.6-12.7-26-19.4-44.7-19.4c-25,0-43.4,11.5-53.4,33.2c-7.2,15.6-8.5,33.6-3.9,50.8
		c4.6,16.7,7.3,28.4,7.8,32.9c1,9.8,1.9,41.1,1.9,41.5l0,0c1.2,37.4,16.4,42.5,31.1,42.5c15.1,0,31-10.9,31-31
		c0-16.6,10.1-27.9,20.9-39.8c12.1-13.5,25.9-28.8,25.9-53.8C231.2,161.9,225.6,142.7,214.6,129.5z"/>
	<path class="colorTwo" d="M208.8,161.5c-5.5-18.4-16.6-24.2-24.9-25.9c-16.6-3.4-36.7,6.9-46.5,18.8c-2.5,3-4.4,6.5-5.7,10.3
		c-1.3,3.8-0.9,8.1,1,11.7c2,3.6,5.5,6.2,9.5,7.1c4.3,1,9.1,2.7,14.2,5.1c3.7,1.7,5.7,4.8,6.1,9.5c1,11.3-7.7,27.4-13.7,31.5
		c-3.6,2.5-6.1,5.7-7.5,9.6c-0.6,1.6-0.9,3.3-0.9,5.1c0,4.1,1.7,8.1,4.6,10.9c2.9,2.9,6.8,4.5,10.9,4.5c4.9,0,9.4-2.2,12.4-6.2
		c3.8-5.1,6.4-11.1,7.5-17.5c0.8-4.5,2.6-10.8,6.8-15c1.5-1.5,3.8-3,6.4-4.8C200.2,208.5,219,195.8,208.8,161.5z"/>
	<path class="colorFour" d="M170.3,164.7c-5.9-7.3-16.2-11.1-30.6-11.4H127v6l12.6,0c23,0.5,28,10.8,29.1,15.2c0.3,1.2,1.3,2,2.5,2
		l0.8,0l0,0c1.7,0,2.9-1.6,2.5-3.3C174,170.9,172.9,167.8,170.3,164.7z"/>
	<path class="colorThree" d="M165.8,67l-0.2,6c26,1,50.3,11.9,68.3,30.7c18.1,18.8,28.1,43.6,28.1,69.7v0.1h6v-0.1
		c0-27.7-10.6-53.9-29.8-73.9C219,79.6,193.3,68.1,165.8,67z"/>
	<path class="colorFour" d="M252.6,85.1c-23-23.7-53.9-37.4-86.8-38.5l-0.2,6c31.4,1,60.8,14.1,82.7,36.7
		c22,22.7,34.1,52.5,34.1,84.1v0.1h6v-0.1C288.4,140.2,275.7,108.9,252.6,85.1z"/>
	<path class="colorTwo" d="M165.6,86.5l-0.3,6c43.2,2.1,77,37.7,77,80.9v0.1h6v-0.1C248.3,126.9,212,88.8,165.6,86.5z"/>
</g>
</svg>
