<?xml version="1.0" encoding="utf-8"?>
<!-- Generator: Adobe Illustrator 19.2.1, SVG Export Plug-In . SVG Version: 6.00 Build 0)  -->
<svg version="1.1" xmlns="http://www.w3.org/2000/svg" xmlns:xlink="http://www.w3.org/1999/xlink" x="0px" y="0px"
	 viewBox="0 0 360 360" style="enable-background:new 0 0 360 360;" xml:space="preserve">
<style type="text/css">
	.colorOne{fill:#D7BE3C;}
	.colorTwo{fill:#F4D857;}
	.colorFour{fill:#FFF4B0;}
	.outlineOne{fill:none;stroke:#000000;stroke-width:6;stroke-miterlimit:10;}
	.st0{fill:none;stroke:#000000;stroke-width:24;stroke-miterlimit:10;}
	.st1{fill:#F9D500;}
	.st2{fill:#FFFFFF;}
	.st3{fill:none;stroke:#000000;stroke-width:5.625;stroke-miterlimit:10;}
	.st4{fill:none;stroke:#000000;stroke-width:5.625;stroke-linecap:round;stroke-miterlimit:10;}
	.st5{fill:none;stroke:#000000;stroke-width:16;stroke-miterlimit:10;}
	.st6{fill:none;stroke:#000000;stroke-width:6;stroke-miterlimit:10;}
	.st7{fill:#FFFFFF;stroke:#000000;stroke-width:24;stroke-miterlimit:10;}
	.st8{fill:#FFFFFF;stroke:#000000;stroke-width:16;stroke-miterlimit:10;}
	.st9{fill:none;stroke:#000000;stroke-width:24;stroke-miterlimit:10;stroke-dasharray:31.2518,41.669;}
	.st10{fill:none;stroke:#000000;stroke-width:16;stroke-miterlimit:10;stroke-dasharray:19.8448,39.6897;}
	.st11{fill:none;stroke:#000000;stroke-width:16;stroke-miterlimit:10;stroke-dasharray:31.2518,41.669;}
	.st12{fill:#FFF573;}
	.st13{fill:#BDF4AB;}
	.st14{fill:#91ED77;}
	.st15{fill:#75D05C;}
	.st16{fill:#5AB441;}
	.st17{fill:#B0DAFF;}
	.st18{fill:#7BB6F7;}
	.st19{fill:#5E9BDA;}
	.st20{fill:#4182BE;}
	.st21{fill:none;}
	.st22{fill:#D7BE3C;}
	.st23{fill:#F4D857;}
	.st24{fill:#FFF4B0;}
</style>
<g id="outlines">
	<path class="outlineOne" d="M92.1,156.9l68.2-68.2l30.7,30.7l-61.4,61.4c-6.4,6.4-9.6,15-9.6,23.4c0,8.4,3.3,17,9.7,23.4
		c12.9,12.9,33.8,13,46.7,0.1l61.4-61.4l30.7,30.7l-68.2,68.2c-29.9,29.9-78.4,30-108.3,0c-15-15-22.4-34.5-22.4-54.1
		C69.6,191.4,77.1,171.8,92.1,156.9z"/>
	
		<rect x="221.2" y="177.3" transform="matrix(-0.7071 -0.7071 0.7071 -0.7071 279.2438 499.0271)" class="outlineOne" width="43.6" height="28.7"/>
	
		<rect x="143.7" y="99.9" transform="matrix(-0.7071 -0.7071 0.7071 -0.7071 201.8155 312.0987)" class="outlineOne" width="43.6" height="28.7"/>
	<polygon class="outlineOne" points="285.8,75.4 265.1,96.2 281,112.2 230.3,130.9 251.4,109.9 235.5,94 	"/>
</g>
<g id="fills">
	<path class="colorOne" d="M237.8,162l-63.5,63.5c-11.7,11.7-30.7,11.6-42.5-0.1c-5.6-5.6-8.9-13.4-8.9-21.3
		c0-8.1,3.1-15.7,8.7-21.3l63.5-63.5l-34.9-34.9l-70.3,70.3c-15,15-23.3,35-23.3,56.3c0,21.3,8.3,41.2,23.3,56.3
		c15.5,15.5,35.9,23.2,56.2,23.2c20.4,0,40.8-7.8,56.3-23.3l70.3-70.3L237.8,162z"/>
	
		<rect x="225.6" y="166.9" transform="matrix(0.7071 -0.7071 0.7071 0.7071 -64.3734 227.9472)" class="colorTwo" width="34.7" height="49.6"/>
	
		<rect x="148.2" y="89.5" transform="matrix(0.7071 -0.7071 0.7071 0.7071 -32.3015 150.5206)" class="colorTwo" width="34.7" height="49.6"/>
	<polygon class="colorFour" points="297.6,67.9 230.1,92.8 247.1,109.9 218.5,138.5 286.5,113.4 269.3,96.2 	"/>
</g>
</svg>
