<?xml version="1.0" encoding="utf-8"?>
<!-- Generator: Adobe Illustrator 19.2.1, SVG Export Plug-In . SVG Version: 6.00 Build 0)  -->
<svg version="1.1" id="Layer_1" xmlns="http://www.w3.org/2000/svg" xmlns:xlink="http://www.w3.org/1999/xlink" x="0px" y="0px"
	 viewBox="0 0 95.2 59.8" style="enable-background:new 0 0 95.2 59.8;" xml:space="preserve">
<style type="text/css">
	.nodeLineOutline{fill:none;stroke:#000000;stroke-width:2;}
	.st0{fill:#404040;}
	.st1{fill:none;stroke:#000000;stroke-width:2.4;stroke-miterlimit:10;}
	.st2{fill:none;stroke:#000000;stroke-width:2;stroke-miterlimit:10;}
</style>
<g class="fillOne">
	<g class="fillOne">
		<path class="fillOne" d="M5.9,56c1,0.5,2.2,0.4,3.2-0.2c2.4-1.4,3.5-4.5,3.9-7l0,0l0,0c0.6-3.9,1.7-7.8,3.3-11.4
			c4.9-11,14.4-19.8,25.9-24c5.4-2,11.3-3.1,17-2.8c6,0.3,11.7,2.5,16.2,6.3c4.4,3.7,7.6,8.8,8.8,14.4c0.7,3,0.9,6.2,0.1,9.2
			c-0.7,2.8-2.3,5.4-4.5,7.3c-3.8,3.5-10.7,5.8-15.4,2.7c-2.3-1.6-3.9-4.2-3.9-7c0-1.4,0.7-2.8,1.8-3.7c0.7-0.5,1.8-1.1,2.6-1.1
			c0.7-0.1,1.4,0.1,1.9,0.5c0.5,0.4,1.1,1.1,1.1,1.7c0.1,0.4,0.1,0.9-0.2,1.2c-0.2,0.2-1.1,0.9-0.9,1.2c0.2,0.5,1.2,0.3,1.6,0.2
			c0.6-0.2,1.1-0.6,1.4-1.1c1.5-2.3-0.2-5.5-2.4-6.6c-2-1-4.5-0.8-6.4,0.1c-2.5,1.1-4.4,3.4-5.1,6c-1.4,5.4,1.9,11.3,6.5,14
			c5.3,3.2,12.3,2.4,17.7-0.3c5.3-2.7,9.3-7.4,11-13c1.8-5.6,1.1-11.8-0.8-17.3C86.4,13.9,76.5,5.3,64.6,2.8
			c-6.3-1.3-12.9-0.9-19.1,0.5c-6,1.3-11.7,3.6-17,6.8C18.2,16.4,10.2,26.1,6.1,37.4c-1,2.6-1.7,5.3-2.2,8.1
			c-0.5,2.5-0.9,5.2-0.1,7.7C4.1,54.2,4.8,55.4,5.9,56"/>
	</g>
	<g class="fillOne">
		<path class="fillOne" d="M5.9,56c1,0.5,2.2,0.4,3.2-0.2c2.4-1.4,3.5-4.5,3.9-7l0,0l0,0c0.6-3.9,1.7-7.8,3.3-11.4
			c4.9-11,14.4-19.8,25.9-24c5.4-2,11.3-3.1,17-2.8c6,0.3,11.7,2.5,16.2,6.3c4.4,3.7,7.6,8.8,8.8,14.4c0.7,3,0.9,6.2,0.1,9.2
			c-0.7,2.8-2.3,5.4-4.5,7.3c-3.8,3.5-10.7,5.8-15.4,2.7c-2.3-1.6-3.9-4.2-3.9-7c0-1.4,0.7-2.8,1.8-3.7c0.7-0.5,1.8-1.1,2.6-1.1
			c0.7-0.1,1.4,0.1,1.9,0.5c0.5,0.4,1.1,1.1,1.1,1.7c0.1,0.4,0.1,0.9-0.2,1.2c-0.2,0.2-1.1,0.9-0.9,1.2c0.2,0.5,1.2,0.3,1.6,0.2
			c0.6-0.2,1.1-0.6,1.4-1.1c1.5-2.3-0.2-5.5-2.4-6.6c-2-1-4.5-0.8-6.4,0.1c-2.5,1.1-4.4,3.4-5.1,6c-1.4,5.4,1.9,11.3,6.5,14
			c5.3,3.2,12.3,2.4,17.7-0.3c5.3-2.7,9.3-7.4,11-13c1.8-5.6,1.1-11.8-0.8-17.3C86.4,13.9,76.5,5.3,64.6,2.8
			c-6.3-1.3-12.9-0.9-19.1,0.5c-6,1.3-11.7,3.6-17,6.8C18.2,16.4,10.2,26.1,6.1,37.4c-1,2.6-1.7,5.3-2.2,8.1
			c-0.5,2.5-0.9,5.2-0.1,7.7C4.1,54.2,4.8,55.4,5.9,56"/>
	</g>
</g>
</svg>
