<?xml version="1.0" encoding="utf-8"?>
<!-- Generator: Adobe Illustrator 19.2.1, SVG Export Plug-In . SVG Version: 6.00 Build 0)  -->
<svg version="1.1" id="Layer_1" xmlns="http://www.w3.org/2000/svg" xmlns:xlink="http://www.w3.org/1999/xlink" x="0px" y="0px"
	 viewBox="0 0 1347.7 1060.3" style="enable-background:new 0 0 1347.7 1060.3;" xml:space="preserve">
<style type="text/css">
	.nodeLineOutline{fill:none;stroke:#000000;stroke-width:2;}
	.st0{fill:#404040;}
	.st1{fill:none;stroke:#000000;stroke-width:2.4;stroke-miterlimit:10;}
	.st2{fill:none;stroke:#000000;stroke-width:2;stroke-miterlimit:10;}
</style>
<g>
	<polygon class="fillOne" points="373.7,27.9 346.9,54.7 427.3,135 346.9,215.4 373.7,242.2 480.8,135 	"/>
	<polygon class="fillOne" points="266.5,27.9 239.7,54.7 320.1,135 239.7,215.4 266.5,242.2 373.7,135 	"/>
	<polygon class="fillOne" points="159.4,27.9 132.6,54.7 212.9,135 132.6,215.4 159.4,242.2 266.5,135 	"/>
	<polygon class="fillOne" points="52.2,27.9 25.4,54.7 105.8,135 25.4,215.4 52.2,242.2 159.4,135 	"/>
	<polygon class="fillOne" points="343.2,312.6 343.2,605.1 120.2,312.6 25.4,312.6 25.4,766.9 126.8,766.9 126.8,482.2 343.2,766.9 
		444.5,766.9 444.5,312.6 	"/>
	<polygon class="fillOne" points="515.1,312.6 515.1,400.4 639.9,400.4 639.9,766.9 741.2,766.9 741.2,400.4 866,400.4 866,354 
		866,312.6 	"/>
	<polygon class="fillOne" points="725.9,943.9 703,980.7 680.1,943.9 659.5,943.9 659.5,1030.9 678.3,1030.9 678.3,974.5 
		702.5,1011.3 703,1011.3 727.5,974.1 727.5,1030.9 746.6,1030.9 746.6,943.9 	"/>
	<polygon class="fillOne" points="788.6,943.9 788.6,1030.9 854.8,1030.9 854.8,1013.9 807.6,1013.9 807.6,995.6 848.6,995.6 
		848.6,978.6 807.6,978.6 807.6,960.9 854.2,960.9 854.2,943.9 	"/>
	<polygon class="fillOne" points="959.4,943.9 936.6,980.7 913.7,943.9 893,943.9 893,1030.9 911.8,1030.9 911.8,974.5 936,1011.3 
		936.6,1011.3 961,974.1 961,1030.9 980.1,1030.9 980.1,943.9 	"/>
	<polygon class="fillOne" points="1133,943.9 1133,1030.9 1199.3,1030.9 1199.3,1013.9 1152,1013.9 1152,995.6 1193.1,995.6 
		1193.1,978.6 1152,978.6 1152,960.9 1198.7,960.9 1198.7,943.9 	"/>
	<path class="fillOne" d="M1276,986.2c9.3,0,14.7-5,14.7-12.3v-0.2c0-8.2-5.7-12.4-15-12.4h-19v25H1276z M1237.5,943.9h39.8
		c11.1,0,19.6,3.1,25.4,8.8c4.8,4.8,7.5,11.7,7.5,19.9v0.2c0,14.1-7.6,22.9-18.7,27l21.3,31.1h-22.4l-18.7-27.8h-0.2h-14.8v27.8
		h-19.1V943.9z"/>
	<path class="fillOne" d="M1136.7,677.2c-36.4,0-67.4-12.8-92.9-38.3c-25.6-25.6-38.3-59.5-38.3-101.7c0-42.2,13.5-75.8,40.6-100.7
		c27-24.9,59.6-37.3,97.8-37.3c45.3,0,83.4,18,114.6,53.9l66.8-66.8c-50.1-55.9-112-83.9-186-83.9c-66.7,0-123.2,22.5-169.3,67.6
		c-46.1,45-69.2,101.2-69.2,168.6s22.6,123.2,67.9,167.3c45.3,44.2,102.9,66.3,172.9,66.3c68.5,0,128-27.9,178.9-83.5l-65.7-65.7
		C1223.9,659,1184.4,677.2,1136.7,677.2"/>
	<rect x="22.4" y="854.2" class="fillOne" width="1286.8" height="15.5"/>
	<path class="fillOne" d="M1063.5,1014.1c8.5,0,13.6-3,13.6-9.5v-0.2c0-5.8-4.4-9.5-14.2-9.5h-22.1v19.2H1063.5z M1058.4,979.1
		c8.5,0,13.8-2.7,13.8-9.2v-0.2c0-5.7-4.5-9-12.6-9h-18.9v18.4H1058.4z M1022.1,943.9h40.4c9.9,0,17.8,2.7,22.7,7.7
		c4,4,6,8.8,6,14.8v0.2c0,9.8-5.2,15.3-11.4,18.8c10.1,3.9,16.3,9.7,16.3,21.4v0.3c0,15.9-12.9,23.9-32.6,23.9h-41.4V943.9z"/>
	<path class="fillOne" d="M59.8,987.8c9.6,0,15.2-5.7,15.2-13.2v-0.2c0-8.6-6-13.2-15.5-13.2H44.6v26.6H59.8z M25.5,943.9H61
		c20.8,0,33.3,12.3,33.3,30.1v0.3c0,20.1-15.7,30.6-35.2,30.6H44.6v26.1H25.5V943.9z"/>
	<path class="fillOne" d="M168.2,986.2c9.3,0,14.7-5,14.7-12.3v-0.2c0-8.2-5.7-12.4-15-12.4h-19v25H168.2z M129.7,943.9h39.8
		c11.1,0,19.6,3.1,25.4,8.8c4.8,4.8,7.5,11.7,7.5,19.9v0.2c0,14.1-7.6,22.9-18.7,27l21.3,31.1h-22.4l-18.6-27.8h-0.2h-14.8v27.8
		h-19.1V943.9z"/>
	<path class="fillOne" d="M309.4,987.6v-0.2c0-14.9-10.9-27.4-26.4-27.4s-26.1,12.2-26.1,27.1v0.2c0,14.9,10.9,27.4,26.4,27.4
		C298.7,1014.8,309.4,1002.6,309.4,987.6 M236.9,987.6v-0.2c0-24.7,19.5-45,46.4-45c26.9,0,46.1,20,46.1,44.8v0.2
		c0,24.7-19.5,45-46.4,45S236.9,1012.4,236.9,987.6"/>
	<path class="fillOne" d="M366.2,993.6v-49.7h19.1v49.2c0,14.2,7.1,21.5,18.8,21.5s18.8-7.1,18.8-20.9v-49.9H442V993
		c0,26.4-14.8,39.3-38.2,39.3C380.5,1032.3,366.2,1019.2,366.2,993.6"/>
	<path class="fillOne" d="M516.6,1013.6c15.7,0,26.2-10.6,26.2-26v-0.2c0-15.4-10.6-26.2-26.2-26.2h-14.8v52.5H516.6z M482.7,943.9
		h33.9c27.3,0,46.2,18.8,46.2,43.3v0.2c0,24.5-18.9,43.5-46.2,43.5h-33.9V943.9z"/>
</g>
</svg>
