<?xml version="1.0" encoding="utf-8"?>
<!-- Generator: Adobe Illustrator 19.2.1, SVG Export Plug-In . SVG Version: 6.00 Build 0)  -->
<svg version="1.1" xmlns="http://www.w3.org/2000/svg" xmlns:xlink="http://www.w3.org/1999/xlink" x="0px" y="0px"
	 viewBox="0 0 360 360" style="enable-background:new 0 0 360 360;" xml:space="preserve">
<style type="text/css">
	.colorOne{fill:#D7BE3C;}
	.colorTwo{fill:#F4D857;}
	.colorThree{fill:#FFF573;}
	.colorFour{fill:#FFF4B0;}
	.outlineOne{fill:none;stroke:#000000;stroke-width:6;stroke-miterlimit:10;}
	.st0{fill:none;stroke:#000000;stroke-width:24;stroke-miterlimit:10;}
	.st1{fill:#F9D500;}
	.st2{fill:#FFFFFF;}
	.st3{fill:none;stroke:#000000;stroke-width:5.625;stroke-miterlimit:10;}
	.st4{fill:none;stroke:#000000;stroke-width:5.625;stroke-linecap:round;stroke-miterlimit:10;}
	.st5{fill:none;stroke:#000000;stroke-width:16;stroke-miterlimit:10;}
	.st6{fill:none;stroke:#000000;stroke-width:6;stroke-miterlimit:10;}
	.st7{fill:#FFFFFF;stroke:#000000;stroke-width:24;stroke-miterlimit:10;}
	.st8{fill:#FFFFFF;stroke:#000000;stroke-width:16;stroke-miterlimit:10;}
	.st9{fill:none;stroke:#000000;stroke-width:24;stroke-miterlimit:10;stroke-dasharray:31.2518,41.669;}
	.st10{fill:none;stroke:#000000;stroke-width:16;stroke-miterlimit:10;stroke-dasharray:19.8448,39.6897;}
	.st11{fill:none;stroke:#000000;stroke-width:16;stroke-miterlimit:10;stroke-dasharray:31.2518,41.669;}
	.st12{fill:#BDF4AB;}
	.st13{fill:#91ED77;}
	.st14{fill:#75D05C;}
	.st15{fill:#5AB441;}
	.st16{fill:#B0DAFF;}
	.st17{fill:#7BB6F7;}
	.st18{fill:#5E9BDA;}
	.st19{fill:#4182BE;}
	.st20{fill:none;}
	.st21{fill:#D7BE3C;}
	.st22{fill:#F4D857;}
	.st23{fill:#FFF4B0;}
</style>
<g id="outlines">
	<polyline class="outlineOne" points="256.3,165.3 241.4,180.1 256.2,195 	"/>
	<polyline class="outlineOne" points="226.8,298.9 241.7,284.1 226.9,269.2 	"/>
	<rect x="46.5" y="46.4" class="outlineOne" width="59.4" height="59.4"/>
	<circle class="outlineOne" cx="180.3" cy="179.8" r="37.7"/>
	<path class="outlineOne" d="M105.8,76.1h158.9c10.1,0,18.3,8.2,18.3,18.3v67.4c0,10.1-8.2,18.3-18.3,18.3h-23.1"/>
	<path class="outlineOne" d="M241.7,284.1H94.5c-10.1,0-18.3-8.2-18.3-18.3v-67.4c0-10.1,8.2-18.3,18.3-18.3h48.1"/>
	<polygon class="outlineOne" points="250.1,317.4 283.7,259.3 317.3,317.4 	"/>
</g>
<g id="fills">
	<path class="colorFour" d="M229,267.1l-4.3,4.2l9.6,9.7H94.5c-8.4,0-15.3-6.9-15.3-15.3v-67.4c0-8.4,6.9-15.3,15.3-15.3h48.1v-6
		H94.5c-11.7,0-21.3,9.5-21.3,21.3v67.4c0,11.7,9.5,21.3,21.3,21.3h140l-9.8,9.7l4.2,4.3l17-16.9L229,267.1z"/>
	<path class="colorFour" d="M264.8,73.1H105.8v6h158.9c8.4,0,15.3,6.9,15.3,15.3v67.4c0,8.4-6.9,15.3-15.3,15.3h-16l9.6-9.5
		l-4.2-4.3l-17,16.9l16.9,17l4.3-4.2l-9.8-9.9h16.3c11.7,0,21.3-9.5,21.3-21.3V94.3C286.1,82.6,276.5,73.1,264.8,73.1z"/>
	<rect x="43.5" y="43.4" class="colorOne" width="65.4" height="65.4"/>
	<path class="colorTwo" d="M180.3,139.1c-22.5,0-40.7,18.3-40.7,40.7c0,22.5,18.3,40.7,40.7,40.7c22.5,0,40.7-18.3,40.7-40.7
		C221,157.4,202.7,139.1,180.3,139.1z"/>
	<polygon class="colorThree" points="283.7,253.3 244.9,320.4 322.5,320.4 	"/>
</g>
</svg>
