<?xml version="1.0" encoding="utf-8"?>
<!-- Generator: Adobe Illustrator 19.2.1, SVG Export Plug-In . SVG Version: 6.00 Build 0)  -->
<svg version="1.1" xmlns="http://www.w3.org/2000/svg" xmlns:xlink="http://www.w3.org/1999/xlink" x="0px" y="0px"
	 viewBox="0 0 360 360" style="enable-background:new 0 0 360 360;" xml:space="preserve">
<style type="text/css">
	.colorOne{fill:#D7BE3C;}
	.colorTwo{fill:#F4D857;}
	.colorThree{fill:#FFF573;}
	.colorFour{fill:#FFF4B0;}
	.outlineOne{fill:none;stroke:#000000;stroke-width:6;stroke-miterlimit:10;}
	.st0{fill:none;stroke:#000000;stroke-width:24;stroke-miterlimit:10;}
	.st1{fill:#F9D500;}
	.st2{fill:#FFFFFF;}
	.st3{fill:none;stroke:#000000;stroke-width:5.625;stroke-miterlimit:10;}
	.st4{fill:none;stroke:#000000;stroke-width:5.625;stroke-linecap:round;stroke-miterlimit:10;}
	.st5{fill:none;stroke:#000000;stroke-width:16;stroke-miterlimit:10;}
	.st6{fill:none;stroke:#000000;stroke-width:6;stroke-miterlimit:10;}
	.st7{fill:#FFFFFF;stroke:#000000;stroke-width:24;stroke-miterlimit:10;}
	.st8{fill:#FFFFFF;stroke:#000000;stroke-width:16;stroke-miterlimit:10;}
	.st9{fill:none;stroke:#000000;stroke-width:24;stroke-miterlimit:10;stroke-dasharray:31.2518,41.669;}
	.st10{fill:none;stroke:#000000;stroke-width:16;stroke-miterlimit:10;stroke-dasharray:19.8448,39.6897;}
	.st11{fill:none;stroke:#000000;stroke-width:16;stroke-miterlimit:10;stroke-dasharray:31.2518,41.669;}
	.st12{fill:#BDF4AB;}
	.st13{fill:#91ED77;}
	.st14{fill:#75D05C;}
	.st15{fill:#5AB441;}
	.st16{fill:#B0DAFF;}
	.st17{fill:#7BB6F7;}
	.st18{fill:#5E9BDA;}
	.st19{fill:#4182BE;}
	.st20{fill:none;}
	.st21{fill:#D7BE3C;}
	.st22{fill:#F4D857;}
	.st23{fill:#FFF4B0;}
</style>
<g id="outlines">
	<path class="outlineOne" d="M290.1,217.9c-17.8,0-34.8-6.6-47.9-18.6l-0.1-0.1l30.3-30.3l-2.1-2.1c-5.3-5.3-8.2-12.4-8.2-19.9
		c0-15.5,12.6-28.1,28.1-28.1s28.1,12.6,28.1,28.1c0,7.5-2.9,14.5-8.2,19.9l-2.1,2.1l30.3,30.3l-0.1,0.1
		C324.9,211.3,307.9,217.9,290.1,217.9z"/>
	<path class="outlineOne" d="M70,217.9c-17.8,0-34.8-6.6-47.9-18.6l-0.1-0.1l30.3-30.3l-2.1-2.1c-5.3-5.3-8.2-12.4-8.2-19.9
		c0-15.5,12.6-28.1,28.1-28.1s28.1,12.6,28.1,28.1c0,7.5-2.9,14.5-8.2,19.9l-2.1,2.1l30.3,30.3l-0.1,0.1
		C104.8,211.3,87.8,217.9,70,217.9z"/>
	<path class="outlineOne" d="M180,299.1c-40.9,0-79.7-15.6-109.2-43.9l-0.1-0.1l65.9-65.9l-2.1-2.1c-12.2-12.2-18.9-28.4-18.9-45.7
		c0-35.6,29-64.5,64.5-64.5s64.5,29,64.5,64.5c0,17.2-6.7,33.4-18.9,45.6l-2.1,2.1l65.9,65.9l-0.2,0.2
		C259.8,283.5,221,299.1,180,299.1z"/>
</g>
<g id="fills">
	<path class="colorOne" d="M180,238.2l47.7-49.1c12.2-12.2,19.8-29.1,19.8-47.7c0-37.3-30.2-67.5-67.5-67.5
		c-37.3,0-67.5,30.2-67.5,67.5c0,18.7,7.6,35.6,19.8,47.8L180,238.2z"/>
	<path class="colorTwo" d="M70,191.5l22-22.6c5.6-5.6,9.1-13.4,9.1-22c0-17.2-13.9-31.1-31.1-31.1c-17.2,0-31.1,13.9-31.1,31.1
		c0,8.6,3.5,16.4,9.1,22L70,191.5z"/>
	<path class="colorThree" d="M92,168.8l30.3,30.3c-13.4,13.4-31.9,21.7-52.3,21.7c-20.1,0-38.3-8-51.6-21l-0.7-0.7L48,168.9l22,22.6
		L92,168.8z"/>
	<path class="colorTwo" d="M290.2,191.5l22-22.6c5.6-5.6,9.1-13.4,9.1-22c0-17.2-13.9-31.1-31.1-31.1c-17.2,0-31.1,13.9-31.1,31.1
		c0,8.6,3.5,16.4,9.1,22L290.2,191.5z"/>
	<path class="colorThree" d="M312.1,168.8l30.3,30.3c-13.4,13.4-31.9,21.7-52.3,21.7c-20.1,0-38.3-8-51.6-21l-0.7-0.7l30.3-30.3
		l22,22.6L312.1,168.8z"/>
	<path class="colorTwo" d="M227.8,189.1l65.9,65.9c-29.1,29.1-69.3,47.1-113.7,47.1c-43.6,0-83.1-17.4-112.1-45.5l-1.5-1.5
		l65.9-65.9l47.8,49.1L227.8,189.1z"/>
	<g>
		<g>
			<path class="colorFour" d="M179.6,187.3c-16.5,0-31.8-9.1-39.9-23.8l8.6-4.8c6.4,11.5,18.4,18.7,31.3,18.7
				c12.9,0,24.9-7.2,31.3-18.7l8.6,4.8C211.4,178.2,196.1,187.3,179.6,187.3z"/>
		</g>
		<g>
			<path class="colorFour" d="M179.6,187.3c-16.5,0-31.8-9.1-39.9-23.8l8.6-4.8c6.4,11.5,18.4,18.7,31.3,18.7
				c12.9,0,24.9-7.2,31.3-18.7l8.6,4.8C211.4,178.2,196.1,187.3,179.6,187.3z"/>
		</g>
	</g>
</g>
</svg>
