<?xml version="1.0" encoding="utf-8"?>
<!-- Generator: Adobe Illustrator 19.2.1, SVG Export Plug-In . SVG Version: 6.00 Build 0)  -->
<svg version="1.1" xmlns="http://www.w3.org/2000/svg" xmlns:xlink="http://www.w3.org/1999/xlink" x="0px" y="0px"
	 viewBox="0 0 360 360" style="enable-background:new 0 0 360 360;" xml:space="preserve">
<style type="text/css">
	.colorOne{fill:#D7BE3C;}
	.colorThree{fill:#FFF573;}
	.outlineOne{fill:none;stroke:#000000;stroke-width:6;stroke-miterlimit:10;}
	.st0{fill:none;stroke:#000000;stroke-width:24;stroke-miterlimit:10;}
	.st1{fill:#F9D500;}
	.st2{fill:#FFFFFF;}
	.st3{fill:none;stroke:#000000;stroke-width:5.625;stroke-miterlimit:10;}
	.st4{fill:none;stroke:#000000;stroke-width:5.625;stroke-linecap:round;stroke-miterlimit:10;}
	.st5{fill:none;stroke:#000000;stroke-width:16;stroke-miterlimit:10;}
	.st6{fill:none;stroke:#000000;stroke-width:6;stroke-miterlimit:10;}
	.st7{fill:#FFFFFF;stroke:#000000;stroke-width:24;stroke-miterlimit:10;}
	.st8{fill:#FFFFFF;stroke:#000000;stroke-width:16;stroke-miterlimit:10;}
	.st9{fill:none;stroke:#000000;stroke-width:24;stroke-miterlimit:10;stroke-dasharray:31.2518,41.669;}
	.st10{fill:none;stroke:#000000;stroke-width:16;stroke-miterlimit:10;stroke-dasharray:19.8448,39.6897;}
	.st11{fill:none;stroke:#000000;stroke-width:16;stroke-miterlimit:10;stroke-dasharray:31.2518,41.669;}
	.st12{fill:#FFF4B0;}
	.st13{fill:#F4D857;}
	.st14{fill:#BDF4AB;}
	.st15{fill:#91ED77;}
	.st16{fill:#75D05C;}
	.st17{fill:#5AB441;}
	.st18{fill:#B0DAFF;}
	.st19{fill:#7BB6F7;}
	.st20{fill:#5E9BDA;}
	.st21{fill:#4182BE;}
	.st22{fill:none;}
	.st23{fill:#D7BE3C;}
</style>
<g id="outlines">
	<path class="outlineOne" d="M228.2,297.7c-18.5,6.7-38.5,10.4-59.4,10.4c-47.3,0-90.2-18.8-121.6-49.4l-1.7-1.7l71.5-71.5
		c-13.3-13.3-21.5-31.6-21.5-51.8c0-40.5,32.8-73.3,73.3-73.3s73.3,32.8,73.3,73.3c0,20.2-8.2,38.5-21.4,51.8l23.6,23.6
		c-20.9,6.2-36.1,25.5-36.1,48.4C208.3,273.9,216.1,288.5,228.2,297.7z"/>
	<polyline class="outlineOne" points="227.7,251.6 258,282.1 327,213.3 	"/>
	<path class="outlineOne" d="M309.1,257.5c0,27.9-22.6,50.4-50.4,50.4c-11.4,0-22-3.8-30.5-10.2c-12.1-9.2-20-23.8-20-40.2
		c0-22.9,15.2-42.2,36.1-48.4c4.6-1.3,9.4-2.1,14.4-2.1C286.6,207,309.1,229.6,309.1,257.5z"/>
</g>
<g id="fills">
	<g>
		<path class="st23" d="M168.8,240.2l56.6-54.6c14.5-13.6,23.4-32.3,23.4-53c0-41.5-35.8-75.1-80.1-75.1
			c-44.2,0-80.1,33.6-80.1,75.1c0,20.7,9,39.5,23.5,53.1L168.8,240.2z"/>
		<path class="st13" d="M225.4,185.6l78.1,73.2c-34.5,32.3-82.1,52.4-134.7,52.4c-51.7,0-98.5-19.3-132.8-50.6l-1.8-1.7l78.1-73.2
			l56.6,54.5L225.4,185.6z"/>
		<g>
			<g>
				<path class="st12" d="M168.4,183.5c-19.5,0-37.7-10.1-47.3-26.4l10.2-5.3c7.6,12.8,21.8,20.8,37.1,20.8c15.3,0,29.5-8,37.1-20.8
					l10.2,5.3C206,173.4,187.9,183.5,168.4,183.5z"/>
			</g>
			<g>
				<path class="st12" d="M168.4,183.5c-19.5,0-37.7-10.1-47.3-26.4l10.2-5.3c7.6,12.8,21.8,20.8,37.1,20.8c15.3,0,29.5-8,37.1-20.8
					l10.2,5.3C206,173.4,187.9,183.5,168.4,183.5z"/>
			</g>
		</g>
	</g>
	<path class="colorThree" d="M258.7,204c-5.2,0-10.3,0.7-15.2,2.2c-22.5,6.7-38.2,27.7-38.2,51.2c0,16.9,7.7,32.4,21.2,42.6
		c9.3,7.1,20.5,10.8,32.3,10.8c29.5,0,53.4-24,53.4-53.4C312.1,228,288.2,204,258.7,204z"/>
	<polygon class="colorOne" points="324.9,210.5 258.1,277.2 229.8,248.8 224.8,253.7 258,287.1 329.8,215.5 	"/>
</g>
</svg>
