<?xml version="1.0" encoding="utf-8"?>
<!-- Generator: Adobe Illustrator 19.2.1, SVG Export Plug-In . SVG Version: 6.00 Build 0)  -->
<svg version="1.1" id="Layer_1" xmlns="http://www.w3.org/2000/svg" xmlns:xlink="http://www.w3.org/1999/xlink" x="0px" y="0px"
	 viewBox="0 0 1138.2 1138.2" style="enable-background:new 0 0 1138.2 1138.2;" xml:space="preserve">
<style type="text/css">
	.nodeLineOutline{fill:none;stroke:#000000;stroke-width:2;}
	.st0{fill:#404040;}
	.st1{fill:none;stroke:#000000;stroke-width:2.4;stroke-miterlimit:10;}
	.st2{fill:none;stroke:#000000;stroke-width:2;stroke-miterlimit:10;}
</style>
<g>
	<path class="fillOne" d="M134.9,907.3c-186.5-239.4-143.4-586,96-772.5c239.4-186.5,586-143.4,772.4,96
		c186.5,239.4,143.4,586-96,772.5S321.4,1146.8,134.9,907.3z M991,240.5C809.8,7.8,473.1-34,240.5,147.2
		C7.8,328.4-34,665.1,147.2,897.7c181.2,232.6,517.9,274.5,750.6,93.3C1130.4,809.8,1172.2,473.1,991,240.5z"/>
	<path class="fillOne" d="M133.2,605.9c0.5-1.9,0.4-4.7,0.2-7.3c-0.3-4.4-4.2-9-7.7-10.9c-3.1-1.6-7-1.4-10.6-1
		c-13.6,1.9-15.9,13.2-15.6,17.9c0.1,1.8,0.2,4.2,1.1,5.7L133.2,605.9z M122.1,620c-6.6,0.9-17.3,2.4-18.4,2.6
		c-1.7,0.4-2.1,1.6-2,3.8l0.4,5.2c0,0.4-0.2,0.6-0.7,0.7l-2.5,0.3c-0.6,0.1-0.8-0.1-0.9-0.5c-0.1-1.2,0-4.8-0.8-14.8
		c-0.1-1.8-0.9-7.5-1.1-10.9c-0.9-11.9-0.2-17.8,3.4-24c3-5,8.4-8.7,14.6-9.5c12.4-1.7,20.9,6.7,22.3,23.5c0.3,3.4,0.5,6.3,0.3,9
		l4.4-0.6c4.8-0.6,18.4-2.5,19.7-2.8c2.2-0.6,3.1-1.7,3-3.5l-0.5-5.5c-0.1-0.8,0.3-0.8,0.6-0.9l2.3-0.3c0.6-0.1,1-0.1,1.1,0.7
		c0.1,1.4,0.1,4.6,1,15.3c0.7,8.7,1.4,12.7,1.5,13.7c0.1,0.8-0.3,0.9-0.6,0.9l-2.5,0.3c-0.6,0.1-0.8,0.1-0.9-0.5l-0.3-3.2
		c-0.3-3.4-0.8-4.1-3.5-4.1c-1,0-16.7,2-28.3,3.6L122.1,620z"/>
	<path class="fillOne" d="M132,531c0.3-1.4,0.7-2.5,0.8-3.7c1.6-15.2-10.5-18.9-15.1-19.1c-4.5-0.2-9,1.5-11.5,3.8
		c-3.5,3.4-5.1,7.8-5.7,12.7c-0.2,1.6-0.2,2.7,0.2,3.6c0.4,0.8,1.5,1.2,2.8,1.3L132,531z M140.9,531.6c6,0.3,17.1,0.6,18.6,0.4
		c2-0.2,3.9-0.8,4-2.4l0.5-4.9c0.1-0.6,0.4-0.8,0.8-0.8l2.4,0.1c0.7,0,0.9,0.3,0.8,1.1c-0.1,1.3-0.6,3.2-1.6,13.4
		c-1,9.6-0.9,12-1,13c-0.1,0.6-0.4,0.8-1,0.7l-2.3-0.1c-0.5,0-0.8-0.2-0.7-0.6l0.3-3.4c0.2-2.2-0.2-3.8-2.9-3.9
		c-9.9-0.6-19.3-1-28.6-1.5l-26.1-1.1c-3.4-0.2-5.1,1.2-5.3,2.9l-0.4,3.8c0,0.5-0.3,0.7-0.7,0.7l-2.7-0.1c-0.5,0-0.7-0.2-0.6-0.7
		c0.1-0.7,0.7-3.8,1.8-13.4c0.6-5.5,1.3-14.5,1.6-17.5c0.9-7.8,4.2-13.7,8.2-17.5c3.5-3.4,7.9-4.9,11.6-4.8
		c12.4,0.5,16.8,8.2,17.4,19l0.4,0c1.3-2.7,3.2-4.4,5.2-5.6c1.7-1.1,11.6-6.7,12.9-7.5c1-0.5,10.6-6.4,12.1-7.8
		c1.9-1.8,2.3-4.5,2.6-6.8c0.1-0.6,0.4-0.8,0.8-0.7l2.1,0.1c0.7,0,1,0.2,0.9,0.9c-0.1,0.8-0.6,3.3-1.2,9.5c-0.3,2.7-0.4,6.4-0.5,8.5
		c-1,1.1-3.9,2.9-6.1,4c-2.9,1.6-10.5,5.1-12.1,5.9c-1.9,0.9-6.7,3.4-9.1,4.9c-3.7,2.3-6.6,4.4-7.1,8.5c0,0.4-0.1,2.1-0.1,3.1
		L140.9,531.6z"/>
	<path class="fillOne" d="M155.2,434c-3,0.3-26.4,1.4-28.5,1.5c-1.2,0.1-1.9,0.2-2,0.5c-0.2,0.6,0.1,1,0.8,1.5
		c1.1,0.7,21.7,14.6,23.6,15.8L155.2,434z M152.5,455.6c1.9,1.3,14,9.1,16.4,10.2c0.7,0.4,1.5,0.6,1.9,0.7c1.2,0.3,2.7-0.9,3.3-2.8
		l1.2-3.9c0.2-0.8,0.5-0.9,0.8-0.8l2.4,0.6c0.6,0.1,0.9,0.4,0.7,1c-0.4,1.3-1.9,5.2-3.9,11.7c-2.1,6.9-2.5,9.1-2.9,10.4
		c-0.2,0.6-0.7,0.4-1.4,0.3l-1.8-0.4c-0.6-0.1-0.7-0.4-0.6-0.7l0.9-2.8c0.8-2.6,0-4.6-2.4-7c-1.4-1.4-16.4-12.2-23.4-16.9
		c-1.7-1.1-19.7-13.6-21.8-15.1c-0.9-0.4-2.4-1.4-3.1-1c-0.4,0.2-1,0.4-1.3,0.3c-0.4-0.1-0.7-0.4-0.7-1.2c0.2-3.2-1-8.9-1.8-10.3
		c-0.4-0.7-0.6-1.2-0.5-1.6c0.2-0.6,1.4-0.7,2-0.7c6.3-0.3,29.6-2.4,36.1-2.6c8-0.5,27.3-2.2,30.2-2.8c3.7-0.9,5.5-3,6.1-4.9
		l0.9-2.9c0.2-0.6,0.4-0.7,0.9-0.6l2,0.5c0.6,0.1,1.1,0.4,0.8,1.2c-0.5,1.7-1.3,3.4-4.4,13.6c-2.4,7.8-3.1,11-3.7,13
		c-0.2,0.7-0.9,0.8-1.4,0.7l-1.9-0.5c-0.6-0.1-0.7-0.4-0.5-0.9l0.7-2.4c0.8-2.6,0.1-3.6-2.6-3.6c-3.6-0.1-16.8,0.7-20.6,1
		L152.5,455.6z"/>
	<path class="fillOne" d="M218.9,344.4c1.2,0.5,2.2,0.6,2.9,0.9c0.7,0.3,0.8,1,0.6,2c-0.1,8.6-1.8,16.5-7.3,26.7
		c-4.5,8.3-13,17.4-23.2,19.9c-8.7,2.6-17.5,1.6-27.7-3.1c-7.9-3.7-14.3-11-16.3-19.8c-2.1-8.7-0.8-17.8,4.8-27.9
		c4.4-8.1,10.5-13.3,14-15c1.3-0.7,1.3-1.3,0.9-2.1l-0.8-1.6c-0.4-0.7-0.5-1.1-0.2-1.6c0.5-0.8,1.1-0.8,1.7-0.5l17.5,7.1
		c0.7,0.3,1.1,0.5,1,0.9l-0.8,2.2c-0.2,0.5-0.5,0.6-1.1,0.5c-4.1-0.4-10-0.4-15.5,1.2c-4.6,1.4-10.1,4.8-13.6,11.2
		c-2.9,5.2-4,10.4-1.2,17.5c2.4,6.2,8,12.5,15.6,16c10.1,4.7,20.4,6.1,28,3.5c6.2-2.2,10.3-5.4,13.2-10.9c2.9-5.4,4-9,4-12.6
		c0-2.3-2.3-3.6-6.8-5.7l-6.2-2.9c-3.1-1.4-4.4-1-5.6,1.2l-1.9,3.6c-0.3,0.5-0.7,0.5-1.1,0.3l-2-0.9c-0.5-0.2-0.6-0.5-0.4-0.8
		c0.6-1,3-4.9,6.8-11.9c3.8-7.1,5.1-10,5.6-10.9c0.4-0.7,0.6-0.8,1.1-0.6l2.1,1c0.5,0.2,0.6,0.5,0.3,1l-1.6,2.9
		c-0.8,1.5-0.7,2.8,1.8,4L218.9,344.4z"/>
	<path class="fillOne" d="M256.8,259.5c-2.1-1.7-19.9-15.9-20.3-16l-0.3,0.3c0.5,1.4,13.4,27,14.5,29.3c1.3,2.9,11.8,23.8,12.2,24.7
		c0.3,0.8,0.8,2.1,0.2,2.9c-0.4,0.4-1.2,0.5-2.3,0.1c-0.7-0.1-31.5-8.9-33-9.4c-4.5-1.4-26.4-7.8-28.1-7.6
		c0.8,1.1,18.8,15.8,19.6,16.5c0.9,0.7,13,10.6,18.1,14c3.6,2.4,7.1,3.7,9.2,1.4l2.8-3.2c0.4-0.4,0.8-0.3,1-0.2l1.8,1.5
		c0.3,0.2,0.4,0.6-0.1,1.2c-0.7,0.7-2.7,2.6-7.5,8c-5.5,6.2-7.5,8.8-8.1,9.5c-0.5,0.6-0.7,0.5-1.2,0l-1.8-1.5
		c-0.1-0.1-0.4-0.4,0-0.8l3-3.3c2.2-2.5,0.3-5.3-1.9-7.7c-4.5-4.7-21.8-19.5-23.1-20.5l-12.3-9.9c-2.6-2.1-4.5-3-7.3,0.1l-2.8,3.1
		c-0.4,0.4-0.8,0.3-1,0.2l-1.9-1.6c-0.1-0.1-0.3-0.5,0.1-0.9c0.7-0.7,2.5-2.4,9.4-9.9c3.1-3.4,4.7-5.6,5.4-6.4
		c0.8-0.8,1.5-1.1,2.7-0.7c9,2.9,41.8,12.1,49.6,14.7c-0.7-1.7-8-16.2-10.6-21.5c-1.9-3.7-10.9-21.8-12-23.3
		c-0.5-0.8,0.1-1.7,1.6-3.4c9.4-10.2,11.2-12.8,12-13.6c0.3-0.3,0.7-0.2,1,0.1l1.5,1.2c0.4,0.3,0.6,0.7,0.2,1.1l-2.8,3.1
		c-1.6,1.8-0.5,3,0.9,4.3c1.5,1.3,15.8,12.7,17.7,14.2l5,4c4.3,3.4,14.9,11.7,16.2,12.7c2.8,2.1,4.5,2.4,5.7,1.1l3.4-3.8
		c0.4-0.4,0.7-0.2,0.9,0l1.6,1.3c0.4,0.3,0.7,0.6,0.2,1.1c-0.8,0.8-4,4.1-9.6,10.3c-6.2,7-8.4,9.8-9.3,10.9
		c-0.4,0.4-0.8,0.3-1.1,0.1l-1.7-1.3c-0.4-0.4-0.5-0.6-0.1-1l3.9-4.4c1.1-1.3,1.2-2.2-0.7-4.1c-0.7-0.6-10.9-9.1-16.6-13.7
		L256.8,259.5z"/>
	<path class="fillOne" d="M320.1,213c-2.4-1.5-20.3-13.9-21.9-15c-1-0.6-1.5-0.9-1.8-0.7c-0.5,0.3-0.5,0.8-0.3,1.6
		c0.4,1.1,7.1,23.5,7.8,25.6L320.1,213z M305.2,228.1c0.7,2.1,4.8,15,6,17.2c0.3,0.7,0.7,1.3,1,1.6c0.7,0.9,2.6,0.8,4.1-0.3l3.3-2.3
		c0.6-0.4,0.9-0.4,1.1-0.2l1.4,1.8c0.3,0.4,0.4,0.8-0.1,1.2c-1.1,0.8-4.5,2.9-9.9,6.8c-5.8,4.1-7.3,5.6-8.4,6.3
		c-0.5,0.3-0.8-0.1-1.2-0.6l-1.1-1.4c-0.3-0.4-0.3-0.7,0-0.9l2.3-1.7c2.2-1.6,2.8-3.6,2.5-6.8c-0.2-1.9-4.7-18.7-7-26.3
		c-0.6-1.8-6.3-21.6-6.9-24c-0.4-0.8-0.9-2.4-1.7-2.5c-0.4,0-1-0.3-1.1-0.5c-0.2-0.3-0.3-0.7,0.2-1.3c2-2.3,4.6-7.4,4.9-8.9
		c0.1-0.8,0.2-1.2,0.6-1.5c0.5-0.3,1.4,0.3,1.9,0.6c4.8,3.4,23.2,14.9,28.2,18.5c6.2,4.2,21.5,13.9,24.1,15.1c3.3,1.4,6,0.8,7.5-0.3
		l2.5-1.8c0.4-0.3,0.7-0.3,1,0.1l1.2,1.5c0.3,0.4,0.5,1-0.1,1.4c-1.4,1-3.1,1.9-11.6,7.9c-6.5,4.6-8.9,6.7-10.6,7.9
		c-0.6,0.4-1.1,0.1-1.5-0.3l-1.1-1.4c-0.3-0.4-0.3-0.7,0.2-1l2-1.4c2.2-1.6,2.2-2.7,0.2-4.3c-2.6-2.1-12.9-9-15.9-11L305.2,228.1z"
		/>
	<path class="fillOne" d="M357.9,154.4l-2.4,1.1c-2.7,1.3-8.8,4.3-11.8,7.1c-2.1,2.4-2.7,9.2-2.9,12.6c0,0.5-0.1,1-0.6,1l-2,0.3
		c-0.4,0-0.6-0.2-0.7-0.6c-0.7-3.4-3.3-15.2-3.5-16.4c-0.4-1.2-0.1-1.7,0.3-1.9c0.5-0.2,1-0.1,1.8,0.1c2.5,0.8,4.4,0.3,6.8-0.7
		c4.7-2,8.4-3.5,16.7-7.5l4.6-2.2c9.3-4.5,12.7-6.5,16.5-8.5c1.6-0.9,4.2-3.5,5-5c0.4-0.8,0.6-1.3,1.1-1.5c0.5-0.2,0.8,0,1.5,0.8
		c0.9,1.3,7.8,10.2,10.4,13.6c0.3,0.4,0.3,0.7,0,0.9l-1.4,1.4c-0.3,0.2-0.6,0.1-1.1-0.3c-2.3-1.6-8.1-5.1-11.4-5.5
		c-3-0.1-10.7,3.4-13.8,4.9l-2.4,1.1L391,191c3.2,6,4.9,7.2,6.9,6.2l4.9-2.4c0.4-0.2,0.7,0.1,0.9,0.5l0.9,1.7
		c0.3,0.5,0.3,0.9-0.4,1.2c-0.9,0.4-3.7,1.5-12.9,6c-8.7,4.2-12.2,6.2-13.4,6.8c-0.5,0.2-0.8,0.2-1.1-0.4l-1-1.8
		c-0.3-0.5-0.1-0.8,0.3-0.9l4.9-2.4c1.7-0.8,2.2-2.3,1.7-3.5c-0.8-2.2-13.6-26.4-14.4-27.9L357.9,154.4z"/>
	<path class="fillOne" d="M444.3,152.7c0.3,0.8,7,20.1,7.3,21c0.9,2.7,2.5,2.6,4.6,1.9l3.8-1.2c0.4-0.1,0.8-0.1,0.9,0.4l0.7,2.1
		c0.2,0.5-0.1,0.8-0.7,1c-1.1,0.3-4.8,1.2-13.3,3.9c-9,2.8-12.9,4.3-13.8,4.6c-0.5,0.2-0.8,0.1-0.9-0.4l-0.8-2.3
		c-0.1-0.3,0-0.6,0.6-0.7l3.6-1.1c1.8-0.6,3.7-1.3,3.3-3.7c-0.2-1.2-6.2-19.5-7.7-24l-2-5.9c-0.7-2-5.9-17-6.4-18
		c-0.9-1.9-2.1-2.5-4.6-1.7l-4.7,1.4c-0.5,0.2-0.8,0.1-0.9-0.4l-0.7-2.2c-0.1-0.4,0-0.6,0.3-0.8c1.1-0.3,5.8-1.5,14.6-4.2
		c8.6-2.7,11.4-3.8,12.6-4.2c0.5-0.2,0.8,0.1,1,0.5l0.7,1.9c0.2,0.5-0.1,0.8-0.5,0.9l-3.4,1.1c-2,0.6-3.2,1.7-2.6,3.3
		c0.3,0.8,6.3,19.2,6.6,20.2L444.3,152.7z"/>
	<path class="fillOne" d="M537,148.9c0.3,0.2,0.5,0.5,0.3,0.8c-4.3,8.3-12.1,16.9-25.4,18.9c-11.9,1.8-19.2-0.5-25.8-4.5
		c-7.8-4.7-12.6-14.3-13.8-22c-1.4-8.5,0.3-17.1,5.8-24.6c4.2-5.8,11.5-11.1,22.6-12.8c8.5-1.3,15.8,0.1,19.4,1.3
		c1.4,0.5,1.8,0.4,1.9-0.3l0.4-2.3c0.1-0.5,0.3-0.6,1.4-0.7c1.1-0.2,1.3,0,1.5,1.2c0.3,1.5,4.4,15,5.3,17.6c0.2,0.5,0.1,0.8-0.2,0.9
		l-1.7,0.8c-0.4,0.3-0.8-0.1-1.2-0.7c-1.6-2.9-4.6-6.9-9.1-10.1c-4.7-3-9.9-5-17.2-3.9c-14.8,2.2-18.9,15.6-16.9,28
		c0.9,5.4,4.2,15.4,12.2,21.3c7.2,5.2,12.7,5,17.1,4.4c10.3-1.6,17.6-7.6,20.6-13.5c0.4-0.7,0.7-1,1-0.8L537,148.9z"/>
	<path class="fillOne" d="M651.3,138.4c0.4-2.6,3.4-24.1,3.3-24.5l-0.4,0c-0.9,1.1-16.3,24.9-17.7,27c-1.8,2.6-14.3,22-14.9,22.8
		c-0.5,0.6-1.4,1.8-2.3,1.7c-0.6-0.1-1.1-0.7-1.3-1.8c-0.3-0.6-8.5-29.4-8.8-30.9c-1.1-4.2-6.8-24.7-7.7-25.9
		c-0.5,1.2-3.9,23-4.1,24c-0.1,1-2.4,15.8-2.7,21.6c-0.2,4.1,0.4,7.5,3.4,8l4.1,0.5c0.6,0.1,0.7,0.4,0.7,0.7l-0.3,2.2
		c-0.1,0.4-0.3,0.7-1.1,0.6c-0.9-0.1-3.5-0.7-10.6-1.7c-8.1-1.1-11.3-1.2-12.2-1.4c-0.7-0.1-0.7-0.3-0.6-0.9l0.3-2.2
		c0-0.2,0.1-0.5,0.6-0.4l4.3,0.6c3.2,0.4,4.7-2.6,5.6-5.6c1.8-6,5.5-27.3,5.7-28.9l2.2-14.8c0.5-3.1,0.3-5.1-3.8-5.6l-4.1-0.5
		c-0.5-0.1-0.7-0.4-0.6-0.7l0.3-2.3c0-0.2,0.3-0.5,0.8-0.4c0.9,0.1,3.3,0.7,13.1,2c4.4,0.6,7.1,0.7,8.2,0.8c1.1,0.2,1.7,0.6,2,1.8
		c2.2,8.6,11,39.1,12.8,46.6c1.1-1.5,9.8-15,12.9-19.8c2.2-3.4,13.1-20.1,13.8-21.8c0.4-0.8,1.5-0.8,3.8-0.6
		c13.6,1.9,16.8,2,17.9,2.1c0.4,0,0.5,0.4,0.5,0.8l-0.2,1.8c-0.1,0.5-0.3,0.8-0.9,0.8l-4.1-0.5c-2.4-0.3-2.8,1.2-3.2,3
		c-0.4,1.9-2.8,19.2-3.1,21.5l-0.8,6.1c-0.7,5.2-2.3,18-2.5,19.5c-0.4,3.4,0.3,4.9,2,5.1l5.1,0.7c0.6,0.1,0.5,0.4,0.5,0.7l-0.3,2
		c-0.1,0.5-0.1,0.9-0.9,0.8c-1.1-0.2-5.6-1-13.8-2.1c-9.2-1.2-12.8-1.4-14.1-1.6c-0.6-0.1-0.7-0.4-0.6-0.9l0.3-2
		c0.1-0.5,0.3-0.7,0.9-0.6l5.8,0.8c1.7,0.2,2.5-0.2,3.2-2.7c0.2-0.9,2.2-13.4,3.2-20.4L651.3,138.4z"/>
	<path class="fillOne" d="M724.4,163.8c0.1-2.7,1.5-23.6,1.6-25.4c0-1.1,0-1.7-0.3-1.8c-0.5-0.2-1,0-1.6,0.6
		c-0.8,0.9-16.8,18.2-18.1,19.9L724.4,163.8z M703.5,160c-1.5,1.6-10.5,11.8-11.9,13.9c-0.4,0.6-0.7,1.3-0.9,1.7
		c-0.4,1.1,0.6,2.5,2.4,3.2l3.7,1.4c0.7,0.3,0.8,0.5,0.7,0.7l-0.8,2.1c-0.2,0.5-0.5,0.8-1,0.6c-1.2-0.5-4.9-2.1-11.1-4.3
		c-6.6-2.4-8.6-2.9-9.9-3.3c-0.5-0.2-0.3-0.7-0.1-1.3l0.6-1.6c0.2-0.5,0.4-0.6,0.8-0.5l2.7,1c2.5,0.9,4.5,0.3,7.2-1.6
		c1.5-1.2,13.8-13.7,19.2-19.6c1.3-1.4,15.5-16.5,17.2-18.3c0.5-0.7,1.6-2,1.3-2.7c-0.2-0.3-0.2-0.9-0.2-1.2
		c0.2-0.3,0.5-0.6,1.2-0.5c3.1,0.4,8.9-0.3,10.3-0.9c0.7-0.3,1.2-0.5,1.6-0.3c0.5,0.2,0.5,1.3,0.5,1.9c-0.4,5.6-0.8,26.5-1.2,32.4
		c-0.4,7.2-0.8,24.7-0.4,27.4c0.5,3.4,2.4,5.3,4.2,5.9l2.9,1c0.5,0.2,0.7,0.4,0.5,0.8l-0.7,1.8c-0.2,0.5-0.6,0.9-1.3,0.7
		c-1.6-0.6-3.3-1.5-13.1-5.1c-7.5-2.7-10.6-3.6-12.6-4.3c-0.7-0.3-0.7-0.8-0.5-1.3l0.7-1.7c0.2-0.5,0.4-0.6,1-0.4l2.3,0.8
		c2.5,0.9,3.5,0.3,3.9-2.1c0.5-3.3,1.1-15.1,1.2-18.6L703.5,160z"/>
	<path class="fillOne" d="M785.5,188.7c1,0.8,1.9,1.6,2.9,2.1c12.7,7.5,21.5-0.4,23.7-3.8s2.8-7.6,1.8-10.5
		c-1.4-4.1-4.6-7.1-8.6-9.5c-1.3-0.8-2.3-1.3-3.2-1.3c-0.9,0-1.8,0.7-2.4,1.6L785.5,188.7z M781,195.3c-2.9,4.5-8.3,13-8.9,14.3
		c-0.7,1.7-1.1,3.4,0.2,4.1l4.1,2.4c0.5,0.3,0.5,0.6,0.3,0.9l-1.2,1.8c-0.3,0.5-0.7,0.5-1.4,0.2c-1-0.6-2.5-1.8-11-6.9
		c-8-4.7-10.1-5.7-10.9-6.2c-0.5-0.3-0.5-0.6-0.2-1.1l1.1-1.7c0.2-0.4,0.6-0.5,0.9-0.3l2.8,1.6c1.8,1.1,3.4,1.4,4.7-0.6
		c5.1-7.4,9.7-14.5,14.3-21.5l12.8-19.6c1.7-2.5,1.3-4.4-0.2-5.2l-3.2-1.9c-0.4-0.2-0.5-0.5-0.3-0.8l1.3-2c0.2-0.4,0.5-0.4,0.9-0.2
		c0.6,0.3,3,2.1,10.9,6.8c4.5,2.7,12.2,6.9,14.6,8.3c6.5,3.8,10.2,8.8,11.7,13.5c1.4,4.1,0.8,8.1-1,11c-6.1,9.5-14.9,9.7-24.7,5.8
		l-0.2,0.3c1.8,2.1,2.4,4.3,2.7,6.4c0.2,1.8,0.7,11.9,0.7,13.2c0,1.1,0.8,11,1.4,12.8c0.7,2.2,2.9,3.7,4.9,4.9
		c0.5,0.3,0.5,0.6,0.3,0.9l-1,1.6c-0.3,0.5-0.7,0.7-1.2,0.4c-0.7-0.4-2.6-1.9-7.9-5c-2.3-1.4-5.5-3.1-7.4-4.1
		c-0.5-1.3-0.8-4.2-0.8-6.5c-0.1-3,0.3-10.3,0.3-12c0.1-1.8,0-6.7-0.2-9.1c-0.3-3.8-0.9-7-4.3-9c-0.3-0.2-1.8-0.9-2.7-1.4L781,195.3
		z"/>
	<path class="fillOne" d="M845.8,239.1c-3.2,3.3-12.3,13-13.2,14c-0.8,1-0.6,2.1,0.2,2.9l2.7,2.4c0.3,0.3,0.5,0.6,0.3,0.8l-1.7,1.8
		c-0.3,0.3-0.7,0.4-0.9,0.2c-0.9-0.8-2.8-2.8-9-8.2c-6.1-5.4-8.6-7.2-9.3-7.8c-0.3-0.2-0.3-0.5,0-0.8l1.7-1.8c0.3-0.3,0.5-0.3,0.8,0
		l2.6,2.3c1.3,1.1,2.4,1.1,3.1,0.4c0.6-0.5,12.3-12.2,20.1-20.3l3.7-3.8c1.1-1.2,13.1-13.8,13.7-14.4c0.8-0.8,1.1-1.9-0.6-3.4
		l-2.1-1.9c-0.4-0.4-0.4-0.6-0.1-1l1.7-1.7c0.3-0.3,0.5-0.3,1,0.1c0.9,0.7,2.8,2.8,8.9,8.1c5.6,4.8,8.1,6.6,9.1,7.5
		c0.4,0.4,0.5,0.6,0.1,1l-1.6,1.6c-0.4,0.4-0.7,0.4-1.1,0l-2.3-2c-1.4-1.2-2.5-1.5-4,0c-1,1-11.1,11-14.2,14.1l-2.8,2.9l1.3,1.1
		c0.9,0.7,1.8,1.1,3.3,1.2c2.4,0.1,28.5-3.2,30.3-3.5c2.3-0.4,2.1-2,0.9-3.1l-1.1-0.9c-0.3-0.2-0.2-0.4,0.1-0.8l1.5-1.6
		c0.4-0.4,0.6-0.4,0.9-0.2c0.9,0.7,3.5,3.4,8.3,7.5c2.9,2.5,5.5,4.4,6.4,5.2c0.4,0.4,0.4,0.6,0.1,1l-1.6,1.6c-0.4,0.4-0.8,0.3-1.1,0
		l-1.4-1.2c-1-0.9-2.8-2-5.1-2.4c-5.3-0.9-25.7,1-31.6,1.9c-0.3,5.8-2.3,36-2.4,40.2c-0.1,2.6,1.6,4.4,2.8,5.4l1.6,1.4
		c0.4,0.4,0.3,0.8,0.1,1l-1.6,1.7c-0.4,0.4-0.7,0.4-1.1,0c-0.7-0.6-3.1-3.1-9.8-8.9c-6-5.3-9-7.5-10-8.4c-0.3-0.3-0.3-0.5,0.1-0.9
		l1.6-1.7c0.3-0.3,0.5-0.3,0.8,0l1,0.9c1.3,1.1,2.6,0.1,2.8-0.7c0.5-2,3.6-27.3,3.5-29.4c-0.1-1.3-0.7-2.3-1.6-3l-1.3-1.1
		L845.8,239.1z"/>
	<path class="fillOne" d="M904.4,295.4c-4,2.9-11.4,8.3-12.7,9.3c-4,2.8-4.4,5.2-3.6,7.2c0.6,1.4,1.8,3.4,4,6.3
		c1.1,1.4,4,4.7,5.3,6.1c1.2,1.2,4.3,3.6,7.5,4.4c2.3,0.5,10.7,1.2,13.6,1.3c0.6,0,0.9,0.2,1,0.6l0.2,1.8c0,0.3-0.2,0.6-0.6,0.7
		l-14.3,4.4c-0.9,0.3-1.8,0.1-2.5-0.9c-0.3-0.4-1.6-2.1-5.2-6.8c-3.7-4.8-9.8-12.6-19.7-25.2c-2.2-2.8-3.9-4.7-5.1-6.3
		c-1.2-1.4-2.2-2.4-2.7-3.1c-0.4-0.4-0.3-0.7,0.1-1l1.8-1.3c0.5-0.3,0.7-0.3,1.2,0.3l2,2.5c2.7,3.5,3.4,3.4,6.2,1.5l18.1-12.7
		l7.4-5.2c6.2-4.3,15.5-11.1,16.4-11.9c1.8-1.7,1.8-2.9,0-5.1l-2.3-2.8c-0.2-0.3-0.2-0.6,0.2-0.8l2-1.4c0.4-0.3,0.6-0.3,0.9,0.1
		c1.3,1.6,3.1,4.5,8.1,10.6l1.7,2.1c2.6,3.3,16.5,20.3,19.1,23.6c1,1.2,2.2,2.6,2.5,2.9c0.3,0.4,0.3,0.6,0,0.9
		c-0.7,1-8.8,11.1-9.3,11.9c-0.4,0.5-0.6,0.6-1,0.4l-1.7-0.9c-0.3-0.2-0.4-0.5-0.2-0.9c0.2-0.6,2.3-11.7,1.9-14.2
		c-0.4-2.2-1-4.9-2.6-7.1l-8.7-11.6l-22,15.2c1.8,2.2,6.2,7.5,7.2,8.3c1.6,1.4,2.9,1.9,5.5,1.5c1.3-0.2,3.8-0.8,5.2-1.8
		c0.4-0.3,0.8-0.1,1.1,0.2l1.4,2.1c0.2,0.3,0.3,0.6-0.2,0.9c-1.3,0.7-6.3,4.2-8.3,5.6c-3,2.1-6.4,5-8,6.3c-0.4,0.3-0.6,0.2-1-0.2
		l-1.6-1.5c-0.3-0.2-0.3-0.5,0.1-1c1-1.1,2.2-2.9,2.8-3.9c1-1.7,0.9-3.9-0.2-5.7c-1.8-2.9-4.5-6.6-6.4-9L904.4,295.4z"/>
	<path class="fillOne" d="M982.1,347.9l-1.3-2.4c-1.4-2.7-4.7-8.8-7.8-11.8c-2.6-2.2-10-2.9-13.8-3.2c-0.6-0.1-1.1-0.2-1.1-0.7
		l-0.3-2c0-0.4,0.2-0.6,0.7-0.7c3.7-0.6,16.6-2.8,18-3c1.3-0.4,1.9,0,2.1,0.3c0.3,0.5,0.1,1-0.2,1.7c-0.8,2.4-0.4,4.3,0.8,6.7
		c2.3,4.6,3.8,8.3,8.2,16.7l2.4,4.6c5,9.4,7.2,12.8,9.5,16.7c1,1.6,3.9,4.3,5.5,5.1c0.9,0.4,1.4,0.6,1.7,1.2c0.3,0.5,0,0.8-0.9,1.5
		c-1.4,0.9-11.3,7.4-15,10c-0.5,0.3-0.7,0.2-1,0l-1.5-1.4c-0.3-0.3-0.1-0.6,0.3-1.1c1.8-2.3,5.7-8,6.1-11.1c0.1-3-3.8-10.8-5.4-13.9
		l-1.3-2.4l-46,20.7c-6.6,3-7.9,4.6-6.8,6.6l2.6,5c0.2,0.3-0.1,0.7-0.5,0.9l-1.8,0.8c-0.5,0.2-1,0.2-1.3-0.5
		c-0.5-0.9-1.6-3.7-6.4-13c-4.5-8.7-6.7-12.2-7.3-13.4c-0.3-0.5-0.2-0.8,0.4-1l2-0.9c0.5-0.2,0.8,0,1,0.3l2.5,4.9
		c0.9,1.7,2.5,2.3,3.8,1.8c2.4-0.7,28.9-12.6,30.6-13.4L982.1,347.9z"/>
	<path class="fillOne" d="M984.1,434.3c-0.9,0.3-22.3,6.3-23.3,6.5c-3,0.8-2.9,2.4-2.1,4.6l1.3,3.9c0.1,0.4,0.1,0.8-0.4,0.9
		l-2.3,0.6c-0.6,0.1-0.9-0.2-1.1-0.7c-0.4-1.1-1.3-4.9-4.2-13.6c-3.1-9.2-4.7-13.2-5-14.1c-0.2-0.6,0-0.8,0.4-0.9l2.5-0.7
		c0.4-0.1,0.6,0,0.8,0.6l1.2,3.7c0.6,1.8,1.5,3.8,4.1,3.5c1.4-0.2,21.5-5.4,26.6-6.8l6.5-1.8c2.2-0.6,18.9-5.3,20.1-5.7
		c2.1-0.9,2.8-2,1.9-4.6l-1.6-4.8c-0.2-0.6-0.1-0.8,0.4-0.9l2.4-0.6c0.5-0.1,0.7,0,0.8,0.4c0.4,1.1,1.8,5.9,4.8,14.9
		c3,8.8,4.3,11.7,4.8,13c0.2,0.6-0.1,0.8-0.6,1l-2.1,0.6c-0.6,0.1-0.9-0.2-1-0.5l-1.2-3.5c-0.7-2-2-3.3-3.7-2.8
		c-0.9,0.3-21.5,5.6-22.6,5.9L984.1,434.3z"/>
	<path class="fillOne" d="M1008.1,473.7c-16.6,1.6-30.2,3.7-33.2,4.2c-4.9,0.7-7,2-6.5,5.5l0.4,2.5c0.1,0.8-0.3,0.8-0.7,0.9
		l-2.3,0.2c-0.6,0.1-0.8,0.1-0.9-0.7c-0.2-1-0.8-6.8-1.3-10.4c-0.4-2.5-1.7-9-1.8-9.9c-0.1-0.4,0.1-0.6,0.8-0.7l2.4-0.2
		c0.2,0,0.6,0.1,0.7,0.5l0.5,3.3c0.4,2.5,2.7,3.6,8.8,3.5c1.8-0.1,15.5-0.8,31.2-2.4l12.4-1.2c5.9-0.6,9.8-4.3,9.1-8.5l-0.5-3.1
		c0-0.4,0.2-0.6,0.6-0.6l2.6-0.3c0.4,0,0.6,0.1,0.7,0.5c0.1,0.5,0.1,1.2,0.3,3c0.2,1.7,0.6,4.3,1.3,8.5c0.3,1.6,0.6,3.1,0.9,4.2
		c0.2,1.3,0.5,2.1,0.5,2.7c0.2,1.2,0,1.8-0.5,2.4c-0.8,1.1-21.8,22.4-24.2,24.6c-1.4,1.5-18,18.5-19.7,20.3l0.1,0.4l10.2-1
		c8.7-0.9,13.6-1.3,18.4-2c3.7-0.6,13.3-1.9,14.9-2.6c2.2-0.9,3.3-3.2,2.9-5.5l-0.5-3.1c-0.1-0.6,0.3-0.6,0.8-0.7l2.3-0.2
		c0.6-0.1,0.8-0.1,0.9,0.7c0.2,1.2,0.4,4.3,1.5,10.9c1,5.8,1.6,8.2,1.8,9.3c0.1,0.8-0.2,1-0.5,1l-2.3,0.2c-0.6,0.1-1-0.1-1.1-0.5
		l-0.4-2.7c-0.3-2-2.1-2.8-5.8-2.7c-6.8,0.2-23.4,0.8-33.5,1.8l-26,2.6c-1.4,0.1-2.8,0.3-3-0.9c-0.2-1.4,0.4-2.6,1.1-3.5
		c0.9-0.9,6.1-6.7,12.5-13.5c7.4-7.6,15.4-16.1,16.7-17.4c1.2-1.5,18.2-18.8,19.4-20.1l-0.1-0.6L1008.1,473.7z"/>
	<path class="fillOne" d="M979.4,619.6c-1.4-0.2-2.5,0.1-3.2,0c-0.8-0.1-1.2-0.7-1.5-1.8c-3.7-8.7-5.6-17.1-4.8-29
		c0.6-9.7,4.8-21.3,13.4-27.1c7.2-5.3,15.9-7.2,27.7-5.9c9.2,1.1,18.5,6.1,24.5,14.1c6,7.8,8.9,17.3,8.3,29.2
		c-0.5,9.5-3.9,16.8-6.5,19.7c-1,1.1-0.7,1.7,0.1,2.4l1.5,1.4c0.7,0.6,1,0.9,0.9,1.5c-0.1,1-0.7,1.1-1.5,1l-20.2-1.4
		c-0.8-0.1-1.3-0.2-1.4-0.6l-0.3-2.4c-0.1-0.6,0.2-0.8,0.9-0.9c4.1-0.9,9.9-2.9,14.4-6.4c3.8-3,7.5-8.1,7.9-15.7
		c0.3-6.1-1-11.7-6.9-17.7c-5.2-5.4-13.4-9.7-22.2-10.7c-11.8-1.4-22.2,0.6-28.4,5.6c-4.9,4.2-7.4,8.7-7.8,15
		c-0.4,6.3,0.2,10.2,1.8,13.8c1.1,2.3,3.9,2.9,9.1,3.5l7.3,0.9c3.6,0.4,4.7-0.5,4.8-3l0.3-4.2c0-0.6,0.5-0.8,1-0.7l2.3,0.3
		c0.6,0.1,0.8,0.3,0.8,0.7c-0.1,1.2-0.7,5.9-1.1,14.1c-0.5,8.4-0.4,11.8-0.5,12.8c0,0.8-0.3,1-0.8,0.9l-2.5-0.3
		c-0.6-0.1-0.8-0.3-0.7-0.9l0.2-3.4c0.1-1.8-0.6-3.1-3.6-3.4L979.4,619.6z"/>
	<path class="fillOne" d="M192.8,830.8c-0.1,0.4-0.3,0.6-0.7,0.6c-9.9-1.1-21.2-5.5-28.2-17.7c-6.3-11-6.8-19-5.3-26.9
		c1.7-9.5,9.4-17.8,16.5-22c7.9-4.6,17.1-6.3,26.6-3.8c7.3,1.9,15.4,7.1,21.4,17.4c4.5,7.9,5.9,15.6,6.1,19.6c0.1,1.6,0.2,1.9,1,1.7
		l2.5-0.5c0.6-0.1,0.7,0.1,1.3,1.1c0.6,1,0.5,1.3-0.6,2c-1.5,0.8-13.4,10.1-15.6,11.8c-0.4,0.4-0.7,0.4-1,0.1l-1.4-1.4
		c-0.4-0.3-0.2-0.8,0.3-1.4c2.3-2.7,5.2-7.1,6.7-12.8c1.2-5.7,1.2-11.7-2.6-18.4c-7.9-13.7-22.7-12.6-34.4-5.9
		c-5,2.9-13.6,10-16.4,20.1c-2.4,9-0.2,14.3,2.2,18.4c5.4,9.4,14.1,14.3,21.1,15.1c0.8,0.1,1.3,0.3,1.2,0.7L192.8,830.8z"/>
	<path class="fillOne" d="M229.4,857c-3.7,3.5-10.4,9.7-11.6,10.8c-3.6,3.2-3.8,5.8-2.8,7.8c0.8,1.4,2.1,3.5,4.6,6.3
		c1.2,1.3,4.3,4.6,5.8,6c1.3,1.2,4.5,3.4,7.7,3.9c2.3,0.3,10.6,0.4,13.5,0.3c0.6,0,0.9,0.2,1,0.6l0.4,1.8c0,0.4-0.1,0.6-0.6,0.8
		l-13.6,5.8c-0.8,0.4-1.7,0.2-2.5-0.7c-0.3-0.4-1.7-2.1-5.7-6.7c-4.1-4.7-10.8-12.4-21.7-24.7c-2.4-2.7-4.3-4.7-5.6-6.2
		c-1.4-1.4-2.4-2.4-3-3.1c-0.4-0.4-0.4-0.7,0-1.1l1.7-1.5c0.4-0.4,0.7-0.4,1.2,0.2l2.2,2.5c3,3.4,3.7,3.3,6.3,1l16.5-14.8l6.8-6.1
		c5.7-5.1,14.2-13,15-14c1.6-2,1.5-3.2-0.4-5.5l-2.5-2.8c-0.3-0.3-0.2-0.6,0.1-0.9l1.8-1.6c0.3-0.3,0.5-0.4,0.9,0
		c1.4,1.6,3.5,4.5,9,10.6l1.8,2.1c2.9,3.3,18.1,20.2,21,23.4c1,1.2,2.4,2.5,2.7,2.9c0.3,0.4,0.3,0.6,0.1,1c-0.7,1.1-7.6,12.4-8,13.3
		c-0.3,0.5-0.6,0.6-1,0.5l-1.7-0.8c-0.3-0.2-0.4-0.4-0.3-1c0.2-0.7,1.2-12.5,0.6-15.1c-0.5-2.3-1.4-5.1-3.2-7.3l-9.7-11.5
		l-20.2,17.9c2,2.2,6.8,7.4,7.8,8.1c1.7,1.4,3.1,1.8,5.5,1.2c1.3-0.4,3.7-1.2,5-2.3c0.4-0.4,0.8-0.2,1.1,0.1l1.6,2.1
		c0.3,0.3,0.3,0.7-0.2,0.9c-1.2,0.9-5.8,5-7.6,6.6c-2.8,2.5-5.9,5.8-7.3,7.3c-0.4,0.3-0.6,0.2-1-0.2l-1.7-1.4c-0.3-0.2-0.3-0.5,0-1
		c0.9-1.3,1.9-3.2,2.4-4.3c0.8-1.9,0.5-4.2-0.8-5.9c-2.1-2.9-5.1-6.6-7.2-9L229.4,857z"/>
	<path class="fillOne" d="M288.3,906.7c1,1,1.8,1.9,2.7,2.6c12.2,9.4,21.8,2,24.5-1.4c2.6-3.4,3.6-7.8,2.9-11c-1-4.5-4-8.2-7.9-11.2
		c-1.2-1-2.2-1.6-3.1-1.7c-0.9-0.1-1.9,0.5-2.6,1.4L288.3,906.7z M283,913.2c-3.4,4.4-9.6,12.9-10.3,14.1c-0.9,1.7-1.4,3.4-0.1,4.4
		l3.9,3c0.5,0.4,0.4,0.7,0.2,1l-1.4,1.8c-0.4,0.5-0.7,0.5-1.4,0c-1-0.8-2.4-2.2-10.5-8.5c-7.7-5.9-9.7-7.2-10.5-7.8
		c-0.5-0.4-0.5-0.7-0.1-1.1l1.3-1.7c0.3-0.4,0.6-0.5,0.9-0.2l2.7,2c1.7,1.3,3.3,1.9,4.8-0.2c5.8-7.3,11.2-14.3,16.5-21.3l14.9-19.5
		c1.9-2.5,1.8-4.6,0.3-5.7l-3.1-2.4c-0.4-0.3-0.4-0.6-0.2-0.9l1.5-2c0.3-0.4,0.5-0.4,0.9-0.1c0.5,0.4,2.9,2.6,10.5,8.5
		c4.4,3.4,11.7,8.7,14.1,10.5c6.2,4.8,9.6,10.6,10.6,15.7c1,4.5,0,8.8-2.1,11.6c-7.2,9.4-16,8.6-25.7,3.3l-0.2,0.3
		c1.6,2.4,2,4.9,2.1,7.1c0,1.9-0.5,12.6-0.5,14c-0.1,1.1-0.2,11.7,0.2,13.6c0.5,2.4,2.6,4.3,4.5,5.7c0.5,0.4,0.5,0.7,0.2,1l-1.2,1.6
		c-0.4,0.5-0.7,0.6-1.2,0.3c-0.6-0.5-2.5-2.3-7.5-6.2c-2.2-1.7-5.3-3.8-7-5.1c-0.4-1.4-0.4-4.5-0.2-6.9c0.2-3.2,1.2-10.9,1.4-12.6
		c0.2-2,0.7-7.1,0.7-9.7c0-4.1-0.2-7.5-3.5-10c-0.3-0.2-1.7-1.2-2.6-1.8L283,913.2z"/>
	<path class="fillOne" d="M371.6,926.6l-2.5-1.2c-2.8-1.4-9.1-4.6-13.4-5.3c-3.4-0.3-9.5,3.6-12.6,5.5c-0.5,0.3-0.9,0.5-1.3,0.1
		l-1.5-1.5c-0.3-0.4-0.2-0.7,0.1-1c2.5-2.7,11-12.2,12-13.2c0.8-1.1,1.5-1.1,1.8-1c0.5,0.3,0.7,0.8,1,1.6c0.9,2.6,2.5,3.9,4.9,5.2
		c4.7,2.6,8.2,4.8,16.8,9.2l4.7,2.4c9.7,4.9,13.5,6.5,17.7,8.3c1.7,0.8,5.7,1.3,7.4,1.1c1-0.2,1.5-0.3,2,0c0.5,0.3,0.5,0.7,0.2,1.8
		c-0.6,1.6-4.1,12.8-5.4,17.2c-0.2,0.5-0.4,0.6-0.7,0.6l-2.1-0.3c-0.4-0.1-0.4-0.4-0.5-1.1c0-3-0.6-10-2.2-12.9
		c-1.8-2.6-9.6-6.8-12.8-8.4l-2.5-1.2l-22.5,44.5c-3.2,6.3-3.2,8.5-1.1,9.5l5.1,2.6c0.4,0.2,0.4,0.6,0.1,1l-0.9,1.8
		c-0.3,0.5-0.6,0.8-1.3,0.4c-0.9-0.5-3.6-2.1-13.1-7c-9-4.6-12.8-6.2-14-6.8c-0.5-0.3-0.6-0.5-0.3-1.1l1-1.9
		c0.3-0.5,0.6-0.5,0.9-0.4l5,2.5c1.8,0.9,3.3,0.4,4-0.8c1.4-2,14.3-27.6,15.1-29.3L371.6,926.6z"/>
	<path class="fillOne" d="M431.2,986.1c-0.3,0.9-6.8,21.4-7.1,22.4c-0.9,2.8,0.4,3.7,2.7,4.4l3.9,1.3c0.4,0.1,0.7,0.4,0.5,0.9
		l-0.7,2.2c-0.2,0.5-0.6,0.6-1.2,0.4c-1.1-0.4-4.8-1.9-13.6-4.8c-9.4-3.1-13.6-4.2-14.5-4.5c-0.6-0.2-0.7-0.4-0.5-0.9l0.8-2.4
		c0.1-0.4,0.4-0.5,0.9-0.3l3.7,1.2c1.9,0.6,4,1.1,5.2-1.2c0.6-1.2,7.1-20.3,8.7-25.2l2-6.2c0.7-2.1,5.8-18.2,6.1-19.4
		c0.4-2.2-0.2-3.4-2.8-4.3l-4.9-1.6c-0.6-0.2-0.7-0.4-0.5-0.9l0.8-2.3c0.1-0.4,0.4-0.5,0.8-0.4c1.1,0.4,5.9,2.3,15.1,5.3
		c9,3,12.1,3.7,13.4,4.1c0.6,0.2,0.6,0.6,0.5,1.1l-0.7,2c-0.2,0.5-0.6,0.6-1,0.5l-3.6-1.2c-2.1-0.7-3.8-0.5-4.3,1.2
		c-0.3,0.9-6.9,20.4-7.3,21.5L431.2,986.1z"/>
	<path class="fillOne" d="M479.9,995.7c2.7,0.5,8.8,1.5,10.5,1.4c2,0.2,3.7-0.7,5.8-2.7c1-1.1,1.9-2.8,2.6-4.4
		c0.2-0.4,0.5-0.7,0.9-0.6l1.9,0.5c0.4,0.1,0.5,0.3,0.5,0.7c-0.5,1.6-1.9,9.2-2.1,10.5c-0.6,3.3-1,7.8-1.2,9.7
		c0,0.7-0.4,0.8-0.7,0.8l-2.2,0c-0.4-0.1-0.6-0.3-0.6-0.9c0-0.7-0.3-3.7-0.7-4.6c-0.8-2.2-2.3-3.9-4.2-4.7
		c-3.6-1.2-8.2-2.1-11.1-2.6l-4.2,22.9c-0.5,2.6,0.2,3.1,2.6,3.5l5.2,1c0.6,0.1,0.7,0.3,0.7,0.8l-0.4,2.3c-0.1,0.5-0.3,0.7-0.9,0.6
		c-1-0.2-4.8-1.2-14.3-2.9c-8.7-1.6-12.4-2-13.8-2.2c-0.4-0.1-0.5-0.3-0.5-0.8l0.5-2.5c0.1-0.4,0.3-0.5,0.7-0.4l3.9,0.7
		c2.3,0.4,3.2,0.2,3.6-1.4c0.4-1.8,2.8-13.4,5.7-29.2l1.2-6.4c0.8-4.1,2.9-17.2,3.1-18.2c0.3-1.7-0.9-2.8-3.4-3.3l-4.8-0.9
		c-0.4-0.1-0.7-0.3-0.7-0.6l0.5-2.7c0.1-0.4,0.5-0.5,0.9-0.4c1,0.2,4.6,1.1,15.7,3.2c1.4,0.2,27,4.7,33.2,5.9
		c1.7,0.3,3.4,0.2,3.8,0.3c0.4,0.2,0.5,0.7,0.3,1.4c0.1,1.6,0.9,14.8,1.1,16c0,0.4-0.1,0.6-0.4,0.7l-2,0.4c-0.4,0.1-0.6-0.1-1-0.9
		c-0.7-1.8-2.6-5.4-5.4-9.7c-1.2-2.3-3.4-4.4-5.8-5.4c-2.4-0.9-15-3.6-18.7-4.3L479.9,995.7z"/>
	<path class="fillOne" d="M551.9,1006.6c0,0.9-0.9,22.4-0.9,23.5c-0.2,3,1.4,3.4,3.8,3.6l4.1,0.2c0.4,0,0.8,0.2,0.8,0.7l-0.1,2.3
		c0,0.6-0.4,0.7-1,0.7c-1.2,0-5.1-0.5-14.4-0.9c-9.8-0.5-14.2-0.4-15.2-0.4c-0.6,0-0.8-0.2-0.8-0.7l0.1-2.5c0-0.4,0.2-0.5,0.8-0.5
		l3.9,0.2c2,0.1,4.2,0,4.7-2.5c0.3-1.3,1.4-21.5,1.7-26.5l0.3-6.5c0.1-2.3,0.7-19.1,0.7-20.3c-0.2-2.3-1.1-3.2-3.9-3.4l-5.1-0.2
		c-0.6,0-0.8-0.2-0.8-0.7l0.1-2.4c0-0.5,0.2-0.7,0.6-0.6c1.2,0.1,6.3,0.6,16,1c9.4,0.4,12.6,0.3,14,0.4c0.6,0,0.8,0.4,0.7,0.9
		l-0.1,2.1c0,0.6-0.4,0.7-0.8,0.7l-3.7-0.2c-2.2-0.1-3.8,0.6-3.9,2.3c0,0.9-1.2,21.5-1.3,22.6L551.9,1006.6z"/>
	<path class="fillOne" d="M648.5,1016c0.3,0.3,0.4,0.5,0.3,0.9c-5.1,8.6-13.8,17.2-27.8,18.6c-12.6,1.3-20-1.5-26.6-6.2
		c-7.9-5.4-12.2-15.9-13-24.1c-0.9-9.1,1.4-18.2,7.6-26c4.8-5.9,12.8-11.3,24.6-12.5c9-0.9,16.5,1,20.3,2.5c1.4,0.6,1.8,0.6,2-0.2
		l0.5-2.5c0.1-0.6,0.3-0.6,1.5-0.7c1.2-0.1,1.4,0.1,1.5,1.4c0.2,1.7,3.6,16.4,4.2,19.1c0.1,0.6,0.1,0.8-0.3,1l-1.8,0.7
		c-0.5,0.2-0.8-0.1-1.2-0.8c-1.5-3.2-4.3-7.6-8.8-11.3c-4.7-3.5-10.1-5.9-17.8-5.2c-15.7,1.6-20.9,15.7-19.6,29.1
		c0.5,5.8,3.4,16.6,11.4,23.3c7.1,5.9,12.9,6,17.6,5.6c10.8-1.1,18.8-7.1,22.4-13.2c0.4-0.7,0.8-1,1.1-0.8L648.5,1016z"/>
	<path class="fillOne" d="M702,987.3c-1.7-2.3-14-20.9-15.1-22.5c-0.7-1-1-1.4-1.4-1.3c-0.6,0.2-0.8,0.6-0.9,1.5
		c0,1.3-2.2,25.9-2.3,28.1L702,987.3z M681.9,997.1c-0.2,2.3-1.1,16.5-0.9,19.1c0,0.8,0.2,1.5,0.4,2c0.3,1.2,2.1,1.7,4,1.1l4-1.2
		c0.8-0.2,1-0.1,1.1,0.2l0.6,2.2c0.2,0.5,0.1,1-0.5,1.1c-1.3,0.4-5.4,1.3-12,3.3c-7,2.1-9,3-10.3,3.4c-0.6,0.2-0.7-0.4-0.9-1
		l-0.5-1.7c-0.2-0.5,0-0.8,0.4-0.9l2.8-0.8c2.7-0.8,4-2.5,4.9-5.8c0.5-1.9,2.6-20.1,3.3-28.5c0.2-2,2.2-23.6,2.5-26.3
		c-0.1-0.9,0-2.7-0.7-3.1c-0.4-0.2-0.8-0.6-0.9-0.9c-0.1-0.4,0-0.8,0.7-1.2c2.8-1.6,7.3-5.9,8.1-7.3c0.4-0.7,0.7-1.2,1.2-1.3
		c0.6-0.2,1.3,0.8,1.6,1.3c3.3,5.1,16.5,23,19.9,28.2c4.3,6.3,15.2,21.2,17.2,23.3c2.6,2.5,5.4,2.9,7.3,2.3l3-0.9
		c0.6-0.2,0.8,0,0.9,0.4l0.5,1.9c0.2,0.5,0.1,1.1-0.6,1.4c-1.7,0.5-3.7,0.8-14.1,3.9c-8,2.4-11.1,3.6-13.2,4.2
		c-0.8,0.2-1.1-0.3-1.3-0.8l-0.5-1.8c-0.2-0.5,0-0.8,0.5-0.9l2.5-0.7c2.7-0.8,3.2-1.9,1.9-4.2c-1.7-3-8.8-13.4-10.9-16.4
		L681.9,997.1z"/>
	<path class="fillOne" d="M746,935.2l-2.5,1.2c-2.8,1.4-9.2,4.5-12.4,7.6c-2.3,2.6-3,9.8-3.3,13.5c-0.1,0.5-0.2,1-0.7,1.1l-2.1,0.3
		c-0.4,0-0.6-0.2-0.7-0.7c-0.7-3.6-3-16.2-3.2-17.6c-0.4-1.3,0-1.9,0.3-2c0.5-0.3,1.1-0.1,1.8,0.2c2.6,0.8,4.6,0.4,7.1-0.8
		c4.9-2.2,8.7-3.7,17.4-8l4.8-2.3c9.8-4.8,13.3-7,17.3-9.2c1.6-0.9,4.4-3.7,5.3-5.3c0.5-0.9,0.7-1.4,1.2-1.6c0.5-0.3,0.9,0,1.5,0.9
		c0.9,1.4,7.7,11,10.4,14.7c0.3,0.5,0.2,0.7,0,0.9l-1.5,1.5c-0.3,0.3-0.6,0.1-1.1-0.3c-2.4-1.8-8.3-5.5-11.6-6
		c-3.1-0.1-11.2,3.6-14.4,5.2l-2.5,1.2l21.7,44.8c3.1,6.4,4.8,7.6,6.9,6.6l5.1-2.5c0.4-0.2,0.7,0.1,0.9,0.5l0.9,1.8
		c0.2,0.5,0.2,0.9-0.5,1.3c-0.9,0.4-3.8,1.6-13.4,6.3c-9.1,4.4-12.6,6.5-13.9,7.1c-0.5,0.3-0.8,0.2-1.1-0.4l-0.9-1.9
		c-0.2-0.5,0-0.8,0.3-1l5.1-2.5c1.8-0.9,2.3-2.4,1.8-3.7c-0.8-2.3-13.2-28-14-29.7L746,935.2z"/>
	<path class="fillOne" d="M829.2,923c0.5,0.8,12.9,18.3,13.5,19.2c1.7,2.5,3.2,1.9,5.2,0.5l3.4-2.4c0.3-0.2,0.8-0.3,1,0.1l1.3,1.9
		c0.3,0.5,0.1,0.8-0.4,1.2c-1,0.7-4.4,2.7-12,8.1c-8.1,5.7-11.5,8.4-12.3,9c-0.5,0.3-0.8,0.3-1-0.1l-1.4-2.1
		c-0.2-0.3-0.2-0.6,0.3-0.9l3.2-2.3c1.6-1.1,3.3-2.5,2.2-4.8c-0.6-1.2-11.9-17.9-14.7-22.1l-3.7-5.4c-1.3-1.8-11-15.6-11.7-16.5
		c-1.5-1.7-2.9-1.9-5.1-0.3l-4.2,3c-0.5,0.3-0.7,0.3-1-0.1l-1.4-2c-0.3-0.4-0.2-0.7,0.1-0.9c1-0.7,5.4-3.4,13.3-9
		c7.8-5.4,10.2-7.5,11.4-8.3c0.5-0.3,0.9-0.1,1.1,0.2l1.2,1.8c0.3,0.5,0.1,0.8-0.2,1.1l-3.1,2.2c-1.8,1.2-2.7,2.8-1.6,4.2
		c0.5,0.8,12,17.8,12.7,18.7L829.2,923z"/>
	<path class="fillOne" d="M850.4,870c-0.5,8.2,4.2,17.1,9.4,22.4c16.9,17.3,34.2,12.2,40.1,6.4c14.2-14.1,1.9-31.2-3.6-36.9
		c-14.2-14.5-32.7-12.4-39.5-5.7C855.6,857.5,850.9,860.9,850.4,870 M876.1,841.9c9.2-1.2,20,1.1,28.9,10.2
		c4.8,4.9,8.5,11.5,9.1,19.8c0.7,9.8-1.3,19.9-11.9,30.4c-4.2,4.2-11.4,9-20.2,11.4c-7.8,2.1-20.2,0.1-29.6-9.5
		c-3.9-4-8.9-11.5-9.7-22.9c-0.8-13.3,5.5-22.2,11.5-28.2C859.5,847.9,866.1,843.2,876.1,841.9"/>
	<path class="fillOne" d="M916.8,819.6c13.3,8.5,24.8,14.8,27.3,16.2c4,2.3,6.6,2.5,8.5-0.5l1.4-2.2c0.4-0.7,0.7-0.5,1.1-0.2
		l1.8,1.1c0.5,0.3,0.6,0.4,0.2,1.1c-0.5,0.8-3.9,5.7-5.9,8.9c-1.4,2.2-4.7,8-5.3,8.9c-0.2,0.3-0.5,0.4-1,0.1l-2-1.2
		c-0.2-0.1-0.4-0.5-0.2-0.8l1.8-2.9c1.4-2.2,0.4-4.4-4.2-7.9c-1.4-1-12-8.5-24.6-16.4l-10-6.4c-4.7-3-10.1-2.4-12.4,1.3l-1.7,2.7
		c-0.3,0.3-0.5,0.4-0.9,0.2l-2.1-1.4c-0.3-0.2-0.4-0.5-0.2-0.8c0.3-0.4,0.8-1,1.8-2.5c1-1.4,2.5-3.7,4.8-7.4
		c0.9-1.4,1.6-2.7,2.2-3.8c0.7-1.1,1.1-1.9,1.4-2.4c0.6-1,1.2-1.4,2-1.6c1.3-0.3,31-4.5,34.2-4.8c2-0.4,25.5-3.8,27.9-4.2l0.2-0.3
		l-8.2-5.2c-6.9-4.4-10.8-6.9-14.9-9.2c-3.1-1.7-11-6.3-12.6-6.7c-2.3-0.6-4.5,0.5-5.8,2.5l-1.7,2.7c-0.3,0.5-0.6,0.3-1,0.1
		l-1.8-1.2c-0.5-0.3-0.6-0.4-0.2-1.1c0.6-1,2.6-3.6,6.2-9.3c3.2-5,4.2-7.2,4.8-8.2c0.4-0.7,0.8-0.7,1.1-0.5l1.8,1.2
		c0.5,0.3,0.7,0.7,0.5,1l-1.5,2.4c-1.1,1.7-0.3,3.3,2.4,5.4c5.1,3.8,17.7,13,25.8,18.1l20.7,13.2c1.1,0.7,2.2,1.4,1.6,2.4
		c-0.7,1.2-2,1.8-3.1,2.1c-1.2,0.2-8.9,1.6-18,3.1c-10.5,1.6-22,3.5-23.9,3.7c-1.8,0.5-26,3.9-27.7,4.2l-0.3,0.5L916.8,819.6z"/>
	<path class="fillOne" d="M129.7,700.9c0-10.1,8.1-18.2,18.2-18.2c10.1,0,18.2,8.2,18.2,18.2c0,10-8.1,18.2-18.2,18.2
		C137.8,719.1,129.7,710.9,129.7,700.9"/>
	<path class="fillOne" d="M972.1,700.9c0-10.1,8.2-18.2,18.2-18.2c10,0,18.2,8.2,18.2,18.2c0,10-8.2,18.2-18.2,18.2
		C980.3,719.1,972.1,710.9,972.1,700.9"/>
	<polygon class="fillOne" points="886.2,563.8 886.2,537.6 252.6,537.6 252.6,563.9 	"/>
	<rect x="252.6" y="582.7" class="fillOne" width="80.5" height="35.4"/>
	<rect x="344.8" y="582.7" class="fillOne" width="80.5" height="35.4"/>
	<rect x="437" y="582.7" class="fillOne" width="80.5" height="35.4"/>
	<rect x="529.2" y="582.7" class="fillOne" width="80.5" height="35.4"/>
	<rect x="621.4" y="582.7" class="fillOne" width="80.5" height="35.4"/>
	<rect x="713.5" y="582.7" class="fillOne" width="80.5" height="35.4"/>
	<rect x="805.7" y="582.7" class="fillOne" width="80.5" height="35.4"/>
	<rect x="252.6" y="632.4" class="fillOne" width="80.5" height="35.4"/>
	<rect x="529.2" y="632.4" class="fillOne" width="80.5" height="35.4"/>
	<rect x="621.4" y="632.4" class="fillOne" width="80.5" height="35.4"/>
	<rect x="713.5" y="632.4" class="fillOne" width="80.5" height="35.4"/>
	<rect x="805.7" y="632.4" class="fillOne" width="80.5" height="35.4"/>
	<rect x="529.2" y="682.1" class="fillOne" width="80.5" height="35.3"/>
	<rect x="621.4" y="682.1" class="fillOne" width="80.5" height="35.3"/>
	<rect x="713.5" y="682.1" class="fillOne" width="80.5" height="35.3"/>
	<rect x="805.7" y="682.1" class="fillOne" width="80.5" height="35.3"/>
	<rect x="621.4" y="731.8" class="fillOne" width="80.5" height="35.4"/>
	<rect x="713.5" y="731.8" class="fillOne" width="80.5" height="35.4"/>
	<rect x="805.7" y="731.8" class="fillOne" width="80.5" height="35.4"/>
	<rect x="436.7" y="334.3" class="fillOne" width="80.6" height="35.4"/>
	<rect x="529.1" y="334.3" class="fillOne" width="80.6" height="35.4"/>
	<rect x="621.4" y="334.3" class="fillOne" width="80.7" height="35.4"/>
	<rect x="252" y="383.9" class="fillOne" width="80.6" height="35.4"/>
	<rect x="344.3" y="383.9" class="fillOne" width="80.6" height="35.4"/>
	<rect x="436.7" y="383.9" class="fillOne" width="80.6" height="35.4"/>
	<rect x="529.1" y="383.9" class="fillOne" width="80.6" height="35.4"/>
	<rect x="621.4" y="383.9" class="fillOne" width="80.7" height="35.4"/>
	<rect x="252" y="433.6" class="fillOne" width="80.6" height="35.4"/>
	<rect x="344.3" y="433.6" class="fillOne" width="80.6" height="35.4"/>
	<rect x="436.7" y="433.6" class="fillOne" width="80.6" height="35.4"/>
	<rect x="529.1" y="433.6" class="fillOne" width="80.6" height="35.4"/>
	<rect x="621.4" y="433.6" class="fillOne" width="80.7" height="35.4"/>
	<rect x="252" y="483.3" class="fillOne" width="80.6" height="35.4"/>
	<rect x="344.3" y="483.3" class="fillOne" width="80.6" height="35.4"/>
	<rect x="436.7" y="483.3" class="fillOne" width="80.6" height="35.4"/>
	<rect x="529.1" y="483.3" class="fillOne" width="80.6" height="35.4"/>
	<rect x="621.4" y="483.3" class="fillOne" width="80.7" height="35.4"/>
	<path class="fillOne" d="M1003.3,230.9c-186.5-239.4-533-282.5-772.4-96c-239.4,186.5-282.5,533-96,772.5
		c186.5,239.4,533,282.5,772.5,96S1189.8,470.3,1003.3,230.9z M897.7,991c-232.6,181.2-569.4,139.3-750.6-93.3
		C-34,665.1,7.8,328.4,240.5,147.2C473.1-34,809.8,7.8,991,240.5C1172.2,473.1,1130.4,809.8,897.7,991z"/>
	<path class="fillOne" d="M133.2,605.9c0.5-1.9,0.4-4.7,0.2-7.3c-0.3-4.4-4.2-9-7.7-10.9c-3.1-1.6-7-1.4-10.6-1
		c-13.6,1.9-15.9,13.2-15.6,17.9c0.1,1.8,0.2,4.2,1.1,5.7L133.2,605.9z M122.1,620c-6.6,0.9-17.3,2.4-18.4,2.6
		c-1.7,0.4-2.1,1.6-2,3.8l0.4,5.2c0,0.4-0.2,0.6-0.7,0.7l-2.5,0.3c-0.6,0.1-0.8-0.1-0.9-0.5c-0.1-1.2,0-4.8-0.8-14.8
		c-0.1-1.8-0.9-7.5-1.1-10.9c-0.9-11.9-0.2-17.8,3.4-24c3-5,8.4-8.7,14.6-9.5c12.4-1.7,20.9,6.7,22.3,23.5c0.3,3.4,0.5,6.3,0.3,9
		l4.4-0.6c4.8-0.6,18.4-2.5,19.7-2.8c2.2-0.6,3.1-1.7,3-3.5l-0.5-5.5c-0.1-0.8,0.3-0.8,0.6-0.9l2.3-0.3c0.6-0.1,1-0.1,1.1,0.7
		c0.1,1.4,0.1,4.6,1,15.3c0.7,8.7,1.4,12.7,1.5,13.7c0.1,0.8-0.3,0.9-0.6,0.9l-2.5,0.3c-0.6,0.1-0.8,0.1-0.9-0.5l-0.3-3.2
		c-0.3-3.4-0.8-4.1-3.5-4.1c-1,0-16.7,2-28.3,3.6L122.1,620z"/>
	<path class="fillOne" d="M132,531c0.3-1.4,0.7-2.5,0.8-3.7c1.6-15.2-10.5-18.9-15.1-19.1c-4.5-0.2-9,1.5-11.5,3.8
		c-3.5,3.4-5.1,7.8-5.7,12.7c-0.2,1.6-0.2,2.7,0.2,3.6c0.4,0.8,1.5,1.2,2.8,1.3L132,531z M140.9,531.6c6,0.3,17.1,0.6,18.6,0.4
		c2-0.2,3.9-0.8,4-2.4l0.5-4.9c0.1-0.6,0.4-0.8,0.8-0.8l2.4,0.1c0.7,0,0.9,0.3,0.8,1.1c-0.1,1.3-0.6,3.2-1.6,13.4
		c-1,9.6-0.9,12-1,13c-0.1,0.6-0.4,0.8-1,0.7l-2.3-0.1c-0.5,0-0.8-0.2-0.7-0.6l0.3-3.4c0.2-2.2-0.2-3.8-2.9-3.9
		c-9.9-0.6-19.3-1-28.6-1.5l-26.1-1.1c-3.4-0.2-5.1,1.2-5.3,2.9l-0.4,3.8c0,0.5-0.3,0.7-0.7,0.7l-2.7-0.1c-0.5,0-0.7-0.2-0.6-0.7
		c0.1-0.7,0.7-3.8,1.8-13.4c0.6-5.5,1.3-14.5,1.6-17.5c0.9-7.8,4.2-13.7,8.2-17.5c3.5-3.4,7.9-4.9,11.6-4.8
		c12.4,0.5,16.8,8.2,17.4,19l0.4,0c1.3-2.7,3.2-4.4,5.2-5.6c1.7-1.1,11.6-6.7,12.9-7.5c1-0.5,10.6-6.4,12.1-7.8
		c1.9-1.8,2.3-4.5,2.6-6.8c0.1-0.6,0.4-0.8,0.8-0.7l2.1,0.1c0.7,0,1,0.2,0.9,0.9c-0.1,0.8-0.6,3.3-1.2,9.5c-0.3,2.7-0.4,6.4-0.5,8.5
		c-1,1.1-3.9,2.9-6.1,4c-2.9,1.6-10.5,5.1-12.1,5.9c-1.9,0.9-6.7,3.4-9.1,4.9c-3.7,2.3-6.6,4.4-7.1,8.5c0,0.4-0.1,2.1-0.1,3.1
		L140.9,531.6z"/>
	<path class="fillOne" d="M155.2,434c-3,0.3-26.4,1.4-28.5,1.5c-1.2,0.1-1.9,0.2-2,0.5c-0.2,0.6,0.1,1,0.8,1.5
		c1.1,0.7,21.7,14.6,23.6,15.8L155.2,434z M152.5,455.6c1.9,1.3,14,9.1,16.4,10.2c0.7,0.4,1.5,0.6,1.9,0.7c1.2,0.3,2.7-0.9,3.3-2.8
		l1.2-3.9c0.2-0.8,0.5-0.9,0.8-0.8l2.4,0.6c0.6,0.1,0.9,0.4,0.7,1c-0.4,1.3-1.9,5.2-3.9,11.7c-2.1,6.9-2.5,9.1-2.9,10.4
		c-0.2,0.6-0.7,0.4-1.4,0.3l-1.8-0.4c-0.6-0.1-0.7-0.4-0.6-0.7l0.9-2.8c0.8-2.6,0-4.6-2.4-7c-1.4-1.4-16.4-12.2-23.4-16.9
		c-1.7-1.1-19.7-13.6-21.8-15.1c-0.9-0.4-2.4-1.4-3.1-1c-0.4,0.2-1,0.4-1.3,0.3c-0.4-0.1-0.7-0.4-0.7-1.2c0.2-3.2-1-8.9-1.8-10.3
		c-0.4-0.7-0.6-1.2-0.5-1.6c0.2-0.6,1.4-0.7,2-0.7c6.3-0.3,29.6-2.4,36.1-2.6c8-0.5,27.3-2.2,30.2-2.8c3.7-0.9,5.5-3,6.1-4.9
		l0.9-2.9c0.2-0.6,0.4-0.7,0.9-0.6l2,0.5c0.6,0.1,1.1,0.4,0.8,1.2c-0.5,1.7-1.3,3.4-4.4,13.6c-2.4,7.8-3.1,11-3.7,13
		c-0.2,0.7-0.9,0.8-1.4,0.7l-1.9-0.5c-0.6-0.1-0.7-0.4-0.5-0.9l0.7-2.4c0.8-2.6,0.1-3.6-2.6-3.6c-3.6-0.1-16.8,0.7-20.6,1
		L152.5,455.6z"/>
	<path class="fillOne" d="M218.9,344.4c1.2,0.5,2.2,0.6,2.9,0.9c0.7,0.3,0.8,1,0.6,2c-0.1,8.6-1.8,16.5-7.3,26.7
		c-4.5,8.3-13,17.4-23.2,19.9c-8.7,2.6-17.5,1.6-27.7-3.1c-7.9-3.7-14.3-11-16.3-19.8c-2.1-8.7-0.8-17.8,4.8-27.9
		c4.4-8.1,10.5-13.3,14-15c1.3-0.7,1.3-1.3,0.9-2.1l-0.8-1.6c-0.4-0.7-0.5-1.1-0.2-1.6c0.5-0.8,1.1-0.8,1.7-0.5l17.5,7.1
		c0.7,0.3,1.1,0.5,1,0.9l-0.8,2.2c-0.2,0.5-0.5,0.6-1.1,0.5c-4.1-0.4-10-0.4-15.5,1.2c-4.6,1.4-10.1,4.8-13.6,11.2
		c-2.9,5.2-4,10.4-1.2,17.5c2.4,6.2,8,12.5,15.6,16c10.1,4.7,20.4,6.1,28,3.5c6.2-2.2,10.3-5.4,13.2-10.9c2.9-5.4,4-9,4-12.6
		c0-2.3-2.3-3.6-6.8-5.7l-6.2-2.9c-3.1-1.4-4.4-1-5.6,1.2l-1.9,3.6c-0.3,0.5-0.7,0.5-1.1,0.3l-2-0.9c-0.5-0.2-0.6-0.5-0.4-0.8
		c0.6-1,3-4.9,6.8-11.9c3.8-7.1,5.1-10,5.6-10.9c0.4-0.7,0.6-0.8,1.1-0.6l2.1,1c0.5,0.2,0.6,0.5,0.3,1l-1.6,2.9
		c-0.8,1.5-0.7,2.8,1.8,4L218.9,344.4z"/>
	<path class="fillOne" d="M256.8,259.5c-2.1-1.7-19.9-15.9-20.3-16l-0.3,0.3c0.5,1.4,13.4,27,14.5,29.3c1.3,2.9,11.8,23.8,12.2,24.7
		c0.3,0.8,0.8,2.1,0.2,2.9c-0.4,0.4-1.2,0.5-2.3,0.1c-0.7-0.1-31.5-8.9-33-9.4c-4.5-1.4-26.4-7.8-28.1-7.6
		c0.8,1.1,18.8,15.8,19.6,16.5c0.9,0.7,13,10.6,18.1,14c3.6,2.4,7.1,3.7,9.2,1.4l2.8-3.2c0.4-0.4,0.8-0.3,1-0.2l1.8,1.5
		c0.3,0.2,0.4,0.6-0.1,1.2c-0.7,0.7-2.7,2.6-7.5,8c-5.5,6.2-7.5,8.8-8.1,9.5c-0.5,0.6-0.7,0.5-1.2,0l-1.8-1.5
		c-0.1-0.1-0.4-0.4,0-0.8l3-3.3c2.2-2.5,0.3-5.3-1.9-7.7c-4.5-4.7-21.8-19.5-23.1-20.5l-12.3-9.9c-2.6-2.1-4.5-3-7.3,0.1l-2.8,3.1
		c-0.4,0.4-0.8,0.3-1,0.2l-1.9-1.6c-0.1-0.1-0.3-0.5,0.1-0.9c0.7-0.7,2.5-2.4,9.4-9.9c3.1-3.4,4.7-5.6,5.4-6.4
		c0.8-0.8,1.5-1.1,2.7-0.7c9,2.9,41.8,12.1,49.6,14.7c-0.7-1.7-8-16.2-10.6-21.5c-1.9-3.7-10.9-21.8-12-23.3
		c-0.5-0.8,0.1-1.7,1.6-3.4c9.4-10.2,11.2-12.8,12-13.6c0.3-0.3,0.7-0.2,1,0.1l1.5,1.2c0.4,0.3,0.6,0.7,0.2,1.1l-2.8,3.1
		c-1.6,1.8-0.5,3,0.9,4.3c1.5,1.3,15.8,12.7,17.7,14.2l5,4c4.3,3.4,14.9,11.7,16.2,12.7c2.8,2.1,4.5,2.4,5.7,1.1l3.4-3.8
		c0.4-0.4,0.7-0.2,0.9,0l1.6,1.3c0.4,0.3,0.7,0.6,0.2,1.1c-0.8,0.8-4,4.1-9.6,10.3c-6.2,7-8.4,9.8-9.3,10.9
		c-0.4,0.4-0.8,0.3-1.1,0.1l-1.7-1.3c-0.4-0.4-0.5-0.6-0.1-1l3.9-4.4c1.1-1.3,1.2-2.2-0.7-4.1c-0.7-0.6-10.9-9.1-16.6-13.7
		L256.8,259.5z"/>
	<path class="fillOne" d="M320.1,213c-2.4-1.5-20.3-13.9-21.9-15c-1-0.6-1.5-0.9-1.8-0.7c-0.5,0.3-0.5,0.8-0.3,1.6
		c0.4,1.1,7.1,23.5,7.8,25.6L320.1,213z M305.2,228.1c0.7,2.1,4.8,15,6,17.2c0.3,0.7,0.7,1.3,1,1.6c0.7,0.9,2.6,0.8,4.1-0.3l3.3-2.3
		c0.6-0.4,0.9-0.4,1.1-0.2l1.4,1.8c0.3,0.4,0.4,0.8-0.1,1.2c-1.1,0.8-4.5,2.9-9.9,6.8c-5.8,4.1-7.3,5.6-8.4,6.3
		c-0.5,0.3-0.8-0.1-1.2-0.6l-1.1-1.4c-0.3-0.4-0.3-0.7,0-0.9l2.3-1.7c2.2-1.6,2.8-3.6,2.5-6.8c-0.2-1.9-4.7-18.7-7-26.3
		c-0.6-1.8-6.3-21.6-6.9-24c-0.4-0.8-0.9-2.4-1.7-2.5c-0.4,0-1-0.3-1.1-0.5c-0.2-0.3-0.3-0.7,0.2-1.3c2-2.3,4.6-7.4,4.9-8.9
		c0.1-0.8,0.2-1.2,0.6-1.5c0.5-0.3,1.4,0.3,1.9,0.6c4.8,3.4,23.2,14.9,28.2,18.5c6.2,4.2,21.5,13.9,24.1,15.1c3.3,1.4,6,0.8,7.5-0.3
		l2.5-1.8c0.4-0.3,0.7-0.3,1,0.1l1.2,1.5c0.3,0.4,0.5,1-0.1,1.4c-1.4,1-3.1,1.9-11.6,7.9c-6.5,4.6-8.9,6.7-10.6,7.9
		c-0.6,0.4-1.1,0.1-1.5-0.3l-1.1-1.4c-0.3-0.4-0.3-0.7,0.2-1l2-1.4c2.2-1.6,2.2-2.7,0.2-4.3c-2.6-2.1-12.9-9-15.9-11L305.2,228.1z"
		/>
	<path class="fillOne" d="M357.9,154.4l-2.4,1.1c-2.7,1.3-8.8,4.3-11.8,7.1c-2.1,2.4-2.7,9.2-2.9,12.6c0,0.5-0.1,1-0.6,1l-2,0.3
		c-0.4,0-0.6-0.2-0.7-0.6c-0.7-3.4-3.3-15.2-3.5-16.4c-0.4-1.2-0.1-1.7,0.3-1.9c0.5-0.2,1-0.1,1.8,0.1c2.5,0.8,4.4,0.3,6.8-0.7
		c4.7-2,8.4-3.5,16.7-7.5l4.6-2.2c9.3-4.5,12.7-6.5,16.5-8.5c1.6-0.9,4.2-3.5,5-5c0.4-0.8,0.6-1.3,1.1-1.5c0.5-0.2,0.8,0,1.5,0.8
		c0.9,1.3,7.8,10.2,10.4,13.6c0.3,0.4,0.3,0.7,0,0.9l-1.4,1.4c-0.3,0.2-0.6,0.1-1.1-0.3c-2.3-1.6-8.1-5.1-11.4-5.5
		c-3-0.1-10.7,3.4-13.8,4.9l-2.4,1.1L391,191c3.2,6,4.9,7.2,6.9,6.2l4.9-2.4c0.4-0.2,0.7,0.1,0.9,0.5l0.9,1.7
		c0.3,0.5,0.3,0.9-0.4,1.2c-0.9,0.4-3.7,1.5-12.9,6c-8.7,4.2-12.2,6.2-13.4,6.8c-0.5,0.2-0.8,0.2-1.1-0.4l-1-1.8
		c-0.3-0.5-0.1-0.8,0.3-0.9l4.9-2.4c1.7-0.8,2.2-2.3,1.7-3.5c-0.8-2.2-13.6-26.4-14.4-27.9L357.9,154.4z"/>
	<path class="fillOne" d="M444.3,152.7c0.3,0.8,7,20.1,7.3,21c0.9,2.7,2.5,2.6,4.6,1.9l3.8-1.2c0.4-0.1,0.8-0.1,0.9,0.4l0.7,2.1
		c0.2,0.5-0.1,0.8-0.7,1c-1.1,0.3-4.8,1.2-13.3,3.9c-9,2.8-12.9,4.3-13.8,4.6c-0.5,0.2-0.8,0.1-0.9-0.4l-0.8-2.3
		c-0.1-0.3,0-0.6,0.6-0.7l3.6-1.1c1.8-0.6,3.7-1.3,3.3-3.7c-0.2-1.2-6.2-19.5-7.7-24l-2-5.9c-0.7-2-5.9-17-6.4-18
		c-0.9-1.9-2.1-2.5-4.6-1.7l-4.7,1.4c-0.5,0.2-0.8,0.1-0.9-0.4l-0.7-2.2c-0.1-0.4,0-0.6,0.3-0.8c1.1-0.3,5.8-1.5,14.6-4.2
		c8.6-2.7,11.4-3.8,12.6-4.2c0.5-0.2,0.8,0.1,1,0.5l0.7,1.9c0.2,0.5-0.1,0.8-0.5,0.9l-3.4,1.1c-2,0.6-3.2,1.7-2.6,3.3
		c0.3,0.8,6.3,19.2,6.6,20.2L444.3,152.7z"/>
	<path class="fillOne" d="M537,148.9c0.3,0.2,0.5,0.5,0.3,0.8c-4.3,8.3-12.1,16.9-25.4,18.9c-11.9,1.8-19.2-0.5-25.8-4.5
		c-7.8-4.7-12.6-14.3-13.8-22c-1.4-8.5,0.3-17.1,5.8-24.6c4.2-5.8,11.5-11.1,22.6-12.8c8.5-1.3,15.8,0.1,19.4,1.3
		c1.4,0.5,1.8,0.4,1.9-0.3l0.4-2.3c0.1-0.5,0.3-0.6,1.4-0.7c1.1-0.2,1.3,0,1.5,1.2c0.3,1.5,4.4,15,5.3,17.6c0.2,0.5,0.1,0.8-0.2,0.9
		l-1.7,0.8c-0.4,0.3-0.8-0.1-1.2-0.7c-1.6-2.9-4.6-6.9-9.1-10.1c-4.7-3-9.9-5-17.2-3.9c-14.8,2.2-18.9,15.6-16.9,28
		c0.9,5.4,4.2,15.4,12.2,21.3c7.2,5.2,12.7,5,17.1,4.4c10.3-1.6,17.6-7.6,20.6-13.5c0.4-0.7,0.7-1,1-0.8L537,148.9z"/>
	<path class="fillOne" d="M651.3,138.4c0.4-2.6,3.4-24.1,3.3-24.5l-0.4,0c-0.9,1.1-16.3,24.9-17.7,27c-1.8,2.6-14.3,22-14.9,22.8
		c-0.5,0.6-1.4,1.8-2.3,1.7c-0.6-0.1-1.1-0.7-1.3-1.8c-0.3-0.6-8.5-29.4-8.8-30.9c-1.1-4.2-6.8-24.7-7.7-25.9
		c-0.5,1.2-3.9,23-4.1,24c-0.1,1-2.4,15.8-2.7,21.6c-0.2,4.1,0.4,7.5,3.4,8l4.1,0.5c0.6,0.1,0.7,0.4,0.7,0.7l-0.3,2.2
		c-0.1,0.4-0.3,0.7-1.1,0.6c-0.9-0.1-3.5-0.7-10.6-1.7c-8.1-1.1-11.3-1.2-12.2-1.4c-0.7-0.1-0.7-0.3-0.6-0.9l0.3-2.2
		c0-0.2,0.1-0.5,0.6-0.4l4.3,0.6c3.2,0.4,4.7-2.6,5.6-5.6c1.8-6,5.5-27.3,5.7-28.9l2.2-14.8c0.5-3.1,0.3-5.1-3.8-5.6l-4.1-0.5
		c-0.5-0.1-0.7-0.4-0.6-0.7l0.3-2.3c0-0.2,0.3-0.5,0.8-0.4c0.9,0.1,3.3,0.7,13.1,2c4.4,0.6,7.1,0.7,8.2,0.8c1.1,0.2,1.7,0.6,2,1.8
		c2.2,8.6,11,39.1,12.8,46.6c1.1-1.5,9.8-15,12.9-19.8c2.2-3.4,13.1-20.1,13.8-21.8c0.4-0.8,1.5-0.8,3.8-0.6
		c13.6,1.9,16.8,2,17.9,2.1c0.4,0,0.5,0.4,0.5,0.8l-0.2,1.8c-0.1,0.5-0.3,0.8-0.9,0.8l-4.1-0.5c-2.4-0.3-2.8,1.2-3.2,3
		c-0.4,1.9-2.8,19.2-3.1,21.5l-0.8,6.1c-0.7,5.2-2.3,18-2.5,19.5c-0.4,3.4,0.3,4.9,2,5.1l5.1,0.7c0.6,0.1,0.5,0.4,0.5,0.7l-0.3,2
		c-0.1,0.5-0.1,0.9-0.9,0.8c-1.1-0.2-5.6-1-13.8-2.1c-9.2-1.2-12.8-1.4-14.1-1.6c-0.6-0.1-0.7-0.4-0.6-0.9l0.3-2
		c0.1-0.5,0.3-0.7,0.9-0.6l5.8,0.8c1.7,0.2,2.5-0.2,3.2-2.7c0.2-0.9,2.2-13.4,3.2-20.4L651.3,138.4z"/>
	<path class="fillOne" d="M724.4,163.8c0.1-2.7,1.5-23.6,1.6-25.4c0-1.1,0-1.7-0.3-1.8c-0.5-0.2-1,0-1.6,0.6
		c-0.8,0.9-16.8,18.2-18.1,19.9L724.4,163.8z M703.5,160c-1.5,1.6-10.5,11.8-11.9,13.9c-0.4,0.6-0.7,1.3-0.9,1.7
		c-0.4,1.1,0.6,2.5,2.4,3.2l3.7,1.4c0.7,0.3,0.8,0.5,0.7,0.7l-0.8,2.1c-0.2,0.5-0.5,0.8-1,0.6c-1.2-0.5-4.9-2.1-11.1-4.3
		c-6.6-2.4-8.6-2.9-9.9-3.3c-0.5-0.2-0.3-0.7-0.1-1.3l0.6-1.6c0.2-0.5,0.4-0.6,0.8-0.5l2.7,1c2.5,0.9,4.5,0.3,7.2-1.6
		c1.5-1.2,13.8-13.7,19.2-19.6c1.3-1.4,15.5-16.5,17.2-18.3c0.5-0.7,1.6-2,1.3-2.7c-0.2-0.3-0.2-0.9-0.2-1.2
		c0.2-0.3,0.5-0.6,1.2-0.5c3.1,0.4,8.9-0.3,10.3-0.9c0.7-0.3,1.2-0.5,1.6-0.3c0.5,0.2,0.5,1.3,0.5,1.9c-0.4,5.6-0.8,26.5-1.2,32.4
		c-0.4,7.2-0.8,24.7-0.4,27.4c0.5,3.4,2.4,5.3,4.2,5.9l2.9,1c0.5,0.2,0.7,0.4,0.5,0.8l-0.7,1.8c-0.2,0.5-0.6,0.9-1.3,0.7
		c-1.6-0.6-3.3-1.5-13.1-5.1c-7.5-2.7-10.6-3.6-12.6-4.3c-0.7-0.3-0.7-0.8-0.5-1.3l0.7-1.7c0.2-0.5,0.4-0.6,1-0.4l2.3,0.8
		c2.5,0.9,3.5,0.3,3.9-2.1c0.5-3.3,1.1-15.1,1.2-18.6L703.5,160z"/>
	<path class="fillOne" d="M785.5,188.7c1,0.8,1.9,1.6,2.9,2.1c12.7,7.5,21.5-0.4,23.7-3.8s2.8-7.6,1.8-10.5
		c-1.4-4.1-4.6-7.1-8.6-9.5c-1.3-0.8-2.3-1.3-3.2-1.3c-0.9,0-1.8,0.7-2.4,1.6L785.5,188.7z M781,195.3c-2.9,4.5-8.3,13-8.9,14.3
		c-0.7,1.7-1.1,3.4,0.2,4.1l4.1,2.4c0.5,0.3,0.5,0.6,0.3,0.9l-1.2,1.8c-0.3,0.5-0.7,0.5-1.4,0.2c-1-0.6-2.5-1.8-11-6.9
		c-8-4.7-10.1-5.7-10.9-6.2c-0.5-0.3-0.5-0.6-0.2-1.1l1.1-1.7c0.2-0.4,0.6-0.5,0.9-0.3l2.8,1.6c1.8,1.1,3.4,1.4,4.7-0.6
		c5.1-7.4,9.7-14.5,14.3-21.5l12.8-19.6c1.7-2.5,1.3-4.4-0.2-5.2l-3.2-1.9c-0.4-0.2-0.5-0.5-0.3-0.8l1.3-2c0.2-0.4,0.5-0.4,0.9-0.2
		c0.6,0.3,3,2.1,10.9,6.8c4.5,2.7,12.2,6.9,14.6,8.3c6.5,3.8,10.2,8.8,11.7,13.5c1.4,4.1,0.8,8.1-1,11c-6.1,9.5-14.9,9.7-24.7,5.8
		l-0.2,0.3c1.8,2.1,2.4,4.3,2.7,6.4c0.2,1.8,0.7,11.9,0.7,13.2c0,1.1,0.8,11,1.4,12.8c0.7,2.2,2.9,3.7,4.9,4.9
		c0.5,0.3,0.5,0.6,0.3,0.9l-1,1.6c-0.3,0.5-0.7,0.7-1.2,0.4c-0.7-0.4-2.6-1.9-7.9-5c-2.3-1.4-5.5-3.1-7.4-4.1
		c-0.5-1.3-0.8-4.2-0.8-6.5c-0.1-3,0.3-10.3,0.3-12c0.1-1.8,0-6.7-0.2-9.1c-0.3-3.8-0.9-7-4.3-9c-0.3-0.2-1.8-0.9-2.7-1.4L781,195.3
		z"/>
	<path class="fillOne" d="M845.8,239.1c-3.2,3.3-12.3,13-13.2,14c-0.8,1-0.6,2.1,0.2,2.9l2.7,2.4c0.3,0.3,0.5,0.6,0.3,0.8l-1.7,1.8
		c-0.3,0.3-0.7,0.4-0.9,0.2c-0.9-0.8-2.8-2.8-9-8.2c-6.1-5.4-8.6-7.2-9.3-7.8c-0.3-0.2-0.3-0.5,0-0.8l1.7-1.8c0.3-0.3,0.5-0.3,0.8,0
		l2.6,2.3c1.3,1.1,2.4,1.1,3.1,0.4c0.6-0.5,12.3-12.2,20.1-20.3l3.7-3.8c1.1-1.2,13.1-13.8,13.7-14.4c0.8-0.8,1.1-1.9-0.6-3.4
		l-2.1-1.9c-0.4-0.4-0.4-0.6-0.1-1l1.7-1.7c0.3-0.3,0.5-0.3,1,0.1c0.9,0.7,2.8,2.8,8.9,8.1c5.6,4.8,8.1,6.6,9.1,7.5
		c0.4,0.4,0.5,0.6,0.1,1l-1.6,1.6c-0.4,0.4-0.7,0.4-1.1,0l-2.3-2c-1.4-1.2-2.5-1.5-4,0c-1,1-11.1,11-14.2,14.1l-2.8,2.9l1.3,1.1
		c0.9,0.7,1.8,1.1,3.3,1.2c2.4,0.1,28.5-3.2,30.3-3.5c2.3-0.4,2.1-2,0.9-3.1l-1.1-0.9c-0.3-0.2-0.2-0.4,0.1-0.8l1.5-1.6
		c0.4-0.4,0.6-0.4,0.9-0.2c0.9,0.7,3.5,3.4,8.3,7.5c2.9,2.5,5.5,4.4,6.4,5.2c0.4,0.4,0.4,0.6,0.1,1l-1.6,1.6c-0.4,0.4-0.8,0.3-1.1,0
		l-1.4-1.2c-1-0.9-2.8-2-5.1-2.4c-5.3-0.9-25.7,1-31.6,1.9c-0.3,5.8-2.3,36-2.4,40.2c-0.1,2.6,1.6,4.4,2.8,5.4l1.6,1.4
		c0.4,0.4,0.3,0.8,0.1,1l-1.6,1.7c-0.4,0.4-0.7,0.4-1.1,0c-0.7-0.6-3.1-3.1-9.8-8.9c-6-5.3-9-7.5-10-8.4c-0.3-0.3-0.3-0.5,0.1-0.9
		l1.6-1.7c0.3-0.3,0.5-0.3,0.8,0l1,0.9c1.3,1.1,2.6,0.1,2.8-0.7c0.5-2,3.6-27.3,3.5-29.4c-0.1-1.3-0.7-2.3-1.6-3l-1.3-1.1
		L845.8,239.1z"/>
	<path class="fillOne" d="M904.4,295.4c-4,2.9-11.4,8.3-12.7,9.3c-4,2.8-4.4,5.2-3.6,7.2c0.6,1.4,1.8,3.4,4,6.3
		c1.1,1.4,4,4.7,5.3,6.1c1.2,1.2,4.3,3.6,7.5,4.4c2.3,0.5,10.7,1.2,13.6,1.3c0.6,0,0.9,0.2,1,0.6l0.2,1.8c0,0.3-0.2,0.6-0.6,0.7
		l-14.3,4.4c-0.9,0.3-1.8,0.1-2.5-0.9c-0.3-0.4-1.6-2.1-5.2-6.8c-3.7-4.8-9.8-12.6-19.7-25.2c-2.2-2.8-3.9-4.7-5.1-6.3
		c-1.2-1.4-2.2-2.4-2.7-3.1c-0.4-0.4-0.3-0.7,0.1-1l1.8-1.3c0.5-0.3,0.7-0.3,1.2,0.3l2,2.5c2.7,3.5,3.4,3.4,6.2,1.5l18.1-12.7
		l7.4-5.2c6.2-4.3,15.5-11.1,16.4-11.9c1.8-1.7,1.8-2.9,0-5.1l-2.3-2.8c-0.2-0.3-0.2-0.6,0.2-0.8l2-1.4c0.4-0.3,0.6-0.3,0.9,0.1
		c1.3,1.6,3.1,4.5,8.1,10.6l1.7,2.1c2.6,3.3,16.5,20.3,19.1,23.6c1,1.2,2.2,2.6,2.5,2.9c0.3,0.4,0.3,0.6,0,0.9
		c-0.7,1-8.8,11.1-9.3,11.9c-0.4,0.5-0.6,0.6-1,0.4l-1.7-0.9c-0.3-0.2-0.4-0.5-0.2-0.9c0.2-0.6,2.3-11.7,1.9-14.2
		c-0.4-2.2-1-4.9-2.6-7.1l-8.7-11.6l-22,15.2c1.8,2.2,6.2,7.5,7.2,8.3c1.6,1.4,2.9,1.9,5.5,1.5c1.3-0.2,3.8-0.8,5.2-1.8
		c0.4-0.3,0.8-0.1,1.1,0.2l1.4,2.1c0.2,0.3,0.3,0.6-0.2,0.9c-1.3,0.7-6.3,4.2-8.3,5.6c-3,2.1-6.4,5-8,6.3c-0.4,0.3-0.6,0.2-1-0.2
		l-1.6-1.5c-0.3-0.2-0.3-0.5,0.1-1c1-1.1,2.2-2.9,2.8-3.9c1-1.7,0.9-3.9-0.2-5.7c-1.8-2.9-4.5-6.6-6.4-9L904.4,295.4z"/>
	<path class="fillOne" d="M982.1,347.9l-1.3-2.4c-1.4-2.7-4.7-8.8-7.8-11.8c-2.6-2.2-10-2.9-13.8-3.2c-0.6-0.1-1.1-0.2-1.1-0.7
		l-0.3-2c0-0.4,0.2-0.6,0.7-0.7c3.7-0.6,16.6-2.8,18-3c1.3-0.4,1.9,0,2.1,0.3c0.3,0.5,0.1,1-0.2,1.7c-0.8,2.4-0.4,4.3,0.8,6.7
		c2.3,4.6,3.8,8.3,8.2,16.7l2.4,4.6c5,9.4,7.2,12.8,9.5,16.7c1,1.6,3.9,4.3,5.5,5.1c0.9,0.4,1.4,0.6,1.7,1.2c0.3,0.5,0,0.8-0.9,1.5
		c-1.4,0.9-11.3,7.4-15,10c-0.5,0.3-0.7,0.2-1,0l-1.5-1.4c-0.3-0.3-0.1-0.6,0.3-1.1c1.8-2.3,5.7-8,6.1-11.1c0.1-3-3.8-10.8-5.4-13.9
		l-1.3-2.4l-46,20.7c-6.6,3-7.9,4.6-6.8,6.6l2.6,5c0.2,0.3-0.1,0.7-0.5,0.9l-1.8,0.8c-0.5,0.2-1,0.2-1.3-0.5
		c-0.5-0.9-1.6-3.7-6.4-13c-4.5-8.7-6.7-12.2-7.3-13.4c-0.3-0.5-0.2-0.8,0.4-1l2-0.9c0.5-0.2,0.8,0,1,0.3l2.5,4.9
		c0.9,1.7,2.5,2.3,3.8,1.8c2.4-0.7,28.9-12.6,30.6-13.4L982.1,347.9z"/>
	<path class="fillOne" d="M984.1,434.3c-0.9,0.3-22.3,6.3-23.3,6.5c-3,0.8-2.9,2.4-2.1,4.6l1.3,3.9c0.1,0.4,0.1,0.8-0.4,0.9
		l-2.3,0.6c-0.6,0.1-0.9-0.2-1.1-0.7c-0.4-1.1-1.3-4.9-4.2-13.6c-3.1-9.2-4.7-13.2-5-14.1c-0.2-0.6,0-0.8,0.4-0.9l2.5-0.7
		c0.4-0.1,0.6,0,0.8,0.6l1.2,3.7c0.6,1.8,1.5,3.8,4.1,3.5c1.4-0.2,21.5-5.4,26.6-6.8l6.5-1.8c2.2-0.6,18.9-5.3,20.1-5.7
		c2.1-0.9,2.8-2,1.9-4.6l-1.6-4.8c-0.2-0.6-0.1-0.8,0.4-0.9l2.4-0.6c0.5-0.1,0.7,0,0.8,0.4c0.4,1.1,1.8,5.9,4.8,14.9
		c3,8.8,4.3,11.7,4.8,13c0.2,0.6-0.1,0.8-0.6,1l-2.1,0.6c-0.6,0.1-0.9-0.2-1-0.5l-1.2-3.5c-0.7-2-2-3.3-3.7-2.8
		c-0.9,0.3-21.5,5.6-22.6,5.9L984.1,434.3z"/>
	<path class="fillOne" d="M1008.1,473.7c-16.6,1.6-30.2,3.7-33.2,4.2c-4.9,0.7-7,2-6.5,5.5l0.4,2.5c0.1,0.8-0.3,0.8-0.7,0.9
		l-2.3,0.2c-0.6,0.1-0.8,0.1-0.9-0.7c-0.2-1-0.8-6.8-1.3-10.4c-0.4-2.5-1.7-9-1.8-9.9c-0.1-0.4,0.1-0.6,0.8-0.7l2.4-0.2
		c0.2,0,0.6,0.1,0.7,0.5l0.5,3.3c0.4,2.5,2.7,3.6,8.8,3.5c1.8-0.1,15.5-0.8,31.2-2.4l12.4-1.2c5.9-0.6,9.8-4.3,9.1-8.5l-0.5-3.1
		c0-0.4,0.2-0.6,0.6-0.6l2.6-0.3c0.4,0,0.6,0.1,0.7,0.5c0.1,0.5,0.1,1.2,0.3,3c0.2,1.7,0.6,4.3,1.3,8.5c0.3,1.6,0.6,3.1,0.9,4.2
		c0.2,1.3,0.5,2.1,0.5,2.7c0.2,1.2,0,1.8-0.5,2.4c-0.8,1.1-21.8,22.4-24.2,24.6c-1.4,1.5-18,18.5-19.7,20.3l0.1,0.4l10.2-1
		c8.7-0.9,13.6-1.3,18.4-2c3.7-0.6,13.3-1.9,14.9-2.6c2.2-0.9,3.3-3.2,2.9-5.5l-0.5-3.1c-0.1-0.6,0.3-0.6,0.8-0.7l2.3-0.2
		c0.6-0.1,0.8-0.1,0.9,0.7c0.2,1.2,0.4,4.3,1.5,10.9c1,5.8,1.6,8.2,1.8,9.3c0.1,0.8-0.2,1-0.5,1l-2.3,0.2c-0.6,0.1-1-0.1-1.1-0.5
		l-0.4-2.7c-0.3-2-2.1-2.8-5.8-2.7c-6.8,0.2-23.4,0.8-33.5,1.8l-26,2.6c-1.4,0.1-2.8,0.3-3-0.9c-0.2-1.4,0.4-2.6,1.1-3.5
		c0.9-0.9,6.1-6.7,12.5-13.5c7.4-7.6,15.4-16.1,16.7-17.4c1.2-1.5,18.2-18.8,19.4-20.1l-0.1-0.6L1008.1,473.7z"/>
	<path class="fillOne" d="M979.4,619.6c-1.4-0.2-2.5,0.1-3.2,0c-0.8-0.1-1.2-0.7-1.5-1.8c-3.7-8.7-5.6-17.1-4.8-29
		c0.6-9.7,4.8-21.3,13.4-27.1c7.2-5.3,15.9-7.2,27.7-5.9c9.2,1.1,18.5,6.1,24.5,14.1c6,7.8,8.9,17.3,8.3,29.2
		c-0.5,9.5-3.9,16.8-6.5,19.7c-1,1.1-0.7,1.7,0.1,2.4l1.5,1.4c0.7,0.6,1,0.9,0.9,1.5c-0.1,1-0.7,1.1-1.5,1l-20.2-1.4
		c-0.8-0.1-1.3-0.2-1.4-0.6l-0.3-2.4c-0.1-0.6,0.2-0.8,0.9-0.9c4.1-0.9,9.9-2.9,14.4-6.4c3.8-3,7.5-8.1,7.9-15.7
		c0.3-6.1-1-11.7-6.9-17.7c-5.2-5.4-13.4-9.7-22.2-10.7c-11.8-1.4-22.2,0.6-28.4,5.6c-4.9,4.2-7.4,8.7-7.8,15
		c-0.4,6.3,0.2,10.2,1.8,13.8c1.1,2.3,3.9,2.9,9.1,3.5l7.3,0.9c3.6,0.4,4.7-0.5,4.8-3l0.3-4.2c0-0.6,0.5-0.8,1-0.7l2.3,0.3
		c0.6,0.1,0.8,0.3,0.8,0.7c-0.1,1.2-0.7,5.9-1.1,14.1c-0.5,8.4-0.4,11.8-0.5,12.8c0,0.8-0.3,1-0.8,0.9l-2.5-0.3
		c-0.6-0.1-0.8-0.3-0.7-0.9l0.2-3.4c0.1-1.8-0.6-3.1-3.6-3.4L979.4,619.6z"/>
	<path class="fillOne" d="M192.8,830.8c-0.1,0.4-0.3,0.6-0.7,0.6c-9.9-1.1-21.2-5.5-28.2-17.7c-6.3-11-6.8-19-5.3-26.9
		c1.7-9.5,9.4-17.8,16.5-22c7.9-4.6,17.1-6.3,26.6-3.8c7.3,1.9,15.4,7.1,21.4,17.4c4.5,7.9,5.9,15.6,6.1,19.6c0.1,1.6,0.2,1.9,1,1.7
		l2.5-0.5c0.6-0.1,0.7,0.1,1.3,1.1c0.6,1,0.5,1.3-0.6,2c-1.5,0.8-13.4,10.1-15.6,11.8c-0.4,0.4-0.7,0.4-1,0.1l-1.4-1.4
		c-0.4-0.3-0.2-0.8,0.3-1.4c2.3-2.7,5.2-7.1,6.7-12.8c1.2-5.7,1.2-11.7-2.6-18.4c-7.9-13.7-22.7-12.6-34.4-5.9
		c-5,2.9-13.6,10-16.4,20.1c-2.4,9-0.2,14.3,2.2,18.4c5.4,9.4,14.1,14.3,21.1,15.1c0.8,0.1,1.3,0.3,1.2,0.7L192.8,830.8z"/>
	<path class="fillOne" d="M229.4,857c-3.7,3.5-10.4,9.7-11.6,10.8c-3.6,3.2-3.8,5.8-2.8,7.8c0.8,1.4,2.1,3.5,4.6,6.3
		c1.2,1.3,4.3,4.6,5.8,6c1.3,1.2,4.5,3.4,7.7,3.9c2.3,0.3,10.6,0.4,13.5,0.3c0.6,0,0.9,0.2,1,0.6l0.4,1.8c0,0.4-0.1,0.6-0.6,0.8
		l-13.6,5.8c-0.8,0.4-1.7,0.2-2.5-0.7c-0.3-0.4-1.7-2.1-5.7-6.7c-4.1-4.7-10.8-12.4-21.7-24.7c-2.4-2.7-4.3-4.7-5.6-6.2
		c-1.4-1.4-2.4-2.4-3-3.1c-0.4-0.4-0.4-0.7,0-1.1l1.7-1.5c0.4-0.4,0.7-0.4,1.2,0.2l2.2,2.5c3,3.4,3.7,3.3,6.3,1l16.5-14.8l6.8-6.1
		c5.7-5.1,14.2-13,15-14c1.6-2,1.5-3.2-0.4-5.5l-2.5-2.8c-0.3-0.3-0.2-0.6,0.1-0.9l1.8-1.6c0.3-0.3,0.5-0.4,0.9,0
		c1.4,1.6,3.5,4.5,9,10.6l1.8,2.1c2.9,3.3,18.1,20.2,21,23.4c1,1.2,2.4,2.5,2.7,2.9c0.3,0.4,0.3,0.6,0.1,1c-0.7,1.1-7.6,12.4-8,13.3
		c-0.3,0.5-0.6,0.6-1,0.5l-1.7-0.8c-0.3-0.2-0.4-0.4-0.3-1c0.2-0.7,1.2-12.5,0.6-15.1c-0.5-2.3-1.4-5.1-3.2-7.3l-9.7-11.5
		l-20.2,17.9c2,2.2,6.8,7.4,7.8,8.1c1.7,1.4,3.1,1.8,5.5,1.2c1.3-0.4,3.7-1.2,5-2.3c0.4-0.4,0.8-0.2,1.1,0.1l1.6,2.1
		c0.3,0.3,0.3,0.7-0.2,0.9c-1.2,0.9-5.8,5-7.6,6.6c-2.8,2.5-5.9,5.8-7.3,7.3c-0.4,0.3-0.6,0.2-1-0.2l-1.7-1.4c-0.3-0.2-0.3-0.5,0-1
		c0.9-1.3,1.9-3.2,2.4-4.3c0.8-1.9,0.5-4.2-0.8-5.9c-2.1-2.9-5.1-6.6-7.2-9L229.4,857z"/>
	<path class="fillOne" d="M288.3,906.7c1,1,1.8,1.9,2.7,2.6c12.2,9.4,21.8,2,24.5-1.4c2.6-3.4,3.6-7.8,2.9-11c-1-4.5-4-8.2-7.9-11.2
		c-1.2-1-2.2-1.6-3.1-1.7c-0.9-0.1-1.9,0.5-2.6,1.4L288.3,906.7z M283,913.2c-3.4,4.4-9.6,12.9-10.3,14.1c-0.9,1.7-1.4,3.4-0.1,4.4
		l3.9,3c0.5,0.4,0.4,0.7,0.2,1l-1.4,1.8c-0.4,0.5-0.7,0.5-1.4,0c-1-0.8-2.4-2.2-10.5-8.5c-7.7-5.9-9.7-7.2-10.5-7.8
		c-0.5-0.4-0.5-0.7-0.1-1.1l1.3-1.7c0.3-0.4,0.6-0.5,0.9-0.2l2.7,2c1.7,1.3,3.3,1.9,4.8-0.2c5.8-7.3,11.2-14.3,16.5-21.3l14.9-19.5
		c1.9-2.5,1.8-4.6,0.3-5.7l-3.1-2.4c-0.4-0.3-0.4-0.6-0.2-0.9l1.5-2c0.3-0.4,0.5-0.4,0.9-0.1c0.5,0.4,2.9,2.6,10.5,8.5
		c4.4,3.4,11.7,8.7,14.1,10.5c6.2,4.8,9.6,10.6,10.6,15.7c1,4.5,0,8.8-2.1,11.6c-7.2,9.4-16,8.6-25.7,3.3l-0.2,0.3
		c1.6,2.4,2,4.9,2.1,7.1c0,1.9-0.5,12.6-0.5,14c-0.1,1.1-0.2,11.7,0.2,13.6c0.5,2.4,2.6,4.3,4.5,5.7c0.5,0.4,0.5,0.7,0.2,1l-1.2,1.6
		c-0.4,0.5-0.7,0.6-1.2,0.3c-0.6-0.5-2.5-2.3-7.5-6.2c-2.2-1.7-5.3-3.8-7-5.1c-0.4-1.4-0.4-4.5-0.2-6.9c0.2-3.2,1.2-10.9,1.4-12.6
		c0.2-2,0.7-7.1,0.7-9.7c0-4.1-0.2-7.5-3.5-10c-0.3-0.2-1.7-1.2-2.6-1.8L283,913.2z"/>
	<path class="fillOne" d="M371.6,926.6l-2.5-1.2c-2.8-1.4-9.1-4.6-13.4-5.3c-3.4-0.3-9.5,3.6-12.6,5.5c-0.5,0.3-0.9,0.5-1.3,0.1
		l-1.5-1.5c-0.3-0.4-0.2-0.7,0.1-1c2.5-2.7,11-12.2,12-13.2c0.8-1.1,1.5-1.1,1.8-1c0.5,0.3,0.7,0.8,1,1.6c0.9,2.6,2.5,3.9,4.9,5.2
		c4.7,2.6,8.2,4.8,16.8,9.2l4.7,2.4c9.7,4.9,13.5,6.5,17.7,8.3c1.7,0.8,5.7,1.3,7.4,1.1c1-0.2,1.5-0.3,2,0c0.5,0.3,0.5,0.7,0.2,1.8
		c-0.6,1.6-4.1,12.8-5.4,17.2c-0.2,0.5-0.4,0.6-0.7,0.6l-2.1-0.3c-0.4-0.1-0.4-0.4-0.5-1.1c0-3-0.6-10-2.2-12.9
		c-1.8-2.6-9.6-6.8-12.8-8.4l-2.5-1.2l-22.5,44.5c-3.2,6.3-3.2,8.5-1.1,9.5l5.1,2.6c0.4,0.2,0.4,0.6,0.1,1l-0.9,1.8
		c-0.3,0.5-0.6,0.8-1.3,0.4c-0.9-0.5-3.6-2.1-13.1-7c-9-4.6-12.8-6.2-14-6.8c-0.5-0.3-0.6-0.5-0.3-1.1l1-1.9
		c0.3-0.5,0.6-0.5,0.9-0.4l5,2.5c1.8,0.9,3.3,0.4,4-0.8c1.4-2,14.3-27.6,15.1-29.3L371.6,926.6z"/>
	<path class="fillOne" d="M431.2,986.1c-0.3,0.9-6.8,21.4-7.1,22.4c-0.9,2.8,0.4,3.7,2.7,4.4l3.9,1.3c0.4,0.1,0.7,0.4,0.5,0.9
		l-0.7,2.2c-0.2,0.5-0.6,0.6-1.2,0.4c-1.1-0.4-4.8-1.9-13.6-4.8c-9.4-3.1-13.6-4.2-14.5-4.5c-0.6-0.2-0.7-0.4-0.5-0.9l0.8-2.4
		c0.1-0.4,0.4-0.5,0.9-0.3l3.7,1.2c1.9,0.6,4,1.1,5.2-1.2c0.6-1.2,7.1-20.3,8.7-25.2l2-6.2c0.7-2.1,5.8-18.2,6.1-19.4
		c0.4-2.2-0.2-3.4-2.8-4.3l-4.9-1.6c-0.6-0.2-0.7-0.4-0.5-0.9l0.8-2.3c0.1-0.4,0.4-0.5,0.8-0.4c1.1,0.4,5.9,2.3,15.1,5.3
		c9,3,12.1,3.7,13.4,4.1c0.6,0.2,0.6,0.6,0.5,1.1l-0.7,2c-0.2,0.5-0.6,0.6-1,0.5l-3.6-1.2c-2.1-0.7-3.8-0.5-4.3,1.2
		c-0.3,0.9-6.9,20.4-7.3,21.5L431.2,986.1z"/>
	<path class="fillOne" d="M479.9,995.7c2.7,0.5,8.8,1.5,10.5,1.4c2,0.2,3.7-0.7,5.8-2.7c1-1.1,1.9-2.8,2.6-4.4
		c0.2-0.4,0.5-0.7,0.9-0.6l1.9,0.5c0.4,0.1,0.5,0.3,0.5,0.7c-0.5,1.6-1.9,9.2-2.1,10.5c-0.6,3.3-1,7.8-1.2,9.7
		c0,0.7-0.4,0.8-0.7,0.8l-2.2,0c-0.4-0.1-0.6-0.3-0.6-0.9c0-0.7-0.3-3.7-0.7-4.6c-0.8-2.2-2.3-3.9-4.2-4.7
		c-3.6-1.2-8.2-2.1-11.1-2.6l-4.2,22.9c-0.5,2.6,0.2,3.1,2.6,3.5l5.2,1c0.6,0.1,0.7,0.3,0.7,0.8l-0.4,2.3c-0.1,0.5-0.3,0.7-0.9,0.6
		c-1-0.2-4.8-1.2-14.3-2.9c-8.7-1.6-12.4-2-13.8-2.2c-0.4-0.1-0.5-0.3-0.5-0.8l0.5-2.5c0.1-0.4,0.3-0.5,0.7-0.4l3.9,0.7
		c2.3,0.4,3.2,0.2,3.6-1.4c0.4-1.8,2.8-13.4,5.7-29.2l1.2-6.4c0.8-4.1,2.9-17.2,3.1-18.2c0.3-1.7-0.9-2.8-3.4-3.3l-4.8-0.9
		c-0.4-0.1-0.7-0.3-0.7-0.6l0.5-2.7c0.1-0.4,0.5-0.5,0.9-0.4c1,0.2,4.6,1.1,15.7,3.2c1.4,0.2,27,4.7,33.2,5.9
		c1.7,0.3,3.4,0.2,3.8,0.3c0.4,0.2,0.5,0.7,0.3,1.4c0.1,1.6,0.9,14.8,1.1,16c0,0.4-0.1,0.6-0.4,0.7l-2,0.4c-0.4,0.1-0.6-0.1-1-0.9
		c-0.7-1.8-2.6-5.4-5.4-9.7c-1.2-2.3-3.4-4.4-5.8-5.4c-2.4-0.9-15-3.6-18.7-4.3L479.9,995.7z"/>
	<path class="fillOne" d="M551.9,1006.6c0,0.9-0.9,22.4-0.9,23.5c-0.2,3,1.4,3.4,3.8,3.6l4.1,0.2c0.4,0,0.8,0.2,0.8,0.7l-0.1,2.3
		c0,0.6-0.4,0.7-1,0.7c-1.2,0-5.1-0.5-14.4-0.9c-9.8-0.5-14.2-0.4-15.2-0.4c-0.6,0-0.8-0.2-0.8-0.7l0.1-2.5c0-0.4,0.2-0.5,0.8-0.5
		l3.9,0.2c2,0.1,4.2,0,4.7-2.5c0.3-1.3,1.4-21.5,1.7-26.5l0.3-6.5c0.1-2.3,0.7-19.1,0.7-20.3c-0.2-2.3-1.1-3.2-3.9-3.4l-5.1-0.2
		c-0.6,0-0.8-0.2-0.8-0.7l0.1-2.4c0-0.5,0.2-0.7,0.6-0.6c1.2,0.1,6.3,0.6,16,1c9.4,0.4,12.6,0.3,14,0.4c0.6,0,0.8,0.4,0.7,0.9
		l-0.1,2.1c0,0.6-0.4,0.7-0.8,0.7l-3.7-0.2c-2.2-0.1-3.8,0.6-3.9,2.3c0,0.9-1.2,21.5-1.3,22.6L551.9,1006.6z"/>
	<path class="fillOne" d="M648.5,1016c0.3,0.3,0.4,0.5,0.3,0.9c-5.1,8.6-13.8,17.2-27.8,18.6c-12.6,1.3-20-1.5-26.6-6.2
		c-7.9-5.4-12.2-15.9-13-24.1c-0.9-9.1,1.4-18.2,7.6-26c4.8-5.9,12.8-11.3,24.6-12.5c9-0.9,16.5,1,20.3,2.5c1.4,0.6,1.8,0.6,2-0.2
		l0.5-2.5c0.1-0.6,0.3-0.6,1.5-0.7c1.2-0.1,1.4,0.1,1.5,1.4c0.2,1.7,3.6,16.4,4.2,19.1c0.1,0.6,0.1,0.8-0.3,1l-1.8,0.7
		c-0.5,0.2-0.8-0.1-1.2-0.8c-1.5-3.2-4.3-7.6-8.8-11.3c-4.7-3.5-10.1-5.9-17.8-5.2c-15.7,1.6-20.9,15.7-19.6,29.1
		c0.5,5.8,3.4,16.6,11.4,23.3c7.1,5.9,12.9,6,17.6,5.6c10.8-1.1,18.8-7.1,22.4-13.2c0.4-0.7,0.8-1,1.1-0.8L648.5,1016z"/>
	<path class="fillOne" d="M702,987.3c-1.7-2.3-14-20.9-15.1-22.5c-0.7-1-1-1.4-1.4-1.3c-0.6,0.2-0.8,0.6-0.9,1.5
		c0,1.3-2.2,25.9-2.3,28.1L702,987.3z M681.9,997.1c-0.2,2.3-1.1,16.5-0.9,19.1c0,0.8,0.2,1.5,0.4,2c0.3,1.2,2.1,1.7,4,1.1l4-1.2
		c0.8-0.2,1-0.1,1.1,0.2l0.6,2.2c0.2,0.5,0.1,1-0.5,1.1c-1.3,0.4-5.4,1.3-12,3.3c-7,2.1-9,3-10.3,3.4c-0.6,0.2-0.7-0.4-0.9-1
		l-0.5-1.7c-0.2-0.5,0-0.8,0.4-0.9l2.8-0.8c2.7-0.8,4-2.5,4.9-5.8c0.5-1.9,2.6-20.1,3.3-28.5c0.2-2,2.2-23.6,2.5-26.3
		c-0.1-0.9,0-2.7-0.7-3.1c-0.4-0.2-0.8-0.6-0.9-0.9c-0.1-0.4,0-0.8,0.7-1.2c2.8-1.6,7.3-5.9,8.1-7.3c0.4-0.7,0.7-1.2,1.2-1.3
		c0.6-0.2,1.3,0.8,1.6,1.3c3.3,5.1,16.5,23,19.9,28.2c4.3,6.3,15.2,21.2,17.2,23.3c2.6,2.5,5.4,2.9,7.3,2.3l3-0.9
		c0.6-0.2,0.8,0,0.9,0.4l0.5,1.9c0.2,0.5,0.1,1.1-0.6,1.4c-1.7,0.5-3.7,0.8-14.1,3.9c-8,2.4-11.1,3.6-13.2,4.2
		c-0.8,0.2-1.1-0.3-1.3-0.8l-0.5-1.8c-0.2-0.5,0-0.8,0.5-0.9l2.5-0.7c2.7-0.8,3.2-1.9,1.9-4.2c-1.7-3-8.8-13.4-10.9-16.4
		L681.9,997.1z"/>
	<path class="fillOne" d="M746,935.2l-2.5,1.2c-2.8,1.4-9.2,4.5-12.4,7.6c-2.3,2.6-3,9.8-3.3,13.5c-0.1,0.5-0.2,1-0.7,1.1l-2.1,0.3
		c-0.4,0-0.6-0.2-0.7-0.7c-0.7-3.6-3-16.2-3.2-17.6c-0.4-1.3,0-1.9,0.3-2c0.5-0.3,1.1-0.1,1.8,0.2c2.6,0.8,4.6,0.4,7.1-0.8
		c4.9-2.2,8.7-3.7,17.4-8l4.8-2.3c9.8-4.8,13.3-7,17.3-9.2c1.6-0.9,4.4-3.7,5.3-5.3c0.5-0.9,0.7-1.4,1.2-1.6c0.5-0.3,0.9,0,1.5,0.9
		c0.9,1.4,7.7,11,10.4,14.7c0.3,0.5,0.2,0.7,0,0.9l-1.5,1.5c-0.3,0.3-0.6,0.1-1.1-0.3c-2.4-1.8-8.3-5.5-11.6-6
		c-3.1-0.1-11.2,3.6-14.4,5.2l-2.5,1.2l21.7,44.8c3.1,6.4,4.8,7.6,6.9,6.6l5.1-2.5c0.4-0.2,0.7,0.1,0.9,0.5l0.9,1.8
		c0.2,0.5,0.2,0.9-0.5,1.3c-0.9,0.4-3.8,1.6-13.4,6.3c-9.1,4.4-12.6,6.5-13.9,7.1c-0.5,0.3-0.8,0.2-1.1-0.4l-0.9-1.9
		c-0.2-0.5,0-0.8,0.3-1l5.1-2.5c1.8-0.9,2.3-2.4,1.8-3.7c-0.8-2.3-13.2-28-14-29.7L746,935.2z"/>
	<path class="fillOne" d="M829.2,923c0.5,0.8,12.9,18.3,13.5,19.2c1.7,2.5,3.2,1.9,5.2,0.5l3.4-2.4c0.3-0.2,0.8-0.3,1,0.1l1.3,1.9
		c0.3,0.5,0.1,0.8-0.4,1.2c-1,0.7-4.4,2.7-12,8.1c-8.1,5.7-11.5,8.4-12.3,9c-0.5,0.3-0.8,0.3-1-0.1l-1.4-2.1
		c-0.2-0.3-0.2-0.6,0.3-0.9l3.2-2.3c1.6-1.1,3.3-2.5,2.2-4.8c-0.6-1.2-11.9-17.9-14.7-22.1l-3.7-5.4c-1.3-1.8-11-15.6-11.7-16.5
		c-1.5-1.7-2.9-1.9-5.1-0.3l-4.2,3c-0.5,0.3-0.7,0.3-1-0.1l-1.4-2c-0.3-0.4-0.2-0.7,0.1-0.9c1-0.7,5.4-3.4,13.3-9
		c7.8-5.4,10.2-7.5,11.4-8.3c0.5-0.3,0.9-0.1,1.1,0.2l1.2,1.8c0.3,0.5,0.1,0.8-0.2,1.1l-3.1,2.2c-1.8,1.2-2.7,2.8-1.6,4.2
		c0.5,0.8,12,17.8,12.7,18.7L829.2,923z"/>
	<path class="fillOne" d="M850.4,870c-0.5,8.2,4.2,17.1,9.4,22.4c16.9,17.3,34.2,12.2,40.1,6.4c14.2-14.1,1.9-31.2-3.6-36.9
		c-14.2-14.5-32.7-12.4-39.5-5.7C855.6,857.5,850.9,860.9,850.4,870 M876.1,841.9c9.2-1.2,20,1.1,28.9,10.2
		c4.8,4.9,8.5,11.5,9.1,19.8c0.7,9.8-1.3,19.9-11.9,30.4c-4.2,4.2-11.4,9-20.2,11.4c-7.8,2.1-20.2,0.1-29.6-9.5
		c-3.9-4-8.9-11.5-9.7-22.9c-0.8-13.3,5.5-22.2,11.5-28.2C859.5,847.9,866.1,843.2,876.1,841.9"/>
	<path class="fillOne" d="M916.8,819.6c13.3,8.5,24.8,14.8,27.3,16.2c4,2.3,6.6,2.5,8.5-0.5l1.4-2.2c0.4-0.7,0.7-0.5,1.1-0.2
		l1.8,1.1c0.5,0.3,0.6,0.4,0.2,1.1c-0.5,0.8-3.9,5.7-5.9,8.9c-1.4,2.2-4.7,8-5.3,8.9c-0.2,0.3-0.5,0.4-1,0.1l-2-1.2
		c-0.2-0.1-0.4-0.5-0.2-0.8l1.8-2.9c1.4-2.2,0.4-4.4-4.2-7.9c-1.4-1-12-8.5-24.6-16.4l-10-6.4c-4.7-3-10.1-2.4-12.4,1.3l-1.7,2.7
		c-0.3,0.3-0.5,0.4-0.9,0.2l-2.1-1.4c-0.3-0.2-0.4-0.5-0.2-0.8c0.3-0.4,0.8-1,1.8-2.5c1-1.4,2.5-3.7,4.8-7.4
		c0.9-1.4,1.6-2.7,2.2-3.8c0.7-1.1,1.1-1.9,1.4-2.4c0.6-1,1.2-1.4,2-1.6c1.3-0.3,31-4.5,34.2-4.8c2-0.4,25.5-3.8,27.9-4.2l0.2-0.3
		l-8.2-5.2c-6.9-4.4-10.8-6.9-14.9-9.2c-3.1-1.7-11-6.3-12.6-6.7c-2.3-0.6-4.5,0.5-5.8,2.5l-1.7,2.7c-0.3,0.5-0.6,0.3-1,0.1
		l-1.8-1.2c-0.5-0.3-0.6-0.4-0.2-1.1c0.6-1,2.6-3.6,6.2-9.3c3.2-5,4.2-7.2,4.8-8.2c0.4-0.7,0.8-0.7,1.1-0.5l1.8,1.2
		c0.5,0.3,0.7,0.7,0.5,1l-1.5,2.4c-1.1,1.7-0.3,3.3,2.4,5.4c5.1,3.8,17.7,13,25.8,18.1l20.7,13.2c1.1,0.7,2.2,1.4,1.6,2.4
		c-0.7,1.2-2,1.8-3.1,2.1c-1.2,0.2-8.9,1.6-18,3.1c-10.5,1.6-22,3.5-23.9,3.7c-1.8,0.5-26,3.9-27.7,4.2l-0.3,0.5L916.8,819.6z"/>
	<path class="fillOne" d="M129.7,700.9c0-10.1,8.1-18.2,18.2-18.2c10.1,0,18.2,8.2,18.2,18.2c0,10-8.1,18.2-18.2,18.2
		C137.8,719.1,129.7,710.9,129.7,700.9"/>
	<path class="fillOne" d="M972.1,700.9c0-10.1,8.2-18.2,18.2-18.2c10,0,18.2,8.2,18.2,18.2c0,10-8.2,18.2-18.2,18.2
		C980.3,719.1,972.1,710.9,972.1,700.9"/>
	<polygon class="fillOne" points="886.2,563.8 886.2,537.6 252.6,537.6 252.6,563.9 	"/>
	<rect x="252.6" y="582.7" class="fillOne" width="80.5" height="35.4"/>
	<rect x="344.8" y="582.7" class="fillOne" width="80.5" height="35.4"/>
	<rect x="437" y="582.7" class="fillOne" width="80.5" height="35.4"/>
	<rect x="529.2" y="582.7" class="fillOne" width="80.5" height="35.4"/>
	<rect x="621.4" y="582.7" class="fillOne" width="80.5" height="35.4"/>
	<rect x="713.5" y="582.7" class="fillOne" width="80.5" height="35.4"/>
	<rect x="805.7" y="582.7" class="fillOne" width="80.5" height="35.4"/>
	<rect x="252.6" y="632.4" class="fillOne" width="80.5" height="35.4"/>
	<rect x="529.2" y="632.4" class="fillOne" width="80.5" height="35.4"/>
	<rect x="621.4" y="632.4" class="fillOne" width="80.5" height="35.4"/>
	<rect x="713.5" y="632.4" class="fillOne" width="80.5" height="35.4"/>
	<rect x="805.7" y="632.4" class="fillOne" width="80.5" height="35.4"/>
	<rect x="529.2" y="682.1" class="fillOne" width="80.5" height="35.3"/>
	<rect x="621.4" y="682.1" class="fillOne" width="80.5" height="35.3"/>
	<rect x="713.5" y="682.1" class="fillOne" width="80.5" height="35.3"/>
	<rect x="805.7" y="682.1" class="fillOne" width="80.5" height="35.3"/>
	<rect x="621.4" y="731.8" class="fillOne" width="80.5" height="35.4"/>
	<rect x="713.5" y="731.8" class="fillOne" width="80.5" height="35.4"/>
	<rect x="805.7" y="731.8" class="fillOne" width="80.5" height="35.4"/>
	<rect x="436.7" y="334.3" class="fillOne" width="80.6" height="35.4"/>
	<rect x="529.1" y="334.3" class="fillOne" width="80.6" height="35.4"/>
	<rect x="621.4" y="334.3" class="fillOne" width="80.7" height="35.4"/>
	<rect x="252" y="383.9" class="fillOne" width="80.6" height="35.4"/>
	<rect x="344.3" y="383.9" class="fillOne" width="80.6" height="35.4"/>
	<rect x="436.7" y="383.9" class="fillOne" width="80.6" height="35.4"/>
	<rect x="529.1" y="383.9" class="fillOne" width="80.6" height="35.4"/>
	<rect x="621.4" y="383.9" class="fillOne" width="80.7" height="35.4"/>
	<rect x="252" y="433.6" class="fillOne" width="80.6" height="35.4"/>
	<rect x="344.3" y="433.6" class="fillOne" width="80.6" height="35.4"/>
	<rect x="436.7" y="433.6" class="fillOne" width="80.6" height="35.4"/>
	<rect x="529.1" y="433.6" class="fillOne" width="80.6" height="35.4"/>
	<rect x="621.4" y="433.6" class="fillOne" width="80.7" height="35.4"/>
	<rect x="252" y="483.3" class="fillOne" width="80.6" height="35.4"/>
	<rect x="344.3" y="483.3" class="fillOne" width="80.6" height="35.4"/>
	<rect x="436.7" y="483.3" class="fillOne" width="80.6" height="35.4"/>
	<rect x="529.1" y="483.3" class="fillOne" width="80.6" height="35.4"/>
	<rect x="621.4" y="483.3" class="fillOne" width="80.7" height="35.4"/>
</g>
</svg>
