<?xml version="1.0" encoding="utf-8"?>
<!-- Generator: Adobe Illustrator 19.2.1, SVG Export Plug-In . SVG Version: 6.00 Build 0)  -->
<svg version="1.1" xmlns="http://www.w3.org/2000/svg" xmlns:xlink="http://www.w3.org/1999/xlink" x="0px" y="0px"
	 viewBox="0 0 360 360" style="enable-background:new 0 0 360 360;" xml:space="preserve">
<style type="text/css">
	.colorOne{fill:#D7BE3C;}
	.colorTwo{fill:#F4D857;}
	.colorThree{fill:#FFF573;}
	.outlineOne{fill:none;stroke:#000000;stroke-width:6;stroke-miterlimit:10;}
	.st0{fill:none;stroke:#000000;stroke-width:24;stroke-miterlimit:10;}
	.st1{fill:#F9D500;}
	.st2{fill:#FFFFFF;}
	.st3{fill:none;stroke:#000000;stroke-width:5.625;stroke-miterlimit:10;}
	.st4{fill:none;stroke:#000000;stroke-width:5.625;stroke-linecap:round;stroke-miterlimit:10;}
	.st5{fill:none;stroke:#000000;stroke-width:16;stroke-miterlimit:10;}
	.st6{fill:none;stroke:#000000;stroke-width:6;stroke-miterlimit:10;}
	.st7{fill:#FFFFFF;stroke:#000000;stroke-width:24;stroke-miterlimit:10;}
	.st8{fill:#FFFFFF;stroke:#000000;stroke-width:16;stroke-miterlimit:10;}
	.st9{fill:none;stroke:#000000;stroke-width:24;stroke-miterlimit:10;stroke-dasharray:31.2518,41.669;}
	.st10{fill:none;stroke:#000000;stroke-width:16;stroke-miterlimit:10;stroke-dasharray:19.8448,39.6897;}
	.st11{fill:none;stroke:#000000;stroke-width:16;stroke-miterlimit:10;stroke-dasharray:31.2518,41.669;}
	.st12{fill:#FFF4B0;}
	.st13{fill:#BDF4AB;}
	.st14{fill:#91ED77;}
	.st15{fill:#75D05C;}
	.st16{fill:#5AB441;}
	.st17{fill:#B0DAFF;}
	.st18{fill:#7BB6F7;}
	.st19{fill:#5E9BDA;}
	.st20{fill:#4182BE;}
	.st21{fill:none;}
	.st22{fill:#D7BE3C;}
	.st23{fill:#F4D857;}
</style>
<g id="outlines">
	<circle class="outlineOne" cx="213.2" cy="180.7" r="36.8"/>
	<polyline class="outlineOne" points="22.9,200.8 42.8,181 23,161 	"/>
	<polyline class="outlineOne" points="47.3,200.8 67.3,181 47.5,161 	"/>
	<line class="outlineOne" x1="213.6" y1="180.9" x2="42.9" y2="180.9"/>
	<circle class="outlineOne" cx="213.2" cy="180.7" r="116.9"/>
	<circle class="outlineOne" cx="213.2" cy="180.7" r="78"/>
</g>
<g id="fills">
	<polygon class="colorThree" points="4,203.4 26,181.1 4.2,158.5 25.2,158.5 47,181.1 25,203.8 	"/>
	<polygon class="colorTwo" points="24.4,203.4 46.4,181.1 24.6,158.5 49.5,158.5 71.4,181.1 49.3,203.8 	"/>
	<path class="colorThree" d="M213.1,58.9c-67.1,0-121.7,54.6-121.7,121.7c0,67.1,54.6,121.7,121.7,121.7
		c67.1,0,121.7-54.6,121.7-121.7C334.8,113.5,280.2,58.9,213.1,58.9z"/>
	<path class="colorTwo" d="M213.1,98.5c-45.3,0-82.2,36.9-82.2,82.2c0,45.3,36.9,82.2,82.2,82.2c45.3,0,82.2-36.9,82.2-82.2
		C295.2,135.3,258.4,98.5,213.1,98.5z"/>
	<path class="colorOne" d="M213.1,140.4c-22.2,0-40.3,18.1-40.3,40.3c0,22.2,18.1,40.3,40.3,40.3c22.2,0,40.3-18.1,40.3-40.3
		C253.3,158.4,235.3,140.4,213.1,140.4z"/>
	<path class="colorOne" d="M213.5,178H39.9c-1.6,0-2.9,1.3-2.9,2.9s1.3,2.9,2.9,2.9h173.6c1.6,0,2.9-1.3,2.9-2.9
		S215.1,178,213.5,178z"/>
</g>
</svg>
