<?xml version="1.0" encoding="utf-8"?>
<!-- Generator: Adobe Illustrator 19.2.1, SVG Export Plug-In . SVG Version: 6.00 Build 0)  -->
<svg version="1.1" xmlns="http://www.w3.org/2000/svg" xmlns:xlink="http://www.w3.org/1999/xlink" x="0px" y="0px"
	 viewBox="0 0 360 360" style="enable-background:new 0 0 360 360;" xml:space="preserve">
<style type="text/css">
	.colorOne{fill:#D7BE3C;}
	.colorTwo{fill:#F4D857;}
	.colorFour{fill:#FFF4B0;}
	.outlineOne{fill:none;stroke:#000000;stroke-width:6;stroke-miterlimit:10;}
	.st0{fill:none;stroke:#000000;stroke-width:24;stroke-miterlimit:10;}
	.st1{fill:#F9D500;}
	.st2{fill:#FFFFFF;}
	.st3{fill:none;stroke:#000000;stroke-width:5.625;stroke-miterlimit:10;}
	.st4{fill:none;stroke:#000000;stroke-width:5.625;stroke-linecap:round;stroke-miterlimit:10;}
	.st5{fill:none;stroke:#000000;stroke-width:16;stroke-miterlimit:10;}
	.st6{fill:none;stroke:#000000;stroke-width:6;stroke-miterlimit:10;}
	.st7{fill:#FFFFFF;stroke:#000000;stroke-width:24;stroke-miterlimit:10;}
	.st8{fill:#FFFFFF;stroke:#000000;stroke-width:16;stroke-miterlimit:10;}
	.st9{fill:none;stroke:#000000;stroke-width:24;stroke-miterlimit:10;stroke-dasharray:31.2518,41.669;}
	.st10{fill:none;stroke:#000000;stroke-width:16;stroke-miterlimit:10;stroke-dasharray:19.8448,39.6897;}
	.st11{fill:none;stroke:#000000;stroke-width:16;stroke-miterlimit:10;stroke-dasharray:31.2518,41.669;}
	.st12{fill:#FFF573;}
	.st13{fill:#BDF4AB;}
	.st14{fill:#91ED77;}
	.st15{fill:#75D05C;}
	.st16{fill:#5AB441;}
	.st17{fill:#B0DAFF;}
	.st18{fill:#7BB6F7;}
	.st19{fill:#5E9BDA;}
	.st20{fill:#4182BE;}
	.st21{fill:none;}
	.st22{fill:#D7BE3C;}
	.st23{fill:#F4D857;}
	.st24{fill:#FFF4B0;}
</style>
<g id="outlines">
	<path class="outlineOne" d="M140.2,239.1l-79.8,21.4V100.6l79.7-21.4c0,0,0.1,0,0.1,0.1V239.1z"/>
	<path class="outlineOne" d="M219.9,281.8l-79.7-42.8V79.3c0,0,0-0.1,0.1,0L220,122L219.9,281.8C220,281.8,220,281.9,219.9,281.8z"
		/>
	<path class="outlineOne" d="M299.8,260.5l-79.7,21.4c0,0-0.1,0-0.1-0.1V122l79.8-21.4V260.5z"/>
</g>
<g id="fills">
	<polygon class="colorTwo" points="142.7,78.2 140.4,76.5 57.1,98.8 57.1,264.8 142.7,241.9 142.7,79.6 	"/>
	<polygon class="colorOne" points="141.3,77.1 139.8,76.3 137,78 137,241.4 218.4,285.1 219.9,285.8 222.7,284.1 222.7,120.8 	"/>
	<polygon class="colorFour" points="217,117.7 217,282.5 217.1,284 219.3,285.7 302.7,263.3 302.7,97.4 	"/>
</g>
</svg>
