<?xml version="1.0" encoding="utf-8"?>
<!-- Generator: Adobe Illustrator 19.2.1, SVG Export Plug-In . SVG Version: 6.00 Build 0)  -->
<svg version="1.1" xmlns="http://www.w3.org/2000/svg" xmlns:xlink="http://www.w3.org/1999/xlink" x="0px" y="0px"
	 viewBox="0 0 360 360" style="enable-background:new 0 0 360 360;" xml:space="preserve">
<style type="text/css">
	.colorOne{fill:#D7BE3C;}
	.colorTwo{fill:#F4D857;}
	.colorThree{fill:#FFF573;}
	.colorFour{fill:#FFF4B0;}
	.outlineOne{fill:none;stroke:#000000;stroke-width:6;stroke-miterlimit:10;}
	.st0{fill:none;stroke:#000000;stroke-width:24;stroke-miterlimit:10;}
	.st1{fill:#F9D500;}
	.st2{fill:#FFFFFF;}
	.st3{fill:none;stroke:#000000;stroke-width:5.625;stroke-miterlimit:10;}
	.st4{fill:none;stroke:#000000;stroke-width:5.625;stroke-linecap:round;stroke-miterlimit:10;}
	.st5{fill:none;stroke:#000000;stroke-width:16;stroke-miterlimit:10;}
	.st6{fill:none;stroke:#000000;stroke-width:6;stroke-miterlimit:10;}
	.st7{fill:#FFFFFF;stroke:#000000;stroke-width:24;stroke-miterlimit:10;}
	.st8{fill:#FFFFFF;stroke:#000000;stroke-width:16;stroke-miterlimit:10;}
	.st9{fill:none;stroke:#000000;stroke-width:24;stroke-miterlimit:10;stroke-dasharray:31.2518,41.669;}
	.st10{fill:none;stroke:#000000;stroke-width:16;stroke-miterlimit:10;stroke-dasharray:19.8448,39.6897;}
	.st11{fill:none;stroke:#000000;stroke-width:16;stroke-miterlimit:10;stroke-dasharray:31.2518,41.669;}
	.st12{fill:#BDF4AB;}
	.st13{fill:#91ED77;}
	.st14{fill:#75D05C;}
	.st15{fill:#5AB441;}
	.st16{fill:#B0DAFF;}
	.st17{fill:#7BB6F7;}
	.st18{fill:#5E9BDA;}
	.st19{fill:#4182BE;}
	.st20{fill:none;}
	.st21{fill:#D7BE3C;}
	.st22{fill:#F4D857;}
	.st23{fill:#FFF4B0;}
</style>
<g id="outlines">
	<path class="outlineOne" d="M320.6,199.7v-39.4l-30-2c-2.9-15-8.8-29-17.1-41.2l19.8-22.6l-27.9-27.9l-22.6,19.8
		c-12.2-8.3-26.2-14.2-41.2-17.1l-2-30h-39.4l-2,30c-15,2.9-29,8.8-41.2,17.1L94.5,66.6L66.6,94.5l19.8,22.6
		c-8.3,12.2-14.2,26.2-17.1,41.2l-30,2v39.4l30,2c2.9,15,8.8,29,17.1,41.2l-19.8,22.6l27.9,27.9l22.6-19.8
		c12.2,8.3,26.2,14.2,41.2,17.1l2,30h39.4l2-30c15-2.9,29-8.8,41.2-17.1l22.6,19.8l27.9-27.9l-19.8-22.6
		c8.3-12.2,14.2-26.2,17.1-41.2L320.6,199.7z M180,217.9c-20.9,0-37.9-17-37.9-37.9s17-37.9,37.9-37.9c20.9,0,37.9,17,37.9,37.9
		S200.9,217.9,180,217.9z"/>
	<circle class="outlineOne" cx="180" cy="180" r="37.9"/>
</g>
<g id="fills">
	<path class="colorOne" d="M157.5,323.6l-2-30.5c-13.6-2.9-26.4-8.2-38.1-15.8l-23,20.2l-31.8-31.8l20.2-23
		c-7.6-11.7-12.9-24.5-15.8-38.1l-30.5-2v-45l30.5-2c2.9-13.6,8.2-26.4,15.8-38.1l-20.2-23l31.8-31.8l23,20.2
		c11.7-7.6,24.5-12.9,38.1-15.8l2-30.5h45l2,30.5c13.6,2.9,26.4,8.2,38.1,15.8l23-20.2l31.8,31.8l-20.2,23
		c7.6,11.7,12.9,24.5,15.8,38.1l30.5,2v45l-30.5,2c-2.9,13.6-8.2,26.4-15.8,38.1l20.2,23l-31.8,31.8l-23-20.2
		c-11.7,7.6-24.5,12.9-38.1,15.8l-2,30.5H157.5z"/>
	<circle class="colorTwo" cx="180" cy="180" r="104.3"/>
	<circle class="colorThree" cx="180" cy="180" r="91.5"/>
	<circle class="colorTwo" cx="180" cy="180" r="59.6"/>
	<circle class="colorFour" cx="180" cy="180" r="37.9"/>
</g>
</svg>
