<?xml version="1.0" encoding="utf-8"?>
<!-- Generator: Adobe Illustrator 19.2.1, SVG Export Plug-In . SVG Version: 6.00 Build 0)  -->
<svg version="1.1" xmlns="http://www.w3.org/2000/svg" xmlns:xlink="http://www.w3.org/1999/xlink" x="0px" y="0px"
	 viewBox="0 0 360 360" style="enable-background:new 0 0 360 360;" xml:space="preserve">
<style type="text/css">
	.colorOne{fill:#D7BE3C;}
	.colorTwo{fill:#F4D857;}
	.colorThree{fill:#FFF573;}
	.colorFour{fill:#FFF4B0;}
	.outlineOne{fill:none;stroke:#000000;stroke-width:6;stroke-miterlimit:10;}
	.st0{fill:none;stroke:#000000;stroke-width:24;stroke-miterlimit:10;}
	.st1{fill:#F9D500;}
	.st2{fill:#FFFFFF;}
	.st3{fill:none;stroke:#000000;stroke-width:5.625;stroke-miterlimit:10;}
	.st4{fill:none;stroke:#000000;stroke-width:5.625;stroke-linecap:round;stroke-miterlimit:10;}
	.st5{fill:none;stroke:#000000;stroke-width:16;stroke-miterlimit:10;}
	.st6{fill:none;stroke:#000000;stroke-width:6;stroke-miterlimit:10;}
	.st7{fill:#FFFFFF;stroke:#000000;stroke-width:24;stroke-miterlimit:10;}
	.st8{fill:#FFFFFF;stroke:#000000;stroke-width:16;stroke-miterlimit:10;}
	.st9{fill:none;stroke:#000000;stroke-width:24;stroke-miterlimit:10;stroke-dasharray:31.2518,41.669;}
	.st10{fill:none;stroke:#000000;stroke-width:16;stroke-miterlimit:10;stroke-dasharray:19.8448,39.6897;}
	.st11{fill:none;stroke:#000000;stroke-width:16;stroke-miterlimit:10;stroke-dasharray:31.2518,41.669;}
	.st12{fill:#BDF4AB;}
	.st13{fill:#91ED77;}
	.st14{fill:#75D05C;}
	.st15{fill:#5AB441;}
	.st16{fill:#B0DAFF;}
	.st17{fill:#7BB6F7;}
	.st18{fill:#5E9BDA;}
	.st19{fill:#4182BE;}
	.st20{fill:none;}
	.st21{fill:#D7BE3C;}
	.st22{fill:#F4D857;}
	.st23{fill:#FFF4B0;}
</style>
<g id="outlines">
	<path class="outlineOne" d="M59.4,183.8c-27.4-27.4-27.4-71.9,0-99.2C72.6,71.3,90.2,64,109,64s36.4,7.3,49.6,20.5l120.4,120.4
		l-99.2,99.2L59.4,183.8z"/>
	<path class="outlineOne" d="M80.8,204.9L201.1,84.6C214.4,71.3,232,64,250.7,64c18.7,0,36.4,7.3,49.6,20.5
		c27.4,27.4,27.4,71.9,0,99.2L180,304.1L80.8,204.9z"/>
</g>
<g id="fills">
	<path class="colorFour" d="M160.9,82.2c-14.3-14.3-33.1-21.5-51.9-21.5c-18.8,0-37.6,7.2-51.9,21.5c-28.7,28.7-28.7,75.2,0,103.9
		l19.1,18.8l103.8-103.7L160.9,82.2z"/>
	
		<rect x="135.7" y="202.6" transform="matrix(0.7071 -0.7071 0.7071 0.7071 -121.788 199.4523)" class="colorOne" width="88.3" height="88.3"/>
	<polygon class="colorTwo" points="179.9,184.3 242,246.5 283.6,204.9 179.9,101.2 76.1,204.9 117.7,246.5 	"/>
	<path class="colorThree" d="M302.7,82.2c-14.3-14.3-33.1-21.5-51.9-21.5c-18.8,0-37.6,7.2-51.9,21.5l-18.9,18.9l103.7,103.7
		l19.1-18.8C331.4,157.4,331.4,110.9,302.7,82.2z"/>
</g>
</svg>
