<?xml version="1.0" encoding="utf-8"?>
<!-- Generator: Adobe Illustrator 19.2.1, SVG Export Plug-In . SVG Version: 6.00 Build 0)  -->
<svg version="1.1" xmlns="http://www.w3.org/2000/svg" xmlns:xlink="http://www.w3.org/1999/xlink" x="0px" y="0px"
	 viewBox="0 0 360 360" style="enable-background:new 0 0 360 360;" xml:space="preserve">
<style type="text/css">
	.colorOne{fill:#D7BE3C;}
	.colorTwo{fill:#F4D857;}
	.colorThree{fill:#FFF573;}
	.colorFour{fill:#FFF4B0;}
	.outlineOne{fill:none;stroke:#000000;stroke-width:6;stroke-miterlimit:10;}
	.st0{fill:none;stroke:#000000;stroke-width:24;stroke-miterlimit:10;}
	.st1{fill:#F9D500;}
	.st2{fill:#FFFFFF;}
	.st3{fill:none;stroke:#000000;stroke-width:5.625;stroke-miterlimit:10;}
	.st4{fill:none;stroke:#000000;stroke-width:5.625;stroke-linecap:round;stroke-miterlimit:10;}
	.st5{fill:none;stroke:#000000;stroke-width:16;stroke-miterlimit:10;}
	.st6{fill:none;stroke:#000000;stroke-width:6;stroke-miterlimit:10;}
	.st7{fill:#FFFFFF;stroke:#000000;stroke-width:24;stroke-miterlimit:10;}
	.st8{fill:#FFFFFF;stroke:#000000;stroke-width:16;stroke-miterlimit:10;}
	.st9{fill:none;stroke:#000000;stroke-width:24;stroke-miterlimit:10;stroke-dasharray:31.2518,41.669;}
	.st10{fill:none;stroke:#000000;stroke-width:16;stroke-miterlimit:10;stroke-dasharray:19.8448,39.6897;}
	.st11{fill:none;stroke:#000000;stroke-width:16;stroke-miterlimit:10;stroke-dasharray:31.2518,41.669;}
	.st12{fill:#BDF4AB;}
	.st13{fill:#91ED77;}
	.st14{fill:#75D05C;}
	.st15{fill:#5AB441;}
	.st16{fill:#B0DAFF;}
	.st17{fill:#7BB6F7;}
	.st18{fill:#5E9BDA;}
	.st19{fill:#4182BE;}
	.st20{fill:none;}
	.st21{fill:#D7BE3C;}
	.st22{fill:#F4D857;}
	.st23{fill:#FFF4B0;}
</style>
<g id="outlines">
	<polyline class="outlineOne" points="282,278.4 115.5,113.4 27.8,278.4 	"/>
	<polyline class="outlineOne" points="229,226.4 276,179.6 330.8,267.6 	"/>
	<rect x="25.3" y="89.6" class="outlineOne" width="305.5" height="188.8"/>
</g>
<g id="fills">
	<path class="colorThree" d="M22.3,86.6v89.1l1.1-0.9c39.3-31.6,95.6-49.7,154.6-49.7s115.3,18.1,154.6,49.7l1.1,0.9V86.6H22.3z"/>
	<path class="colorFour" d="M178.1,125.1c-59,0-115.3,18.1-154.6,49.7l-1.1,0.9v7.7v98h311.5v-3V175.7l-1.1-0.9
		C293.4,143.2,237.1,125.1,178.1,125.1z"/>
	<g>
		
			<rect x="135.9" y="278.4" transform="matrix(0.9899 -0.1415 0.1415 0.9899 -38.0326 22.4618)" class="st20" width="6" height="0.3"/>
	</g>
	<polygon class="colorTwo" points="276.6,174.8 274.8,187.8 265.3,257.7 289.2,281.4 333.8,281.4 333.8,266.7 	"/>
	<polygon class="colorOne" points="265.3,257.7 274.8,187.8 276.6,174.8 229.2,221.9 	"/>
	<polygon class="colorTwo" points="229.2,221.9 114.7,108.5 136.3,281.4 280.7,281.4 289.2,281.4 265.3,257.7 	"/>
	<g>
		<g>
			<polygon class="colorOne" points="22.8,281.4 114.7,108.5 136.3,281.4 			"/>
		</g>
		<g>
			<polygon class="colorOne" points="22.8,281.4 114.7,108.5 136.3,281.4 			"/>
		</g>
	</g>
</g>
</svg>
