<?xml version="1.0" encoding="utf-8"?>
<!-- Generator: Adobe Illustrator 19.2.1, SVG Export Plug-In . SVG Version: 6.00 Build 0)  -->
<svg version="1.1" xmlns="http://www.w3.org/2000/svg" xmlns:xlink="http://www.w3.org/1999/xlink" x="0px" y="0px"
	 viewBox="0 0 1024 1024" style="enable-background:new 0 0 1024 1024;" xml:space="preserve">
<style type="text/css">
	.st0{fill:none;stroke:#000000;stroke-width:24;stroke-miterlimit:10;}
	.st1{fill:#F9D500;}
	.st2{fill:none;stroke:#000000;stroke-width:6;stroke-miterlimit:10;}
	.st3{fill:#FFFFFF;}
	.st4{fill:none;stroke:#000000;stroke-width:5.625;stroke-miterlimit:10;}
	.st5{fill:none;stroke:#000000;stroke-width:5.625;stroke-linecap:round;stroke-miterlimit:10;}
	.st6{fill:none;stroke:#000000;stroke-width:16;stroke-miterlimit:10;}
	.st7{fill:#FFFFFF;stroke:#000000;stroke-width:24;stroke-miterlimit:10;}
	.st8{fill:#FFFFFF;stroke:#000000;stroke-width:16;stroke-miterlimit:10;}
	.st9{fill:none;stroke:#000000;stroke-width:24;stroke-miterlimit:10;stroke-dasharray:31.2518,41.669;}
	.st10{fill:none;stroke:#000000;stroke-width:16;stroke-miterlimit:10;stroke-dasharray:19.8448,39.6897;}
	.st11{fill:none;stroke:#000000;stroke-width:16;stroke-miterlimit:10;stroke-dasharray:31.2518,41.669;}
	.st12{fill:#FFF4B0;}
	.st13{fill:#D7BE3C;}
	.st14{fill:#F4D857;}
	.st15{fill:#FFF573;}
	.st16{fill:#BDF4AB;}
	.st17{fill:#91ED77;}
	.st18{fill:#75D05C;}
	.st19{fill:#5AB441;}
	.st20{fill:#B0DAFF;}
	.st21{fill:#7BB6F7;}
	.st22{fill:#5E9BDA;}
	.st23{fill:#4182BE;}
	.st24{fill:none;}
</style>
<g id="outlines">
	<circle class="st7" cx="512" cy="512" r="356.2"/>
	<g>
		<rect x="207.1" y="217" class="st7" width="420.2" height="359.4"/>
		<line class="st0" x1="207.1" y1="290.5" x2="627.3" y2="290.5"/>
		<g>
			<path d="M240,243.2c-4.8,0-8.6,3.9-8.6,8.6s3.9,8.6,8.6,8.6c4.8,0,8.6-3.9,8.6-8.6S244.7,243.2,240,243.2L240,243.2z"/>
		</g>
		<g>
			<path d="M269.2,243.2c-4.8,0-8.6,3.9-8.6,8.6s3.9,8.6,8.6,8.6s8.6-3.9,8.6-8.6S273.9,243.2,269.2,243.2L269.2,243.2z"/>
		</g>
		<g>
			<path d="M298.3,243.2c-4.8,0-8.6,3.9-8.6,8.6s3.9,8.6,8.6,8.6c4.8,0,8.6-3.9,8.6-8.6S303.1,243.2,298.3,243.2L298.3,243.2z"/>
		</g>
	</g>
	<g>
		<g>
			<polygon class="st3" points="811,777.4 705.4,671.8 806.1,607.2 448.5,443.5 612.2,801.1 674.3,704.2 779.2,809.2 			"/>
		</g>
		<g>
			<polygon class="st0" points="811,777.4 705.4,671.8 806.1,607.2 448.5,443.5 612.2,801.1 674.3,704.2 779.2,809.2 			"/>
		</g>
	</g>
</g>
<g id="fills">
</g>
</svg>
