<?xml version="1.0" encoding="utf-8"?>
<!-- Generator: Adobe Illustrator 19.2.1, SVG Export Plug-In . SVG Version: 6.00 Build 0)  -->
<svg version="1.1" xmlns="http://www.w3.org/2000/svg" xmlns:xlink="http://www.w3.org/1999/xlink" x="0px" y="0px"
	 viewBox="0 0 360 360" style="enable-background:new 0 0 360 360;" xml:space="preserve">
<style type="text/css">
	.colorTwo{fill:#F4D857;}
	.colorThree{fill:#FFF573;}
	.outlineOne{fill:none;stroke:#000000;stroke-width:6;stroke-miterlimit:10;}
	.st0{fill:none;stroke:#000000;stroke-width:24;stroke-miterlimit:10;}
	.st1{fill:#F9D500;}
	.st2{fill:#FFFFFF;}
	.st3{fill:none;stroke:#000000;stroke-width:5.625;stroke-miterlimit:10;}
	.st4{fill:none;stroke:#000000;stroke-width:5.625;stroke-linecap:round;stroke-miterlimit:10;}
	.st5{fill:none;stroke:#000000;stroke-width:16;stroke-miterlimit:10;}
	.st6{fill:none;stroke:#000000;stroke-width:6;stroke-miterlimit:10;}
	.st7{fill:#FFFFFF;stroke:#000000;stroke-width:24;stroke-miterlimit:10;}
	.st8{fill:#FFFFFF;stroke:#000000;stroke-width:16;stroke-miterlimit:10;}
	.st9{fill:none;stroke:#000000;stroke-width:24;stroke-miterlimit:10;stroke-dasharray:31.2518,41.669;}
	.st10{fill:none;stroke:#000000;stroke-width:16;stroke-miterlimit:10;stroke-dasharray:19.8448,39.6897;}
	.st11{fill:none;stroke:#000000;stroke-width:16;stroke-miterlimit:10;stroke-dasharray:31.2518,41.669;}
	.st12{fill:#FFF4B0;}
	.st13{fill:#D7BE3C;}
	.st14{fill:#BDF4AB;}
	.st15{fill:#91ED77;}
	.st16{fill:#75D05C;}
	.st17{fill:#5AB441;}
	.st18{fill:#B0DAFF;}
	.st19{fill:#7BB6F7;}
	.st20{fill:#5E9BDA;}
	.st21{fill:#4182BE;}
	.st22{fill:none;}
	.st23{fill:#F4D857;}
</style>
<g id="outlines">
	<polyline class="outlineOne" points="236.7,221.6 254.8,203.6 236.8,185.5 	"/>
	<polyline class="outlineOne" points="123,147.2 104.9,165.1 122.8,183.2 	"/>
	<rect x="49.4" y="68.2" class="outlineOne" width="111.6" height="223.6"/>
	<rect x="199" y="68.2" class="outlineOne" width="111.6" height="223.6"/>
	<line class="outlineOne" x1="199" y1="165.2" x2="104.8" y2="165.2"/>
	<line class="outlineOne" x1="160.7" y1="203.6" x2="254.9" y2="203.6"/>
</g>
<g id="fills">
	<rect x="46.4" y="65.2" class="colorTwo" width="117.6" height="229.6"/>
	<rect x="196" y="65.2" class="colorThree" width="117.6" height="229.6"/>
	<polygon class="colorThree" points="199,162.2 112.1,162.2 125.1,149.4 120.9,145.1 100.6,165.1 120.7,185.4 124.9,181.1 
		112.2,168.2 199,168.2 	"/>
	<polygon class="colorTwo" points="239,183.4 234.7,187.7 247.5,200.6 160.7,200.6 160.7,206.6 247.6,206.6 234.6,219.4 
		238.8,223.7 259,203.7 	"/>
</g>
</svg>
