<?xml version="1.0" encoding="utf-8"?>
<!-- Generator: Adobe Illustrator 19.2.1, SVG Export Plug-In . SVG Version: 6.00 Build 0)  -->
<svg version="1.1" id="Layer_1" xmlns="http://www.w3.org/2000/svg" xmlns:xlink="http://www.w3.org/1999/xlink" x="0px" y="0px"
	 viewBox="0 0 247.4 75.9" style="enable-background:new 0 0 247.4 75.9;" xml:space="preserve">
<style type="text/css">
	.Drop_x0020_Shadow{fill:none;}
	.Outer_x0020_Glow_x0020_5_x0020_pt{fill:none;}
	.Blue_x0020_Neon{fill:none;stroke:#8AACDA;stroke-width:7;stroke-linecap:round;stroke-linejoin:round;}
	.Chrome_x0020_Highlight{fill:url(#SVGID_1_);stroke:#FFFFFF;stroke-width:0.3629;stroke-miterlimit:1;}
	.Jive_GS{fill:#FFDD00;}
	.Alyssa_GS{fill:#A6D0E4;}
</style>
<linearGradient id="SVGID_1_" gradientUnits="userSpaceOnUse" x1="0" y1="0" x2="4.489659e-11" y2="-1">
	<stop  offset="0" style="stop-color:#656565"/>
	<stop  offset="0.618" style="stop-color:#1B1B1B"/>
	<stop  offset="0.6292" style="stop-color:#545454"/>
	<stop  offset="0.9831" style="stop-color:#3E3E3E"/>
</linearGradient>
<path d="M135.8,23.5h4.1v2.6c0,1.3-0.3,2.3-1,3c-0.7,0.7-1.8,1.2-3.5,1.2c-1.7,0-2.8-0.5-3.5-1.2c-0.7-0.7-1-1.8-1-3V11.3
	c0-1.3,0.3-2.3,1-3c0.7-0.7,1.8-1.2,3.5-1.2c1.7,0,2.8,0.5,3.5,1.2c0.7,0.7,1,1.8,1,3v3.2h4.1v-3.8c0-2.3-0.7-4.3-2.1-5.7
	c-1.4-1.4-3.6-2.3-6.4-2.3c-2.9,0-5,0.8-6.4,2.3c-1.4,1.4-2.1,3.5-2.1,5.7v16.1c0,2.3,0.7,4.3,2.1,5.7c1.4,1.5,3.6,2.3,6.4,2.3
	c2.3,0,4.1-0.5,5.5-1.5l0.1,1.2l2.9,0V19.1h-8.1V23.5z"/>
<path d="M157.7,34.8c2.9,0,5-0.8,6.4-2.3c1.4-1.4,2.1-3.5,2.1-5.7V10.7c0-2.3-0.7-4.3-2.1-5.7c-1.4-1.4-3.6-2.3-6.4-2.3
	c-2.9,0-5,0.8-6.4,2.3c-1.4,1.4-2.1,3.5-2.1,5.7v16.1c0,2.3,0.7,4.3,2.1,5.7C152.7,34,154.8,34.8,157.7,34.8z M153.2,11.3
	c0-1.3,0.3-2.3,1-3c0.7-0.7,1.8-1.2,3.5-1.2c1.7,0,2.8,0.5,3.5,1.2c0.7,0.7,1,1.8,1,3v14.8c0,1.3-0.3,2.3-1,3
	c-0.7,0.7-1.8,1.2-3.5,1.2c-1.7,0-2.8-0.5-3.5-1.2c-0.7-0.7-1-1.8-1-3V11.3z"/>
<polygon points="184.2,30 175.2,30 175.2,3 171.1,3 171.1,34.4 184.4,34.4 "/>
<path d="M205.2,11.1c0-2.3-0.7-4.3-2.1-5.7c-1.4-1.4-3.6-2.3-6.4-2.3c-1.2,0-8.6,0-8.6,0v31.4c0,0,7.2,0,8.6,0c2.9,0,5-0.8,6.4-2.3
	c1.4-1.4,2.1-3.5,2.1-5.7V11.1z M201.2,25.7c0,1.3-0.3,2.3-1,3c-0.7,0.7-1.8,1.2-3.5,1.2c-1.4,0-3.7,0-4.5,0V7.5c0.9,0,3.3,0,4.5,0
	c1.7,0,2.8,0.5,3.5,1.2c0.7,0.7,1,1.8,1,3V25.7z"/>
<polygon points="213.9,30 213.9,20.1 222,20.1 222.2,15.6 213.9,15.6 213.9,7.5 223.6,7.5 224,3 209.9,3 209.9,34.4 224.4,34.4 
	224.2,30 "/>
<polygon points="241.2,3 241.2,24.5 232.1,3 228.2,3 228.2,34.4 232.2,34.4 232.2,13 241.3,34.4 245.3,34.4 245.3,3 "/>
<path d="M134.9,54.4c-1.1-0.7-2.1-1.5-2.8-2.2c-0.7-0.8-1.1-1.5-1.1-2.4c0-1.3,0.3-2.3,0.9-3c0.6-0.7,1.7-1.2,3.4-1.2
	c1.7,0,2.8,0.5,3.5,1.2c0.7,0.7,1,1.8,1,3v0.4l4.1-0.8v-0.3c0-2.3-0.7-4.3-2.1-5.7c-1.4-1.4-3.6-2.3-6.4-2.3c-2.4,0-4.5,0.6-6,2.1
	c-1.5,1.4-2.4,3.7-2.4,6.8c0,2.1,0.9,3.7,2.1,5c1.9,2,4.6,3.4,6.9,4.8c1.1,0.7,2.1,1.5,2.8,2.3c0.7,0.8,1.1,1.7,1.1,2.8
	c0,1.2-0.3,2.2-1,2.9c-0.7,0.7-1.8,1.1-3.4,1.1c-1.7,0-2.8-0.5-3.5-1.2c-0.7-0.7-1-1.8-1-3v-0.4l-4,0.8v0.3c0,2.3,0.7,4.3,2.1,5.7
	c1.4,1.5,3.6,2.3,6.4,2.3c2.2,0,4.4-0.6,6-2c1.6-1.4,2.6-3.5,2.6-6.5c0-2.1-0.9-3.8-2.1-5.2C139.9,57.4,137.1,55.9,134.9,54.4z"/>
<path d="M158.7,41.9c-1.1,0-9.2,0-9.2,0v31.4l4.1,0V60.7c1.8,0,4.4,0,5.2,0c2.9,0,5-0.8,6.4-2.3c1.4-1.4,2.1-3.5,2.1-5.7v-2.7
	c0-2.3-0.7-4.3-2.1-5.7C163.7,42.8,161.5,41.9,158.7,41.9z M163.2,52c0,1.3-0.3,2.3-1,3c-0.7,0.7-1.8,1.2-3.5,1.2
	c-0.4,0-3.5,0-5.2,0v-9.9c1,0,4,0,5.2,0c1.7,0,2.8,0.5,3.5,1.2c0.7,0.7,1,1.8,1,3V52z"/>
<rect x="172" y="41.9" width="4.1" height="31.4"/>
<path d="M199.6,56.8c0.6-1.2,0.9-2.6,0.9-4.1v-2.7c0-2.3-0.7-4.3-2.1-5.7c-1.4-1.4-3.6-2.3-6.4-2.3l-9.7,0v31.4l4.1,0V60.7
	c0,0,4.8,0,5.6,0c0.4,0,0.7,0,1.1-0.1l3.7,12.6h4.4L197,59.5C198.2,58.8,199,57.9,199.6,56.8z M196.5,52c0,1.3-0.3,2.3-1,3
	c-0.7,0.7-1.8,1.2-3.5,1.2c-0.4,0-5.6,0-5.6,0v-9.9c0,0,4.5,0,5.6,0c1.7,0,2.8,0.5,3.5,1.2c0.7,0.7,1,1.8,1,3V52z"/>
<path d="M211.9,41.9l-7.5,31.4h4.1l2-9.1h7l2,9.1h4.1l-7.5-31.4H211.9z M211.5,59.8l2.5-11.1l2.5,11.1H211.5z"/>
<polygon points="232.2,68.8 232.2,41.9 228.2,41.9 228.2,73.3 241.8,73.3 241.6,68.8 "/>
<path d="M2,74h116.5V2H2V74z M15,54.4c0.5-2.8,1.3-5.6,2.3-8.3c4.3-11.6,12.5-21.6,23.2-28.1c5.4-3.3,11.3-5.7,17.4-7
	c6.4-1.4,13.2-1.9,19.6-0.5C89.8,13.1,100,22,104,33.5c1.9,5.6,2.7,12,0.9,17.8c-1.8,5.7-6,10.6-11.4,13.3
	C88,67.5,80.8,68.3,75.3,65c-4.8-2.9-8.1-8.9-6.7-14.5c0.7-2.7,2.6-5.1,5.3-6.2c2-0.9,4.6-1.1,6.6-0.1c2.3,1.2,4.1,4.4,2.5,6.8
	c-0.4,0.5-0.9,1-1.5,1.2c-0.4,0.1-1.4,0.3-1.6-0.2c-0.1-0.3,0.8-1,1-1.2c0.3-0.4,0.3-0.8,0.2-1.3c0-0.6-0.6-1.3-1.1-1.7
	c-0.6-0.4-1.3-0.6-2-0.5c-0.8,0-2,0.6-2.7,1.1c-1.2,0.9-1.9,2.3-1.8,3.8c0,2.9,1.6,5.6,4,7.2c4.9,3.3,11.9,0.9,15.9-2.7
	c2.2-2,3.8-4.7,4.6-7.5c0.8-3.1,0.6-6.4-0.1-9.5c-1.3-5.7-4.5-11-9.1-14.8C84,21,78.1,18.6,72,18.3c-5.9-0.3-12,0.9-17.5,2.9
	C42.7,25.6,32.9,34.7,27.9,46c-1.7,3.8-2.8,7.7-3.4,11.8l0,0l0,0c-0.4,2.7-1.4,5.8-4,7.2c-1,0.6-2.2,0.7-3.3,0.2
	c-1.2-0.6-1.9-1.8-2.3-3C14,59.8,14.5,57,15,54.4z"/>
</svg>
