<?xml version="1.0" encoding="utf-8"?><svg width="248" height="131" viewBox="0 0 248 131" xmlns="http://www.w3.org/2000/svg" xmlns:xlink="http://www.w3.org/1999/xlink"><svg id="gs_logo" viewBox="0 0 247.4 75.9" width="247.4" height="75.9"><style>.Drop_x0020_Shadow,.Outer_x0020_Glow_x0020_5_x0020_pt{fill:none}.Blue_x0020_Neon{fill:none;stroke:#8aacda;stroke-width:7;stroke-linecap:round;stroke-linejoin:round}.Chrome_x0020_Highlight{fill:url(#aSVGID_1_);stroke:#FFF;stroke-width:.3629;stroke-miterlimit:1}.Jive_GS{fill:#FD0}.Alyssa_GS{fill:#a6d0e4}</style><linearGradient id="aSVGID_1_" gradientUnits="userSpaceOnUse" x2="0" y2="-1"><stop offset="0" stop-color="#656565"/><stop offset=".618" stop-color="#1b1b1b"/><stop offset=".629" stop-color="#545454"/><stop offset=".983" stop-color="#3e3e3e"/></linearGradient><path d="M135.8 23.5h4.1v2.6c0 1.3-.3 2.3-1 3-.7.7-1.8 1.2-3.5 1.2s-2.8-.5-3.5-1.2c-.7-.7-1-1.8-1-3V11.3c0-1.3.3-2.3 1-3 .7-.7 1.8-1.2 3.5-1.2s2.8.5 3.5 1.2c.7.7 1 1.8 1 3v3.2h4.1v-3.8c0-2.3-.7-4.3-2.1-5.7-1.4-1.4-3.6-2.3-6.4-2.3-2.9 0-5 .8-6.4 2.3-1.4 1.4-2.1 3.5-2.1 5.7v16.1c0 2.3.7 4.3 2.1 5.7 1.4 1.5 3.6 2.3 6.4 2.3 2.3 0 4.1-.5 5.5-1.5l.1 1.2h2.9V19.1h-8.1v4.4zM157.7 34.8c2.9 0 5-.8 6.4-2.3 1.4-1.4 2.1-3.5 2.1-5.7V10.7c0-2.3-.7-4.3-2.1-5.7-1.4-1.4-3.6-2.3-6.4-2.3-2.9 0-5 .8-6.4 2.3-1.4 1.4-2.1 3.5-2.1 5.7v16.1c0 2.3.7 4.3 2.1 5.7 1.4 1.5 3.5 2.3 6.4 2.3zm-4.5-23.5c0-1.3.3-2.3 1-3 .7-.7 1.8-1.2 3.5-1.2s2.8.5 3.5 1.2c.7.7 1 1.8 1 3v14.8c0 1.3-.3 2.3-1 3-.7.7-1.8 1.2-3.5 1.2s-2.8-.5-3.5-1.2c-.7-.7-1-1.8-1-3V11.3zM184.2 30h-9V3h-4.1v31.4h13.3zM205.2 11.1c0-2.3-.7-4.3-2.1-5.7-1.4-1.4-3.6-2.3-6.4-2.3h-8.6v31.4h8.6c2.9 0 5-.8 6.4-2.3 1.4-1.4 2.1-3.5 2.1-5.7V11.1zm-4 14.6c0 1.3-.3 2.3-1 3-.7.7-1.8 1.2-3.5 1.2h-4.5V7.5h4.5c1.7 0 2.8.5 3.5 1.2.7.7 1 1.8 1 3v14zM213.9 30v-9.9h8.1l.2-4.5h-8.3V7.5h9.7L224 3h-14.1v31.4h14.5l-.2-4.4zM241.2 3v21.5L232.1 3h-3.9v31.4h4V13l9.1 21.4h4V3zM134.9 54.4c-1.1-.7-2.1-1.5-2.8-2.2-.7-.8-1.1-1.5-1.1-2.4 0-1.3.3-2.3.9-3 .6-.7 1.7-1.2 3.4-1.2s2.8.5 3.5 1.2c.7.7 1 1.8 1 3v.4l4.1-.8v-.3c0-2.3-.7-4.3-2.1-5.7-1.4-1.4-3.6-2.3-6.4-2.3-2.4 0-4.5.6-6 2.1-1.5 1.4-2.4 3.7-2.4 6.8 0 2.1.9 3.7 2.1 5 1.9 2 4.6 3.4 6.9 4.8 1.1.7 2.1 1.5 2.8 2.3.7.8 1.1 1.7 1.1 2.8 0 1.2-.3 2.2-1 2.9-.7.7-1.8 1.1-3.4 1.1-1.7 0-2.8-.5-3.5-1.2-.7-.7-1-1.8-1-3v-.4l-4 .8v.3c0 2.3.7 4.3 2.1 5.7 1.4 1.5 3.6 2.3 6.4 2.3 2.2 0 4.4-.6 6-2 1.6-1.4 2.6-3.5 2.6-6.5 0-2.1-.9-3.8-2.1-5.2-2.1-2.3-4.9-3.8-7.1-5.3zM158.7 41.9h-9.2v31.4h4.1V60.7h5.2c2.9 0 5-.8 6.4-2.3 1.4-1.4 2.1-3.5 2.1-5.7V50c0-2.3-.7-4.3-2.1-5.7-1.5-1.5-3.7-2.4-6.5-2.4zm4.5 10.1c0 1.3-.3 2.3-1 3-.7.7-1.8 1.2-3.5 1.2h-5.2v-9.9h5.2c1.7 0 2.8.5 3.5 1.2.7.7 1 1.8 1 3V52zM172 41.9h4.1v31.4H172zM199.6 56.8c.6-1.2.9-2.6.9-4.1V50c0-2.3-.7-4.3-2.1-5.7-1.4-1.4-3.6-2.3-6.4-2.3h-9.7v31.4h4.1V60.7h5.6c.4 0 .7 0 1.1-.1l3.7 12.6h4.4L197 59.5c1.2-.7 2-1.6 2.6-2.7zm-3.1-4.8c0 1.3-.3 2.3-1 3-.7.7-1.8 1.2-3.5 1.2h-5.6v-9.9h5.6c1.7 0 2.8.5 3.5 1.2.7.7 1 1.8 1 3V52zM211.9 41.9l-7.5 31.4h4.1l2-9.1h7l2 9.1h4.1l-7.5-31.4h-4.2zm-.4 17.9l2.5-11.1 2.5 11.1h-5zM232.2 68.8V41.9h-4v31.4h13.6l-.2-4.5zM2 74h116.5V2H2v72zm13-19.6c.5-2.8 1.3-5.6 2.3-8.3C21.6 34.5 29.8 24.5 40.5 18c5.4-3.3 11.3-5.7 17.4-7 6.4-1.4 13.2-1.9 19.6-.5C89.8 13.1 100 22 104 33.5c1.9 5.6 2.7 12 .9 17.8-1.8 5.7-6 10.6-11.4 13.3-5.5 2.9-12.7 3.7-18.2.4-4.8-2.9-8.1-8.9-6.7-14.5.7-2.7 2.6-5.1 5.3-6.2 2-.9 4.6-1.1 6.6-.1 2.3 1.2 4.1 4.4 2.5 6.8-.4.5-.9 1-1.5 1.2-.4.1-1.4.3-1.6-.2-.1-.3.8-1 1-1.2.3-.4.3-.8.2-1.3 0-.6-.6-1.3-1.1-1.7-.6-.4-1.3-.6-2-.5-.8 0-2 .6-2.7 1.1-1.2.9-1.9 2.3-1.8 3.8 0 2.9 1.6 5.6 4 7.2 4.9 3.3 11.9.9 15.9-2.7 2.2-2 3.8-4.7 4.6-7.5.8-3.1.6-6.4-.1-9.5-1.3-5.7-4.5-11-9.1-14.8C84 21 78.1 18.6 72 18.3c-5.9-.3-12 .9-17.5 2.9C42.7 25.6 32.9 34.7 27.9 46c-1.7 3.8-2.8 7.7-3.4 11.8-.4 2.7-1.4 5.8-4 7.2-1 .6-2.2.7-3.3.2-1.2-.6-1.9-1.8-2.3-3-.9-2.4-.4-5.2.1-7.8z"/></svg><svg id="gs_vinn" viewBox="0 0 82.5 54.3" width="82.5" height="54.3" y="75.9"><style>.Drop_x0020_Shadow,.Outer_x0020_Glow_x0020_5_x0020_pt{fill:none}.Blue_x0020_Neon{fill:none;stroke:#8aacda;stroke-width:7;stroke-linecap:round;stroke-linejoin:round}.Chrome_x0020_Highlight{fill:url(#bSVGID_1_);stroke:#FFF;stroke-width:.3629;stroke-miterlimit:1}.Jive_GS{fill:#FD0}.Alyssa_GS{fill:#a6d0e4}</style><linearGradient id="bSVGID_1_" gradientUnits="userSpaceOnUse" y1="-138.204" x2="0" y2="-139.204"><stop offset="0" stop-color="#656565"/><stop offset=".618" stop-color="#1b1b1b"/><stop offset=".629" stop-color="#545454"/><stop offset=".983" stop-color="#3e3e3e"/></linearGradient><path d="M30.4 28.4c0-8.9 4.7-16.7 11.8-21.1-4.2-3.5-9.7-5.6-15.6-5.6-13.6 0-24.7 11-24.7 24.7 0 13.6 11 24.7 24.7 24.7 4.7 0 9.1-1.3 12.9-3.6-5.6-4.5-9.1-11.4-9.1-19.1zM55.1 3.8c-4.7 0-9.1 1.3-12.8 3.6 5.5 4.5 9 11.4 9 19.1 0 8.9-4.7 16.7-11.8 21.1 4.3 3.5 9.7 5.6 15.6 5.6 13.6 0 24.6-11 24.6-24.6S68.7 3.8 55.1 3.8z"/></svg></svg>